<?xml version="1.0" encoding="UTF-8" standalone="no"?>
<svg
   xmlns:dc="http://purl.org/dc/elements/1.1/"
   xmlns:cc="http://creativecommons.org/ns#"
   xmlns:rdf="http://www.w3.org/1999/02/22-rdf-syntax-ns#"
   xmlns:svg="http://www.w3.org/2000/svg"
   xmlns="http://www.w3.org/2000/svg"
   xmlns:sodipodi="http://sodipodi.sourceforge.net/DTD/sodipodi-0.dtd"
   xmlns:inkscape="http://www.inkscape.org/namespaces/inkscape"
   version="1.1"
   id="Layer_1"
   x="0px"
   y="0px"
   viewBox="0 0 828.51 296.47"
   style="enable-background:new 0 0 828.51 296.47;"
   xml:space="preserve"
   sodipodi:docname="odb-2-row-major.svg"
   inkscape:version="1.0.2 (e86c8708, 2021-01-15)"><metadata
   id="metadata566"><rdf:RDF><cc:Work
       rdf:about=""><dc:format>image/svg+xml</dc:format><dc:type
         rdf:resource="http://purl.org/dc/dcmitype/StillImage" /><dc:title></dc:title></cc:Work></rdf:RDF></metadata><defs
   id="defs564" /><sodipodi:namedview
   pagecolor="#ffffff"
   bordercolor="#666666"
   borderopacity="1"
   objecttolerance="10"
   gridtolerance="10"
   guidetolerance="10"
   inkscape:pageopacity="0"
   inkscape:pageshadow="2"
   inkscape:window-width="689"
   inkscape:window-height="480"
   id="namedview562"
   showgrid="false"
   inkscape:zoom="1.2697493"
   inkscape:cx="414.255"
   inkscape:cy="148.235"
   inkscape:window-x="0"
   inkscape:window-y="25"
   inkscape:window-maximized="0"
   inkscape:current-layer="Layer_1" />
<style
   type="text/css"
   id="style460">
	.st0{fill:none;stroke:#CCCCCC;stroke-width:17;stroke-linejoin:bevel;}
	.st1{fill:#CCCCCC;}
	.st2{fill:none;stroke:#000000;stroke-width:2;stroke-miterlimit:10;}
	.st3{fill:#3FA9F5;}
	.st4{fill:#FF7BAC;}
	.st5{fill:none;stroke:#3FA9F5;stroke-width:2;stroke-miterlimit:10;}
</style>
<g
   id="g476">
	<g
   id="g474">
		<g
   id="g472">
			<polyline
   class="st0"
   points="736.19,273.5 167.53,273.5 763.03,229.5 167.53,229.5 763.03,185.5 167.53,185.5 763.03,141.5      167.53,141.5 763.03,97.5 167.53,97.5 763.03,53.5 170.33,53.5    "
   id="polyline462" />
			<g
   id="g466">
				<polygon
   class="st1"
   points="730.73,254.85 763.03,273.5 730.73,292.15     "
   id="polygon464" />
			</g>
			<g
   id="g470">
				<rect
   x="167.53"
   y="35.27"
   class="st1"
   width="5.61"
   height="36.46"
   id="rect468" />
			</g>
		</g>
	</g>
</g>
<g
   id="g500">
	<rect
   x="107.53"
   y="31.5"
   class="st2"
   width="715"
   height="264"
   id="rect478" />
	<line
   class="st2"
   x1="107.53"
   y1="251.5"
   x2="822.53"
   y2="251.5"
   id="line480" />
	<line
   class="st2"
   x1="107.53"
   y1="207.5"
   x2="822.53"
   y2="207.5"
   id="line482" />
	<line
   class="st2"
   x1="107.53"
   y1="163.5"
   x2="822.53"
   y2="163.5"
   id="line484" />
	<line
   class="st2"
   x1="107.53"
   y1="119.5"
   x2="822.53"
   y2="119.5"
   id="line486" />
	<line
   class="st2"
   x1="107.53"
   y1="75.5"
   x2="822.53"
   y2="75.5"
   id="line488" />
	<line
   class="st2"
   x1="703.36"
   y1="31.5"
   x2="703.36"
   y2="295.5"
   id="line490" />
	<line
   class="st2"
   x1="584.2"
   y1="31.5"
   x2="584.2"
   y2="295.5"
   id="line492" />
	<line
   class="st2"
   x1="465.03"
   y1="31.5"
   x2="465.03"
   y2="295.5"
   id="line494" />
	<line
   class="st2"
   x1="345.86"
   y1="31.5"
   x2="345.86"
   y2="295.5"
   id="line496" />
	<line
   class="st2"
   x1="226.7"
   y1="31.5"
   x2="226.7"
   y2="295.5"
   id="line498" />
</g>
<g
   id="Arrow_31">
</g>
<g
   id="g517">
	<g
   id="g515">
		<path
   class="st3"
   d="M438.53,20.04c-1.39,0-2.62-0.13-3.7-0.4s-2.15-0.77-3.22-1.5v-4.43h3.18l0.35,2.27    c0.25,0.28,0.69,0.52,1.32,0.71s1.32,0.29,2.07,0.29c0.52,0,0.96-0.06,1.31-0.19s0.62-0.32,0.8-0.57s0.27-0.55,0.27-0.9    c0-0.34-0.08-0.64-0.25-0.9s-0.44-0.52-0.83-0.76s-0.9-0.48-1.55-0.73c-1.46-0.47-2.66-0.95-3.6-1.43s-1.63-1.06-2.09-1.72    s-0.69-1.49-0.69-2.47c0-0.95,0.27-1.77,0.81-2.48s1.28-1.26,2.23-1.67s2.03-0.62,3.25-0.64c1.39-0.03,2.62,0.11,3.69,0.42    s2.02,0.78,2.84,1.4v4.11h-3.05l-0.48-2.29c-0.27-0.13-0.64-0.25-1.14-0.36s-1.02-0.16-1.57-0.16c-0.48,0-0.9,0.06-1.27,0.19    s-0.66,0.31-0.88,0.56s-0.32,0.56-0.32,0.94c0,0.3,0.09,0.58,0.27,0.81s0.5,0.48,0.95,0.71s1.09,0.51,1.9,0.83    c1.94,0.57,3.41,1.28,4.41,2.14s1.51,2.02,1.51,3.49c0,1.01-0.27,1.87-0.82,2.57s-1.31,1.25-2.29,1.62S439.83,20.04,438.53,20.04z    "
   id="path503" />
		<path
   class="st3"
   d="M451.46,20.06c-1.33,0-2.34-0.35-3.03-1.06s-1.04-1.83-1.04-3.36v-5.7h-1.58V7.11h1.58V3.98h4.09v3.13h2.07    v2.84h-2.07v5.68c0,0.41,0.09,0.7,0.28,0.87s0.45,0.25,0.77,0.25c0.14,0,0.28-0.01,0.42-0.02s0.28-0.04,0.42-0.06l0.28,3.07    c-0.36,0.1-0.72,0.18-1.08,0.24S451.84,20.06,451.46,20.06z"
   id="path505" />
		<path
   class="st3"
   d="M455.24,19.79v-2.4l1.48-0.38V9.9l-1.76-0.38V7.11h5.64l0.09,1.55l0.02,0.32c0.28-0.72,0.63-1.25,1.05-1.59    s0.94-0.51,1.56-0.51c0.17,0,0.38,0.01,0.61,0.04s0.47,0.08,0.71,0.15l-0.41,3.77l-1.76-0.08c-0.41-0.02-0.72,0.03-0.96,0.13    s-0.46,0.28-0.7,0.52v5.6l1.48,0.38v2.4H455.24z"
   id="path507" />
		<path
   class="st3"
   d="M465.31,19.79v-2.4l1.49-0.38V9.9l-1.77-0.38V7.11h5.88v9.9l1.48,0.38v2.4H465.31z M466.68,4.71v-3.2h4.23    v3.2H466.68z"
   id="path509" />
		<path
   class="st3"
   d="M478.06,20.04c-0.99,0-1.85-0.26-2.56-0.79s-1.26-1.26-1.64-2.21s-0.57-2.06-0.57-3.32v-0.25    c0-1.32,0.19-2.47,0.57-3.46s0.93-1.76,1.63-2.31s1.54-0.83,2.51-0.83c0.67,0,1.25,0.14,1.74,0.42s0.92,0.67,1.28,1.17V4.3    l-1.78-0.38V1.51h1.78h4.11v15.5l1.48,0.38v2.4h-5.04l-0.3-1.57c-0.38,0.59-0.84,1.04-1.36,1.35S478.78,20.04,478.06,20.04z     M479.34,16.88c0.34,0,0.66-0.07,0.96-0.2s0.54-0.33,0.74-0.6v-5.07c-0.2-0.32-0.44-0.56-0.72-0.73s-0.6-0.25-0.96-0.25    c-0.47,0-0.85,0.14-1.14,0.43s-0.5,0.69-0.63,1.21s-0.19,1.12-0.19,1.8v0.25c0,1.01,0.14,1.79,0.42,2.34    S478.61,16.88,479.34,16.88z"
   id="path511" />
		<path
   class="st3"
   d="M493.66,20.04c-1.24,0-2.33-0.27-3.25-0.8s-1.64-1.27-2.16-2.2s-0.77-1.98-0.77-3.15v-0.43    c0-1.29,0.23-2.43,0.68-3.42s1.12-1.77,1.99-2.33s1.95-0.83,3.22-0.83c1.15,0,2.12,0.22,2.91,0.66s1.4,1.09,1.81,1.95    s0.62,1.91,0.62,3.16v2.12h-6.97l-0.01,0.08c0.06,0.4,0.2,0.75,0.4,1.06s0.49,0.55,0.86,0.73s0.82,0.27,1.36,0.27    c0.53,0,1.05-0.06,1.56-0.18s1.05-0.31,1.62-0.58l0.94,2.48c-0.57,0.41-1.27,0.74-2.09,1.01S494.67,20.04,493.66,20.04z     M491.75,12.22h3.22v-0.3c0-0.45-0.04-0.83-0.13-1.14s-0.24-0.54-0.46-0.69s-0.52-0.23-0.9-0.23c-0.41,0-0.74,0.1-0.99,0.3    s-0.43,0.47-0.54,0.82s-0.19,0.74-0.24,1.19L491.75,12.22z"
   id="path513" />
	</g>
</g>
<g
   id="g521">
	<path
   class="st4"
   d="M822.53,31.5v44h-715v-44H822.53 M828.53,25.5h-6h-715h-6v6v44v6h6h715h6v-6v-44V25.5L828.53,25.5z"
   id="path519" />
</g>
<line
   class="st5"
   x1="107.53"
   y1="31.5"
   x2="107.53"
   y2="0"
   id="line523" />
<line
   class="st5"
   x1="822.53"
   y1="31.5"
   x2="822.53"
   y2="0.5"
   id="line525" />
<g
   id="g535">
	<g
   id="g533">
		<line
   class="st5"
   x1="506.88"
   y1="13"
   x2="808.18"
   y2="13"
   id="line527" />
		<g
   id="g531">
			<polygon
   class="st3"
   points="805.26,22.97 822.53,13 805.26,3.03    "
   id="polygon529" />
		</g>
	</g>
</g>
<g
   id="g545">
	<g
   id="g543">
		<line
   class="st5"
   x1="121.88"
   y1="13"
   x2="421.79"
   y2="13"
   id="line537" />
		<g
   id="g541">
			<polygon
   class="st3"
   points="124.8,22.97 107.53,13 124.8,3.03    "
   id="polygon539" />
		</g>
	</g>
</g>
<g
   id="g559">
	<g
   id="g557">
		<path
   class="st4"
   d="M26.65,61.79v-2.4l1.77-0.38v-11.5l-1.77-0.38v-2.41h1.77h5.95c2.15,0,3.82,0.39,5.03,1.18s1.8,1.96,1.8,3.53    c0,0.8-0.19,1.53-0.57,2.16s-0.97,1.12-1.77,1.45c0.68,0.15,1.23,0.4,1.66,0.76s0.75,0.79,0.95,1.29s0.3,1.05,0.3,1.63    c0,1.67-0.56,2.93-1.68,3.79s-2.74,1.28-4.86,1.28H26.65z M32.53,51.81h1.66c0.97,0,1.69-0.15,2.17-0.46s0.72-0.79,0.72-1.44    c0-0.71-0.22-1.23-0.67-1.55s-1.13-0.49-2.04-0.49h-1.84V51.81z M32.53,58.66h2.71c0.81,0,1.42-0.16,1.83-0.48    s0.62-0.81,0.62-1.46c0-0.49-0.08-0.9-0.23-1.22s-0.4-0.57-0.73-0.73s-0.76-0.24-1.29-0.24h-2.91V58.66z"
   id="path547" />
		<path
   class="st4"
   d="M42.52,61.79v-2.4l1.5-0.38V46.3l-1.78-0.38v-2.41h5.89v15.5l1.49,0.38v2.4H42.52z"
   id="path549" />
		<path
   class="st4"
   d="M56.65,62.04c-1.3,0-2.42-0.27-3.35-0.81s-1.63-1.3-2.12-2.27s-0.73-2.1-0.73-3.38v-0.23    c0-1.27,0.24-2.38,0.73-3.35s1.19-1.73,2.12-2.28s2.03-0.83,3.33-0.83c1.3,0,2.42,0.27,3.33,0.82s1.62,1.3,2.11,2.27    s0.73,2.09,0.73,3.36v0.23c0,1.27-0.24,2.4-0.73,3.37s-1.19,1.73-2.11,2.28S57.94,62.04,56.65,62.04z M56.65,58.91    c0.5,0,0.9-0.13,1.2-0.4s0.52-0.65,0.66-1.15s0.21-1.09,0.21-1.78v-0.23c0-0.66-0.07-1.24-0.21-1.74s-0.36-0.88-0.66-1.16    s-0.71-0.42-1.22-0.42c-0.5,0-0.9,0.14-1.21,0.42s-0.52,0.66-0.66,1.16s-0.2,1.08-0.2,1.74v0.23c0,0.7,0.07,1.29,0.2,1.79    s0.35,0.88,0.66,1.15S56.13,58.91,56.65,58.91z"
   id="path551" />
		<path
   class="st4"
   d="M70.27,62.04c-1.26,0-2.34-0.28-3.25-0.83s-1.6-1.32-2.09-2.29s-0.73-2.07-0.73-3.32v-0.27    c0-1.27,0.25-2.39,0.76-3.36s1.21-1.73,2.11-2.27s1.96-0.82,3.16-0.82c1.21,0,2.25,0.18,3.11,0.55s1.54,0.75,2.04,1.15l-0.07,4    h-3.06l-0.49-2.3c-0.13-0.13-0.31-0.24-0.53-0.33s-0.41-0.13-0.56-0.13c-0.59,0-1.05,0.13-1.39,0.38s-0.59,0.64-0.74,1.15    s-0.22,1.18-0.22,1.98v0.27c0,0.84,0.1,1.49,0.3,1.97s0.45,0.82,0.76,1.03s0.62,0.3,0.94,0.3c0.49,0,0.87-0.12,1.14-0.37    s0.48-0.61,0.63-1.08h3.45l0.05,0.07c-0.19,1.01-0.48,1.85-0.88,2.51s-0.95,1.17-1.66,1.5S71.41,62.04,70.27,62.04z"
   id="path553" />
		<path
   class="st4"
   d="M76.72,61.79v-2.4l1.5-0.38V46.3l-1.78-0.38v-2.41h5.87v15.5l1.21,0.38v2.4H76.72z M81.83,58.45l-2.13-1.97    l5.51-4.77V51.7l-1.27-0.21v-2.38h7.3v2.41l-1.64,0.48L81.83,58.45z M84.75,61.79v-2.24l0.77-0.27l-0.02-0.05l-1.79-2.59    l2.79-2.48l3.56,4.8l1.42,0.42v2.4H84.75z"
   id="path555" />
	</g>
</g>
</svg>
