<?xml version="1.0" encoding="UTF-8" standalone="no"?>
<svg
   xmlns:dc="http://purl.org/dc/elements/1.1/"
   xmlns:cc="http://creativecommons.org/ns#"
   xmlns:rdf="http://www.w3.org/1999/02/22-rdf-syntax-ns#"
   xmlns:svg="http://www.w3.org/2000/svg"
   xmlns="http://www.w3.org/2000/svg"
   xmlns:xlink="http://www.w3.org/1999/xlink"
   xmlns:sodipodi="http://sodipodi.sourceforge.net/DTD/sodipodi-0.dtd"
   xmlns:inkscape="http://www.inkscape.org/namespaces/inkscape"
   version="1.1"
   id="Layer_1"
   x="0px"
   y="0px"
   viewBox="0 0 1280 378"
   style="enable-background:new 0 0 1280 378;"
   xml:space="preserve"
   sodipodi:docname="odb-2-message-stream.svg"
   inkscape:version="1.0.2 (e86c8708, 2021-01-15)"><metadata
   id="metadata958"><rdf:RDF><cc:Work
       rdf:about=""><dc:format>image/svg+xml</dc:format><dc:type
         rdf:resource="http://purl.org/dc/dcmitype/StillImage" /><dc:title></dc:title></cc:Work></rdf:RDF></metadata><defs
   id="defs956" /><sodipodi:namedview
   pagecolor="#ffffff"
   bordercolor="#666666"
   borderopacity="1"
   objecttolerance="10"
   gridtolerance="10"
   guidetolerance="10"
   inkscape:pageopacity="0"
   inkscape:pageshadow="2"
   inkscape:window-width="1745"
   inkscape:window-height="1012"
   id="namedview954"
   showgrid="false"
   inkscape:zoom="0.82265625"
   inkscape:cx="640"
   inkscape:cy="189"
   inkscape:window-x="0"
   inkscape:window-y="25"
   inkscape:window-maximized="0"
   inkscape:current-layer="Layer_1" />
<style
   type="text/css"
   id="style503">
	.st0{clip-path:url(#SVGID_2_);}
	.st1{fill:#FF7BAC;}
	.st2{fill:#3FA9F5;}
	.st3{fill:#7AC943;}
	.st4{fill:none;stroke:#000000;stroke-width:2;stroke-miterlimit:10;}
	.st5{fill:#E6E6E6;}
	.st6{fill:#CCCCCC;}
	.st7{fill:#999999;}
	.st8{fill:none;stroke:#999999;stroke-width:2;stroke-miterlimit:10;}
	.st9{fill:none;stroke:url(#SVGID_3_);stroke-width:48;stroke-miterlimit:10;}
	.st10{fill:url(#SVGID_4_);}
</style>
<g
   id="g951">
	<defs
   id="defs506"><rect
     id="SVGID_1_"
     width="1280"
     height="378" /></defs>
	<clipPath
   id="SVGID_2_">
		<use
   xlink:href="#SVGID_1_"
   style="overflow:visible;"
   id="use508" />
	</clipPath>
	<g
   class="st0"
   clip-path="url(#SVGID_2_)"
   id="g637">
		<rect
   x="300"
   y="93"
   class="st1"
   width="495"
   height="285"
   id="rect511" />
		<rect
   x="324"
   y="137"
   class="st2"
   width="165"
   height="220"
   id="rect513" />
		<rect
   x="511"
   y="137"
   transform="matrix(-1 -1.224647e-16 1.224647e-16 -1 1282 494)"
   class="st3"
   width="260"
   height="220"
   id="rect515" />
		<g
   id="g531">
			<g
   id="g529">
				<path
   d="M337.47,167.29v-2.4l1.77-0.38v-11.5l-1.77-0.38v-2.41h7.65v2.41l-1.77,0.38v4.31h6.21v-4.31l-1.77-0.38v-2.41h1.77h4.1      h1.77v2.41l-1.77,0.38v11.5l1.77,0.38v2.4h-7.64v-2.4l1.77-0.38v-4.03h-6.21v4.03l1.77,0.38v2.4H337.47z"
   id="path517" />
				<path
   d="M362.82,167.54c-1.24,0-2.33-0.27-3.25-0.8s-1.64-1.27-2.16-2.2s-0.77-1.98-0.77-3.15v-0.43c0-1.29,0.23-2.43,0.68-3.42      s1.12-1.77,1.99-2.33s1.95-0.83,3.22-0.83c1.15,0,2.12,0.22,2.91,0.66s1.4,1.09,1.81,1.95s0.62,1.91,0.62,3.16v2.12h-6.97      l-0.01,0.08c0.06,0.4,0.2,0.75,0.4,1.06s0.49,0.55,0.86,0.73s0.82,0.27,1.36,0.27c0.53,0,1.05-0.06,1.56-0.18      s1.05-0.31,1.62-0.58l0.94,2.48c-0.57,0.41-1.27,0.74-2.09,1.01S363.82,167.54,362.82,167.54z M360.91,159.72h3.22v-0.3      c0-0.45-0.04-0.83-0.13-1.14s-0.24-0.54-0.46-0.69s-0.52-0.23-0.9-0.23c-0.41,0-0.74,0.1-0.99,0.3s-0.43,0.47-0.54,0.82      s-0.19,0.74-0.24,1.19L360.91,159.72z"
   id="path519" />
				<path
   d="M373.67,167.54c-1.23,0-2.23-0.35-3-1.04s-1.16-1.62-1.16-2.78c0-0.79,0.21-1.49,0.64-2.1s1.07-1.09,1.92-1.44      s1.93-0.52,3.22-0.52h1.32v-0.75c0-0.51-0.14-0.94-0.43-1.29s-0.75-0.53-1.37-0.53c-0.27,0-0.51,0.03-0.74,0.1      s-0.44,0.16-0.63,0.29l-0.28,1.62h-2.89l-0.06-3.53c0.72-0.32,1.47-0.6,2.26-0.83s1.66-0.35,2.63-0.35c1.73,0,3.1,0.4,4.11,1.19      s1.52,1.92,1.52,3.39v4.68c0,0.18,0,0.36,0.01,0.53s0.02,0.34,0.05,0.49l1.37,0.23v2.4h-4.8c-0.1-0.14-0.21-0.33-0.33-0.56      s-0.2-0.47-0.25-0.7c-0.38,0.48-0.81,0.85-1.29,1.11S374.4,167.54,373.67,167.54z M374.93,164.63c0.3,0,0.6-0.06,0.9-0.18      s0.56-0.3,0.78-0.54v-1.83h-1.28c-0.55,0-0.98,0.12-1.28,0.36s-0.45,0.56-0.45,0.96c0,0.38,0.12,0.68,0.38,0.9      S374.54,164.63,374.93,164.63z"
   id="path521" />
				<path
   d="M387.82,167.54c-0.99,0-1.85-0.26-2.56-0.79s-1.26-1.26-1.64-2.21s-0.57-2.06-0.57-3.32v-0.25      c0-1.32,0.19-2.47,0.57-3.46s0.93-1.76,1.63-2.31s1.54-0.83,2.51-0.83c0.67,0,1.25,0.14,1.74,0.42s0.92,0.67,1.28,1.17v-4.16      l-1.78-0.38v-2.41h1.78h4.11v15.5l1.48,0.38v2.4h-5.04l-0.3-1.57c-0.38,0.59-0.84,1.04-1.36,1.35S388.54,167.54,387.82,167.54z       M389.1,164.38c0.34,0,0.66-0.07,0.96-0.2s0.54-0.33,0.74-0.6v-5.07c-0.2-0.32-0.44-0.56-0.72-0.73s-0.6-0.25-0.96-0.25      c-0.47,0-0.85,0.14-1.14,0.43s-0.5,0.69-0.63,1.21s-0.19,1.12-0.19,1.8v0.25c0,1.01,0.14,1.79,0.42,2.34      S388.38,164.38,389.1,164.38z"
   id="path523" />
				<path
   d="M403.42,167.54c-1.24,0-2.33-0.27-3.25-0.8s-1.64-1.27-2.16-2.2s-0.77-1.98-0.77-3.15v-0.43c0-1.29,0.23-2.43,0.68-3.42      s1.12-1.77,1.99-2.33s1.95-0.83,3.22-0.83c1.15,0,2.12,0.22,2.91,0.66s1.4,1.09,1.81,1.95s0.62,1.91,0.62,3.16v2.12h-6.97      l-0.01,0.08c0.06,0.4,0.2,0.75,0.4,1.06s0.49,0.55,0.86,0.73s0.82,0.27,1.36,0.27c0.53,0,1.05-0.06,1.56-0.18      s1.05-0.31,1.62-0.58l0.94,2.48c-0.57,0.41-1.27,0.74-2.09,1.01S404.43,167.54,403.42,167.54z M401.51,159.72h3.22v-0.3      c0-0.45-0.04-0.83-0.13-1.14s-0.24-0.54-0.46-0.69s-0.52-0.23-0.9-0.23c-0.41,0-0.74,0.1-0.99,0.3s-0.43,0.47-0.54,0.82      s-0.19,0.74-0.24,1.19L401.51,159.72z"
   id="path525" />
				<path
   d="M410.37,167.29v-2.4l1.48-0.38v-7.11l-1.76-0.38v-2.41h5.64l0.09,1.55l0.02,0.32c0.28-0.72,0.63-1.25,1.05-1.59      s0.94-0.51,1.56-0.51c0.17,0,0.38,0.01,0.61,0.04s0.47,0.08,0.71,0.15l-0.41,3.77l-1.76-0.08c-0.41-0.02-0.72,0.03-0.96,0.13      s-0.46,0.28-0.7,0.52v5.6l1.48,0.38v2.4H410.37z"
   id="path527" />
			</g>
		</g>
		<g
   id="g547">
			<g
   id="g545">
				<g
   id="g543">
					<path
   d="M324.47,124.29v-2.4l1.77-0.38v-11.5l-1.77-0.38v-2.41h14.05v5.03h-3.11l-0.08-1.86h-4.98v3.95h5.8v3.14h-5.8v4.03       l1.77,0.38v2.4H324.47z"
   id="path533" />
					<path
   d="M339.98,124.29v-2.4l1.48-0.38v-7.11l-1.76-0.38v-2.41h5.64l0.09,1.55l0.02,0.32c0.28-0.72,0.63-1.25,1.05-1.59       s0.94-0.51,1.56-0.51c0.17,0,0.38,0.01,0.61,0.04s0.47,0.08,0.71,0.15l-0.41,3.77l-1.76-0.08c-0.41-0.02-0.72,0.03-0.96,0.13       s-0.46,0.28-0.7,0.52v5.6l1.48,0.38v2.4H339.98z"
   id="path535" />
					<path
   d="M354.5,124.54c-1.23,0-2.23-0.35-3-1.04s-1.16-1.62-1.16-2.78c0-0.79,0.21-1.49,0.64-2.1s1.07-1.09,1.92-1.44       s1.93-0.52,3.22-0.52h1.32v-0.75c0-0.51-0.14-0.94-0.43-1.29s-0.75-0.53-1.37-0.53c-0.27,0-0.51,0.03-0.74,0.1       s-0.44,0.16-0.63,0.29l-0.28,1.62h-2.89l-0.06-3.53c0.72-0.32,1.47-0.6,2.26-0.83s1.66-0.35,2.63-0.35       c1.73,0,3.1,0.4,4.11,1.19s1.52,1.92,1.52,3.39v4.68c0,0.18,0,0.36,0.01,0.53s0.02,0.34,0.05,0.49l1.37,0.23v2.4h-4.8       c-0.1-0.14-0.21-0.33-0.33-0.56s-0.2-0.47-0.25-0.7c-0.38,0.48-0.81,0.85-1.29,1.11S355.24,124.54,354.5,124.54z        M355.77,121.63c0.3,0,0.6-0.06,0.9-0.18s0.56-0.3,0.78-0.54v-1.83h-1.28c-0.55,0-0.98,0.12-1.28,0.36s-0.45,0.56-0.45,0.96       c0,0.38,0.12,0.68,0.38,0.9S355.38,121.63,355.77,121.63z"
   id="path537" />
					<path
   d="M363.63,124.29v-2.4l1.5-0.38v-7.11l-1.78-0.38v-2.41h5.64l0.13,1.69c0.41-0.61,0.92-1.08,1.51-1.42s1.28-0.5,2.06-0.5       c0.79,0,1.47,0.17,2.03,0.51s0.99,0.86,1.28,1.55c0.38-0.66,0.88-1.16,1.48-1.52s1.32-0.54,2.14-0.54       c1.23,0,2.19,0.41,2.89,1.24s1.05,2.1,1.05,3.82v5.07l1.5,0.38v2.4h-6.81v-2.4l1.21-0.38v-5.07c0-0.74-0.12-1.25-0.35-1.51       s-0.56-0.4-1-0.4c-0.36,0-0.68,0.07-0.97,0.21s-0.54,0.33-0.76,0.59v6.19l1.05,0.38v2.4h-6.2v-2.4l1.05-0.38v-5.07       c0-0.74-0.11-1.25-0.34-1.51s-0.57-0.4-1.02-0.4c-0.35,0-0.67,0.07-0.96,0.21s-0.54,0.34-0.76,0.6v6.18l1.21,0.38v2.4H363.63z"
   id="path539" />
					<path
   d="M392.13,124.54c-1.24,0-2.33-0.27-3.25-0.8s-1.64-1.27-2.16-2.2s-0.77-1.98-0.77-3.15v-0.43       c0-1.29,0.23-2.43,0.68-3.42s1.12-1.77,1.99-2.33s1.95-0.83,3.22-0.83c1.15,0,2.12,0.22,2.91,0.66s1.4,1.09,1.81,1.95       s0.62,1.91,0.62,3.16v2.12h-6.97l-0.01,0.08c0.06,0.4,0.2,0.75,0.4,1.06s0.49,0.55,0.86,0.73s0.82,0.27,1.36,0.27       c0.53,0,1.05-0.06,1.56-0.18s1.05-0.31,1.62-0.58l0.94,2.48c-0.57,0.41-1.27,0.74-2.09,1.01S393.14,124.54,392.13,124.54z        M390.22,116.72h3.22v-0.3c0-0.45-0.04-0.83-0.13-1.14s-0.24-0.54-0.46-0.69s-0.52-0.23-0.9-0.23c-0.41,0-0.74,0.1-0.99,0.3       s-0.43,0.47-0.54,0.82s-0.19,0.74-0.24,1.19L390.22,116.72z"
   id="path541" />
				</g>
			</g>
		</g>
		<g
   id="g599">
			<g
   id="g597">
				<path
   d="M339.41,200.9v-5.1h6.13v5.1H339.41z"
   id="path549" />
				<path
   d="M360.6,206.51c-1.47,0-2.73-0.31-3.77-0.94c-1.04-0.63-1.84-1.5-2.39-2.62s-0.83-2.43-0.83-3.92v-0.38      c0-1.46,0.27-2.75,0.82-3.87c0.55-1.12,1.33-2.01,2.35-2.66c1.02-0.65,2.24-0.97,3.65-0.97c0.99,0,1.91,0.15,2.76,0.44      s1.59,0.71,2.21,1.24v3.45h-1.97l-0.27-2.31c-0.23-0.16-0.48-0.3-0.75-0.42s-0.57-0.21-0.9-0.27c-0.33-0.06-0.68-0.09-1.06-0.09      c-0.9,0-1.66,0.23-2.3,0.68c-0.64,0.45-1.13,1.08-1.46,1.9s-0.5,1.77-0.5,2.86v0.4c0,1.13,0.18,2.11,0.53,2.93      c0.36,0.82,0.87,1.44,1.53,1.88c0.67,0.44,1.46,0.66,2.39,0.66c0.45,0,0.9-0.05,1.34-0.16c0.44-0.11,0.83-0.24,1.16-0.42      l0.28-2.09h1.95v3.42c-0.57,0.38-1.28,0.68-2.11,0.91C362.45,206.39,361.56,206.51,360.6,206.51z"
   id="path551" />
				<path
   d="M372.24,206.51c-1.07,0-1.98-0.24-2.75-0.72s-1.35-1.14-1.76-1.99c-0.41-0.85-0.62-1.83-0.62-2.94v-0.22      c0-1.1,0.21-2.07,0.62-2.92s1-1.51,1.76-2s1.67-0.73,2.73-0.73c1.07,0,1.98,0.24,2.75,0.72c0.77,0.48,1.35,1.15,1.76,1.99      s0.62,1.83,0.62,2.93v0.22c0,1.11-0.21,2.09-0.62,2.94c-0.41,0.85-1,1.52-1.76,1.99S373.3,206.51,372.24,206.51z M372.24,204.52      c0.57,0,1.05-0.16,1.42-0.47s0.65-0.74,0.84-1.29s0.28-1.18,0.28-1.9v-0.22c0-0.71-0.09-1.34-0.28-1.89s-0.46-0.98-0.84-1.29      s-0.85-0.47-1.44-0.47c-0.57,0-1.04,0.16-1.42,0.47s-0.65,0.75-0.84,1.29s-0.27,1.18-0.27,1.89v0.22c0,0.72,0.09,1.35,0.27,1.9      s0.46,0.98,0.84,1.29C371.19,204.36,371.66,204.52,372.24,204.52z"
   id="path553" />
				<path
   d="M378.64,206.29v-1.58l1.55-0.31v-12.21l-1.64-0.31v-1.59h4.21v14.11l1.55,0.31v1.58H378.64z"
   id="path555" />
				<path
   d="M390.25,206.51c-1.19,0-2.12-0.38-2.78-1.13c-0.67-0.75-1-1.93-1-3.52v-4.76l-1.25-0.31v-1.59h1.25h2.58v6.68      c0,0.96,0.15,1.63,0.46,2.02c0.3,0.39,0.77,0.58,1.41,0.58c0.56,0,1.04-0.11,1.43-0.33s0.71-0.54,0.94-0.95v-6.09l-1.39-0.31      v-1.59h1.39h2.58v9.21l1.31,0.31v1.58h-3.6l-0.17-1.51c-0.35,0.55-0.79,0.98-1.33,1.28      C391.55,206.36,390.94,206.51,390.25,206.51z"
   id="path557" />
				<path
   d="M398.34,206.29v-1.58l1.55-0.31v-7.31l-1.63-0.31v-1.59h4l0.12,1.46c0.36-0.53,0.81-0.93,1.36-1.23      c0.54-0.29,1.17-0.44,1.89-0.44c0.72,0,1.34,0.16,1.86,0.49c0.52,0.32,0.91,0.81,1.17,1.47c0.34-0.61,0.79-1.09,1.35-1.44      c0.56-0.35,1.21-0.52,1.96-0.52c1.11,0,1.99,0.38,2.63,1.14c0.64,0.76,0.96,1.91,0.96,3.45v4.83l1.55,0.31v1.58h-5.59v-1.58      l1.46-0.31v-4.84c0-0.94-0.16-1.59-0.47-1.97s-0.78-0.56-1.38-0.56c-0.57,0-1.03,0.18-1.4,0.54c-0.37,0.36-0.6,0.82-0.71,1.38      v5.44l1.4,0.31v1.58h-5.38v-1.58l1.4-0.31v-4.84c0-0.9-0.16-1.55-0.48-1.94c-0.32-0.39-0.79-0.59-1.39-0.59      c-0.51,0-0.93,0.1-1.28,0.31c-0.35,0.21-0.62,0.5-0.83,0.87v6.19l1.45,0.31v1.58H398.34z"
   id="path559" />
				<path
   d="M418.26,206.29v-1.58l1.54-0.31v-7.31l-1.62-0.31v-1.59h4l0.13,1.61c0.37-0.57,0.83-1.02,1.38-1.34      c0.55-0.32,1.17-0.48,1.87-0.48c1.14,0,2.03,0.35,2.67,1.05c0.64,0.7,0.95,1.8,0.95,3.29v5.08l1.54,0.31v1.58h-5.57v-1.58      l1.45-0.31v-5.06c0-0.84-0.17-1.44-0.5-1.79c-0.33-0.35-0.83-0.53-1.5-0.53c-0.5,0-0.94,0.11-1.31,0.33      c-0.37,0.22-0.68,0.53-0.91,0.93v6.11l1.4,0.31v1.58H418.26z"
   id="path561" />
				<path
   d="M436.53,206.51c-0.79,0-1.53-0.08-2.22-0.23c-0.69-0.15-1.38-0.38-2.07-0.68l-0.03-2.93h1.86l0.39,1.6      c0.29,0.13,0.6,0.23,0.91,0.3c0.31,0.07,0.66,0.11,1.04,0.11c0.74,0,1.26-0.13,1.56-0.39c0.3-0.26,0.46-0.58,0.46-0.96      c0-0.37-0.16-0.69-0.48-0.95c-0.32-0.26-0.92-0.49-1.82-0.68c-1.33-0.29-2.3-0.71-2.93-1.26c-0.62-0.55-0.94-1.27-0.94-2.15      c0-0.61,0.16-1.16,0.49-1.65s0.8-0.89,1.44-1.18c0.63-0.3,1.41-0.45,2.33-0.45c0.84,0,1.59,0.09,2.24,0.26      c0.65,0.17,1.21,0.41,1.67,0.69l0.06,2.82h-1.84l-0.32-1.47c-0.21-0.15-0.46-0.27-0.74-0.35s-0.6-0.12-0.96-0.12      c-0.57,0-1.02,0.12-1.34,0.37c-0.33,0.25-0.49,0.56-0.49,0.94c0,0.22,0.05,0.42,0.16,0.59c0.11,0.18,0.31,0.34,0.62,0.49      c0.3,0.15,0.75,0.29,1.34,0.43c1.44,0.33,2.47,0.77,3.1,1.31s0.93,1.25,0.93,2.14c0,0.99-0.36,1.8-1.09,2.44      S438.02,206.51,436.53,206.51z"
   id="path563" />
				<path
   d="M339.41,226.1v-5.1h6.13v5.1H339.41z"
   id="path565" />
				<path
   d="M360.6,231.71c-1.47,0-2.73-0.31-3.77-0.94c-1.04-0.63-1.84-1.5-2.39-2.62s-0.83-2.43-0.83-3.92v-0.38      c0-1.46,0.27-2.75,0.82-3.87c0.55-1.12,1.33-2.01,2.35-2.66c1.02-0.65,2.24-0.97,3.65-0.97c0.99,0,1.91,0.15,2.76,0.44      s1.59,0.71,2.21,1.24v3.45h-1.97l-0.27-2.31c-0.23-0.16-0.48-0.3-0.75-0.42s-0.57-0.21-0.9-0.27c-0.33-0.06-0.68-0.09-1.06-0.09      c-0.9,0-1.66,0.23-2.3,0.68c-0.64,0.45-1.13,1.08-1.46,1.9s-0.5,1.77-0.5,2.86v0.4c0,1.13,0.18,2.11,0.53,2.93      c0.36,0.82,0.87,1.44,1.53,1.88c0.67,0.44,1.46,0.66,2.39,0.66c0.45,0,0.9-0.05,1.34-0.16c0.44-0.11,0.83-0.24,1.16-0.42      l0.28-2.09h1.95v3.42c-0.57,0.38-1.28,0.68-2.11,0.91C362.45,231.59,361.56,231.71,360.6,231.71z"
   id="path567" />
				<path
   d="M372.24,231.71c-1.07,0-1.98-0.24-2.75-0.72s-1.35-1.14-1.76-1.99c-0.41-0.85-0.62-1.83-0.62-2.94v-0.22      c0-1.1,0.21-2.07,0.62-2.92s1-1.51,1.76-2s1.67-0.73,2.73-0.73c1.07,0,1.98,0.24,2.75,0.72c0.77,0.48,1.35,1.15,1.76,1.99      s0.62,1.83,0.62,2.93v0.22c0,1.11-0.21,2.09-0.62,2.94c-0.41,0.85-1,1.52-1.76,1.99S373.3,231.71,372.24,231.71z M372.24,229.72      c0.57,0,1.05-0.16,1.42-0.47s0.65-0.74,0.84-1.29s0.28-1.18,0.28-1.9v-0.22c0-0.71-0.09-1.34-0.28-1.89s-0.46-0.98-0.84-1.29      s-0.85-0.47-1.44-0.47c-0.57,0-1.04,0.16-1.42,0.47s-0.65,0.75-0.84,1.29s-0.27,1.18-0.27,1.89v0.22c0,0.72,0.09,1.35,0.27,1.9      s0.46,0.98,0.84,1.29C371.19,229.56,371.66,229.72,372.24,229.72z"
   id="path569" />
				<path
   d="M383.09,231.71c-0.9,0-1.66-0.23-2.3-0.68s-1.12-1.08-1.46-1.89c-0.34-0.81-0.51-1.75-0.51-2.83v-0.22      c0-1.18,0.17-2.21,0.51-3.1c0.34-0.88,0.83-1.57,1.47-2.06s1.4-0.74,2.28-0.74c0.64,0,1.19,0.12,1.67,0.36      c0.47,0.24,0.88,0.59,1.23,1.04v-4.2l-1.63-0.31v-1.59h1.63h2.58v14.11l1.54,0.31v1.58h-3.77l-0.21-1.34      c-0.35,0.51-0.77,0.9-1.28,1.16C384.33,231.57,383.75,231.71,383.09,231.71z M383.81,229.67c0.49,0,0.92-0.11,1.27-0.32      c0.36-0.21,0.65-0.53,0.88-0.94v-4.89c-0.23-0.4-0.52-0.71-0.88-0.94c-0.36-0.23-0.78-0.34-1.26-0.34      c-0.56,0-1.02,0.16-1.38,0.49c-0.36,0.33-0.62,0.78-0.79,1.35c-0.17,0.58-0.26,1.25-0.26,2.02v0.22c0,1.03,0.19,1.84,0.57,2.45      C382.35,229.36,382.97,229.67,383.81,229.67z"
   id="path571" />
				<path
   d="M396.43,231.71c-1.05,0-1.96-0.23-2.73-0.7c-0.78-0.47-1.38-1.12-1.8-1.94s-0.64-1.77-0.64-2.84v-0.43      c0-1.08,0.21-2.04,0.63-2.89c0.42-0.84,1-1.51,1.74-1.99c0.74-0.48,1.58-0.72,2.52-0.72c1,0,1.85,0.2,2.53,0.6      c0.68,0.4,1.19,0.98,1.54,1.72c0.35,0.74,0.52,1.63,0.52,2.67v1.48h-6.81l-0.02,0.05c0.03,0.58,0.15,1.1,0.36,1.55      c0.22,0.45,0.52,0.81,0.92,1.07c0.4,0.26,0.89,0.39,1.46,0.39c0.6,0,1.15-0.08,1.64-0.25s0.95-0.4,1.36-0.7l0.81,1.62      c-0.44,0.37-0.99,0.68-1.67,0.93S397.33,231.71,396.43,231.71z M393.97,224.85h4.3v-0.27c0-0.49-0.07-0.91-0.22-1.28      s-0.38-0.65-0.69-0.86c-0.31-0.21-0.71-0.31-1.18-0.31c-0.42,0-0.78,0.12-1.1,0.35s-0.57,0.55-0.75,0.95      c-0.19,0.4-0.32,0.85-0.38,1.36L393.97,224.85z"
   id="path573" />
				<path
   d="M407.33,231.71c-1.04,0-1.94-0.24-2.7-0.71s-1.35-1.13-1.76-1.97s-0.62-1.8-0.62-2.9v-0.36c0-1.07,0.21-2.03,0.62-2.87      s1-1.5,1.76-1.98c0.76-0.48,1.66-0.72,2.7-0.72c0.95,0,1.78,0.15,2.48,0.46c0.7,0.3,1.28,0.68,1.73,1.13l0.01,2.96h-1.97      l-0.38-1.96c-0.19-0.2-0.43-0.36-0.73-0.48c-0.29-0.12-0.62-0.18-0.96-0.18c-0.57,0-1.05,0.15-1.45,0.46      c-0.4,0.31-0.7,0.73-0.91,1.28c-0.21,0.54-0.31,1.18-0.31,1.9v0.36c0,0.78,0.11,1.44,0.32,1.97s0.51,0.94,0.89,1.21      c0.38,0.27,0.81,0.41,1.31,0.41c0.59,0,1.08-0.16,1.45-0.48s0.62-0.77,0.73-1.33h2.24l0.03,0.06c-0.08,0.72-0.3,1.37-0.64,1.93      c-0.35,0.56-0.83,1.01-1.46,1.33C409.07,231.55,408.28,231.71,407.33,231.71z"
   id="path575" />
				<path
   d="M417.88,231.71c-0.79,0-1.53-0.08-2.22-0.23c-0.69-0.15-1.38-0.38-2.07-0.68l-0.03-2.93h1.86l0.39,1.6      c0.29,0.13,0.6,0.23,0.91,0.3c0.31,0.07,0.66,0.11,1.04,0.11c0.74,0,1.26-0.13,1.56-0.39c0.3-0.26,0.46-0.58,0.46-0.96      c0-0.37-0.16-0.69-0.48-0.95c-0.32-0.26-0.92-0.49-1.82-0.68c-1.33-0.29-2.3-0.71-2.93-1.26c-0.62-0.55-0.94-1.27-0.94-2.15      c0-0.61,0.16-1.16,0.49-1.65s0.8-0.89,1.44-1.18c0.63-0.3,1.41-0.45,2.33-0.45c0.84,0,1.59,0.09,2.24,0.26      c0.65,0.17,1.21,0.41,1.67,0.69l0.06,2.82H420l-0.32-1.47c-0.21-0.15-0.46-0.27-0.74-0.35s-0.6-0.12-0.96-0.12      c-0.57,0-1.02,0.12-1.34,0.37c-0.33,0.25-0.49,0.56-0.49,0.94c0,0.22,0.05,0.42,0.16,0.59c0.11,0.18,0.31,0.34,0.62,0.49      c0.3,0.15,0.75,0.29,1.34,0.43c1.44,0.33,2.47,0.77,3.1,1.31s0.93,1.25,0.93,2.14c0,0.99-0.36,1.8-1.09,2.44      S419.37,231.71,417.88,231.71z"
   id="path577" />
				<path
   d="M339.41,251.3v-5.1h6.13v5.1H339.41z"
   id="path579" />
				<path
   d="M353.7,256.69v-1.58l1.62-0.31v-11.15l-1.62-0.31v-1.59h1.62h3.7l4.38,10.8h0.06l4.25-10.8h5.38v1.59l-1.63,0.31v11.15      l1.63,0.31v1.58h-5.83v-1.58l1.71-0.31v-3.48l0.02-6.53l-0.05-0.01l-4.62,11.57h-1.88l-4.76-11.5l-0.05,0.01l0.13,6.3v3.65      l1.77,0.31v1.58H353.7z"
   id="path581" />
				<path
   d="M379.68,256.91c-1.05,0-1.96-0.23-2.73-0.7c-0.78-0.47-1.38-1.12-1.8-1.94s-0.64-1.77-0.64-2.84v-0.43      c0-1.08,0.21-2.04,0.63-2.89c0.42-0.84,1-1.51,1.74-1.99c0.74-0.48,1.58-0.72,2.52-0.72c1,0,1.85,0.2,2.53,0.6      c0.68,0.4,1.19,0.98,1.54,1.72c0.35,0.74,0.52,1.63,0.52,2.67v1.48h-6.81l-0.02,0.05c0.03,0.58,0.15,1.1,0.36,1.55      c0.22,0.45,0.52,0.81,0.92,1.07c0.4,0.26,0.89,0.39,1.46,0.39c0.6,0,1.15-0.08,1.64-0.25s0.95-0.4,1.36-0.7l0.81,1.62      c-0.44,0.37-0.99,0.68-1.67,0.93S380.58,256.91,379.68,256.91z M377.22,250.05h4.3v-0.27c0-0.49-0.07-0.91-0.22-1.28      s-0.38-0.65-0.69-0.86c-0.31-0.21-0.71-0.31-1.18-0.31c-0.42,0-0.78,0.12-1.1,0.35s-0.57,0.55-0.75,0.95      c-0.19,0.4-0.32,0.85-0.38,1.36L377.22,250.05z"
   id="path583" />
				<path
   d="M389.63,256.89c-0.94,0-1.68-0.26-2.2-0.79s-0.79-1.38-0.79-2.54v-6.11h-1.62v-1.85h1.62v-2.7h2.57v2.7h2.19v1.85h-2.19      v6.11c0,0.47,0.1,0.82,0.29,1.03c0.2,0.22,0.46,0.32,0.79,0.32c0.19,0,0.41-0.02,0.64-0.05c0.24-0.03,0.43-0.07,0.57-0.1      l0.27,1.81c-0.3,0.09-0.64,0.16-1.03,0.23C390.35,256.85,389.98,256.89,389.63,256.89z"
   id="path585" />
				<path
   d="M396.63,256.91c-1.13,0-2.01-0.29-2.64-0.87s-0.94-1.38-0.94-2.4c0-0.7,0.19-1.31,0.57-1.84s0.94-0.94,1.68-1.24      c0.74-0.3,1.63-0.45,2.69-0.45h1.69v-0.93c0-0.59-0.18-1.06-0.53-1.4c-0.35-0.35-0.86-0.52-1.53-0.52      c-0.38,0-0.72,0.05-1.02,0.14c-0.29,0.09-0.56,0.22-0.79,0.39l-0.24,1.5h-1.9l-0.02-2.74c0.55-0.36,1.16-0.64,1.83-0.85      c0.67-0.21,1.42-0.31,2.24-0.31c1.41,0,2.52,0.33,3.33,0.99c0.81,0.66,1.22,1.6,1.22,2.84v4.89c0,0.15,0,0.3,0.01,0.44      c0,0.14,0.01,0.28,0.03,0.42l1.13,0.14v1.58h-3.37c-0.07-0.24-0.13-0.47-0.19-0.7s-0.1-0.45-0.13-0.68      c-0.37,0.46-0.82,0.85-1.34,1.14C397.88,256.76,397.29,256.91,396.63,256.91z M397.22,254.91c0.52,0,1-0.12,1.46-0.36      c0.45-0.24,0.79-0.55,1.02-0.92v-1.86h-1.72c-0.77,0-1.36,0.18-1.75,0.54c-0.39,0.36-0.59,0.78-0.59,1.26      c0,0.43,0.14,0.76,0.41,0.99S396.7,254.91,397.22,254.91z"
   id="path587" />
				<path
   d="M409.01,256.91c-0.9,0-1.66-0.23-2.3-0.68s-1.12-1.08-1.46-1.89c-0.34-0.81-0.51-1.75-0.51-2.83v-0.22      c0-1.18,0.17-2.21,0.51-3.1c0.34-0.88,0.83-1.57,1.47-2.06s1.4-0.74,2.28-0.74c0.64,0,1.19,0.12,1.67,0.36      c0.47,0.24,0.88,0.59,1.23,1.04v-4.2l-1.63-0.31v-1.59h1.63h2.58v14.11l1.54,0.31v1.58h-3.77l-0.21-1.34      c-0.35,0.51-0.77,0.9-1.28,1.16C410.25,256.77,409.67,256.91,409.01,256.91z M409.74,254.87c0.49,0,0.92-0.11,1.27-0.32      c0.36-0.21,0.65-0.53,0.88-0.94v-4.89c-0.23-0.4-0.52-0.71-0.88-0.94c-0.36-0.23-0.78-0.34-1.26-0.34      c-0.56,0-1.02,0.16-1.38,0.49c-0.36,0.33-0.62,0.78-0.79,1.35c-0.17,0.58-0.26,1.25-0.26,2.02v0.22c0,1.03,0.19,1.84,0.57,2.45      C408.28,254.56,408.89,254.87,409.74,254.87z"
   id="path589" />
				<path
   d="M420.81,256.91c-1.13,0-2.01-0.29-2.64-0.87s-0.94-1.38-0.94-2.4c0-0.7,0.19-1.31,0.57-1.84s0.94-0.94,1.68-1.24      c0.74-0.3,1.63-0.45,2.69-0.45h1.69v-0.93c0-0.59-0.18-1.06-0.53-1.4c-0.35-0.35-0.86-0.52-1.53-0.52      c-0.38,0-0.72,0.05-1.02,0.14c-0.29,0.09-0.56,0.22-0.79,0.39l-0.24,1.5h-1.9l-0.02-2.74c0.55-0.36,1.16-0.64,1.83-0.85      c0.67-0.21,1.42-0.31,2.24-0.31c1.41,0,2.52,0.33,3.33,0.99c0.81,0.66,1.22,1.6,1.22,2.84v4.89c0,0.15,0,0.3,0.01,0.44      c0,0.14,0.01,0.28,0.03,0.42l1.13,0.14v1.58h-3.37c-0.07-0.24-0.13-0.47-0.19-0.7s-0.1-0.45-0.13-0.68      c-0.37,0.46-0.82,0.85-1.34,1.14C422.06,256.76,421.47,256.91,420.81,256.91z M421.4,254.91c0.52,0,1-0.12,1.46-0.36      c0.45-0.24,0.79-0.55,1.02-0.92v-1.86h-1.72c-0.77,0-1.36,0.18-1.75,0.54c-0.39,0.36-0.59,0.78-0.59,1.26      c0,0.43,0.14,0.76,0.41,0.99S420.88,254.91,421.4,254.91z"
   id="path591" />
				<path
   d="M433.05,256.89c-0.94,0-1.68-0.26-2.2-0.79s-0.79-1.38-0.79-2.54v-6.11h-1.62v-1.85h1.62v-2.7h2.57v2.7h2.19v1.85h-2.19      v6.11c0,0.47,0.1,0.82,0.29,1.03c0.2,0.22,0.46,0.32,0.79,0.32c0.19,0,0.41-0.02,0.64-0.05c0.24-0.03,0.43-0.07,0.57-0.1      l0.27,1.81c-0.3,0.09-0.64,0.16-1.03,0.23C433.78,256.85,433.41,256.89,433.05,256.89z"
   id="path593" />
				<path
   d="M440.06,256.91c-1.13,0-2.01-0.29-2.64-0.87s-0.94-1.38-0.94-2.4c0-0.7,0.19-1.31,0.57-1.84s0.94-0.94,1.68-1.24      c0.74-0.3,1.63-0.45,2.69-0.45h1.69v-0.93c0-0.59-0.18-1.06-0.53-1.4c-0.35-0.35-0.86-0.52-1.53-0.52      c-0.38,0-0.72,0.05-1.02,0.14c-0.29,0.09-0.56,0.22-0.79,0.39l-0.24,1.5h-1.9l-0.02-2.74c0.55-0.36,1.16-0.64,1.83-0.85      c0.67-0.21,1.42-0.31,2.24-0.31c1.41,0,2.52,0.33,3.33,0.99c0.81,0.66,1.22,1.6,1.22,2.84v4.89c0,0.15,0,0.3,0.01,0.44      c0,0.14,0.01,0.28,0.03,0.42l1.13,0.14v1.58h-3.37c-0.07-0.24-0.13-0.47-0.19-0.7s-0.1-0.45-0.13-0.68      c-0.37,0.46-0.82,0.85-1.34,1.14C441.3,256.76,440.71,256.91,440.06,256.91z M440.64,254.91c0.52,0,1-0.12,1.46-0.36      c0.45-0.24,0.79-0.55,1.02-0.92v-1.86h-1.72c-0.77,0-1.36,0.18-1.75,0.54c-0.39,0.36-0.59,0.78-0.59,1.26      c0,0.43,0.14,0.76,0.41,0.99S440.13,254.91,440.64,254.91z"
   id="path595" />
			</g>
		</g>
		<g
   id="g611">
			<g
   id="g609">
				<path
   d="M524.47,167.29v-2.4l1.79-0.43v-11.37l-1.79-0.45v-2.41h1.79h6.2c1.54,0,2.9,0.36,4.09,1.07s2.12,1.7,2.79,2.96      s1.01,2.72,1.01,4.37v0.27c0,1.65-0.34,3.1-1.01,4.37s-1.6,2.25-2.79,2.96s-2.55,1.07-4.09,1.07H524.47z M530.38,164.17h1.88      c0.87,0,1.59-0.22,2.18-0.66s1.03-1.05,1.33-1.85s0.45-1.72,0.45-2.77v-0.28c0-1.05-0.15-1.98-0.45-2.77s-0.74-1.4-1.33-1.84      s-1.31-0.66-2.18-0.66h-1.88V164.17z"
   id="path601" />
				<path
   d="M546.22,167.54c-1.23,0-2.23-0.35-3-1.04s-1.16-1.62-1.16-2.78c0-0.79,0.21-1.49,0.64-2.1s1.07-1.09,1.92-1.44      s1.93-0.52,3.22-0.52h1.32v-0.75c0-0.51-0.14-0.94-0.43-1.29s-0.75-0.53-1.37-0.53c-0.27,0-0.51,0.03-0.74,0.1      s-0.44,0.16-0.63,0.29l-0.28,1.62h-2.89l-0.06-3.53c0.72-0.32,1.47-0.6,2.26-0.83s1.66-0.35,2.63-0.35c1.73,0,3.1,0.4,4.11,1.19      s1.52,1.92,1.52,3.39v4.68c0,0.18,0,0.36,0.01,0.53s0.02,0.34,0.05,0.49l1.37,0.23v2.4h-4.8c-0.1-0.14-0.21-0.33-0.33-0.56      s-0.2-0.47-0.25-0.7c-0.38,0.48-0.81,0.85-1.29,1.11S546.95,167.54,546.22,167.54z M547.48,164.63c0.3,0,0.6-0.06,0.9-0.18      s0.56-0.3,0.78-0.54v-1.83h-1.28c-0.55,0-0.98,0.12-1.28,0.36s-0.45,0.56-0.45,0.96c0,0.38,0.12,0.68,0.38,0.9      S547.09,164.63,547.48,164.63z"
   id="path603" />
				<path
   d="M560.86,167.56c-1.33,0-2.34-0.35-3.03-1.06s-1.04-1.83-1.04-3.36v-5.7h-1.58v-2.84h1.58v-3.13h4.09v3.13h2.07v2.84      h-2.07v5.68c0,0.41,0.09,0.7,0.28,0.87s0.45,0.25,0.77,0.25c0.14,0,0.28-0.01,0.42-0.02s0.28-0.04,0.42-0.06l0.28,3.07      c-0.36,0.1-0.72,0.18-1.08,0.24S561.24,167.56,560.86,167.56z"
   id="path605" />
				<path
   d="M568.54,167.54c-1.23,0-2.23-0.35-3-1.04s-1.16-1.62-1.16-2.78c0-0.79,0.21-1.49,0.64-2.1s1.07-1.09,1.92-1.44      s1.93-0.52,3.22-0.52h1.32v-0.75c0-0.51-0.14-0.94-0.43-1.29s-0.75-0.53-1.37-0.53c-0.27,0-0.51,0.03-0.74,0.1      s-0.44,0.16-0.63,0.29l-0.28,1.62h-2.89l-0.06-3.53c0.72-0.32,1.47-0.6,2.26-0.83s1.66-0.35,2.63-0.35c1.73,0,3.1,0.4,4.11,1.19      s1.52,1.92,1.52,3.39v4.68c0,0.18,0,0.36,0.01,0.53s0.02,0.34,0.05,0.49l1.37,0.23v2.4h-4.8c-0.1-0.14-0.21-0.33-0.33-0.56      s-0.2-0.47-0.25-0.7c-0.38,0.48-0.81,0.85-1.29,1.11S569.28,167.54,568.54,167.54z M569.81,164.63c0.3,0,0.6-0.06,0.9-0.18      s0.56-0.3,0.78-0.54v-1.83h-1.28c-0.55,0-0.98,0.12-1.28,0.36s-0.45,0.56-0.45,0.96c0,0.38,0.12,0.68,0.38,0.9      S569.42,164.63,569.81,164.63z"
   id="path607" />
			</g>
		</g>
		<g
   id="g635">
			<rect
   x="527"
   y="184"
   class="st4"
   width="230"
   height="158"
   id="rect613" />
			<line
   class="st4"
   x1="527"
   y1="315.67"
   x2="757"
   y2="315.67"
   id="line615" />
			<line
   class="st4"
   x1="527"
   y1="289.33"
   x2="757"
   y2="289.33"
   id="line617" />
			<line
   class="st4"
   x1="527"
   y1="263"
   x2="757"
   y2="263"
   id="line619" />
			<line
   class="st4"
   x1="527"
   y1="236.67"
   x2="757"
   y2="236.67"
   id="line621" />
			<line
   class="st4"
   x1="527"
   y1="210.33"
   x2="757"
   y2="210.33"
   id="line623" />
			<line
   class="st4"
   x1="718.67"
   y1="184"
   x2="718.67"
   y2="342"
   id="line625" />
			<line
   class="st4"
   x1="680.33"
   y1="184"
   x2="680.33"
   y2="342"
   id="line627" />
			<line
   class="st4"
   x1="642"
   y1="184"
   x2="642"
   y2="342"
   id="line629" />
			<line
   class="st4"
   x1="603.67"
   y1="184"
   x2="603.67"
   y2="342"
   id="line631" />
			<line
   class="st4"
   x1="565.33"
   y1="184"
   x2="565.33"
   y2="342"
   id="line633" />
		</g>
	</g>
	<g
   class="st0"
   clip-path="url(#SVGID_2_)"
   id="g763">
		<rect
   x="795"
   y="93"
   class="st5"
   width="495"
   height="285"
   id="rect639" />
		<rect
   x="819"
   y="137"
   class="st6"
   width="165"
   height="220"
   id="rect641" />
		<rect
   x="1006"
   y="137"
   transform="matrix(-1 -1.224647e-16 1.224647e-16 -1 2272 494)"
   class="st6"
   width="260"
   height="220"
   id="rect643" />
		<g
   id="g659">
			<g
   id="g657">
				<path
   class="st7"
   d="M832.47,167.29v-2.4l1.77-0.38v-11.5l-1.77-0.38v-2.41h7.65v2.41l-1.77,0.38v4.31h6.21v-4.31l-1.77-0.38      v-2.41h1.77h4.1h1.77v2.41l-1.77,0.38v11.5l1.77,0.38v2.4h-7.64v-2.4l1.77-0.38v-4.03h-6.21v4.03l1.77,0.38v2.4H832.47z"
   id="path645" />
				<path
   class="st7"
   d="M857.82,167.54c-1.24,0-2.33-0.27-3.25-0.8s-1.64-1.27-2.16-2.2s-0.77-1.98-0.77-3.15v-0.43      c0-1.29,0.23-2.43,0.68-3.42s1.12-1.77,1.99-2.33s1.95-0.83,3.22-0.83c1.15,0,2.12,0.22,2.91,0.66s1.4,1.09,1.81,1.95      s0.62,1.91,0.62,3.16v2.12h-6.97l-0.01,0.08c0.06,0.4,0.2,0.75,0.4,1.06s0.49,0.55,0.86,0.73s0.82,0.27,1.36,0.27      c0.53,0,1.05-0.06,1.56-0.18s1.05-0.31,1.62-0.58l0.94,2.48c-0.57,0.41-1.27,0.74-2.09,1.01S858.82,167.54,857.82,167.54z       M855.91,159.72h3.22v-0.3c0-0.45-0.04-0.83-0.13-1.14s-0.24-0.54-0.46-0.69s-0.52-0.23-0.9-0.23c-0.41,0-0.74,0.1-0.99,0.3      s-0.43,0.47-0.54,0.82s-0.19,0.74-0.24,1.19L855.91,159.72z"
   id="path647" />
				<path
   class="st7"
   d="M868.67,167.54c-1.23,0-2.23-0.35-3-1.04s-1.16-1.62-1.16-2.78c0-0.79,0.21-1.49,0.64-2.1      s1.07-1.09,1.92-1.44s1.93-0.52,3.22-0.52h1.32v-0.75c0-0.51-0.14-0.94-0.43-1.29s-0.75-0.53-1.37-0.53      c-0.27,0-0.51,0.03-0.74,0.1s-0.44,0.16-0.63,0.29l-0.28,1.62h-2.89l-0.06-3.53c0.72-0.32,1.47-0.6,2.26-0.83      s1.66-0.35,2.63-0.35c1.73,0,3.1,0.4,4.11,1.19s1.52,1.92,1.52,3.39v4.68c0,0.18,0,0.36,0.01,0.53s0.02,0.34,0.05,0.49      l1.37,0.23v2.4h-4.8c-0.1-0.14-0.21-0.33-0.33-0.56s-0.2-0.47-0.25-0.7c-0.38,0.48-0.81,0.85-1.29,1.11      S869.4,167.54,868.67,167.54z M869.93,164.63c0.3,0,0.6-0.06,0.9-0.18s0.56-0.3,0.78-0.54v-1.83h-1.28      c-0.55,0-0.98,0.12-1.28,0.36s-0.45,0.56-0.45,0.96c0,0.38,0.12,0.68,0.38,0.9S869.54,164.63,869.93,164.63z"
   id="path649" />
				<path
   class="st7"
   d="M882.82,167.54c-0.99,0-1.85-0.26-2.56-0.79s-1.26-1.26-1.64-2.21s-0.57-2.06-0.57-3.32v-0.25      c0-1.32,0.19-2.47,0.57-3.46s0.93-1.76,1.63-2.31s1.54-0.83,2.51-0.83c0.67,0,1.25,0.14,1.74,0.42s0.92,0.67,1.28,1.17v-4.16      l-1.78-0.38v-2.41h1.78h4.11v15.5l1.48,0.38v2.4h-5.04l-0.3-1.57c-0.38,0.59-0.84,1.04-1.36,1.35S883.54,167.54,882.82,167.54z       M884.1,164.38c0.34,0,0.66-0.07,0.96-0.2s0.54-0.33,0.74-0.6v-5.07c-0.2-0.32-0.44-0.56-0.72-0.73s-0.6-0.25-0.96-0.25      c-0.47,0-0.85,0.14-1.14,0.43s-0.5,0.69-0.63,1.21s-0.19,1.12-0.19,1.8v0.25c0,1.01,0.14,1.79,0.42,2.34      S883.38,164.38,884.1,164.38z"
   id="path651" />
				<path
   class="st7"
   d="M898.42,167.54c-1.24,0-2.33-0.27-3.25-0.8s-1.64-1.27-2.16-2.2s-0.77-1.98-0.77-3.15v-0.43      c0-1.29,0.23-2.43,0.68-3.42s1.12-1.77,1.99-2.33s1.95-0.83,3.22-0.83c1.15,0,2.12,0.22,2.91,0.66s1.4,1.09,1.81,1.95      s0.62,1.91,0.62,3.16v2.12h-6.97l-0.01,0.08c0.06,0.4,0.2,0.75,0.4,1.06s0.49,0.55,0.86,0.73s0.82,0.27,1.36,0.27      c0.53,0,1.05-0.06,1.56-0.18s1.05-0.31,1.62-0.58l0.94,2.48c-0.57,0.41-1.27,0.74-2.09,1.01S899.43,167.54,898.42,167.54z       M896.51,159.72h3.22v-0.3c0-0.45-0.04-0.83-0.13-1.14s-0.24-0.54-0.46-0.69s-0.52-0.23-0.9-0.23c-0.41,0-0.74,0.1-0.99,0.3      s-0.43,0.47-0.54,0.82s-0.19,0.74-0.24,1.19L896.51,159.72z"
   id="path653" />
				<path
   class="st7"
   d="M905.37,167.29v-2.4l1.48-0.38v-7.11l-1.76-0.38v-2.41h5.64l0.09,1.55l0.02,0.32      c0.28-0.72,0.63-1.25,1.05-1.59s0.94-0.51,1.56-0.51c0.17,0,0.38,0.01,0.61,0.04s0.47,0.08,0.71,0.15l-0.41,3.77l-1.76-0.08      c-0.41-0.02-0.72,0.03-0.96,0.13s-0.46,0.28-0.7,0.52v5.6l1.48,0.38v2.4H905.37z"
   id="path655" />
			</g>
		</g>
		<g
   id="g673">
			<g
   id="g671">
				<path
   class="st7"
   d="M819.47,124.29v-2.4l1.77-0.38v-11.5l-1.77-0.38v-2.41h14.05v5.03h-3.11l-0.08-1.86h-4.98v3.95h5.8v3.14      h-5.8v4.03l1.77,0.38v2.4H819.47z"
   id="path661" />
				<path
   class="st7"
   d="M834.98,124.29v-2.4l1.48-0.38v-7.11l-1.76-0.38v-2.41h5.64l0.09,1.55l0.02,0.32      c0.28-0.72,0.63-1.25,1.05-1.59s0.94-0.51,1.56-0.51c0.17,0,0.38,0.01,0.61,0.04s0.47,0.08,0.71,0.15l-0.41,3.77l-1.76-0.08      c-0.41-0.02-0.72,0.03-0.96,0.13s-0.46,0.28-0.7,0.52v5.6l1.48,0.38v2.4H834.98z"
   id="path663" />
				<path
   class="st7"
   d="M849.5,124.54c-1.23,0-2.23-0.35-3-1.04s-1.16-1.62-1.16-2.78c0-0.79,0.21-1.49,0.64-2.1      s1.07-1.09,1.92-1.44s1.93-0.52,3.22-0.52h1.32v-0.75c0-0.51-0.14-0.94-0.43-1.29s-0.75-0.53-1.37-0.53      c-0.27,0-0.51,0.03-0.74,0.1s-0.44,0.16-0.63,0.29l-0.28,1.62h-2.89l-0.06-3.53c0.72-0.32,1.47-0.6,2.26-0.83      s1.66-0.35,2.63-0.35c1.73,0,3.1,0.4,4.11,1.19s1.52,1.92,1.52,3.39v4.68c0,0.18,0,0.36,0.01,0.53s0.02,0.34,0.05,0.49      l1.37,0.23v2.4h-4.8c-0.1-0.14-0.21-0.33-0.33-0.56s-0.2-0.47-0.25-0.7c-0.38,0.48-0.81,0.85-1.29,1.11      S850.24,124.54,849.5,124.54z M850.77,121.63c0.3,0,0.6-0.06,0.9-0.18s0.56-0.3,0.78-0.54v-1.83h-1.28      c-0.55,0-0.98,0.12-1.28,0.36s-0.45,0.56-0.45,0.96c0,0.38,0.12,0.68,0.38,0.9S850.38,121.63,850.77,121.63z"
   id="path665" />
				<path
   class="st7"
   d="M858.63,124.29v-2.4l1.5-0.38v-7.11l-1.78-0.38v-2.41h5.64l0.13,1.69c0.41-0.61,0.92-1.08,1.51-1.42      s1.28-0.5,2.06-0.5c0.79,0,1.47,0.17,2.03,0.51s0.99,0.86,1.28,1.55c0.38-0.66,0.88-1.16,1.48-1.52s1.32-0.54,2.14-0.54      c1.23,0,2.19,0.41,2.89,1.24s1.05,2.1,1.05,3.82v5.07l1.5,0.38v2.4h-6.81v-2.4l1.21-0.38v-5.07c0-0.74-0.12-1.25-0.35-1.51      s-0.56-0.4-1-0.4c-0.36,0-0.68,0.07-0.97,0.21s-0.54,0.33-0.76,0.59v6.19l1.05,0.38v2.4h-6.2v-2.4l1.05-0.38v-5.07      c0-0.74-0.11-1.25-0.34-1.51s-0.57-0.4-1.02-0.4c-0.35,0-0.67,0.07-0.96,0.21s-0.54,0.34-0.76,0.6v6.18l1.21,0.38v2.4H858.63z"
   id="path667" />
				<path
   class="st7"
   d="M887.13,124.54c-1.24,0-2.33-0.27-3.25-0.8s-1.64-1.27-2.16-2.2s-0.77-1.98-0.77-3.15v-0.43      c0-1.29,0.23-2.43,0.68-3.42s1.12-1.77,1.99-2.33s1.95-0.83,3.22-0.83c1.15,0,2.12,0.22,2.91,0.66s1.4,1.09,1.81,1.95      s0.62,1.91,0.62,3.16v2.12h-6.97l-0.01,0.08c0.06,0.4,0.2,0.75,0.4,1.06s0.49,0.55,0.86,0.73s0.82,0.27,1.36,0.27      c0.53,0,1.05-0.06,1.56-0.18s1.05-0.31,1.62-0.58l0.94,2.48c-0.57,0.41-1.27,0.74-2.09,1.01S888.14,124.54,887.13,124.54z       M885.22,116.72h3.22v-0.3c0-0.45-0.04-0.83-0.13-1.14s-0.24-0.54-0.46-0.69s-0.52-0.23-0.9-0.23c-0.41,0-0.74,0.1-0.99,0.3      s-0.43,0.47-0.54,0.82s-0.19,0.74-0.24,1.19L885.22,116.72z"
   id="path669" />
			</g>
		</g>
		<g
   id="g725">
			<g
   id="g723">
				<path
   class="st7"
   d="M834.41,200.9v-5.1h6.13v5.1H834.41z"
   id="path675" />
				<path
   class="st7"
   d="M855.6,206.51c-1.47,0-2.73-0.31-3.77-0.94c-1.04-0.63-1.84-1.5-2.39-2.62s-0.83-2.43-0.83-3.92v-0.38      c0-1.46,0.27-2.75,0.82-3.87c0.55-1.12,1.33-2.01,2.35-2.66c1.02-0.65,2.24-0.97,3.65-0.97c0.99,0,1.91,0.15,2.76,0.44      s1.59,0.71,2.21,1.24v3.45h-1.97l-0.27-2.31c-0.23-0.16-0.47-0.3-0.75-0.42s-0.57-0.21-0.9-0.27c-0.33-0.06-0.68-0.09-1.06-0.09      c-0.9,0-1.66,0.23-2.3,0.68c-0.64,0.45-1.13,1.08-1.46,1.9c-0.33,0.81-0.5,1.77-0.5,2.86v0.4c0,1.13,0.18,2.11,0.53,2.93      c0.36,0.82,0.87,1.44,1.53,1.88c0.67,0.44,1.46,0.66,2.39,0.66c0.45,0,0.9-0.05,1.34-0.16c0.44-0.11,0.83-0.24,1.16-0.42      l0.28-2.09h1.95v3.42c-0.57,0.38-1.28,0.68-2.11,0.91C857.45,206.39,856.56,206.51,855.6,206.51z"
   id="path677" />
				<path
   class="st7"
   d="M867.24,206.51c-1.07,0-1.98-0.24-2.75-0.72s-1.35-1.14-1.76-1.99c-0.41-0.85-0.62-1.83-0.62-2.94v-0.22      c0-1.1,0.21-2.07,0.62-2.92s1-1.51,1.76-2s1.67-0.73,2.73-0.73c1.07,0,1.98,0.24,2.75,0.72c0.77,0.48,1.35,1.15,1.76,1.99      s0.62,1.83,0.62,2.93v0.22c0,1.11-0.21,2.09-0.62,2.94c-0.41,0.85-1,1.52-1.76,1.99S868.3,206.51,867.24,206.51z M867.24,204.52      c0.57,0,1.05-0.16,1.42-0.47s0.65-0.74,0.84-1.29s0.28-1.18,0.28-1.9v-0.22c0-0.71-0.09-1.34-0.28-1.89s-0.46-0.98-0.84-1.29      s-0.85-0.47-1.44-0.47c-0.57,0-1.04,0.16-1.42,0.47s-0.65,0.75-0.84,1.29s-0.27,1.18-0.27,1.89v0.22c0,0.72,0.09,1.35,0.27,1.9      s0.46,0.98,0.84,1.29C866.19,204.36,866.66,204.52,867.24,204.52z"
   id="path679" />
				<path
   class="st7"
   d="M873.64,206.29v-1.58l1.55-0.31v-12.21l-1.64-0.31v-1.59h4.21v14.11l1.55,0.31v1.58H873.64z"
   id="path681" />
				<path
   class="st7"
   d="M885.25,206.51c-1.19,0-2.12-0.38-2.78-1.13c-0.67-0.75-1-1.93-1-3.52v-4.76l-1.25-0.31v-1.59h1.25h2.58      v6.68c0,0.96,0.15,1.63,0.46,2.02c0.3,0.39,0.77,0.58,1.41,0.58c0.56,0,1.04-0.11,1.43-0.33c0.39-0.22,0.71-0.54,0.94-0.95      v-6.09l-1.39-0.31v-1.59h1.39h2.58v9.21l1.31,0.31v1.58h-3.6l-0.17-1.51c-0.35,0.55-0.79,0.98-1.33,1.28      C886.55,206.36,885.94,206.51,885.25,206.51z"
   id="path683" />
				<path
   class="st7"
   d="M893.34,206.29v-1.58l1.55-0.31v-7.31l-1.63-0.31v-1.59h4l0.12,1.46c0.36-0.53,0.81-0.93,1.36-1.23      c0.54-0.29,1.17-0.44,1.89-0.44c0.72,0,1.35,0.16,1.86,0.49s0.91,0.81,1.17,1.47c0.34-0.61,0.79-1.09,1.35-1.44      c0.56-0.35,1.21-0.52,1.96-0.52c1.11,0,1.99,0.38,2.63,1.14c0.64,0.76,0.96,1.91,0.96,3.45v4.83l1.55,0.31v1.58h-5.59v-1.58      l1.46-0.31v-4.84c0-0.94-0.16-1.59-0.47-1.97s-0.78-0.56-1.38-0.56c-0.57,0-1.03,0.18-1.4,0.54c-0.37,0.36-0.6,0.82-0.71,1.38      v5.44l1.4,0.31v1.58h-5.38v-1.58l1.4-0.31v-4.84c0-0.9-0.16-1.55-0.48-1.94c-0.32-0.39-0.79-0.59-1.39-0.59      c-0.51,0-0.93,0.1-1.28,0.31c-0.35,0.21-0.62,0.5-0.83,0.87v6.19l1.45,0.31v1.58H893.34z"
   id="path685" />
				<path
   class="st7"
   d="M913.26,206.29v-1.58l1.54-0.31v-7.31l-1.62-0.31v-1.59h4l0.13,1.61c0.37-0.57,0.83-1.02,1.38-1.34      c0.55-0.32,1.17-0.48,1.87-0.48c1.14,0,2.03,0.35,2.67,1.05c0.64,0.7,0.95,1.8,0.95,3.29v5.08l1.54,0.31v1.58h-5.57v-1.58      l1.45-0.31v-5.06c0-0.84-0.17-1.44-0.5-1.79c-0.33-0.35-0.83-0.53-1.5-0.53c-0.5,0-0.93,0.11-1.31,0.33s-0.67,0.53-0.91,0.93      v6.11l1.41,0.31v1.58H913.26z"
   id="path687" />
				<path
   class="st7"
   d="M931.53,206.51c-0.79,0-1.53-0.08-2.22-0.23c-0.69-0.15-1.38-0.38-2.07-0.68l-0.03-2.93h1.86l0.39,1.6      c0.29,0.13,0.6,0.23,0.91,0.3c0.31,0.07,0.66,0.11,1.04,0.11c0.74,0,1.26-0.13,1.56-0.39s0.46-0.58,0.46-0.96      c0-0.37-0.16-0.69-0.48-0.95c-0.32-0.26-0.93-0.49-1.82-0.68c-1.33-0.29-2.3-0.71-2.93-1.26c-0.62-0.55-0.94-1.27-0.94-2.15      c0-0.61,0.16-1.16,0.49-1.65c0.32-0.49,0.8-0.89,1.44-1.18c0.63-0.3,1.41-0.45,2.33-0.45c0.84,0,1.59,0.09,2.24,0.26      c0.65,0.17,1.21,0.41,1.67,0.69l0.06,2.82h-1.84l-0.32-1.47c-0.21-0.15-0.46-0.27-0.74-0.35s-0.6-0.12-0.96-0.12      c-0.57,0-1.02,0.12-1.34,0.37c-0.33,0.25-0.49,0.56-0.49,0.94c0,0.22,0.05,0.42,0.16,0.59c0.11,0.18,0.31,0.34,0.62,0.49      c0.3,0.15,0.75,0.29,1.34,0.43c1.44,0.33,2.47,0.77,3.1,1.31c0.62,0.54,0.93,1.25,0.93,2.14c0,0.99-0.36,1.8-1.09,2.44      S933.02,206.51,931.53,206.51z"
   id="path689" />
				<path
   class="st7"
   d="M834.41,226.1v-5.1h6.13v5.1H834.41z"
   id="path691" />
				<path
   class="st7"
   d="M855.6,231.71c-1.47,0-2.73-0.31-3.77-0.94c-1.04-0.63-1.84-1.5-2.39-2.62s-0.83-2.43-0.83-3.92v-0.38      c0-1.46,0.27-2.75,0.82-3.87c0.55-1.12,1.33-2.01,2.35-2.66c1.02-0.65,2.24-0.97,3.65-0.97c0.99,0,1.91,0.15,2.76,0.44      s1.59,0.71,2.21,1.24v3.45h-1.97l-0.27-2.31c-0.23-0.16-0.47-0.3-0.75-0.42s-0.57-0.21-0.9-0.27c-0.33-0.06-0.68-0.09-1.06-0.09      c-0.9,0-1.66,0.23-2.3,0.68c-0.64,0.45-1.13,1.08-1.46,1.9c-0.33,0.81-0.5,1.77-0.5,2.86v0.4c0,1.13,0.18,2.11,0.53,2.93      c0.36,0.82,0.87,1.44,1.53,1.88c0.67,0.44,1.46,0.66,2.39,0.66c0.45,0,0.9-0.05,1.34-0.16c0.44-0.11,0.83-0.24,1.16-0.42      l0.28-2.09h1.95v3.42c-0.57,0.38-1.28,0.68-2.11,0.91C857.45,231.59,856.56,231.71,855.6,231.71z"
   id="path693" />
				<path
   class="st7"
   d="M867.24,231.71c-1.07,0-1.98-0.24-2.75-0.72s-1.35-1.14-1.76-1.99c-0.41-0.85-0.62-1.83-0.62-2.94v-0.22      c0-1.1,0.21-2.07,0.62-2.92s1-1.51,1.76-2s1.67-0.73,2.73-0.73c1.07,0,1.98,0.24,2.75,0.72c0.77,0.48,1.35,1.15,1.76,1.99      s0.62,1.83,0.62,2.93v0.22c0,1.11-0.21,2.09-0.62,2.94c-0.41,0.85-1,1.52-1.76,1.99S868.3,231.71,867.24,231.71z M867.24,229.72      c0.57,0,1.05-0.16,1.42-0.47s0.65-0.74,0.84-1.29s0.28-1.18,0.28-1.9v-0.22c0-0.71-0.09-1.34-0.28-1.89s-0.46-0.98-0.84-1.29      s-0.85-0.47-1.44-0.47c-0.57,0-1.04,0.16-1.42,0.47s-0.65,0.75-0.84,1.29s-0.27,1.18-0.27,1.89v0.22c0,0.72,0.09,1.35,0.27,1.9      s0.46,0.98,0.84,1.29C866.19,229.56,866.66,229.72,867.24,229.72z"
   id="path695" />
				<path
   class="st7"
   d="M878.09,231.71c-0.9,0-1.66-0.23-2.3-0.68s-1.12-1.08-1.46-1.89c-0.34-0.81-0.51-1.75-0.51-2.83v-0.22      c0-1.18,0.17-2.21,0.51-3.1c0.34-0.88,0.83-1.57,1.47-2.06s1.4-0.74,2.28-0.74c0.64,0,1.19,0.12,1.67,0.36      c0.47,0.24,0.88,0.59,1.23,1.04v-4.2l-1.63-0.31v-1.59h1.63h2.58v14.11l1.54,0.31v1.58h-3.77l-0.21-1.34      c-0.35,0.51-0.77,0.9-1.28,1.16C879.33,231.57,878.75,231.71,878.09,231.71z M878.81,229.67c0.49,0,0.92-0.11,1.27-0.32      c0.36-0.21,0.65-0.53,0.88-0.94v-4.89c-0.23-0.4-0.52-0.71-0.88-0.94c-0.36-0.23-0.78-0.34-1.26-0.34      c-0.56,0-1.02,0.16-1.38,0.49c-0.36,0.33-0.62,0.78-0.79,1.35c-0.17,0.58-0.26,1.25-0.26,2.02v0.22c0,1.03,0.19,1.84,0.57,2.45      C877.35,229.36,877.97,229.67,878.81,229.67z"
   id="path697" />
				<path
   class="st7"
   d="M891.43,231.71c-1.05,0-1.96-0.23-2.73-0.7c-0.78-0.47-1.38-1.12-1.8-1.94s-0.64-1.77-0.64-2.84v-0.43      c0-1.08,0.21-2.04,0.63-2.89c0.42-0.84,1-1.51,1.74-1.99c0.74-0.48,1.58-0.72,2.52-0.72c1,0,1.85,0.2,2.53,0.6      c0.68,0.4,1.19,0.98,1.54,1.72c0.35,0.74,0.52,1.63,0.52,2.67v1.48h-6.81l-0.02,0.05c0.03,0.58,0.15,1.1,0.36,1.55      c0.22,0.45,0.52,0.81,0.92,1.07c0.4,0.26,0.89,0.39,1.46,0.39c0.6,0,1.15-0.08,1.64-0.25s0.95-0.4,1.36-0.7l0.81,1.62      c-0.44,0.37-0.99,0.68-1.67,0.93S892.33,231.71,891.43,231.71z M888.97,224.85h4.3v-0.27c0-0.49-0.07-0.91-0.22-1.28      s-0.38-0.65-0.69-0.86c-0.31-0.21-0.71-0.31-1.18-0.31c-0.42,0-0.78,0.12-1.1,0.35s-0.57,0.55-0.75,0.95      c-0.19,0.4-0.32,0.85-0.38,1.36L888.97,224.85z"
   id="path699" />
				<path
   class="st7"
   d="M902.33,231.71c-1.04,0-1.94-0.24-2.7-0.71s-1.35-1.13-1.76-1.97s-0.62-1.8-0.62-2.9v-0.36      c0-1.07,0.21-2.03,0.62-2.87s1-1.5,1.76-1.98c0.76-0.48,1.66-0.72,2.7-0.72c0.95,0,1.78,0.15,2.48,0.46      c0.7,0.3,1.28,0.68,1.73,1.13l0.01,2.96h-1.97l-0.38-1.96c-0.19-0.2-0.43-0.36-0.73-0.48c-0.29-0.12-0.62-0.18-0.96-0.18      c-0.57,0-1.05,0.15-1.45,0.46c-0.4,0.31-0.71,0.73-0.91,1.28c-0.21,0.54-0.31,1.18-0.31,1.9v0.36c0,0.78,0.11,1.44,0.32,1.97      c0.21,0.53,0.51,0.94,0.89,1.21c0.38,0.27,0.82,0.41,1.31,0.41c0.59,0,1.08-0.16,1.45-0.48s0.62-0.77,0.73-1.33h2.24l0.03,0.06      c-0.08,0.72-0.29,1.37-0.64,1.93c-0.35,0.56-0.83,1.01-1.46,1.33C904.07,231.55,903.28,231.71,902.33,231.71z"
   id="path701" />
				<path
   class="st7"
   d="M912.88,231.71c-0.79,0-1.53-0.08-2.22-0.23c-0.69-0.15-1.38-0.38-2.07-0.68l-0.03-2.93h1.86l0.39,1.6      c0.29,0.13,0.6,0.23,0.91,0.3c0.31,0.07,0.66,0.11,1.04,0.11c0.74,0,1.26-0.13,1.56-0.39c0.3-0.26,0.46-0.58,0.46-0.96      c0-0.37-0.16-0.69-0.48-0.95c-0.32-0.26-0.92-0.49-1.82-0.68c-1.33-0.29-2.3-0.71-2.93-1.26c-0.62-0.55-0.94-1.27-0.94-2.15      c0-0.61,0.16-1.16,0.49-1.65s0.8-0.89,1.44-1.18c0.63-0.3,1.41-0.45,2.33-0.45c0.84,0,1.59,0.09,2.24,0.26      c0.65,0.17,1.21,0.41,1.67,0.69l0.06,2.82H915l-0.32-1.47c-0.21-0.15-0.46-0.27-0.74-0.35c-0.28-0.08-0.6-0.12-0.96-0.12      c-0.57,0-1.01,0.12-1.34,0.37c-0.33,0.25-0.49,0.56-0.49,0.94c0,0.22,0.05,0.42,0.16,0.59c0.11,0.18,0.31,0.34,0.62,0.49      c0.3,0.15,0.75,0.29,1.34,0.43c1.44,0.33,2.47,0.77,3.1,1.31s0.93,1.25,0.93,2.14c0,0.99-0.36,1.8-1.09,2.44      S914.37,231.71,912.88,231.71z"
   id="path703" />
				<path
   class="st7"
   d="M834.41,251.3v-5.1h6.13v5.1H834.41z"
   id="path705" />
				<path
   class="st7"
   d="M848.7,256.69v-1.58l1.62-0.31v-11.15l-1.62-0.31v-1.59h1.62h3.7l4.38,10.8h0.06l4.25-10.8h5.38v1.59      l-1.63,0.31v11.15l1.63,0.31v1.58h-5.83v-1.58l1.71-0.31v-3.48l0.02-6.53l-0.05-0.01l-4.62,11.57h-1.88l-4.76-11.5l-0.05,0.01      l0.13,6.3v3.65l1.77,0.31v1.58H848.7z"
   id="path707" />
				<path
   class="st7"
   d="M874.68,256.91c-1.05,0-1.96-0.23-2.73-0.7c-0.78-0.47-1.38-1.12-1.8-1.94c-0.43-0.83-0.64-1.77-0.64-2.84      v-0.43c0-1.08,0.21-2.04,0.63-2.89c0.42-0.84,1-1.51,1.74-1.99c0.74-0.48,1.58-0.72,2.52-0.72c1,0,1.85,0.2,2.53,0.6      c0.68,0.4,1.19,0.98,1.54,1.72c0.35,0.74,0.52,1.63,0.52,2.67v1.48h-6.81l-0.02,0.05c0.03,0.58,0.15,1.1,0.36,1.55      c0.22,0.45,0.52,0.81,0.92,1.07s0.89,0.39,1.46,0.39c0.6,0,1.15-0.08,1.64-0.25s0.95-0.4,1.36-0.7l0.81,1.62      c-0.44,0.37-0.99,0.68-1.67,0.93C876.38,256.78,875.58,256.91,874.68,256.91z M872.22,250.05h4.3v-0.27      c0-0.49-0.07-0.91-0.22-1.28c-0.15-0.37-0.38-0.65-0.69-0.86c-0.31-0.21-0.71-0.31-1.19-0.31c-0.42,0-0.78,0.12-1.1,0.35      s-0.57,0.55-0.75,0.95c-0.19,0.4-0.32,0.85-0.38,1.36L872.22,250.05z"
   id="path709" />
				<path
   class="st7"
   d="M884.63,256.89c-0.94,0-1.68-0.26-2.21-0.79c-0.53-0.53-0.79-1.38-0.79-2.54v-6.11h-1.62v-1.85h1.62v-2.7      h2.57v2.7h2.19v1.85h-2.19v6.11c0,0.47,0.1,0.82,0.29,1.03c0.2,0.22,0.46,0.32,0.79,0.32c0.19,0,0.41-0.02,0.64-0.05      c0.24-0.03,0.43-0.07,0.57-0.1l0.27,1.81c-0.3,0.09-0.64,0.16-1.03,0.23C885.36,256.85,884.98,256.89,884.63,256.89z"
   id="path711" />
				<path
   class="st7"
   d="M891.63,256.91c-1.13,0-2.01-0.29-2.64-0.87s-0.94-1.38-0.94-2.4c0-0.7,0.19-1.31,0.57-1.84      s0.94-0.94,1.68-1.24c0.74-0.3,1.63-0.45,2.69-0.45h1.69v-0.93c0-0.59-0.18-1.06-0.53-1.4c-0.35-0.35-0.86-0.52-1.53-0.52      c-0.38,0-0.72,0.05-1.02,0.14c-0.29,0.09-0.56,0.22-0.79,0.39l-0.24,1.5h-1.9l-0.02-2.74c0.55-0.36,1.16-0.64,1.83-0.85      c0.67-0.21,1.42-0.31,2.24-0.31c1.41,0,2.52,0.33,3.33,0.99c0.81,0.66,1.21,1.6,1.21,2.84v4.89c0,0.15,0,0.3,0.01,0.44      c0,0.14,0.01,0.28,0.03,0.42l1.13,0.14v1.58h-3.37c-0.07-0.24-0.13-0.47-0.19-0.7s-0.1-0.45-0.13-0.68      c-0.37,0.46-0.82,0.85-1.34,1.14C892.88,256.76,892.29,256.91,891.63,256.91z M892.22,254.91c0.52,0,1-0.12,1.46-0.36      c0.45-0.24,0.79-0.55,1.01-0.92v-1.86h-1.72c-0.77,0-1.36,0.18-1.75,0.54c-0.39,0.36-0.59,0.78-0.59,1.26      c0,0.43,0.14,0.76,0.41,0.99S891.7,254.91,892.22,254.91z"
   id="path713" />
				<path
   class="st7"
   d="M904.01,256.91c-0.9,0-1.66-0.23-2.3-0.68s-1.12-1.08-1.46-1.89c-0.34-0.81-0.51-1.75-0.51-2.83v-0.22      c0-1.18,0.17-2.21,0.51-3.1c0.34-0.88,0.83-1.57,1.47-2.06s1.4-0.74,2.28-0.74c0.64,0,1.19,0.12,1.67,0.36      c0.47,0.24,0.88,0.59,1.23,1.04v-4.2l-1.63-0.31v-1.59h1.63h2.58v14.11l1.54,0.31v1.58h-3.77l-0.21-1.34      c-0.35,0.51-0.77,0.9-1.28,1.16C905.25,256.77,904.67,256.91,904.01,256.91z M904.74,254.87c0.49,0,0.92-0.11,1.27-0.32      c0.36-0.21,0.65-0.53,0.88-0.94v-4.89c-0.23-0.4-0.52-0.71-0.88-0.94c-0.36-0.23-0.78-0.34-1.26-0.34      c-0.56,0-1.02,0.16-1.38,0.49c-0.36,0.33-0.62,0.78-0.79,1.35c-0.17,0.58-0.26,1.25-0.26,2.02v0.22c0,1.03,0.19,1.84,0.57,2.45      C903.28,254.56,903.89,254.87,904.74,254.87z"
   id="path715" />
				<path
   class="st7"
   d="M915.81,256.91c-1.13,0-2.01-0.29-2.63-0.87s-0.94-1.38-0.94-2.4c0-0.7,0.19-1.31,0.57-1.84      s0.94-0.94,1.68-1.24c0.74-0.3,1.63-0.45,2.69-0.45h1.69v-0.93c0-0.59-0.18-1.06-0.53-1.4c-0.35-0.35-0.86-0.52-1.53-0.52      c-0.38,0-0.72,0.05-1.01,0.14c-0.29,0.09-0.56,0.22-0.79,0.39l-0.24,1.5h-1.9l-0.02-2.74c0.55-0.36,1.16-0.64,1.83-0.85      c0.67-0.21,1.42-0.31,2.24-0.31c1.41,0,2.52,0.33,3.33,0.99c0.81,0.66,1.22,1.6,1.22,2.84v4.89c0,0.15,0,0.3,0,0.44      c0,0.14,0.01,0.28,0.03,0.42l1.13,0.14v1.58h-3.37c-0.07-0.24-0.13-0.47-0.19-0.7s-0.1-0.45-0.13-0.68      c-0.37,0.46-0.82,0.85-1.34,1.14C917.06,256.76,916.47,256.91,915.81,256.91z M916.4,254.91c0.52,0,1-0.12,1.46-0.36      c0.45-0.24,0.79-0.55,1.02-0.92v-1.86h-1.72c-0.77,0-1.36,0.18-1.75,0.54c-0.39,0.36-0.59,0.78-0.59,1.26      c0,0.43,0.14,0.76,0.41,0.99S915.88,254.91,916.4,254.91z"
   id="path717" />
				<path
   class="st7"
   d="M928.05,256.89c-0.94,0-1.68-0.26-2.21-0.79s-0.79-1.38-0.79-2.54v-6.11h-1.62v-1.85h1.62v-2.7h2.57v2.7      h2.19v1.85h-2.19v6.11c0,0.47,0.1,0.82,0.29,1.03c0.2,0.22,0.46,0.32,0.79,0.32c0.19,0,0.41-0.02,0.64-0.05      c0.24-0.03,0.43-0.07,0.57-0.1l0.27,1.81c-0.3,0.09-0.64,0.16-1.03,0.23C928.78,256.85,928.41,256.89,928.05,256.89z"
   id="path719" />
				<path
   class="st7"
   d="M935.06,256.91c-1.13,0-2.01-0.29-2.64-0.87s-0.94-1.38-0.94-2.4c0-0.7,0.19-1.31,0.57-1.84      s0.94-0.94,1.68-1.24c0.74-0.3,1.63-0.45,2.69-0.45h1.69v-0.93c0-0.59-0.18-1.06-0.53-1.4c-0.35-0.35-0.86-0.52-1.53-0.52      c-0.38,0-0.72,0.05-1.02,0.14c-0.29,0.09-0.56,0.22-0.79,0.39l-0.24,1.5h-1.9l-0.02-2.74c0.55-0.36,1.16-0.64,1.83-0.85      c0.67-0.21,1.41-0.31,2.23-0.31c1.41,0,2.52,0.33,3.33,0.99c0.81,0.66,1.21,1.6,1.21,2.84v4.89c0,0.15,0,0.3,0.01,0.44      c0,0.14,0.01,0.28,0.03,0.42l1.13,0.14v1.58h-3.37c-0.07-0.24-0.13-0.47-0.19-0.7c-0.06-0.23-0.1-0.45-0.13-0.68      c-0.37,0.46-0.81,0.85-1.34,1.14C936.3,256.76,935.71,256.91,935.06,256.91z M935.64,254.91c0.52,0,1-0.12,1.46-0.36      c0.45-0.24,0.79-0.55,1.02-0.92v-1.86h-1.72c-0.77,0-1.36,0.18-1.75,0.54c-0.39,0.36-0.59,0.78-0.59,1.26      c0,0.43,0.14,0.76,0.41,0.99S935.13,254.91,935.64,254.91z"
   id="path721" />
			</g>
		</g>
		<g
   id="g737">
			<g
   id="g735">
				<path
   class="st7"
   d="M1019.47,167.29v-2.4l1.79-0.43v-11.37l-1.79-0.45v-2.41h1.79h6.2c1.54,0,2.9,0.36,4.09,1.07      s2.12,1.7,2.79,2.96s1.01,2.72,1.01,4.37v0.27c0,1.65-0.34,3.1-1.01,4.37s-1.6,2.25-2.79,2.96s-2.55,1.07-4.09,1.07H1019.47z       M1025.38,164.17h1.88c0.87,0,1.59-0.22,2.18-0.66s1.03-1.05,1.33-1.85s0.45-1.72,0.45-2.77v-0.28c0-1.05-0.15-1.98-0.45-2.77      s-0.74-1.4-1.33-1.84s-1.31-0.66-2.18-0.66h-1.88V164.17z"
   id="path727" />
				<path
   class="st7"
   d="M1041.22,167.54c-1.23,0-2.23-0.35-3-1.04s-1.16-1.62-1.16-2.78c0-0.79,0.21-1.49,0.64-2.1      s1.07-1.09,1.92-1.44s1.93-0.52,3.22-0.52h1.32v-0.75c0-0.51-0.14-0.94-0.43-1.29s-0.75-0.53-1.37-0.53      c-0.27,0-0.51,0.03-0.74,0.1s-0.44,0.16-0.63,0.29l-0.28,1.62h-2.89l-0.06-3.53c0.72-0.32,1.47-0.6,2.26-0.83      s1.66-0.35,2.63-0.35c1.73,0,3.1,0.4,4.11,1.19s1.52,1.92,1.52,3.39v4.68c0,0.18,0,0.36,0.01,0.53s0.02,0.34,0.05,0.49      l1.37,0.23v2.4h-4.8c-0.1-0.14-0.21-0.33-0.33-0.56s-0.2-0.47-0.25-0.7c-0.38,0.48-0.81,0.85-1.29,1.11      S1041.95,167.54,1041.22,167.54z M1042.48,164.63c0.3,0,0.6-0.06,0.9-0.18s0.56-0.3,0.78-0.54v-1.83h-1.28      c-0.55,0-0.98,0.12-1.28,0.36s-0.45,0.56-0.45,0.96c0,0.38,0.12,0.68,0.38,0.9S1042.09,164.63,1042.48,164.63z"
   id="path729" />
				<path
   class="st7"
   d="M1055.86,167.56c-1.33,0-2.34-0.35-3.03-1.06s-1.04-1.83-1.04-3.36v-5.7h-1.58v-2.84h1.58v-3.13h4.09v3.13      h2.07v2.84h-2.07v5.68c0,0.41,0.09,0.7,0.28,0.87s0.45,0.25,0.77,0.25c0.14,0,0.28-0.01,0.42-0.02s0.28-0.04,0.42-0.06      l0.28,3.07c-0.36,0.1-0.72,0.18-1.08,0.24S1056.24,167.56,1055.86,167.56z"
   id="path731" />
				<path
   class="st7"
   d="M1063.54,167.54c-1.23,0-2.23-0.35-3-1.04s-1.16-1.62-1.16-2.78c0-0.79,0.21-1.49,0.64-2.1      s1.07-1.09,1.92-1.44s1.93-0.52,3.22-0.52h1.32v-0.75c0-0.51-0.14-0.94-0.43-1.29s-0.75-0.53-1.37-0.53      c-0.27,0-0.51,0.03-0.74,0.1s-0.44,0.16-0.63,0.29l-0.28,1.62h-2.89l-0.06-3.53c0.72-0.32,1.47-0.6,2.26-0.83      s1.66-0.35,2.63-0.35c1.73,0,3.1,0.4,4.11,1.19s1.52,1.92,1.52,3.39v4.68c0,0.18,0,0.36,0.01,0.53s0.02,0.34,0.05,0.49      l1.37,0.23v2.4h-4.8c-0.1-0.14-0.21-0.33-0.33-0.56s-0.2-0.47-0.25-0.7c-0.38,0.48-0.81,0.85-1.29,1.11      S1064.28,167.54,1063.54,167.54z M1064.81,164.63c0.3,0,0.6-0.06,0.9-0.18s0.56-0.3,0.78-0.54v-1.83h-1.28      c-0.55,0-0.98,0.12-1.28,0.36s-0.45,0.56-0.45,0.96c0,0.38,0.12,0.68,0.38,0.9S1064.42,164.63,1064.81,164.63z"
   id="path733" />
			</g>
		</g>
		<g
   id="g761">
			<rect
   x="1022"
   y="184"
   class="st8"
   width="230"
   height="158"
   id="rect739" />
			<line
   class="st8"
   x1="1022"
   y1="315.67"
   x2="1252"
   y2="315.67"
   id="line741" />
			<line
   class="st8"
   x1="1022"
   y1="289.33"
   x2="1252"
   y2="289.33"
   id="line743" />
			<line
   class="st8"
   x1="1022"
   y1="263"
   x2="1252"
   y2="263"
   id="line745" />
			<line
   class="st8"
   x1="1022"
   y1="236.67"
   x2="1252"
   y2="236.67"
   id="line747" />
			<line
   class="st8"
   x1="1022"
   y1="210.33"
   x2="1252"
   y2="210.33"
   id="line749" />
			<line
   class="st8"
   x1="1213.67"
   y1="184"
   x2="1213.67"
   y2="342"
   id="line751" />
			<line
   class="st8"
   x1="1175.33"
   y1="184"
   x2="1175.33"
   y2="342"
   id="line753" />
			<line
   class="st8"
   x1="1137"
   y1="184"
   x2="1137"
   y2="342"
   id="line755" />
			<line
   class="st8"
   x1="1098.67"
   y1="184"
   x2="1098.67"
   y2="342"
   id="line757" />
			<line
   class="st8"
   x1="1060.33"
   y1="184"
   x2="1060.33"
   y2="342"
   id="line759" />
		</g>
	</g>
	<g
   class="st0"
   clip-path="url(#SVGID_2_)"
   id="g889">
		<rect
   x="-195"
   y="93"
   class="st5"
   width="495"
   height="285"
   id="rect765" />
		<rect
   x="-171"
   y="137"
   class="st6"
   width="165"
   height="220"
   id="rect767" />
		<rect
   x="16"
   y="137"
   transform="matrix(-1 -1.224647e-16 1.224647e-16 -1 292 494)"
   class="st6"
   width="260"
   height="220"
   id="rect769" />
		<g
   id="g785">
			<g
   id="g783">
				<path
   class="st7"
   d="M-157.53,167.29v-2.4l1.77-0.38v-11.5l-1.77-0.38v-2.41h7.65v2.41l-1.77,0.38v4.31h6.21v-4.31l-1.77-0.38      v-2.41h1.77h4.1h1.77v2.41l-1.77,0.38v11.5l1.77,0.38v2.4h-7.64v-2.4l1.77-0.38v-4.03h-6.21v4.03l1.77,0.38v2.4H-157.53z"
   id="path771" />
				<path
   class="st7"
   d="M-132.18,167.54c-1.24,0-2.33-0.27-3.25-0.8s-1.64-1.27-2.16-2.2s-0.77-1.98-0.77-3.15v-0.43      c0-1.29,0.23-2.43,0.68-3.42s1.12-1.77,1.99-2.33s1.95-0.83,3.22-0.83c1.15,0,2.12,0.22,2.91,0.66s1.4,1.09,1.81,1.95      s0.62,1.91,0.62,3.16v2.12h-6.97l-0.01,0.08c0.06,0.4,0.2,0.75,0.4,1.06s0.49,0.55,0.86,0.73s0.82,0.27,1.36,0.27      c0.53,0,1.05-0.06,1.56-0.18s1.05-0.31,1.62-0.58l0.94,2.48c-0.57,0.41-1.27,0.74-2.09,1.01S-131.18,167.54-132.18,167.54z       M-134.09,159.72h3.22v-0.3c0-0.45-0.04-0.83-0.13-1.14s-0.24-0.54-0.46-0.69s-0.52-0.23-0.9-0.23c-0.41,0-0.74,0.1-0.99,0.3      s-0.43,0.47-0.54,0.82s-0.19,0.74-0.24,1.19L-134.09,159.72z"
   id="path773" />
				<path
   class="st7"
   d="M-121.33,167.54c-1.23,0-2.23-0.35-3-1.04s-1.16-1.62-1.16-2.78c0-0.79,0.21-1.49,0.64-2.1      s1.07-1.09,1.92-1.44s1.93-0.52,3.22-0.52h1.32v-0.75c0-0.51-0.14-0.94-0.43-1.29s-0.75-0.53-1.37-0.53      c-0.27,0-0.51,0.03-0.74,0.1s-0.44,0.16-0.63,0.29l-0.28,1.62h-2.89l-0.06-3.53c0.72-0.32,1.47-0.6,2.26-0.83      s1.66-0.35,2.63-0.35c1.73,0,3.1,0.4,4.11,1.19s1.52,1.92,1.52,3.39v4.68c0,0.18,0,0.36,0.01,0.53s0.02,0.34,0.05,0.49      l1.37,0.23v2.4h-4.8c-0.1-0.14-0.21-0.33-0.33-0.56s-0.2-0.47-0.25-0.7c-0.38,0.48-0.81,0.85-1.29,1.11      S-120.6,167.54-121.33,167.54z M-120.07,164.63c0.3,0,0.6-0.06,0.9-0.18s0.56-0.3,0.78-0.54v-1.83h-1.28      c-0.55,0-0.98,0.12-1.28,0.36s-0.45,0.56-0.45,0.96c0,0.38,0.12,0.68,0.38,0.9S-120.46,164.63-120.07,164.63z"
   id="path775" />
				<path
   class="st7"
   d="M-107.18,167.54c-0.99,0-1.85-0.26-2.56-0.79s-1.26-1.26-1.64-2.21s-0.57-2.06-0.57-3.32v-0.25      c0-1.32,0.19-2.47,0.57-3.46s0.93-1.76,1.63-2.31s1.54-0.83,2.51-0.83c0.67,0,1.25,0.14,1.74,0.42s0.92,0.67,1.28,1.17v-4.16      l-1.78-0.38v-2.41h1.78h4.11v15.5l1.48,0.38v2.4h-5.04l-0.3-1.57c-0.38,0.59-0.84,1.04-1.36,1.35S-106.46,167.54-107.18,167.54z       M-105.9,164.38c0.34,0,0.66-0.07,0.96-0.2s0.54-0.33,0.74-0.6v-5.07c-0.2-0.32-0.44-0.56-0.72-0.73s-0.6-0.25-0.96-0.25      c-0.47,0-0.85,0.14-1.14,0.43s-0.5,0.69-0.63,1.21s-0.19,1.12-0.19,1.8v0.25c0,1.01,0.14,1.79,0.42,2.34      S-106.62,164.38-105.9,164.38z"
   id="path777" />
				<path
   class="st7"
   d="M-91.58,167.54c-1.24,0-2.33-0.27-3.25-0.8s-1.64-1.27-2.16-2.2s-0.77-1.98-0.77-3.15v-0.43      c0-1.29,0.23-2.43,0.68-3.42s1.12-1.77,1.99-2.33s1.95-0.83,3.22-0.83c1.15,0,2.12,0.22,2.91,0.66s1.4,1.09,1.81,1.95      s0.62,1.91,0.62,3.16v2.12h-6.97l-0.01,0.08c0.06,0.4,0.2,0.75,0.4,1.06s0.49,0.55,0.86,0.73s0.82,0.27,1.36,0.27      c0.53,0,1.05-0.06,1.56-0.18s1.05-0.31,1.62-0.58l0.94,2.48c-0.57,0.41-1.27,0.74-2.09,1.01S-90.57,167.54-91.58,167.54z       M-93.49,159.72h3.22v-0.3c0-0.45-0.04-0.83-0.13-1.14s-0.24-0.54-0.46-0.69s-0.52-0.23-0.9-0.23c-0.41,0-0.74,0.1-0.99,0.3      s-0.43,0.47-0.54,0.82s-0.19,0.74-0.24,1.19L-93.49,159.72z"
   id="path779" />
				<path
   class="st7"
   d="M-84.63,167.29v-2.4l1.48-0.38v-7.11l-1.76-0.38v-2.41h5.64l0.09,1.55l0.02,0.32      c0.28-0.72,0.63-1.25,1.05-1.59s0.94-0.51,1.56-0.51c0.17,0,0.38,0.01,0.61,0.04s0.47,0.08,0.71,0.15l-0.41,3.77l-1.76-0.08      c-0.41-0.02-0.72,0.03-0.96,0.13s-0.46,0.28-0.7,0.52v5.6l1.48,0.38v2.4H-84.63z"
   id="path781" />
			</g>
		</g>
		<g
   id="g799">
			<g
   id="g797">
				<path
   class="st7"
   d="M-170.53,124.29v-2.4l1.77-0.38v-11.5l-1.77-0.38v-2.41h14.05v5.03h-3.11l-0.08-1.86h-4.98v3.95h5.8v3.14      h-5.8v4.03l1.77,0.38v2.4H-170.53z"
   id="path787" />
				<path
   class="st7"
   d="M-155.02,124.29v-2.4l1.48-0.38v-7.11l-1.76-0.38v-2.41h5.64l0.09,1.55l0.02,0.32      c0.28-0.72,0.63-1.25,1.05-1.59s0.94-0.51,1.56-0.51c0.17,0,0.38,0.01,0.61,0.04s0.47,0.08,0.71,0.15l-0.41,3.77l-1.76-0.08      c-0.41-0.02-0.72,0.03-0.96,0.13s-0.46,0.28-0.7,0.52v5.6l1.48,0.38v2.4H-155.02z"
   id="path789" />
				<path
   class="st7"
   d="M-140.5,124.54c-1.23,0-2.23-0.35-3-1.04s-1.16-1.62-1.16-2.78c0-0.79,0.21-1.49,0.64-2.1      s1.07-1.09,1.92-1.44s1.93-0.52,3.22-0.52h1.32v-0.75c0-0.51-0.14-0.94-0.43-1.29s-0.75-0.53-1.37-0.53      c-0.27,0-0.51,0.03-0.74,0.1s-0.44,0.16-0.63,0.29l-0.28,1.62h-2.89l-0.06-3.53c0.72-0.32,1.47-0.6,2.26-0.83      s1.66-0.35,2.63-0.35c1.73,0,3.1,0.4,4.11,1.19s1.52,1.92,1.52,3.39v4.68c0,0.18,0,0.36,0.01,0.53s0.02,0.34,0.05,0.49      l1.37,0.23v2.4h-4.8c-0.1-0.14-0.21-0.33-0.33-0.56s-0.2-0.47-0.25-0.7c-0.38,0.48-0.81,0.85-1.29,1.11      S-139.76,124.54-140.5,124.54z M-139.23,121.63c0.3,0,0.6-0.06,0.9-0.18s0.56-0.3,0.78-0.54v-1.83h-1.28      c-0.55,0-0.98,0.12-1.28,0.36s-0.45,0.56-0.45,0.96c0,0.38,0.12,0.68,0.38,0.9S-139.62,121.63-139.23,121.63z"
   id="path791" />
				<path
   class="st7"
   d="M-131.37,124.29v-2.4l1.5-0.38v-7.11l-1.78-0.38v-2.41h5.64l0.13,1.69c0.41-0.61,0.92-1.08,1.51-1.42      s1.28-0.5,2.06-0.5c0.79,0,1.47,0.17,2.03,0.51s0.99,0.86,1.28,1.55c0.38-0.66,0.88-1.16,1.48-1.52s1.32-0.54,2.14-0.54      c1.23,0,2.19,0.41,2.89,1.24s1.05,2.1,1.05,3.82v5.07l1.5,0.38v2.4h-6.81v-2.4l1.21-0.38v-5.07c0-0.74-0.12-1.25-0.35-1.51      s-0.56-0.4-1-0.4c-0.36,0-0.68,0.07-0.97,0.21s-0.54,0.33-0.76,0.59v6.19l1.05,0.38v2.4h-6.2v-2.4l1.05-0.38v-5.07      c0-0.74-0.11-1.25-0.34-1.51s-0.57-0.4-1.02-0.4c-0.35,0-0.67,0.07-0.96,0.21s-0.54,0.34-0.76,0.6v6.18l1.21,0.38v2.4H-131.37z"
   id="path793" />
				<path
   class="st7"
   d="M-102.87,124.54c-1.24,0-2.33-0.27-3.25-0.8s-1.64-1.27-2.16-2.2s-0.77-1.98-0.77-3.15v-0.43      c0-1.29,0.23-2.43,0.68-3.42s1.12-1.77,1.99-2.33s1.95-0.83,3.22-0.83c1.15,0,2.12,0.22,2.91,0.66s1.4,1.09,1.81,1.95      s0.62,1.91,0.62,3.16v2.12h-6.97l-0.01,0.08c0.06,0.4,0.2,0.75,0.4,1.06s0.49,0.55,0.86,0.73s0.82,0.27,1.36,0.27      c0.53,0,1.05-0.06,1.56-0.18s1.05-0.31,1.62-0.58l0.94,2.48c-0.57,0.41-1.27,0.74-2.09,1.01S-101.86,124.54-102.87,124.54z       M-104.78,116.72h3.22v-0.3c0-0.45-0.04-0.83-0.13-1.14s-0.24-0.54-0.46-0.69s-0.52-0.23-0.9-0.23c-0.41,0-0.74,0.1-0.99,0.3      s-0.43,0.47-0.54,0.82s-0.19,0.74-0.24,1.19L-104.78,116.72z"
   id="path795" />
			</g>
		</g>
		<g
   id="g851">
			<g
   id="g849">
				<path
   class="st7"
   d="M-155.59,200.9v-5.1h6.13v5.1H-155.59z"
   id="path801" />
				<path
   class="st7"
   d="M-134.4,206.51c-1.47,0-2.73-0.31-3.77-0.94c-1.04-0.63-1.84-1.5-2.39-2.62s-0.83-2.43-0.83-3.92v-0.38      c0-1.46,0.27-2.75,0.82-3.87c0.55-1.12,1.33-2.01,2.35-2.66c1.02-0.65,2.24-0.97,3.65-0.97c0.99,0,1.91,0.15,2.76,0.44      s1.59,0.71,2.21,1.24v3.45h-1.97l-0.27-2.31c-0.23-0.16-0.48-0.3-0.75-0.42s-0.57-0.21-0.9-0.27c-0.33-0.06-0.68-0.09-1.06-0.09      c-0.9,0-1.66,0.23-2.3,0.68c-0.64,0.45-1.13,1.08-1.46,1.9s-0.5,1.77-0.5,2.86v0.4c0,1.13,0.18,2.11,0.53,2.93      c0.36,0.82,0.87,1.44,1.53,1.88c0.67,0.44,1.46,0.66,2.39,0.66c0.45,0,0.9-0.05,1.34-0.16c0.44-0.11,0.83-0.24,1.16-0.42      l0.28-2.09h1.95v3.42c-0.57,0.38-1.28,0.68-2.11,0.91C-132.55,206.39-133.44,206.51-134.4,206.51z"
   id="path803" />
				<path
   class="st7"
   d="M-122.76,206.51c-1.07,0-1.98-0.24-2.75-0.72s-1.35-1.14-1.76-1.99c-0.41-0.85-0.62-1.83-0.62-2.94v-0.22      c0-1.1,0.21-2.07,0.62-2.92s1-1.51,1.76-2s1.67-0.73,2.73-0.73c1.07,0,1.98,0.24,2.75,0.72c0.77,0.48,1.35,1.15,1.76,1.99      s0.62,1.83,0.62,2.93v0.22c0,1.11-0.21,2.09-0.62,2.94c-0.41,0.85-1,1.52-1.76,1.99S-121.7,206.51-122.76,206.51z       M-122.76,204.52c0.57,0,1.05-0.16,1.42-0.47s0.65-0.74,0.84-1.29s0.28-1.18,0.28-1.9v-0.22c0-0.71-0.09-1.34-0.28-1.89      s-0.46-0.98-0.84-1.29s-0.85-0.47-1.44-0.47c-0.57,0-1.04,0.16-1.42,0.47s-0.65,0.75-0.84,1.29s-0.27,1.18-0.27,1.89v0.22      c0,0.72,0.09,1.35,0.27,1.9s0.46,0.98,0.84,1.29C-123.81,204.36-123.34,204.52-122.76,204.52z"
   id="path805" />
				<path
   class="st7"
   d="M-116.36,206.29v-1.58l1.55-0.31v-12.21l-1.64-0.31v-1.59h4.21v14.11l1.55,0.31v1.58H-116.36z"
   id="path807" />
				<path
   class="st7"
   d="M-104.75,206.51c-1.19,0-2.12-0.38-2.78-1.13c-0.67-0.75-1-1.93-1-3.52v-4.76l-1.25-0.31v-1.59h1.25h2.58      v6.68c0,0.96,0.15,1.63,0.46,2.02c0.3,0.39,0.77,0.58,1.41,0.58c0.56,0,1.04-0.11,1.43-0.33s0.71-0.54,0.94-0.95v-6.09      l-1.39-0.31v-1.59h1.39h2.58v9.21l1.31,0.31v1.58h-3.6l-0.17-1.51c-0.35,0.55-0.79,0.98-1.33,1.28      C-103.45,206.36-104.06,206.51-104.75,206.51z"
   id="path809" />
				<path
   class="st7"
   d="M-96.66,206.29v-1.58l1.55-0.31v-7.31l-1.63-0.31v-1.59h4l0.12,1.46c0.36-0.53,0.81-0.93,1.36-1.23      c0.54-0.29,1.17-0.44,1.89-0.44c0.72,0,1.34,0.16,1.86,0.49c0.52,0.32,0.91,0.81,1.17,1.47c0.34-0.61,0.79-1.09,1.35-1.44      c0.56-0.35,1.21-0.52,1.96-0.52c1.11,0,1.99,0.38,2.63,1.14c0.64,0.76,0.96,1.91,0.96,3.45v4.83l1.55,0.31v1.58h-5.59v-1.58      l1.46-0.31v-4.84c0-0.94-0.16-1.59-0.47-1.97s-0.78-0.56-1.38-0.56c-0.57,0-1.03,0.18-1.4,0.54c-0.37,0.36-0.6,0.82-0.71,1.38      v5.44l1.4,0.31v1.58h-5.38v-1.58l1.4-0.31v-4.84c0-0.9-0.16-1.55-0.48-1.94c-0.32-0.39-0.79-0.59-1.39-0.59      c-0.51,0-0.93,0.1-1.28,0.31c-0.35,0.21-0.62,0.5-0.83,0.87v6.19l1.45,0.31v1.58H-96.66z"
   id="path811" />
				<path
   class="st7"
   d="M-76.74,206.29v-1.58l1.54-0.31v-7.31l-1.62-0.31v-1.59h4l0.13,1.61c0.37-0.57,0.83-1.02,1.38-1.34      c0.55-0.32,1.17-0.48,1.87-0.48c1.14,0,2.03,0.35,2.67,1.05c0.64,0.7,0.95,1.8,0.95,3.29v5.08l1.54,0.31v1.58h-5.57v-1.58      l1.45-0.31v-5.06c0-0.84-0.17-1.44-0.5-1.79c-0.33-0.35-0.83-0.53-1.5-0.53c-0.5,0-0.94,0.11-1.31,0.33      c-0.37,0.22-0.68,0.53-0.91,0.93v6.11l1.4,0.31v1.58H-76.74z"
   id="path813" />
				<path
   class="st7"
   d="M-58.47,206.51c-0.79,0-1.53-0.08-2.22-0.23c-0.69-0.15-1.38-0.38-2.07-0.68l-0.03-2.93h1.86l0.39,1.6      c0.29,0.13,0.6,0.23,0.91,0.3c0.31,0.07,0.66,0.11,1.04,0.11c0.74,0,1.26-0.13,1.56-0.39c0.3-0.26,0.46-0.58,0.46-0.96      c0-0.37-0.16-0.69-0.48-0.95c-0.32-0.26-0.92-0.49-1.82-0.68c-1.33-0.29-2.3-0.71-2.93-1.26c-0.62-0.55-0.94-1.27-0.94-2.15      c0-0.61,0.16-1.16,0.49-1.65s0.8-0.89,1.44-1.18c0.63-0.3,1.41-0.45,2.33-0.45c0.84,0,1.59,0.09,2.24,0.26      c0.65,0.17,1.21,0.41,1.67,0.69l0.06,2.82h-1.84l-0.32-1.47c-0.21-0.15-0.46-0.27-0.74-0.35s-0.6-0.12-0.96-0.12      c-0.57,0-1.02,0.12-1.34,0.37c-0.33,0.25-0.49,0.56-0.49,0.94c0,0.22,0.05,0.42,0.16,0.59c0.11,0.18,0.31,0.34,0.62,0.49      c0.3,0.15,0.75,0.29,1.34,0.43c1.44,0.33,2.47,0.77,3.1,1.31s0.93,1.25,0.93,2.14c0,0.99-0.36,1.8-1.09,2.44      S-56.98,206.51-58.47,206.51z"
   id="path815" />
				<path
   class="st7"
   d="M-155.59,226.1v-5.1h6.13v5.1H-155.59z"
   id="path817" />
				<path
   class="st7"
   d="M-134.4,231.71c-1.47,0-2.73-0.31-3.77-0.94c-1.04-0.63-1.84-1.5-2.39-2.62s-0.83-2.43-0.83-3.92v-0.38      c0-1.46,0.27-2.75,0.82-3.87c0.55-1.12,1.33-2.01,2.35-2.66c1.02-0.65,2.24-0.97,3.65-0.97c0.99,0,1.91,0.15,2.76,0.44      s1.59,0.71,2.21,1.24v3.45h-1.97l-0.27-2.31c-0.23-0.16-0.48-0.3-0.75-0.42s-0.57-0.21-0.9-0.27c-0.33-0.06-0.68-0.09-1.06-0.09      c-0.9,0-1.66,0.23-2.3,0.68c-0.64,0.45-1.13,1.08-1.46,1.9s-0.5,1.77-0.5,2.86v0.4c0,1.13,0.18,2.11,0.53,2.93      c0.36,0.82,0.87,1.44,1.53,1.88c0.67,0.44,1.46,0.66,2.39,0.66c0.45,0,0.9-0.05,1.34-0.16c0.44-0.11,0.83-0.24,1.16-0.42      l0.28-2.09h1.95v3.42c-0.57,0.38-1.28,0.68-2.11,0.91C-132.55,231.59-133.44,231.71-134.4,231.71z"
   id="path819" />
				<path
   class="st7"
   d="M-122.76,231.71c-1.07,0-1.98-0.24-2.75-0.72s-1.35-1.14-1.76-1.99c-0.41-0.85-0.62-1.83-0.62-2.94v-0.22      c0-1.1,0.21-2.07,0.62-2.92s1-1.51,1.76-2s1.67-0.73,2.73-0.73c1.07,0,1.98,0.24,2.75,0.72c0.77,0.48,1.35,1.15,1.76,1.99      s0.62,1.83,0.62,2.93v0.22c0,1.11-0.21,2.09-0.62,2.94c-0.41,0.85-1,1.52-1.76,1.99S-121.7,231.71-122.76,231.71z       M-122.76,229.72c0.57,0,1.05-0.16,1.42-0.47s0.65-0.74,0.84-1.29s0.28-1.18,0.28-1.9v-0.22c0-0.71-0.09-1.34-0.28-1.89      s-0.46-0.98-0.84-1.29s-0.85-0.47-1.44-0.47c-0.57,0-1.04,0.16-1.42,0.47s-0.65,0.75-0.84,1.29s-0.27,1.18-0.27,1.89v0.22      c0,0.72,0.09,1.35,0.27,1.9s0.46,0.98,0.84,1.29C-123.81,229.56-123.34,229.72-122.76,229.72z"
   id="path821" />
				<path
   class="st7"
   d="M-111.91,231.71c-0.9,0-1.66-0.23-2.3-0.68s-1.12-1.08-1.46-1.89c-0.34-0.81-0.51-1.75-0.51-2.83v-0.22      c0-1.18,0.17-2.21,0.51-3.1c0.34-0.88,0.83-1.57,1.47-2.06s1.4-0.74,2.28-0.74c0.64,0,1.19,0.12,1.67,0.36      c0.47,0.24,0.88,0.59,1.23,1.04v-4.2l-1.63-0.31v-1.59h1.63h2.58v14.11l1.54,0.31v1.58h-3.77l-0.21-1.34      c-0.35,0.51-0.77,0.9-1.28,1.16C-110.67,231.57-111.25,231.71-111.91,231.71z M-111.19,229.67c0.49,0,0.92-0.11,1.27-0.32      c0.36-0.21,0.65-0.53,0.88-0.94v-4.89c-0.23-0.4-0.52-0.71-0.88-0.94c-0.36-0.23-0.78-0.34-1.26-0.34      c-0.56,0-1.02,0.16-1.38,0.49c-0.36,0.33-0.62,0.78-0.79,1.35c-0.17,0.58-0.26,1.25-0.26,2.02v0.22c0,1.03,0.19,1.84,0.57,2.45      C-112.65,229.36-112.03,229.67-111.19,229.67z"
   id="path823" />
				<path
   class="st7"
   d="M-98.57,231.71c-1.05,0-1.96-0.23-2.73-0.7c-0.78-0.47-1.38-1.12-1.8-1.94s-0.64-1.77-0.64-2.84v-0.43      c0-1.08,0.21-2.04,0.63-2.89c0.42-0.84,1-1.51,1.74-1.99c0.74-0.48,1.58-0.72,2.52-0.72c1,0,1.85,0.2,2.53,0.6      c0.68,0.4,1.19,0.98,1.54,1.72c0.35,0.74,0.52,1.63,0.52,2.67v1.48h-6.81l-0.02,0.05c0.03,0.58,0.15,1.1,0.36,1.55      c0.22,0.45,0.52,0.81,0.92,1.07c0.4,0.26,0.89,0.39,1.46,0.39c0.6,0,1.15-0.08,1.64-0.25s0.95-0.4,1.36-0.7l0.81,1.62      c-0.44,0.37-0.99,0.68-1.67,0.93S-97.67,231.71-98.57,231.71z M-101.03,224.85h4.3v-0.27c0-0.49-0.07-0.91-0.22-1.28      s-0.38-0.65-0.69-0.86c-0.31-0.21-0.71-0.31-1.18-0.31c-0.42,0-0.78,0.12-1.1,0.35s-0.57,0.55-0.75,0.95      c-0.19,0.4-0.32,0.85-0.38,1.36L-101.03,224.85z"
   id="path825" />
				<path
   class="st7"
   d="M-87.67,231.71c-1.04,0-1.94-0.24-2.7-0.71s-1.35-1.13-1.76-1.97s-0.62-1.8-0.62-2.9v-0.36      c0-1.07,0.21-2.03,0.62-2.87s1-1.5,1.76-1.98c0.76-0.48,1.66-0.72,2.7-0.72c0.95,0,1.78,0.15,2.48,0.46      c0.7,0.3,1.28,0.68,1.73,1.13l0.01,2.96h-1.97l-0.38-1.96c-0.19-0.2-0.43-0.36-0.73-0.48c-0.29-0.12-0.62-0.18-0.96-0.18      c-0.57,0-1.05,0.15-1.45,0.46c-0.4,0.31-0.7,0.73-0.91,1.28c-0.21,0.54-0.31,1.18-0.31,1.9v0.36c0,0.78,0.11,1.44,0.32,1.97      s0.51,0.94,0.89,1.21c0.38,0.27,0.81,0.41,1.31,0.41c0.59,0,1.08-0.16,1.45-0.48s0.62-0.77,0.73-1.33h2.24l0.03,0.06      c-0.08,0.72-0.3,1.37-0.64,1.93c-0.35,0.56-0.83,1.01-1.46,1.33C-85.93,231.55-86.72,231.71-87.67,231.71z"
   id="path827" />
				<path
   class="st7"
   d="M-77.12,231.71c-0.79,0-1.53-0.08-2.22-0.23c-0.69-0.15-1.38-0.38-2.07-0.68l-0.03-2.93h1.86l0.39,1.6      c0.29,0.13,0.6,0.23,0.91,0.3c0.31,0.07,0.66,0.11,1.04,0.11c0.74,0,1.26-0.13,1.56-0.39c0.3-0.26,0.46-0.58,0.46-0.96      c0-0.37-0.16-0.69-0.48-0.95c-0.32-0.26-0.92-0.49-1.82-0.68c-1.33-0.29-2.3-0.71-2.93-1.26c-0.62-0.55-0.94-1.27-0.94-2.15      c0-0.61,0.16-1.16,0.49-1.65s0.8-0.89,1.44-1.18c0.63-0.3,1.41-0.45,2.33-0.45c0.84,0,1.59,0.09,2.24,0.26      c0.65,0.17,1.21,0.41,1.67,0.69l0.06,2.82H-75l-0.32-1.47c-0.21-0.15-0.46-0.27-0.74-0.35s-0.6-0.12-0.96-0.12      c-0.57,0-1.02,0.12-1.34,0.37c-0.33,0.25-0.49,0.56-0.49,0.94c0,0.22,0.05,0.42,0.16,0.59c0.11,0.18,0.31,0.34,0.62,0.49      c0.3,0.15,0.75,0.29,1.34,0.43c1.44,0.33,2.47,0.77,3.1,1.31s0.93,1.25,0.93,2.14c0,0.99-0.36,1.8-1.09,2.44      S-75.63,231.71-77.12,231.71z"
   id="path829" />
				<path
   class="st7"
   d="M-155.59,251.3v-5.1h6.13v5.1H-155.59z"
   id="path831" />
				<path
   class="st7"
   d="M-141.3,256.69v-1.58l1.62-0.31v-11.15l-1.62-0.31v-1.59h1.62h3.7l4.38,10.8h0.06l4.25-10.8h5.38v1.59      l-1.63,0.31v11.15l1.63,0.31v1.58h-5.83v-1.58l1.71-0.31v-3.48l0.02-6.53l-0.05-0.01l-4.62,11.57h-1.88l-4.76-11.5l-0.05,0.01      l0.13,6.3v3.65l1.77,0.31v1.58H-141.3z"
   id="path833" />
				<path
   class="st7"
   d="M-115.32,256.91c-1.05,0-1.96-0.23-2.73-0.7c-0.78-0.47-1.38-1.12-1.8-1.94s-0.64-1.77-0.64-2.84v-0.43      c0-1.08,0.21-2.04,0.63-2.89c0.42-0.84,1-1.51,1.74-1.99c0.74-0.48,1.58-0.72,2.52-0.72c1,0,1.85,0.2,2.53,0.6      c0.68,0.4,1.19,0.98,1.54,1.72c0.35,0.74,0.52,1.63,0.52,2.67v1.48h-6.81l-0.02,0.05c0.03,0.58,0.15,1.1,0.36,1.55      c0.22,0.45,0.52,0.81,0.92,1.07c0.4,0.26,0.89,0.39,1.46,0.39c0.6,0,1.15-0.08,1.64-0.25s0.95-0.4,1.36-0.7l0.81,1.62      c-0.44,0.37-0.99,0.68-1.67,0.93S-114.42,256.91-115.32,256.91z M-117.78,250.05h4.3v-0.27c0-0.49-0.07-0.91-0.22-1.28      s-0.38-0.65-0.69-0.86c-0.31-0.21-0.71-0.31-1.18-0.31c-0.42,0-0.78,0.12-1.1,0.35s-0.57,0.55-0.75,0.95      c-0.19,0.4-0.32,0.85-0.38,1.36L-117.78,250.05z"
   id="path835" />
				<path
   class="st7"
   d="M-105.37,256.89c-0.94,0-1.68-0.26-2.2-0.79s-0.79-1.38-0.79-2.54v-6.11h-1.62v-1.85h1.62v-2.7h2.57v2.7      h2.19v1.85h-2.19v6.11c0,0.47,0.1,0.82,0.29,1.03c0.2,0.22,0.46,0.32,0.79,0.32c0.19,0,0.41-0.02,0.64-0.05      c0.24-0.03,0.43-0.07,0.57-0.1l0.27,1.81c-0.3,0.09-0.64,0.16-1.03,0.23C-104.65,256.85-105.02,256.89-105.37,256.89z"
   id="path837" />
				<path
   class="st7"
   d="M-98.37,256.91c-1.13,0-2.01-0.29-2.64-0.87s-0.94-1.38-0.94-2.4c0-0.7,0.19-1.31,0.57-1.84      s0.94-0.94,1.68-1.24c0.74-0.3,1.63-0.45,2.69-0.45h1.69v-0.93c0-0.59-0.18-1.06-0.53-1.4c-0.35-0.35-0.86-0.52-1.53-0.52      c-0.38,0-0.72,0.05-1.02,0.14c-0.29,0.09-0.56,0.22-0.79,0.39l-0.24,1.5h-1.9l-0.02-2.74c0.55-0.36,1.16-0.64,1.83-0.85      c0.67-0.21,1.42-0.31,2.24-0.31c1.41,0,2.52,0.33,3.33,0.99c0.81,0.66,1.22,1.6,1.22,2.84v4.89c0,0.15,0,0.3,0.01,0.44      c0,0.14,0.01,0.28,0.03,0.42l1.13,0.14v1.58h-3.37c-0.07-0.24-0.13-0.47-0.19-0.7s-0.1-0.45-0.13-0.68      c-0.37,0.46-0.82,0.85-1.34,1.14C-97.12,256.76-97.71,256.91-98.37,256.91z M-97.78,254.91c0.52,0,1-0.12,1.46-0.36      c0.45-0.24,0.79-0.55,1.02-0.92v-1.86h-1.72c-0.77,0-1.36,0.18-1.75,0.54c-0.39,0.36-0.59,0.78-0.59,1.26      c0,0.43,0.14,0.76,0.41,0.99S-98.3,254.91-97.78,254.91z"
   id="path839" />
				<path
   class="st7"
   d="M-85.99,256.91c-0.9,0-1.66-0.23-2.3-0.68s-1.12-1.08-1.46-1.89c-0.34-0.81-0.51-1.75-0.51-2.83v-0.22      c0-1.18,0.17-2.21,0.51-3.1c0.34-0.88,0.83-1.57,1.47-2.06s1.4-0.74,2.28-0.74c0.64,0,1.19,0.12,1.67,0.36      c0.47,0.24,0.88,0.59,1.23,1.04v-4.2l-1.63-0.31v-1.59h1.63h2.58v14.11l1.54,0.31v1.58h-3.77l-0.21-1.34      c-0.35,0.51-0.77,0.9-1.28,1.16C-84.75,256.77-85.33,256.91-85.99,256.91z M-85.26,254.87c0.49,0,0.92-0.11,1.27-0.32      c0.36-0.21,0.65-0.53,0.88-0.94v-4.89c-0.23-0.4-0.52-0.71-0.88-0.94c-0.36-0.23-0.78-0.34-1.26-0.34      c-0.56,0-1.02,0.16-1.38,0.49c-0.36,0.33-0.62,0.78-0.79,1.35c-0.17,0.58-0.26,1.25-0.26,2.02v0.22c0,1.03,0.19,1.84,0.57,2.45      C-86.72,254.56-86.11,254.87-85.26,254.87z"
   id="path841" />
				<path
   class="st7"
   d="M-74.19,256.91c-1.13,0-2.01-0.29-2.64-0.87s-0.94-1.38-0.94-2.4c0-0.7,0.19-1.31,0.57-1.84      s0.94-0.94,1.68-1.24c0.74-0.3,1.63-0.45,2.69-0.45h1.69v-0.93c0-0.59-0.18-1.06-0.53-1.4c-0.35-0.35-0.86-0.52-1.53-0.52      c-0.38,0-0.72,0.05-1.02,0.14c-0.29,0.09-0.56,0.22-0.79,0.39l-0.24,1.5h-1.9l-0.02-2.74c0.55-0.36,1.16-0.64,1.83-0.85      c0.67-0.21,1.42-0.31,2.24-0.31c1.41,0,2.52,0.33,3.33,0.99c0.81,0.66,1.22,1.6,1.22,2.84v4.89c0,0.15,0,0.3,0.01,0.44      c0,0.14,0.01,0.28,0.03,0.42l1.13,0.14v1.58h-3.37c-0.07-0.24-0.13-0.47-0.19-0.7s-0.1-0.45-0.13-0.68      c-0.37,0.46-0.82,0.85-1.34,1.14C-72.94,256.76-73.53,256.91-74.19,256.91z M-73.6,254.91c0.52,0,1-0.12,1.46-0.36      c0.45-0.24,0.79-0.55,1.02-0.92v-1.86h-1.72c-0.77,0-1.36,0.18-1.75,0.54c-0.39,0.36-0.59,0.78-0.59,1.26      c0,0.43,0.14,0.76,0.41,0.99S-74.12,254.91-73.6,254.91z"
   id="path843" />
				<path
   class="st7"
   d="M-61.95,256.89c-0.94,0-1.68-0.26-2.2-0.79s-0.79-1.38-0.79-2.54v-6.11h-1.62v-1.85h1.62v-2.7h2.57v2.7      h2.19v1.85h-2.19v6.11c0,0.47,0.1,0.82,0.29,1.03c0.2,0.22,0.46,0.32,0.79,0.32c0.19,0,0.41-0.02,0.64-0.05      c0.24-0.03,0.43-0.07,0.57-0.1l0.27,1.81c-0.3,0.09-0.64,0.16-1.03,0.23C-61.22,256.85-61.59,256.89-61.95,256.89z"
   id="path845" />
				<path
   class="st7"
   d="M-54.94,256.91c-1.13,0-2.01-0.29-2.64-0.87s-0.94-1.38-0.94-2.4c0-0.7,0.19-1.31,0.57-1.84      s0.94-0.94,1.68-1.24c0.74-0.3,1.63-0.45,2.69-0.45h1.69v-0.93c0-0.59-0.18-1.06-0.53-1.4c-0.35-0.35-0.86-0.52-1.53-0.52      c-0.38,0-0.72,0.05-1.02,0.14c-0.29,0.09-0.56,0.22-0.79,0.39l-0.24,1.5h-1.9l-0.02-2.74c0.55-0.36,1.16-0.64,1.83-0.85      c0.67-0.21,1.42-0.31,2.24-0.31c1.41,0,2.52,0.33,3.33,0.99c0.81,0.66,1.22,1.6,1.22,2.84v4.89c0,0.15,0,0.3,0.01,0.44      c0,0.14,0.01,0.28,0.03,0.42l1.13,0.14v1.58h-3.37c-0.07-0.24-0.13-0.47-0.19-0.7s-0.1-0.45-0.13-0.68      c-0.37,0.46-0.82,0.85-1.34,1.14C-53.7,256.76-54.29,256.91-54.94,256.91z M-54.36,254.91c0.52,0,1-0.12,1.46-0.36      c0.45-0.24,0.79-0.55,1.02-0.92v-1.86h-1.72c-0.77,0-1.36,0.18-1.75,0.54c-0.39,0.36-0.59,0.78-0.59,1.26      c0,0.43,0.14,0.76,0.41,0.99S-54.87,254.91-54.36,254.91z"
   id="path847" />
			</g>
		</g>
		<g
   id="g863">
			<g
   id="g861">
				<path
   class="st7"
   d="M29.47,167.29v-2.4l1.79-0.43v-11.37l-1.79-0.45v-2.41h1.79h6.2c1.54,0,2.9,0.36,4.09,1.07      s2.12,1.7,2.79,2.96s1.01,2.72,1.01,4.37v0.27c0,1.65-0.34,3.1-1.01,4.37s-1.6,2.25-2.79,2.96s-2.55,1.07-4.09,1.07H29.47z       M35.38,164.17h1.88c0.87,0,1.59-0.22,2.18-0.66s1.03-1.05,1.33-1.85s0.45-1.72,0.45-2.77v-0.28c0-1.05-0.15-1.98-0.45-2.77      s-0.74-1.4-1.33-1.84s-1.31-0.66-2.18-0.66h-1.88V164.17z"
   id="path853" />
				<path
   class="st7"
   d="M51.22,167.54c-1.23,0-2.23-0.35-3-1.04s-1.16-1.62-1.16-2.78c0-0.79,0.21-1.49,0.64-2.1      s1.07-1.09,1.92-1.44s1.93-0.52,3.22-0.52h1.32v-0.75c0-0.51-0.14-0.94-0.43-1.29s-0.75-0.53-1.37-0.53      c-0.27,0-0.51,0.03-0.74,0.1s-0.44,0.16-0.63,0.29l-0.28,1.62h-2.89l-0.06-3.53c0.72-0.32,1.47-0.6,2.26-0.83      s1.66-0.35,2.63-0.35c1.73,0,3.1,0.4,4.11,1.19s1.52,1.92,1.52,3.39v4.68c0,0.18,0,0.36,0.01,0.53s0.02,0.34,0.05,0.49      l1.37,0.23v2.4h-4.8c-0.1-0.14-0.21-0.33-0.33-0.56s-0.2-0.47-0.25-0.7c-0.38,0.48-0.81,0.85-1.29,1.11      S51.95,167.54,51.22,167.54z M52.48,164.63c0.3,0,0.6-0.06,0.9-0.18s0.56-0.3,0.78-0.54v-1.83h-1.28      c-0.55,0-0.98,0.12-1.28,0.36s-0.45,0.56-0.45,0.96c0,0.38,0.12,0.68,0.38,0.9S52.09,164.63,52.48,164.63z"
   id="path855" />
				<path
   class="st7"
   d="M65.86,167.56c-1.33,0-2.34-0.35-3.03-1.06s-1.04-1.83-1.04-3.36v-5.7h-1.58v-2.84h1.58v-3.13h4.09v3.13      h2.07v2.84h-2.07v5.68c0,0.41,0.09,0.7,0.28,0.87s0.45,0.25,0.77,0.25c0.14,0,0.28-0.01,0.42-0.02s0.28-0.04,0.42-0.06      l0.28,3.07c-0.36,0.1-0.72,0.18-1.08,0.24S66.24,167.56,65.86,167.56z"
   id="path857" />
				<path
   class="st7"
   d="M73.54,167.54c-1.23,0-2.23-0.35-3-1.04s-1.16-1.62-1.16-2.78c0-0.79,0.21-1.49,0.64-2.1      s1.07-1.09,1.92-1.44s1.93-0.52,3.22-0.52h1.32v-0.75c0-0.51-0.14-0.94-0.43-1.29s-0.75-0.53-1.37-0.53      c-0.27,0-0.51,0.03-0.74,0.1s-0.44,0.16-0.63,0.29l-0.28,1.62h-2.89l-0.06-3.53c0.72-0.32,1.47-0.6,2.26-0.83      s1.66-0.35,2.63-0.35c1.73,0,3.1,0.4,4.11,1.19s1.52,1.92,1.52,3.39v4.68c0,0.18,0,0.36,0.01,0.53s0.02,0.34,0.05,0.49      l1.37,0.23v2.4h-4.8c-0.1-0.14-0.21-0.33-0.33-0.56s-0.2-0.47-0.25-0.7c-0.38,0.48-0.81,0.85-1.29,1.11      S74.28,167.54,73.54,167.54z M74.81,164.63c0.3,0,0.6-0.06,0.9-0.18s0.56-0.3,0.78-0.54v-1.83h-1.28      c-0.55,0-0.98,0.12-1.28,0.36s-0.45,0.56-0.45,0.96c0,0.38,0.12,0.68,0.38,0.9S74.42,164.63,74.81,164.63z"
   id="path859" />
			</g>
		</g>
		<g
   id="g887">
			<rect
   x="32"
   y="184"
   class="st8"
   width="230"
   height="158"
   id="rect865" />
			<line
   class="st8"
   x1="32"
   y1="315.67"
   x2="262"
   y2="315.67"
   id="line867" />
			<line
   class="st8"
   x1="32"
   y1="289.33"
   x2="262"
   y2="289.33"
   id="line869" />
			<line
   class="st8"
   x1="32"
   y1="263"
   x2="262"
   y2="263"
   id="line871" />
			<line
   class="st8"
   x1="32"
   y1="236.67"
   x2="262"
   y2="236.67"
   id="line873" />
			<line
   class="st8"
   x1="32"
   y1="210.33"
   x2="262"
   y2="210.33"
   id="line875" />
			<line
   class="st8"
   x1="223.67"
   y1="184"
   x2="223.67"
   y2="342"
   id="line877" />
			<line
   class="st8"
   x1="185.33"
   y1="184"
   x2="185.33"
   y2="342"
   id="line879" />
			<line
   class="st8"
   x1="147"
   y1="184"
   x2="147"
   y2="342"
   id="line881" />
			<line
   class="st8"
   x1="108.67"
   y1="184"
   x2="108.67"
   y2="342"
   id="line883" />
			<line
   class="st8"
   x1="70.33"
   y1="184"
   x2="70.33"
   y2="342"
   id="line885" />
		</g>
	</g>
	<g
   class="st0"
   clip-path="url(#SVGID_2_)"
   id="g909">
		<g
   id="g907">
			<linearGradient
   id="SVGID_3_"
   gradientUnits="userSpaceOnUse"
   x1="20"
   y1="43"
   x2="1280"
   y2="43">
				<stop
   offset="0"
   style="stop-color:#FFFFFF"
   id="stop891" />
				<stop
   offset="1"
   style="stop-color:#B3B3B3"
   id="stop893" />
			</linearGradient>
			<line
   class="st9"
   x1="20"
   y1="43"
   x2="1152.43"
   y2="43"
   id="line896" />
			<g
   id="g905">
				<linearGradient
   id="SVGID_4_"
   gradientUnits="userSpaceOnUse"
   x1="20"
   y1="43"
   x2="1280"
   y2="43">
					<stop
   offset="0"
   style="stop-color:#FFFFFF"
   id="stop898" />
					<stop
   offset="1"
   style="stop-color:#B3B3B3"
   id="stop900" />
				</linearGradient>
				<polygon
   class="st10"
   points="1123.89,84.84 1280,43.03 1123.89,1.16     "
   id="polygon903" />
			</g>
		</g>
	</g>
	<g
   class="st0"
   clip-path="url(#SVGID_2_)"
   id="g949">
		<g
   id="g947">
			<path
   d="M13.24,56.66c-1.77,0-3.4-0.33-4.88-0.98s-2.77-1.56-3.86-2.73s-1.93-2.55-2.52-4.12s-0.89-3.29-0.89-5.14v-0.4     c0-1.84,0.3-3.54,0.89-5.12s1.43-2.94,2.51-4.11s2.36-2.09,3.84-2.74s3.1-0.98,4.87-0.98c1.73,0,3.35,0.33,4.83,0.98     s2.79,1.57,3.91,2.74s1.99,2.54,2.61,4.11s0.93,3.28,0.93,5.12v0.4c0,1.85-0.31,3.57-0.93,5.14s-1.49,2.95-2.6,4.12     s-2.41,2.08-3.9,2.73S14.96,56.66,13.24,56.66z M13.24,51.98c1.29,0,2.39-0.35,3.3-1.04s1.61-1.66,2.09-2.9s0.72-2.7,0.72-4.36     v-0.44c0-1.63-0.24-3.06-0.73-4.3s-1.19-2.2-2.1-2.89s-2.02-1.04-3.32-1.04c-1.37,0-2.49,0.34-3.37,1.02s-1.52,1.63-1.94,2.87     s-0.63,2.68-0.63,4.34v0.44c0,1.66,0.21,3.12,0.64,4.37s1.08,2.21,1.97,2.9S11.88,51.98,13.24,51.98z"
   id="path911" />
			<path
   d="M27.16,56.29v-3.6l2.69-0.65V34.99l-2.69-0.67V30.7h2.69h9.3c2.31,0,4.35,0.54,6.13,1.61s3.18,2.55,4.18,4.45     s1.51,4.08,1.51,6.55v0.4c0,2.47-0.5,4.66-1.51,6.55s-2.4,3.37-4.18,4.44s-3.83,1.6-6.13,1.6H27.16z M36.02,51.61h2.81     c1.3,0,2.39-0.33,3.27-0.98s1.54-1.58,2-2.77s0.68-2.58,0.68-4.16v-0.42c0-1.58-0.23-2.96-0.68-4.15s-1.12-2.1-2-2.76     s-1.97-0.98-3.27-0.98h-2.81V51.61z"
   id="path913" />
			<path
   d="M53,56.29v-3.6l2.65-0.56V34.88L53,34.32V30.7h2.65h8.93c3.22,0,5.74,0.59,7.54,1.78s2.71,2.95,2.71,5.29     c0,1.21-0.29,2.29-0.86,3.24s-1.46,1.68-2.65,2.17c1.02,0.22,1.85,0.6,2.5,1.13s1.12,1.18,1.42,1.93s0.46,1.57,0.46,2.45     c0,2.51-0.84,4.4-2.51,5.68s-4.11,1.92-7.29,1.92H53z M61.82,41.31h2.5c1.45,0,2.54-0.23,3.26-0.69s1.08-1.18,1.08-2.15     c0-1.07-0.34-1.84-1.01-2.33s-1.7-0.73-3.07-0.73h-2.76V41.31z M61.82,51.6h4.06c1.22,0,2.14-0.24,2.75-0.72s0.92-1.21,0.92-2.2     c0-0.74-0.12-1.35-0.35-1.84s-0.6-0.85-1.09-1.09s-1.14-0.36-1.93-0.36h-4.36V51.6z"
   id="path915" />
			<path
   d="M78.22,47.62V42.9h10.72v4.73H78.22z"
   id="path917" />
			<path
   d="M91.83,56.29v-3.96l8.24-8.68c0.74-0.84,1.32-1.59,1.76-2.23s0.75-1.24,0.94-1.78s0.29-1.06,0.29-1.56     c0-0.83-0.22-1.54-0.67-2.12s-1.11-0.87-2-0.87c-0.97,0-1.69,0.34-2.16,1.03s-0.7,1.61-0.7,2.77h-6.03l-0.04-0.11     c-0.04-1.58,0.31-3.01,1.03-4.29s1.76-2.29,3.12-3.04s2.96-1.12,4.8-1.12s3.42,0.32,4.74,0.96s2.33,1.54,3.04,2.69     s1.06,2.5,1.06,4.05c0,1.05-0.18,2.02-0.54,2.91s-0.94,1.83-1.76,2.84s-1.9,2.23-3.26,3.66l-3.87,4.1l0.04,0.09h5.08l0.26-2.13     h4.62v6.8H91.83z"
   id="path919" />
			<path
   d="M120.02,56.29v-3.6l2.64-0.56V34.88l-2.64-0.56V30.7h2.64h9.44l6.19,16.86h0.11l6.01-16.86h11.94v3.62l-2.65,0.56v17.24     l2.65,0.56v3.6h-11.46v-3.6l2.76-0.56v-3.34l0.14-12.04l-0.11-0.02l-7.24,19.56h-4.85l-7.35-19.34l-0.12,0.02l0.42,10.97v4.18     l2.97,0.56v3.6H120.02z"
   id="path921" />
			<path
   d="M167.06,56.66c-1.86,0-3.49-0.4-4.88-1.2s-2.47-1.9-3.23-3.3s-1.15-2.97-1.15-4.73v-0.65c0-1.93,0.34-3.64,1.02-5.13     s1.68-2.65,2.99-3.49s2.92-1.25,4.83-1.24c1.72,0,3.18,0.33,4.37,0.99s2.09,1.63,2.72,2.92s0.93,2.86,0.93,4.74v3.18H164.2     l-0.02,0.12c0.09,0.6,0.3,1.13,0.61,1.59s0.74,0.83,1.29,1.1s1.23,0.4,2.04,0.4c0.8,0,1.58-0.09,2.35-0.27s1.58-0.47,2.43-0.87     l1.41,3.73c-0.86,0.61-1.9,1.11-3.13,1.51S168.57,56.66,167.06,56.66z M164.2,44.94h4.83v-0.46c0-0.68-0.07-1.25-0.2-1.71     s-0.37-0.8-0.69-1.04s-0.78-0.35-1.35-0.35c-0.62,0-1.12,0.15-1.49,0.45s-0.64,0.71-0.81,1.23s-0.29,1.12-0.36,1.78L164.2,44.94z     "
   id="path923" />
			<path
   d="M185.27,56.66c-1.5,0-2.9-0.14-4.19-0.41s-2.46-0.65-3.51-1.13l-0.07-5.92h4.17l0.7,2.76c0.25,0.15,0.56,0.28,0.95,0.4     s0.85,0.17,1.39,0.17c1,0,1.68-0.13,2.06-0.4s0.56-0.61,0.56-1.02c0-0.4-0.21-0.76-0.64-1.1s-1.34-0.63-2.73-0.89     c-2.23-0.43-3.87-1.17-4.92-2.22s-1.58-2.36-1.58-3.93c0-1.07,0.25-2.05,0.74-2.95s1.3-1.63,2.42-2.19s2.62-0.83,4.49-0.83     c1.43,0,2.79,0.12,4.09,0.37s2.36,0.56,3.19,0.93L192.36,44h-4.15l-0.53-2.46c-0.27-0.19-0.57-0.33-0.91-0.42     s-0.72-0.14-1.14-0.14c-0.79,0-1.36,0.14-1.72,0.42s-0.54,0.64-0.54,1.09c0,0.26,0.08,0.52,0.24,0.77s0.47,0.5,0.94,0.74     s1.15,0.45,2.06,0.65c2.17,0.48,3.8,1.15,4.9,2s1.64,2.16,1.64,3.9c0,1.88-0.67,3.36-2.01,4.46S187.83,56.66,185.27,56.66z"
   id="path925" />
			<path
   d="M203.57,56.66c-1.5,0-2.9-0.14-4.19-0.41s-2.46-0.65-3.51-1.13l-0.07-5.92h4.17l0.7,2.76c0.25,0.15,0.56,0.28,0.95,0.4     s0.85,0.17,1.39,0.17c1,0,1.68-0.13,2.06-0.4s0.56-0.61,0.56-1.02c0-0.4-0.21-0.76-0.64-1.1s-1.34-0.63-2.73-0.89     c-2.23-0.43-3.87-1.17-4.92-2.22s-1.58-2.36-1.58-3.93c0-1.07,0.25-2.05,0.74-2.95s1.3-1.63,2.42-2.19s2.62-0.83,4.49-0.83     c1.43,0,2.79,0.12,4.09,0.37s2.36,0.56,3.19,0.93L210.66,44h-4.15l-0.53-2.46c-0.27-0.19-0.57-0.33-0.91-0.42     s-0.72-0.14-1.14-0.14c-0.79,0-1.36,0.14-1.72,0.42s-0.54,0.64-0.54,1.09c0,0.26,0.08,0.52,0.24,0.77s0.47,0.5,0.94,0.74     s1.15,0.45,2.06,0.65c2.17,0.48,3.8,1.15,4.9,2s1.64,2.16,1.64,3.9c0,1.88-0.67,3.36-2.01,4.46S206.13,56.66,203.57,56.66z"
   id="path927" />
			<path
   d="M219.94,56.66c-1.84,0-3.34-0.52-4.5-1.56s-1.74-2.43-1.74-4.17c0-1.18,0.32-2.23,0.96-3.15s1.6-1.63,2.88-2.15     s2.89-0.78,4.83-0.78h1.99v-1.12c0-0.76-0.22-1.41-0.65-1.94s-1.12-0.8-2.06-0.8c-0.4,0-0.77,0.05-1.12,0.15     s-0.66,0.24-0.94,0.43l-0.42,2.43h-4.34l-0.09-5.29c1.08-0.48,2.21-0.9,3.38-1.25s2.49-0.53,3.95-0.53     c2.59,0,4.65,0.59,6.17,1.78s2.29,2.89,2.29,5.09v7.01c0,0.27,0,0.53,0.01,0.79s0.03,0.5,0.08,0.74l2.06,0.35v3.6h-7.21     c-0.15-0.21-0.32-0.49-0.49-0.84s-0.3-0.7-0.37-1.05c-0.57,0.71-1.22,1.27-1.93,1.67S221.04,56.66,219.94,56.66z M221.84,52.3     c0.45,0,0.89-0.09,1.34-0.27s0.84-0.45,1.17-0.82v-2.74h-1.92c-0.83,0-1.47,0.18-1.92,0.54s-0.68,0.84-0.68,1.44     c0,0.57,0.19,1.03,0.56,1.35S221.25,52.3,221.84,52.3z"
   id="path929" />
			<path
   d="M242.37,63.97c-1,0-2.13-0.12-3.41-0.37s-2.4-0.6-3.38-1.07l0.98-4.25c0.93,0.36,1.86,0.64,2.8,0.83s1.8,0.29,2.58,0.29     c1.27,0,2.19-0.35,2.79-1.05s0.89-1.65,0.89-2.86v-0.9c-0.53,0.66-1.14,1.16-1.84,1.52s-1.5,0.54-2.4,0.54     c-1.55,0-2.87-0.39-3.97-1.18s-1.94-1.89-2.52-3.31s-0.87-3.08-0.87-4.98v-0.37c0-1.98,0.29-3.71,0.86-5.19s1.4-2.64,2.47-3.46     s2.35-1.24,3.84-1.24c1.1,0,2.04,0.24,2.81,0.72s1.44,1.15,1.99,2.02l0.39-2.39h5.43v18.26c0,1.69-0.38,3.16-1.15,4.43     s-1.86,2.25-3.27,2.95S244.3,63.97,242.37,63.97z M243.19,51.93c0.52,0,0.98-0.08,1.41-0.25s0.76-0.43,1.02-0.78v-7.96     c-0.26-0.42-0.6-0.74-1.02-0.96s-0.89-0.33-1.41-0.33c-0.74,0-1.33,0.21-1.77,0.64s-0.76,1.03-0.95,1.8s-0.29,1.68-0.29,2.72     v0.37c0,1.51,0.22,2.68,0.65,3.51S242.06,51.93,243.19,51.93z M251.09,41.52l-2.78-4.25h5.66v3.64L251.09,41.52z"
   id="path931" />
			<path
   d="M264.85,56.66c-1.86,0-3.49-0.4-4.88-1.2s-2.47-1.9-3.23-3.3s-1.15-2.97-1.15-4.73v-0.65c0-1.93,0.34-3.64,1.02-5.13     s1.68-2.65,2.99-3.49s2.92-1.25,4.83-1.24c1.72,0,3.18,0.33,4.37,0.99s2.09,1.63,2.72,2.92s0.93,2.86,0.93,4.74v3.18h-10.46     l-0.02,0.12c0.09,0.6,0.3,1.13,0.61,1.59s0.74,0.83,1.29,1.1s1.23,0.4,2.04,0.4c0.8,0,1.58-0.09,2.35-0.27s1.58-0.47,2.43-0.87     l1.41,3.73c-0.86,0.61-1.9,1.11-3.13,1.51S266.36,56.66,264.85,56.66z M261.98,44.94h4.83v-0.46c0-0.68-0.07-1.25-0.2-1.71     s-0.37-0.8-0.69-1.04s-0.78-0.35-1.35-0.35c-0.62,0-1.12,0.15-1.49,0.45s-0.64,0.71-0.81,1.23s-0.29,1.12-0.36,1.78L261.98,44.94     z"
   id="path933" />
			<path
   d="M294.29,56.66c-2.09,0-3.94-0.2-5.55-0.6s-3.23-1.15-4.83-2.25v-6.64h4.76l0.53,3.41c0.38,0.42,1.04,0.78,1.99,1.06     s1.99,0.43,3.11,0.43c0.79,0,1.44-0.1,1.97-0.29s0.93-0.48,1.2-0.85s0.4-0.83,0.4-1.35c0-0.5-0.13-0.96-0.38-1.35     s-0.67-0.78-1.24-1.13s-1.35-0.72-2.32-1.1c-2.19-0.7-3.99-1.42-5.4-2.14s-2.45-1.59-3.14-2.58s-1.03-2.23-1.03-3.71     c0-1.42,0.4-2.66,1.21-3.72s1.92-1.9,3.34-2.5s3.04-0.93,4.87-0.97c2.09-0.05,3.93,0.16,5.54,0.62s3.02,1.16,4.25,2.1v6.17H299     l-0.72-3.43c-0.4-0.2-0.97-0.38-1.71-0.54s-1.52-0.25-2.36-0.25c-0.71,0-1.35,0.09-1.91,0.28s-1,0.47-1.32,0.84     s-0.48,0.84-0.48,1.41c0,0.46,0.13,0.86,0.4,1.22s0.74,0.71,1.42,1.07s1.63,0.77,2.85,1.24c2.91,0.86,5.11,1.92,6.62,3.21     s2.26,3.03,2.26,5.23c0,1.51-0.41,2.8-1.23,3.86s-1.96,1.87-3.43,2.43S296.24,56.66,294.29,56.66z"
   id="path935" />
			<path
   d="M313.68,56.69c-1.99,0-3.51-0.53-4.54-1.59s-1.56-2.74-1.56-5.04v-8.54h-2.37v-4.25h2.37v-4.69h6.13v4.69h3.11v4.25     h-3.11v8.53c0,0.62,0.14,1.05,0.42,1.3s0.67,0.37,1.16,0.37c0.21,0,0.42-0.01,0.63-0.04s0.42-0.05,0.63-0.09l0.42,4.61     c-0.54,0.15-1.08,0.27-1.63,0.36S314.26,56.69,313.68,56.69z"
   id="path937" />
			<path
   d="M319.36,56.29v-3.6l2.21-0.56V41.45l-2.64-0.56v-3.62h8.46l0.14,2.32l0.04,0.47c0.42-1.08,0.95-1.87,1.57-2.38     s1.41-0.76,2.35-0.76c0.26,0,0.56,0.02,0.91,0.06s0.71,0.11,1.07,0.22l-0.62,5.66l-2.64-0.12c-0.61-0.02-1.09,0.04-1.43,0.2     s-0.69,0.42-1.05,0.78v8.4l2.21,0.56v3.6H319.36z"
   id="path939" />
			<path
   d="M344.02,56.66c-1.86,0-3.49-0.4-4.88-1.2s-2.47-1.9-3.23-3.3s-1.15-2.97-1.15-4.73v-0.65c0-1.93,0.34-3.64,1.02-5.13     s1.68-2.65,2.99-3.49s2.92-1.25,4.83-1.24c1.72,0,3.18,0.33,4.37,0.99s2.09,1.63,2.72,2.92s0.93,2.86,0.93,4.74v3.18h-10.46     l-0.02,0.12c0.09,0.6,0.3,1.13,0.61,1.59s0.74,0.83,1.29,1.1s1.23,0.4,2.04,0.4c0.8,0,1.58-0.09,2.35-0.27s1.58-0.47,2.43-0.87     l1.41,3.73c-0.86,0.61-1.9,1.11-3.13,1.51S345.53,56.66,344.02,56.66z M341.16,44.94h4.83v-0.46c0-0.68-0.07-1.25-0.2-1.71     s-0.37-0.8-0.69-1.04s-0.78-0.35-1.35-0.35c-0.62,0-1.12,0.15-1.49,0.45s-0.64,0.71-0.81,1.23s-0.29,1.12-0.36,1.78L341.16,44.94     z"
   id="path941" />
			<path
   d="M360.3,56.66c-1.84,0-3.34-0.52-4.5-1.56s-1.74-2.43-1.74-4.17c0-1.18,0.32-2.23,0.96-3.15s1.6-1.63,2.88-2.15     s2.89-0.78,4.83-0.78h1.99v-1.12c0-0.76-0.22-1.41-0.65-1.94s-1.12-0.8-2.06-0.8c-0.4,0-0.77,0.05-1.12,0.15     s-0.66,0.24-0.94,0.43l-0.42,2.43h-4.34l-0.09-5.29c1.08-0.48,2.21-0.9,3.38-1.25s2.49-0.53,3.95-0.53     c2.59,0,4.65,0.59,6.17,1.78s2.29,2.89,2.29,5.09v7.01c0,0.27,0,0.53,0.01,0.79s0.03,0.5,0.08,0.74l2.06,0.35v3.6h-7.21     c-0.15-0.21-0.32-0.49-0.49-0.84s-0.3-0.7-0.37-1.05c-0.57,0.71-1.22,1.27-1.93,1.67S361.4,56.66,360.3,56.66z M362.2,52.3     c0.45,0,0.89-0.09,1.34-0.27s0.84-0.45,1.17-0.82v-2.74h-1.92c-0.83,0-1.47,0.18-1.92,0.54s-0.68,0.84-0.68,1.44     c0,0.57,0.19,1.03,0.56,1.35S361.61,52.3,362.2,52.3z"
   id="path943" />
			<path
   d="M373.99,56.29v-3.6l2.25-0.56V41.45l-2.67-0.56v-3.62h8.46l0.19,2.53c0.62-0.91,1.38-1.62,2.27-2.13s1.92-0.76,3.09-0.76     c1.18,0,2.2,0.25,3.05,0.76s1.49,1.29,1.92,2.33c0.57-0.98,1.32-1.75,2.22-2.29s1.98-0.81,3.21-0.81c1.84,0,3.29,0.62,4.34,1.86     s1.58,3.15,1.58,5.73v7.61l2.25,0.56v3.6h-10.21v-3.6l1.81-0.56v-7.61c0-1.11-0.17-1.87-0.52-2.27s-0.85-0.6-1.5-0.6     c-0.54,0-1.03,0.1-1.46,0.31s-0.81,0.5-1.14,0.89v9.28l1.58,0.56v3.6h-9.3v-3.6l1.58-0.56v-7.61c0-1.11-0.17-1.87-0.51-2.27     s-0.85-0.6-1.53-0.6c-0.53,0-1.01,0.1-1.44,0.31s-0.81,0.51-1.14,0.91v9.26l1.81,0.56v3.6H373.99z"
   id="path945" />
		</g>
	</g>
</g>
</svg>
