<?xml version="1.0" encoding="UTF-8" standalone="no"?>
<svg
   xmlns:dc="http://purl.org/dc/elements/1.1/"
   xmlns:cc="http://creativecommons.org/ns#"
   xmlns:rdf="http://www.w3.org/1999/02/22-rdf-syntax-ns#"
   xmlns:svg="http://www.w3.org/2000/svg"
   xmlns="http://www.w3.org/2000/svg"
   xmlns:sodipodi="http://sodipodi.sourceforge.net/DTD/sodipodi-0.dtd"
   xmlns:inkscape="http://www.inkscape.org/namespaces/inkscape"
   version="1.1"
   id="Layer_1"
   x="0px"
   y="0px"
   viewBox="0 0 1404 359"
   style="enable-background:new 0 0 1404 359;"
   xml:space="preserve"
   sodipodi:docname="odb-2-bitfield-flags.svg"
   inkscape:version="1.0.2 (e86c8708, 2021-01-15)"><metadata
   id="metadata536"><rdf:RDF><cc:Work
       rdf:about=""><dc:format>image/svg+xml</dc:format><dc:type
         rdf:resource="http://purl.org/dc/dcmitype/StillImage" /><dc:title></dc:title></cc:Work></rdf:RDF></metadata><defs
   id="defs534" /><sodipodi:namedview
   pagecolor="#ffffff"
   bordercolor="#666666"
   borderopacity="1"
   objecttolerance="10"
   gridtolerance="10"
   guidetolerance="10"
   inkscape:pageopacity="0"
   inkscape:pageshadow="2"
   inkscape:window-width="706"
   inkscape:window-height="480"
   id="namedview532"
   showgrid="false"
   inkscape:zoom="0.75"
   inkscape:cx="702"
   inkscape:cy="179.5"
   inkscape:window-x="0"
   inkscape:window-y="25"
   inkscape:window-maximized="0"
   inkscape:current-layer="Layer_1" />
<style
   type="text/css"
   id="style10">
	.st0{fill:#00A99D;}
	.st1{fill:#FF931E;}
	.st2{fill:#7AC943;}
	.st3{fill:#3FA9F5;}
	.st4{fill:#FF7BAC;}
	.st5{fill:none;stroke:#000000;stroke-width:2;stroke-miterlimit:10;}
</style>
<g
   id="g14">
	<rect
   x="1"
   y="298"
   class="st0"
   width="1213"
   height="60"
   id="rect12" />
</g>
<rect
   x="507"
   y="1"
   class="st1"
   width="101"
   height="297"
   id="rect16" />
<rect
   x="608"
   y="1"
   class="st2"
   width="303"
   height="297"
   id="rect18" />
<rect
   x="910"
   y="1"
   class="st3"
   width="203"
   height="297"
   id="rect20" />
<rect
   x="1113"
   y="1"
   class="st4"
   width="101"
   height="297"
   id="rect22" />
<g
   id="Arrow_31">
</g>
<g
   id="g45">
	<g
   id="g43">
		<path
   d="M1230.77,40.29v-1.8l1.86-0.35V25.4l-1.86-0.35v-1.82h1.86h5.62c1.91,0,3.41,0.39,4.48,1.17s1.61,1.94,1.61,3.49    c0,0.77-0.22,1.47-0.67,2.08s-1.06,1.07-1.85,1.37c0.69,0.15,1.27,0.42,1.73,0.81s0.83,0.87,1.07,1.42s0.37,1.17,0.37,1.83    c0,1.6-0.53,2.82-1.58,3.65s-2.51,1.25-4.39,1.25H1230.77z M1235.59,30.42h3c0.88,0,1.56-0.21,2.06-0.63s0.75-1.01,0.75-1.77    c0-0.85-0.27-1.48-0.8-1.89s-1.31-0.62-2.34-0.62h-2.67V30.42z M1235.59,38.02h3.46c0.97,0,1.71-0.22,2.23-0.67    s0.78-1.1,0.78-1.95c0-0.6-0.1-1.11-0.29-1.54s-0.49-0.75-0.89-0.97s-0.91-0.34-1.54-0.34h-3.75V38.02z"
   id="path25" />
		<path
   d="M1246.35,40.29v-1.8l1.76-0.35v-8.36l-1.86-0.35v-1.82h4.82v10.52l1.75,0.35v1.8H1246.35z M1247.99,24.74v-2.73h3.07v2.73    H1247.99z"
   id="path27" />
		<path
   d="M1258.91,40.51c-1.08,0-1.92-0.3-2.52-0.91s-0.9-1.57-0.9-2.9v-6.98h-1.85v-2.11h1.85v-3.08h2.94v3.08h2.51v2.11h-2.51    v6.98c0,0.54,0.11,0.93,0.33,1.18s0.53,0.37,0.91,0.37c0.22,0,0.46-0.02,0.73-0.06s0.49-0.08,0.65-0.12l0.3,2.07    c-0.34,0.1-0.74,0.19-1.18,0.26S1259.32,40.51,1258.91,40.51z"
   id="path29" />
		<path
   d="M1268.64,40.29v-1.8l1.86-0.35V25.4l-1.86-0.35v-1.82h1.86h2.99l7.83,12.46l0.07-0.02V25.4l-2.16-0.35v-1.82h4.82h1.86    v1.82l-1.86,0.35v14.89h-2.8l-8.02-12.41l-0.07,0.01v10.24l2.16,0.35v1.8H1268.64z"
   id="path31" />
		<path
   d="M1292.85,40.54c-1.36,0-2.42-0.43-3.18-1.29s-1.14-2.21-1.14-4.03v-5.44l-1.43-0.35v-1.82h1.43h2.95v7.63    c0,1.09,0.17,1.86,0.52,2.3s0.88,0.66,1.61,0.66c0.64,0,1.19-0.13,1.63-0.38s0.81-0.62,1.07-1.08v-6.96l-1.59-0.35v-1.82h1.59    h2.95v10.52l1.5,0.35v1.8h-4.11l-0.2-1.72c-0.4,0.63-0.9,1.12-1.52,1.46S1293.63,40.54,1292.85,40.54z"
   id="path33" />
		<path
   d="M1302.09,40.29v-1.8l1.77-0.35v-8.36l-1.86-0.35v-1.82h4.57l0.14,1.66c0.41-0.6,0.93-1.07,1.55-1.4s1.34-0.5,2.16-0.5    c0.83,0,1.54,0.19,2.13,0.56s1.04,0.93,1.34,1.68c0.39-0.7,0.9-1.24,1.54-1.64s1.38-0.6,2.24-0.6c1.27,0,2.28,0.43,3.01,1.3    s1.1,2.18,1.1,3.94v5.52l1.77,0.35v1.8h-6.39v-1.8l1.66-0.35V32.6c0-1.07-0.18-1.82-0.54-2.25s-0.89-0.64-1.58-0.64    c-0.65,0-1.18,0.21-1.6,0.62s-0.69,0.94-0.81,1.58v6.22l1.61,0.35v1.8h-6.15v-1.8l1.61-0.35V32.6c0-1.03-0.18-1.77-0.55-2.22    s-0.9-0.67-1.59-0.67c-0.58,0-1.06,0.12-1.46,0.35s-0.71,0.57-0.94,1v7.08l1.65,0.35v1.8H1302.09z"
   id="path35" />
		<path
   d="M1332.06,40.54c-0.8,0-1.48-0.16-2.06-0.47s-1.06-0.77-1.45-1.36l-0.23,1.58h-2.54V24.18l-1.86-0.35v-1.82h4.8v7.02    c0.38-0.54,0.85-0.95,1.41-1.23s1.21-0.42,1.95-0.42c1.04,0,1.92,0.28,2.64,0.84s1.28,1.34,1.66,2.35s0.57,2.19,0.57,3.55v0.25    c0,1.23-0.19,2.32-0.57,3.25s-0.94,1.65-1.66,2.16S1333.1,40.54,1332.06,40.54z M1331.21,38.2c0.97,0,1.67-0.34,2.12-1.03    s0.66-1.62,0.66-2.82v-0.25c0-0.89-0.1-1.67-0.29-2.33s-0.5-1.17-0.9-1.54s-0.93-0.54-1.57-0.54c-0.59,0-1.1,0.14-1.52,0.43    s-0.75,0.67-1,1.15v5.41c0.26,0.48,0.6,0.85,1.01,1.11S1330.64,38.2,1331.21,38.2z"
   id="path37" />
		<path
   d="M1344.83,40.54c-1.2,0-2.24-0.27-3.12-0.8s-1.57-1.28-2.06-2.22s-0.73-2.03-0.73-3.25v-0.49c0-1.23,0.24-2.33,0.72-3.3    s1.14-1.72,1.99-2.27s1.8-0.83,2.88-0.83c1.15,0,2.11,0.23,2.89,0.69s1.37,1.12,1.76,1.96s0.6,1.87,0.6,3.05v1.69h-7.78    l-0.02,0.06c0.03,0.66,0.17,1.25,0.42,1.77s0.6,0.92,1.05,1.22s1.01,0.45,1.67,0.45c0.69,0,1.31-0.09,1.88-0.28    s1.08-0.45,1.56-0.8l0.93,1.85c-0.5,0.42-1.14,0.78-1.91,1.07S1345.86,40.54,1344.83,40.54z M1342.02,32.7h4.91v-0.3    c0-0.55-0.08-1.04-0.25-1.46s-0.43-0.74-0.79-0.98s-0.81-0.35-1.35-0.35c-0.48,0-0.89,0.13-1.25,0.4s-0.65,0.63-0.86,1.08    s-0.36,0.97-0.44,1.55L1342.02,32.7z"
   id="path39" />
		<path
   d="M1351.56,40.29v-1.8l1.76-0.35v-8.36l-1.85-0.35v-1.82h4.57l0.15,1.59l0.02,0.26c0.34-0.67,0.75-1.19,1.24-1.55    s1.06-0.54,1.72-0.54c0.22,0,0.45,0.02,0.7,0.06s0.45,0.08,0.6,0.13l-0.34,2.73l-1.65-0.09c-0.54-0.03-0.98,0.07-1.33,0.32    s-0.64,0.58-0.87,1.01v6.61l1.76,0.35v1.8H1351.56z"
   id="path41" />
	</g>
</g>
<g
   id="g51">
	<g
   id="g49">
		<path
   d="M1163.53,40.54c-1.74,0-3.12-0.58-4.13-1.75s-1.52-2.86-1.52-5.08v-3.88c0-2.22,0.5-3.91,1.51-5.09s2.38-1.76,4.11-1.76    c1.73,0,3.1,0.59,4.11,1.76s1.52,2.87,1.52,5.09v3.88c0,2.23-0.5,3.92-1.51,5.09S1165.26,40.54,1163.53,40.54z M1163.53,38.26    c0.87,0,1.53-0.34,1.98-1.02s0.68-1.73,0.68-3.15v-4.68c0-1.41-0.23-2.45-0.69-3.13s-1.12-1.02-1.99-1.02    c-0.88,0-1.54,0.34-2,1.01s-0.69,1.72-0.69,3.13v4.68c0,1.42,0.23,2.47,0.69,3.15S1162.65,38.26,1163.53,38.26z"
   id="path47" />
	</g>
</g>
<g
   id="g57">
	<g
   id="g55">
		<path
   d="M961.97,99.54c-1.74,0-3.12-0.58-4.13-1.75s-1.52-2.86-1.52-5.08v-3.88c0-2.22,0.5-3.91,1.51-5.09s2.38-1.76,4.11-1.76    c1.73,0,3.1,0.59,4.11,1.76s1.52,2.87,1.52,5.09v3.88c0,2.23-0.5,3.92-1.51,5.09S963.7,99.54,961.97,99.54z M961.97,97.26    c0.87,0,1.53-0.34,1.98-1.02s0.68-1.73,0.68-3.15v-4.68c0-1.41-0.23-2.45-0.69-3.13s-1.12-1.02-1.99-1.02    c-0.88,0-1.54,0.34-2,1.01s-0.69,1.72-0.69,3.13v4.68c0,1.42,0.23,2.47,0.69,3.15S961.09,97.26,961.97,97.26z"
   id="path53" />
	</g>
</g>
<g
   id="g63">
	<g
   id="g61">
		<path
   d="M759.97,99.54c-1.74,0-3.12-0.58-4.13-1.75c-1.01-1.17-1.52-2.86-1.52-5.08v-3.88c0-2.22,0.5-3.91,1.51-5.09    c1.01-1.17,2.38-1.76,4.11-1.76c1.73,0,3.1,0.59,4.11,1.76s1.52,2.87,1.52,5.09v3.88c0,2.23-0.5,3.92-1.51,5.09    S761.7,99.54,759.97,99.54z M759.97,97.26c0.87,0,1.53-0.34,1.98-1.02s0.68-1.73,0.68-3.15v-4.68c0-1.41-0.23-2.45-0.69-3.13    s-1.12-1.02-1.99-1.02c-0.88,0-1.54,0.34-2,1.01s-0.69,1.72-0.69,3.13v4.68c0,1.42,0.23,2.47,0.69,3.15S759.09,97.26,759.97,97.26    z"
   id="path59" />
	</g>
</g>
<g
   id="g69">
	<g
   id="g67">
		<path
   d="M456.97,99.54c-1.74,0-3.12-0.58-4.13-1.75s-1.52-2.86-1.52-5.08v-3.88c0-2.22,0.5-3.91,1.51-5.09s2.38-1.76,4.11-1.76    c1.73,0,3.1,0.59,4.11,1.76s1.52,2.87,1.52,5.09v3.88c0,2.23-0.5,3.92-1.51,5.09S458.7,99.54,456.97,99.54z M456.97,97.26    c0.87,0,1.53-0.34,1.98-1.02s0.68-1.73,0.68-3.15v-4.68c0-1.41-0.23-2.45-0.69-3.13s-1.12-1.02-1.99-1.02    c-0.88,0-1.54,0.34-2,1.01s-0.69,1.72-0.69,3.13v4.68c0,1.42,0.23,2.47,0.69,3.15S456.09,97.26,456.97,97.26z"
   id="path65" />
	</g>
</g>
<g
   id="g75">
	<g
   id="g73">
		<path
   d="M355.97,99.54c-1.74,0-3.12-0.58-4.13-1.75s-1.52-2.86-1.52-5.08v-3.88c0-2.22,0.5-3.91,1.51-5.09s2.38-1.76,4.11-1.76    c1.73,0,3.1,0.59,4.11,1.76s1.52,2.87,1.52,5.09v3.88c0,2.23-0.5,3.92-1.51,5.09S357.7,99.54,355.97,99.54z M355.97,97.26    c0.87,0,1.53-0.34,1.98-1.02s0.68-1.73,0.68-3.15v-4.68c0-1.41-0.23-2.45-0.69-3.13s-1.12-1.02-1.99-1.02    c-0.88,0-1.54,0.34-2,1.01s-0.69,1.72-0.69,3.13v4.68c0,1.42,0.23,2.47,0.69,3.15S355.09,97.26,355.97,97.26z"
   id="path71" />
	</g>
</g>
<g
   id="g81">
	<g
   id="g79">
		<path
   d="M254.97,99.54c-1.74,0-3.12-0.58-4.13-1.75s-1.52-2.86-1.52-5.08v-3.88c0-2.22,0.5-3.91,1.51-5.09s2.38-1.76,4.11-1.76    c1.73,0,3.1,0.59,4.11,1.76s1.52,2.87,1.52,5.09v3.88c0,2.23-0.5,3.92-1.51,5.09S256.7,99.54,254.97,99.54z M254.97,97.26    c0.87,0,1.53-0.34,1.98-1.02s0.68-1.73,0.68-3.15v-4.68c0-1.41-0.23-2.45-0.69-3.13s-1.12-1.02-1.99-1.02    c-0.88,0-1.54,0.34-2,1.01s-0.69,1.72-0.69,3.13v4.68c0,1.42,0.23,2.47,0.69,3.15S254.09,97.26,254.97,97.26z"
   id="path77" />
	</g>
</g>
<g
   id="g87">
	<g
   id="g85">
		<path
   d="M153.97,99.54c-1.74,0-3.12-0.58-4.13-1.75s-1.52-2.86-1.52-5.08v-3.88c0-2.22,0.5-3.91,1.51-5.09s2.38-1.76,4.11-1.76    c1.73,0,3.1,0.59,4.11,1.76s1.52,2.87,1.52,5.09v3.88c0,2.23-0.5,3.92-1.51,5.09S155.7,99.54,153.97,99.54z M153.97,97.26    c0.87,0,1.53-0.34,1.98-1.02s0.68-1.73,0.68-3.15v-4.68c0-1.41-0.23-2.45-0.69-3.13s-1.12-1.02-1.99-1.02    c-0.88,0-1.54,0.34-2,1.01s-0.69,1.72-0.69,3.13v4.68c0,1.42,0.23,2.47,0.69,3.15S153.09,97.26,153.97,97.26z"
   id="path83" />
	</g>
</g>
<g
   id="g93">
	<g
   id="g91">
		<path
   d="M1058.33,40.29v-1.8l2.78-0.35V26.06l-2.82,0.02v-1.73l5.77-1.12v14.91l2.78,0.35v1.8H1058.33z"
   id="path89" />
	</g>
</g>
<g
   id="g99">
	<g
   id="g97">
		<path
   d="M1058.33,99.29v-1.8l2.78-0.35V85.06l-2.82,0.02v-1.73l5.77-1.12v14.91l2.78,0.35v1.8H1058.33z"
   id="path95" />
	</g>
</g>
<g
   id="g105">
	<g
   id="g103">
		<path
   d="M856.33,99.29v-1.8l2.78-0.35V85.06l-2.82,0.02v-1.73l5.77-1.12v14.91l2.78,0.35v1.8H856.33z"
   id="path101" />
	</g>
</g>
<g
   id="g111">
	<g
   id="g109">
		<path
   d="M553.33,99.29v-1.8l2.78-0.35V85.06l-2.82,0.02v-1.73l5.77-1.12v14.91l2.78,0.35v1.8H553.33z"
   id="path107" />
	</g>
</g>
<g
   id="g117">
	<g
   id="g115">
		<path
   d="M654.33,99.29v-1.8l2.78-0.35V85.06l-2.82,0.02v-1.73l5.77-1.12v14.91l2.78,0.35v1.8H654.33z"
   id="path113" />
	</g>
</g>
<g
   id="g123">
	<g
   id="g121">
		<path
   d="M1159.37,99.29v-1.8l2.78-0.35V85.06l-2.82,0.02v-1.73l5.77-1.12v14.91l2.78,0.35v1.8H1159.37z"
   id="path119" />
	</g>
</g>
<g
   id="g133">
	<g
   id="g131">
		<path
   d="M1150.94,159.54c-1.74,0-3.12-0.58-4.13-1.75s-1.52-2.86-1.52-5.08v-3.88c0-2.22,0.5-3.91,1.51-5.09s2.38-1.76,4.11-1.76    c1.73,0,3.1,0.59,4.11,1.76s1.52,2.87,1.52,5.09v3.88c0,2.23-0.5,3.92-1.51,5.09S1152.67,159.54,1150.94,159.54z M1150.94,157.26    c0.87,0,1.53-0.34,1.98-1.02s0.68-1.73,0.68-3.15v-4.68c0-1.41-0.23-2.45-0.69-3.13s-1.12-1.02-1.99-1.02    c-0.88,0-1.54,0.34-2,1.01s-0.69,1.72-0.69,3.13v4.68c0,1.42,0.23,2.47,0.69,3.15S1150.06,157.26,1150.94,157.26z"
   id="path125" />
		<path
   d="M1158.15,159.29v-1.8l1.54-0.23l3.69-4.34l-3.54-4.25l-1.42-0.23v-1.82h5.73v1.77l-1.1,0.14l2.16,2.77l2.13-2.77    l-1.21-0.14v-1.77h5.57v1.82l-1.36,0.23l-3.33,4.16l3.76,4.43l1.45,0.23v1.8h-6.04v-1.76l1.28-0.14l-2.3-2.82l-2.24,2.84l1.2,0.13    v1.76H1158.15z"
   id="path127" />
		<path
   d="M1173.66,159.29v-1.8l2.78-0.35v-12.07l-2.82,0.02v-1.73l5.77-1.12v14.91l2.78,0.35v1.8H1173.66z"
   id="path129" />
	</g>
</g>
<g
   id="g149">
	<g
   id="g147">
		<path
   d="M1128.99,278.29v-1.8l2.78-0.35v-12.07l-2.82,0.02v-1.73l5.77-1.12v14.91l2.78,0.35v1.8H1128.99z"
   id="path135" />
		<path
   d="M1151.12,283.63c-0.72-0.34-1.42-0.88-2.12-1.59s-1.31-1.6-1.86-2.65s-0.99-2.23-1.32-3.55s-0.5-2.75-0.5-4.29v-0.2    c0-1.53,0.17-2.96,0.5-4.28s0.77-2.51,1.32-3.56s1.17-1.94,1.86-2.65s1.4-1.25,2.12-1.58h0.07l0.54,1.57    c-0.52,0.4-1,0.92-1.46,1.56s-0.86,1.4-1.2,2.27s-0.61,1.87-0.81,2.98s-0.29,2.33-0.29,3.67v0.25c0,1.34,0.1,2.56,0.29,3.67    s0.46,2.1,0.81,2.98s0.74,1.64,1.2,2.29s0.94,1.18,1.46,1.61l-0.54,1.51H1151.12z"
   id="path137" />
		<path
   d="M1158.97,278.54c-1.74,0-3.12-0.58-4.13-1.75s-1.52-2.86-1.52-5.08v-3.88c0-2.22,0.5-3.91,1.51-5.09s2.38-1.76,4.11-1.76    c1.73,0,3.1,0.59,4.11,1.76s1.52,2.87,1.52,5.09v3.88c0,2.23-0.5,3.92-1.51,5.09S1160.7,278.54,1158.97,278.54z M1158.97,276.26    c0.87,0,1.53-0.34,1.98-1.02s0.68-1.73,0.68-3.15v-4.68c0-1.41-0.23-2.45-0.69-3.13s-1.12-1.02-1.99-1.02    c-0.88,0-1.54,0.34-2,1.01s-0.69,1.72-0.69,3.13v4.68c0,1.42,0.23,2.47,0.69,3.15S1158.09,276.26,1158.97,276.26z"
   id="path139" />
		<path
   d="M1166.18,278.29v-1.8l1.54-0.23l3.69-4.34l-3.54-4.25l-1.42-0.23v-1.82h5.73v1.77l-1.1,0.14l2.16,2.77l2.13-2.77    l-1.21-0.14v-1.77h5.57v1.82l-1.36,0.23l-3.33,4.16l3.76,4.43l1.45,0.23v1.8h-6.04v-1.76l1.28-0.14l-2.3-2.82l-2.24,2.84l1.2,0.13    v1.76H1166.18z"
   id="path141" />
		<path
   d="M1181.7,278.29v-1.8l2.78-0.35v-12.07l-2.82,0.02v-1.73l5.77-1.12v14.91l2.78,0.35v1.8H1181.7z"
   id="path143" />
		<path
   d="M1191.97,283.63l-0.55-1.51c0.52-0.4,1-0.92,1.45-1.56s0.85-1.41,1.2-2.29s0.62-1.88,0.81-3.01s0.29-2.35,0.29-3.69v-0.25    c0-1.32-0.1-2.54-0.3-3.65s-0.48-2.11-0.83-3s-0.75-1.66-1.2-2.31s-0.93-1.18-1.43-1.58l0.55-1.5h0.07    c0.73,0.33,1.44,0.86,2.13,1.59s1.33,1.62,1.9,2.68s1.02,2.25,1.36,3.56s0.5,2.73,0.5,4.24v0.2c0,1.52-0.17,2.93-0.5,4.25    s-0.79,2.51-1.36,3.56s-1.2,1.94-1.9,2.67s-1.41,1.26-2.13,1.61H1191.97z"
   id="path145" />
	</g>
</g>
<g
   id="g165">
	<g
   id="g163">
		<path
   d="M981.99,278.29v-1.8l2.78-0.35v-12.07l-2.82,0.02v-1.73l5.77-1.12v14.91l2.78,0.35v1.8H981.99z"
   id="path151" />
		<path
   d="M1004.12,283.63c-0.72-0.34-1.42-0.88-2.12-1.59s-1.31-1.6-1.86-2.65s-0.99-2.23-1.32-3.55s-0.5-2.75-0.5-4.29v-0.2    c0-1.53,0.17-2.96,0.5-4.28s0.77-2.51,1.32-3.56s1.17-1.94,1.86-2.65s1.4-1.25,2.12-1.58h0.07l0.54,1.57    c-0.52,0.4-1,0.92-1.46,1.56s-0.86,1.4-1.2,2.27s-0.61,1.87-0.81,2.98s-0.29,2.33-0.29,3.67v0.25c0,1.34,0.1,2.56,0.29,3.67    s0.46,2.1,0.81,2.98s0.74,1.64,1.2,2.29s0.94,1.18,1.46,1.61l-0.54,1.51H1004.12z"
   id="path153" />
		<path
   d="M1011.97,278.54c-1.74,0-3.12-0.58-4.13-1.75s-1.52-2.86-1.52-5.08v-3.88c0-2.22,0.5-3.91,1.51-5.09s2.38-1.76,4.11-1.76    c1.73,0,3.1,0.59,4.11,1.76s1.52,2.87,1.52,5.09v3.88c0,2.23-0.5,3.92-1.51,5.09S1013.7,278.54,1011.97,278.54z M1011.97,276.26    c0.87,0,1.53-0.34,1.98-1.02s0.68-1.73,0.68-3.15v-4.68c0-1.41-0.23-2.45-0.69-3.13s-1.12-1.02-1.99-1.02    c-0.88,0-1.54,0.34-2,1.01s-0.69,1.72-0.69,3.13v4.68c0,1.42,0.23,2.47,0.69,3.15S1011.09,276.26,1011.97,276.26z"
   id="path155" />
		<path
   d="M1019.18,278.29v-1.8l1.54-0.23l3.69-4.34l-3.54-4.25l-1.42-0.23v-1.82h5.73v1.77l-1.1,0.14l2.16,2.77l2.13-2.77    l-1.21-0.14v-1.77h5.57v1.82l-1.36,0.23l-3.33,4.16l3.76,4.43l1.45,0.23v1.8h-6.04v-1.76l1.28-0.14l-2.3-2.82l-2.24,2.84l1.2,0.13    v1.76H1019.18z"
   id="path157" />
		<path
   d="M1034.7,278.29v-1.8l2.78-0.35v-12.07l-2.82,0.02v-1.73l5.77-1.12v14.91l2.78,0.35v1.8H1034.7z"
   id="path159" />
		<path
   d="M1044.97,283.63l-0.55-1.51c0.52-0.4,1-0.92,1.45-1.56s0.85-1.41,1.2-2.29s0.62-1.88,0.81-3.01s0.29-2.35,0.29-3.69v-0.25    c0-1.32-0.1-2.54-0.3-3.65s-0.48-2.11-0.83-3s-0.75-1.66-1.2-2.31s-0.93-1.18-1.43-1.58l0.55-1.5h0.07    c0.73,0.33,1.44,0.86,2.13,1.59s1.33,1.62,1.9,2.68s1.02,2.25,1.36,3.56s0.5,2.73,0.5,4.24v0.2c0,1.52-0.17,2.93-0.5,4.25    s-0.79,2.51-1.36,3.56s-1.2,1.94-1.9,2.67s-1.41,1.26-2.13,1.61H1044.97z"
   id="path161" />
	</g>
</g>
<g
   id="g181">
	<g
   id="g179">
		<path
   d="M727.8,278.54c-1.01,0-1.92-0.19-2.74-0.56s-1.47-0.91-1.94-1.62s-0.7-1.56-0.67-2.57l0.02-0.07l2.78-0.09    c0,0.83,0.24,1.47,0.71,1.94s1.09,0.7,1.85,0.7c0.88,0,1.54-0.31,1.99-0.93s0.67-1.45,0.67-2.48s-0.23-1.87-0.7-2.51    s-1.13-0.96-2.01-0.96c-0.75,0-1.31,0.13-1.69,0.39s-0.64,0.62-0.81,1.1l-2.57-0.2l0.98-9.45h9.48v3.67h-1.95l-0.27-1.22h-4.8    l-0.52,4.3c0.22-0.16,0.46-0.31,0.74-0.44s0.57-0.23,0.89-0.31s0.66-0.12,1.03-0.13c1.08-0.01,2,0.22,2.77,0.67    s1.35,1.12,1.75,1.97s0.6,1.89,0.6,3.08c0,1.12-0.21,2.1-0.64,2.96s-1.06,1.53-1.89,2.02S729.01,278.54,727.8,278.54z"
   id="path167" />
		<path
   d="M747.12,283.63c-0.72-0.34-1.42-0.88-2.12-1.59s-1.31-1.6-1.86-2.65s-0.99-2.23-1.32-3.55s-0.5-2.75-0.5-4.29v-0.2    c0-1.53,0.17-2.96,0.5-4.28s0.77-2.51,1.32-3.56s1.17-1.94,1.86-2.65s1.4-1.25,2.12-1.58h0.07l0.54,1.57    c-0.52,0.4-1,0.92-1.46,1.56s-0.86,1.4-1.2,2.27s-0.61,1.87-0.81,2.98s-0.29,2.33-0.29,3.67v0.25c0,1.34,0.1,2.56,0.29,3.67    s0.46,2.1,0.81,2.98s0.74,1.64,1.2,2.29s0.94,1.18,1.46,1.61l-0.54,1.51H747.12z"
   id="path169" />
		<path
   d="M754.97,278.54c-1.74,0-3.12-0.58-4.13-1.75s-1.52-2.86-1.52-5.08v-3.88c0-2.22,0.5-3.91,1.51-5.09s2.38-1.76,4.11-1.76    c1.73,0,3.1,0.59,4.11,1.76s1.52,2.87,1.52,5.09v3.88c0,2.23-0.5,3.92-1.51,5.09S756.7,278.54,754.97,278.54z M754.97,276.26    c0.87,0,1.53-0.34,1.98-1.02s0.68-1.73,0.68-3.15v-4.68c0-1.41-0.23-2.45-0.69-3.13s-1.12-1.02-1.99-1.02    c-0.88,0-1.54,0.34-2,1.01s-0.69,1.72-0.69,3.13v4.68c0,1.42,0.23,2.47,0.69,3.15S754.09,276.26,754.97,276.26z"
   id="path171" />
		<path
   d="M762.18,278.29v-1.8l1.54-0.23l3.69-4.34l-3.54-4.25l-1.42-0.23v-1.82h5.73v1.77l-1.1,0.14l2.16,2.77l2.13-2.77    l-1.21-0.14v-1.77h5.57v1.82l-1.36,0.23l-3.33,4.16l3.76,4.43l1.45,0.23v1.8h-6.04v-1.76l1.28-0.14l-2.3-2.82l-2.24,2.84l1.2,0.13    v1.76H762.18z"
   id="path173" />
		<path
   d="M782.95,278.54c-1.01,0-1.92-0.19-2.74-0.56s-1.47-0.91-1.94-1.62s-0.7-1.56-0.67-2.57l0.02-0.07l2.78-0.09    c0,0.83,0.24,1.47,0.71,1.94s1.09,0.7,1.85,0.7c0.88,0,1.54-0.31,1.99-0.93s0.67-1.45,0.67-2.48s-0.23-1.87-0.7-2.51    s-1.13-0.96-2.01-0.96c-0.75,0-1.31,0.13-1.69,0.39s-0.64,0.62-0.81,1.1l-2.57-0.2l0.98-9.45h9.48v3.67h-1.95l-0.27-1.22h-4.8    l-0.52,4.3c0.22-0.16,0.46-0.31,0.74-0.44s0.57-0.23,0.89-0.31s0.66-0.12,1.03-0.13c1.08-0.01,2,0.22,2.77,0.67    s1.35,1.12,1.75,1.97s0.6,1.89,0.6,3.08c0,1.12-0.21,2.1-0.64,2.96s-1.06,1.53-1.89,2.02S784.16,278.54,782.95,278.54z"
   id="path175" />
		<path
   d="M790.41,283.63l-0.55-1.51c0.52-0.4,1-0.92,1.45-1.56s0.85-1.41,1.2-2.29s0.62-1.88,0.81-3.01s0.29-2.35,0.29-3.69v-0.25    c0-1.32-0.1-2.54-0.3-3.65s-0.48-2.11-0.83-3s-0.75-1.66-1.2-2.31s-0.93-1.18-1.43-1.58l0.55-1.5h0.07    c0.73,0.33,1.44,0.86,2.13,1.59s1.33,1.62,1.9,2.68s1.02,2.25,1.36,3.56s0.5,2.73,0.5,4.24v0.2c0,1.52-0.17,2.93-0.5,4.25    s-0.79,2.51-1.36,3.56s-1.2,1.94-1.9,2.67s-1.41,1.26-2.13,1.61H790.41z"
   id="path177" />
	</g>
</g>
<g
   id="g197">
	<g
   id="g195">
		<path
   d="M522.99,278.29v-1.8l2.78-0.35v-12.07l-2.82,0.02v-1.73l5.77-1.12v14.91l2.78,0.35v1.8H522.99z"
   id="path183" />
		<path
   d="M545.12,283.63c-0.72-0.34-1.42-0.88-2.12-1.59s-1.31-1.6-1.86-2.65s-0.99-2.23-1.32-3.55s-0.5-2.75-0.5-4.29v-0.2    c0-1.53,0.17-2.96,0.5-4.28s0.77-2.51,1.32-3.56s1.17-1.94,1.86-2.65s1.4-1.25,2.12-1.58h0.07l0.54,1.57    c-0.52,0.4-1,0.92-1.46,1.56s-0.86,1.4-1.2,2.27s-0.61,1.87-0.81,2.98s-0.29,2.33-0.29,3.67v0.25c0,1.34,0.1,2.56,0.29,3.67    s0.46,2.1,0.81,2.98s0.74,1.64,1.2,2.29s0.94,1.18,1.46,1.61l-0.54,1.51H545.12z"
   id="path185" />
		<path
   d="M552.97,278.54c-1.74,0-3.12-0.58-4.13-1.75s-1.52-2.86-1.52-5.08v-3.88c0-2.22,0.5-3.91,1.51-5.09s2.38-1.76,4.11-1.76    c1.73,0,3.1,0.59,4.11,1.76s1.52,2.87,1.52,5.09v3.88c0,2.23-0.5,3.92-1.51,5.09S554.7,278.54,552.97,278.54z M552.97,276.26    c0.87,0,1.53-0.34,1.98-1.02s0.68-1.73,0.68-3.15v-4.68c0-1.41-0.23-2.45-0.69-3.13s-1.12-1.02-1.99-1.02    c-0.88,0-1.54,0.34-2,1.01s-0.69,1.72-0.69,3.13v4.68c0,1.42,0.23,2.47,0.69,3.15S552.09,276.26,552.97,276.26z"
   id="path187" />
		<path
   d="M560.18,278.29v-1.8l1.54-0.23l3.69-4.34l-3.54-4.25l-1.42-0.23v-1.82h5.73v1.77l-1.1,0.14l2.16,2.77l2.13-2.77    l-1.21-0.14v-1.77h5.57v1.82l-1.36,0.23l-3.33,4.16l3.76,4.43l1.45,0.23v1.8h-6.04v-1.76l1.28-0.14l-2.3-2.82l-2.24,2.84l1.2,0.13    v1.76H560.18z"
   id="path189" />
		<path
   d="M575.7,278.29v-1.8l2.78-0.35v-12.07l-2.82,0.02v-1.73l5.77-1.12v14.91l2.78,0.35v1.8H575.7z"
   id="path191" />
		<path
   d="M585.97,283.63l-0.55-1.51c0.52-0.4,1-0.92,1.45-1.56s0.85-1.41,1.2-2.29s0.62-1.88,0.81-3.01s0.29-2.35,0.29-3.69v-0.25    c0-1.32-0.1-2.54-0.3-3.65s-0.48-2.11-0.83-3s-0.75-1.66-1.2-2.31s-0.93-1.18-1.43-1.58l0.55-1.5h0.07    c0.73,0.33,1.44,0.86,2.13,1.59s1.33,1.62,1.9,2.68s1.02,2.25,1.36,3.56s0.5,2.73,0.5,4.24v0.2c0,1.52-0.17,2.93-0.5,4.25    s-0.79,2.51-1.36,3.56s-1.2,1.94-1.9,2.67s-1.41,1.26-2.13,1.61H585.97z"
   id="path193" />
	</g>
</g>
<g
   id="g219">
	<g
   id="g217">
		<path
   d="M500.97,337.29v-1.8l2.78-0.35v-12.07l-2.82,0.02v-1.73l5.77-1.12v14.91l2.78,0.35v1.8H500.97z"
   id="path199" />
		<path
   d="M517.13,337.54c-1.74,0-3.12-0.58-4.13-1.75s-1.52-2.86-1.52-5.08v-3.88c0-2.22,0.5-3.91,1.51-5.09s2.38-1.76,4.11-1.76    c1.73,0,3.1,0.59,4.11,1.76s1.52,2.87,1.52,5.09v3.88c0,2.23-0.5,3.92-1.51,5.09S518.85,337.54,517.13,337.54z M517.13,335.26    c0.87,0,1.53-0.34,1.98-1.02s0.68-1.73,0.68-3.15v-4.68c0-1.41-0.23-2.45-0.69-3.13s-1.12-1.02-1.99-1.02    c-0.88,0-1.54,0.34-2,1.01s-0.69,1.72-0.69,3.13v4.68c0,1.42,0.23,2.47,0.69,3.15S516.24,335.26,517.13,335.26z"
   id="path201" />
		<path
   d="M527.92,337.29l0.18-1.78c0.2-1.73,0.53-3.34,1-4.84s1.08-2.92,1.82-4.27s1.65-2.64,2.7-3.88h-6.48l-0.15,1.8h-2.36v-4.09    h11.84v2.29c-0.96,1.14-1.76,2.21-2.39,3.22s-1.14,2-1.53,3s-0.69,2.04-0.92,3.14s-0.42,2.31-0.57,3.64l-0.18,1.78H527.92z"
   id="path203" />
		<path
   d="M549.88,342.63c-0.72-0.34-1.42-0.88-2.12-1.59s-1.31-1.6-1.86-2.65s-0.99-2.23-1.32-3.55s-0.5-2.75-0.5-4.29v-0.2    c0-1.53,0.17-2.96,0.5-4.28s0.77-2.51,1.32-3.56s1.17-1.94,1.86-2.65s1.4-1.25,2.12-1.58h0.07l0.54,1.57    c-0.52,0.4-1,0.92-1.46,1.56s-0.86,1.4-1.2,2.27s-0.61,1.87-0.81,2.98s-0.29,2.33-0.29,3.67v0.25c0,1.34,0.1,2.56,0.29,3.67    s0.46,2.1,0.81,2.98s0.74,1.64,1.2,2.29s0.94,1.18,1.46,1.61l-0.54,1.51H549.88z"
   id="path205" />
		<path
   d="M557.73,337.54c-1.74,0-3.12-0.58-4.13-1.75s-1.52-2.86-1.52-5.08v-3.88c0-2.22,0.5-3.91,1.51-5.09s2.38-1.76,4.11-1.76    c1.73,0,3.1,0.59,4.11,1.76s1.52,2.87,1.52,5.09v3.88c0,2.23-0.5,3.92-1.51,5.09S559.46,337.54,557.73,337.54z M557.73,335.26    c0.87,0,1.53-0.34,1.98-1.02s0.68-1.73,0.68-3.15v-4.68c0-1.41-0.23-2.45-0.69-3.13s-1.12-1.02-1.99-1.02    c-0.88,0-1.54,0.34-2,1.01s-0.69,1.72-0.69,3.13v4.68c0,1.42,0.23,2.47,0.69,3.15S556.85,335.26,557.73,335.26z"
   id="path207" />
		<path
   d="M564.94,337.29v-1.8l1.54-0.23l3.69-4.34l-3.54-4.25l-1.42-0.23v-1.82h5.73v1.77l-1.1,0.14l2.16,2.77l2.13-2.77    l-1.21-0.14v-1.77h5.57v1.82l-1.36,0.23l-3.33,4.16l3.76,4.43l1.45,0.23v1.8h-6.04v-1.76l1.28-0.14l-2.3-2.82l-2.24,2.84l1.2,0.13    v1.76H564.94z"
   id="path209" />
		<path
   d="M586.58,337.54c-1.16,0-2.18-0.27-3.08-0.82s-1.6-1.34-2.11-2.37s-0.76-2.28-0.76-3.74v-2.7c0-1.7,0.28-3.13,0.85-4.31    s1.35-2.07,2.34-2.69s2.14-0.93,3.44-0.93c0.62,0,1.2,0.06,1.76,0.19s1.07,0.3,1.55,0.53l-0.54,2.17c-0.4-0.16-0.82-0.3-1.27-0.4    s-0.93-0.16-1.44-0.16c-1.16,0-2.05,0.4-2.68,1.21s-0.96,2.01-1,3.62l0.05,0.06c0.41-0.4,0.91-0.71,1.52-0.95s1.27-0.35,2-0.35    c1.02,0,1.89,0.24,2.64,0.73s1.31,1.16,1.71,2.02s0.6,1.84,0.6,2.93c0,1.16-0.23,2.19-0.7,3.09s-1.12,1.6-1.95,2.11    S587.69,337.54,586.58,337.54z M586.55,335.26c0.55,0,1.03-0.16,1.42-0.49s0.69-0.77,0.91-1.34s0.32-1.19,0.32-1.89    c0-1.01-0.25-1.83-0.74-2.47s-1.19-0.96-2.09-0.96c-0.42,0-0.81,0.06-1.17,0.17s-0.68,0.27-0.95,0.48s-0.5,0.46-0.68,0.74v1.23    c0,1.45,0.28,2.57,0.84,3.35S585.67,335.26,586.55,335.26z"
   id="path211" />
		<path
   d="M600.74,337.54c-0.8,0-1.48-0.16-2.06-0.47s-1.06-0.77-1.45-1.36l-0.23,1.58h-2.54v-16.11l-1.86-0.35v-1.82h4.8v7.02    c0.38-0.54,0.85-0.95,1.41-1.23s1.21-0.42,1.95-0.42c1.04,0,1.92,0.28,2.64,0.84s1.28,1.34,1.66,2.35s0.57,2.19,0.57,3.55v0.25    c0,1.23-0.19,2.32-0.57,3.25s-0.94,1.65-1.66,2.16S601.78,337.54,600.74,337.54z M599.9,335.21c0.97,0,1.67-0.34,2.12-1.03    s0.66-1.62,0.66-2.82v-0.25c0-0.89-0.1-1.67-0.29-2.33s-0.5-1.17-0.9-1.54s-0.93-0.54-1.57-0.54c-0.59,0-1.1,0.14-1.52,0.43    s-0.75,0.67-1,1.15v5.41c0.26,0.48,0.6,0.85,1.01,1.11S599.32,335.21,599.9,335.21z"
   id="path213" />
		<path
   d="M607.5,342.63l-0.55-1.51c0.52-0.4,1-0.92,1.45-1.56s0.85-1.41,1.2-2.29s0.62-1.88,0.81-3.01s0.29-2.35,0.29-3.69v-0.25    c0-1.32-0.1-2.54-0.3-3.65s-0.48-2.11-0.83-3s-0.75-1.66-1.2-2.31s-0.93-1.18-1.43-1.58l0.55-1.5h0.07    c0.73,0.33,1.44,0.86,2.13,1.59s1.33,1.62,1.9,2.68s1.02,2.25,1.36,3.56s0.5,2.73,0.5,4.24v0.2c0,1.52-0.17,2.93-0.5,4.25    s-0.79,2.51-1.36,3.56s-1.2,1.94-1.9,2.67s-1.41,1.26-2.13,1.61H607.5z"
   id="path215" />
	</g>
</g>
<g
   id="g233">
	<g
   id="g231">
		<path
   d="M1128.93,218.29v-1.8l1.86-0.35v-8.41h-1.63v-2.11h1.63v-0.7c0-1.64,0.49-2.91,1.47-3.8s2.35-1.34,4.11-1.34    c0.67,0,1.34,0.06,1.99,0.18s1.42,0.3,2.29,0.53h1.61v15.66l1.76,0.35v1.8h-6.47v-1.8l1.76-0.35v-13.64    c-0.45-0.09-0.9-0.17-1.34-0.23s-0.88-0.09-1.32-0.09c-1,0-1.73,0.23-2.2,0.69s-0.7,1.14-0.7,2.06v0.7h2.86v2.11h-2.86v8.41    l1.76,0.35v1.8H1128.93z"
   id="path221" />
		<path
   d="M1149.69,218.54c-1.29,0-2.29-0.33-3.01-1s-1.08-1.58-1.08-2.74c0-0.8,0.22-1.5,0.66-2.1s1.08-1.07,1.92-1.41    s1.87-0.51,3.07-0.51h1.93v-1.07c0-0.67-0.2-1.21-0.6-1.61s-0.99-0.6-1.75-0.6c-0.44,0-0.82,0.05-1.16,0.16s-0.64,0.26-0.9,0.45    l-0.27,1.71h-2.17l-0.02-3.13c0.62-0.41,1.32-0.73,2.09-0.97s1.62-0.36,2.55-0.36c1.61,0,2.88,0.38,3.8,1.13s1.39,1.83,1.39,3.24    v5.59c0,0.17,0,0.34,0.01,0.5s0.01,0.32,0.03,0.48l1.29,0.16v1.8h-3.86c-0.08-0.27-0.15-0.54-0.22-0.8s-0.12-0.52-0.15-0.77    c-0.42,0.53-0.93,0.97-1.53,1.31S1150.44,218.54,1149.69,218.54z M1150.36,216.25c0.59,0,1.15-0.14,1.66-0.42s0.9-0.63,1.16-1.05    v-2.12h-1.97c-0.88,0-1.55,0.21-2,0.62s-0.67,0.89-0.67,1.44c0,0.49,0.16,0.87,0.47,1.14S1149.77,216.25,1150.36,216.25z"
   id="path223" />
		<path
   d="M1164.49,223.41c-0.62,0-1.32-0.08-2.08-0.25s-1.43-0.4-2.01-0.7l0.61-2.16c0.5,0.23,1.05,0.41,1.65,0.55    s1.17,0.21,1.71,0.21c0.97,0,1.68-0.27,2.13-0.8s0.67-1.29,0.67-2.27v-1c-0.39,0.5-0.86,0.88-1.39,1.14s-1.16,0.39-1.85,0.39    c-1.03,0-1.92-0.26-2.67-0.77s-1.32-1.24-1.71-2.17s-0.59-2.01-0.59-3.23v-0.25c0-1.35,0.2-2.53,0.59-3.54s0.96-1.79,1.7-2.36    s1.62-0.84,2.64-0.84c0.77,0,1.45,0.16,2.02,0.47s1.05,0.77,1.45,1.35l0.22-1.59h2.54v12.4c0,1.1-0.22,2.06-0.67,2.87    s-1.09,1.43-1.93,1.88S1165.67,223.41,1164.49,223.41z M1164.73,216.21c0.57,0,1.06-0.12,1.46-0.36s0.73-0.59,0.99-1.05v-5.65    c-0.26-0.45-0.59-0.79-1-1.05s-0.89-0.38-1.44-0.38c-0.65,0-1.18,0.19-1.6,0.56s-0.73,0.89-0.93,1.55s-0.3,1.43-0.3,2.3v0.25    c0,1.17,0.22,2.11,0.67,2.8S1163.75,216.21,1164.73,216.21z M1169.73,207.84l-1.24-2.23h3.16v1.82L1169.73,207.84z"
   id="path225" />
		<path
   d="M1173.17,220.32v-2.03h10.73v2.03H1173.17z"
   id="path227" />
		<path
   d="M1190.12,218.54c-1.29,0-2.29-0.33-3.01-1s-1.08-1.58-1.08-2.74c0-0.8,0.22-1.5,0.66-2.1s1.08-1.07,1.92-1.41    s1.87-0.51,3.07-0.51h1.93v-1.07c0-0.67-0.2-1.21-0.6-1.61s-0.99-0.6-1.75-0.6c-0.44,0-0.82,0.05-1.16,0.16s-0.64,0.26-0.9,0.45    l-0.27,1.71h-2.17l-0.02-3.13c0.62-0.41,1.32-0.73,2.09-0.97s1.62-0.36,2.55-0.36c1.61,0,2.88,0.38,3.8,1.13s1.39,1.83,1.39,3.24    v5.59c0,0.17,0,0.34,0.01,0.5s0.01,0.32,0.03,0.48l1.29,0.16v1.8h-3.86c-0.08-0.27-0.15-0.54-0.22-0.8s-0.12-0.52-0.15-0.77    c-0.42,0.53-0.93,0.97-1.53,1.31S1190.87,218.54,1190.12,218.54z M1190.79,216.25c0.59,0,1.15-0.14,1.66-0.42s0.9-0.63,1.16-1.05    v-2.12h-1.97c-0.88,0-1.55,0.21-2,0.62s-0.67,0.89-0.67,1.44c0,0.49,0.16,0.87,0.47,1.14S1190.2,216.25,1190.79,216.25z"
   id="path229" />
	</g>
</g>
<g
   id="g247">
	<g
   id="g245">
		<path
   d="M976.8,218.29v-1.8l1.86-0.35v-8.41h-1.63v-2.11h1.63v-0.7c0-1.64,0.49-2.91,1.47-3.8s2.35-1.34,4.11-1.34    c0.67,0,1.34,0.06,1.99,0.18s1.42,0.3,2.29,0.53h1.61v15.66l1.76,0.35v1.8h-6.47v-1.8l1.76-0.35v-13.64    c-0.45-0.09-0.9-0.17-1.34-0.23s-0.88-0.09-1.32-0.09c-1,0-1.73,0.23-2.2,0.69s-0.7,1.14-0.7,2.06v0.7h2.86v2.11h-2.86v8.41    l1.76,0.35v1.8H976.8z"
   id="path235" />
		<path
   d="M997.56,218.54c-1.29,0-2.29-0.33-3.01-1s-1.08-1.58-1.08-2.74c0-0.8,0.22-1.5,0.66-2.1s1.08-1.07,1.92-1.41    s1.87-0.51,3.07-0.51h1.93v-1.07c0-0.67-0.2-1.21-0.6-1.61s-0.99-0.6-1.75-0.6c-0.44,0-0.82,0.05-1.16,0.16s-0.64,0.26-0.9,0.45    l-0.27,1.71h-2.17l-0.02-3.13c0.62-0.41,1.32-0.73,2.09-0.97s1.62-0.36,2.55-0.36c1.61,0,2.88,0.38,3.8,1.13s1.39,1.83,1.39,3.24    v5.59c0,0.17,0,0.34,0.01,0.5s0.01,0.32,0.03,0.48l1.29,0.16v1.8h-3.86c-0.08-0.27-0.15-0.54-0.22-0.8s-0.12-0.52-0.15-0.77    c-0.42,0.53-0.93,0.97-1.53,1.31S998.31,218.54,997.56,218.54z M998.23,216.25c0.59,0,1.15-0.14,1.66-0.42s0.9-0.63,1.16-1.05    v-2.12h-1.97c-0.88,0-1.55,0.21-2,0.62s-0.67,0.89-0.67,1.44c0,0.49,0.16,0.87,0.47,1.14S997.65,216.25,998.23,216.25z"
   id="path237" />
		<path
   d="M1012.36,223.41c-0.62,0-1.32-0.08-2.08-0.25s-1.43-0.4-2.01-0.7l0.61-2.16c0.5,0.23,1.05,0.41,1.65,0.55    s1.17,0.21,1.71,0.21c0.97,0,1.68-0.27,2.13-0.8s0.67-1.29,0.67-2.27v-1c-0.39,0.5-0.86,0.88-1.39,1.14s-1.16,0.39-1.85,0.39    c-1.03,0-1.92-0.26-2.67-0.77s-1.32-1.24-1.71-2.17s-0.59-2.01-0.59-3.23v-0.25c0-1.35,0.2-2.53,0.59-3.54s0.96-1.79,1.7-2.36    s1.62-0.84,2.64-0.84c0.77,0,1.45,0.16,2.02,0.47s1.05,0.77,1.45,1.35l0.22-1.59h2.54v12.4c0,1.1-0.22,2.06-0.67,2.87    s-1.09,1.43-1.93,1.88S1013.54,223.41,1012.36,223.41z M1012.6,216.21c0.57,0,1.06-0.12,1.46-0.36s0.73-0.59,0.99-1.05v-5.65    c-0.26-0.45-0.59-0.79-1-1.05s-0.89-0.38-1.44-0.38c-0.65,0-1.18,0.19-1.6,0.56s-0.73,0.89-0.93,1.55s-0.3,1.43-0.3,2.3v0.25    c0,1.17,0.22,2.11,0.67,2.8S1011.62,216.21,1012.6,216.21z M1017.6,207.84l-1.24-2.23h3.16v1.82L1017.6,207.84z"
   id="path239" />
		<path
   d="M1021.04,220.32v-2.03h10.73v2.03H1021.04z"
   id="path241" />
		<path
   d="M1040.93,218.54c-0.8,0-1.48-0.16-2.06-0.47s-1.06-0.77-1.45-1.36l-0.23,1.58h-2.54v-16.11l-1.86-0.35v-1.82h4.8v7.02    c0.38-0.54,0.85-0.95,1.41-1.23s1.21-0.42,1.95-0.42c1.04,0,1.92,0.28,2.64,0.84s1.28,1.34,1.66,2.35s0.57,2.19,0.57,3.55v0.25    c0,1.23-0.19,2.32-0.57,3.25s-0.94,1.65-1.66,2.16S1041.97,218.54,1040.93,218.54z M1040.09,216.21c0.97,0,1.67-0.34,2.12-1.03    s0.66-1.62,0.66-2.82v-0.25c0-0.89-0.1-1.67-0.29-2.33s-0.5-1.17-0.9-1.54s-0.93-0.54-1.57-0.54c-0.59,0-1.1,0.14-1.52,0.43    s-0.75,0.67-1,1.15v5.41c0.26,0.48,0.6,0.85,1.01,1.11S1039.51,216.21,1040.09,216.21z"
   id="path243" />
	</g>
</g>
<g
   id="g261">
	<g
   id="g259">
		<path
   d="M723.33,218.29v-1.8l1.86-0.35v-8.41h-1.63v-2.11h1.63v-0.7c0-1.64,0.49-2.91,1.47-3.8s2.35-1.34,4.11-1.34    c0.67,0,1.34,0.06,1.99,0.18s1.42,0.3,2.29,0.53h1.61v15.66l1.76,0.35v1.8h-6.47v-1.8l1.76-0.35v-13.64    c-0.45-0.09-0.9-0.17-1.34-0.23s-0.88-0.09-1.32-0.09c-1,0-1.73,0.23-2.2,0.69s-0.7,1.14-0.7,2.06v0.7H731v2.11h-2.86v8.41    l1.76,0.35v1.8H723.33z"
   id="path249" />
		<path
   d="M744.09,218.54c-1.29,0-2.29-0.33-3.01-1s-1.08-1.58-1.08-2.74c0-0.8,0.22-1.5,0.66-2.1s1.08-1.07,1.92-1.41    s1.87-0.51,3.07-0.51h1.93v-1.07c0-0.67-0.2-1.21-0.6-1.61s-0.99-0.6-1.75-0.6c-0.44,0-0.82,0.05-1.16,0.16s-0.64,0.26-0.9,0.45    l-0.27,1.71h-2.17l-0.02-3.13c0.62-0.41,1.32-0.73,2.09-0.97s1.62-0.36,2.55-0.36c1.61,0,2.88,0.38,3.8,1.13s1.39,1.83,1.39,3.24    v5.59c0,0.17,0,0.34,0.01,0.5s0.01,0.32,0.03,0.48l1.29,0.16v1.8H748c-0.08-0.27-0.15-0.54-0.22-0.8s-0.12-0.52-0.15-0.77    c-0.42,0.53-0.93,0.97-1.53,1.31S744.84,218.54,744.09,218.54z M744.76,216.25c0.59,0,1.15-0.14,1.66-0.42s0.9-0.63,1.16-1.05    v-2.12h-1.97c-0.88,0-1.55,0.21-2,0.62s-0.67,0.89-0.67,1.44c0,0.49,0.16,0.87,0.47,1.14S744.17,216.25,744.76,216.25z"
   id="path251" />
		<path
   d="M758.89,223.41c-0.62,0-1.32-0.08-2.08-0.25s-1.43-0.4-2.01-0.7l0.61-2.16c0.5,0.23,1.05,0.41,1.65,0.55    s1.17,0.21,1.71,0.21c0.97,0,1.68-0.27,2.13-0.8s0.67-1.29,0.67-2.27v-1c-0.39,0.5-0.86,0.88-1.39,1.14s-1.16,0.39-1.85,0.39    c-1.03,0-1.92-0.26-2.67-0.77s-1.32-1.24-1.71-2.17s-0.59-2.01-0.59-3.23v-0.25c0-1.35,0.2-2.53,0.59-3.54s0.96-1.79,1.7-2.36    s1.62-0.84,2.64-0.84c0.77,0,1.45,0.16,2.02,0.47s1.05,0.77,1.45,1.35l0.22-1.59h2.54v12.4c0,1.1-0.22,2.06-0.67,2.87    s-1.09,1.43-1.93,1.88S760.07,223.41,758.89,223.41z M759.13,216.21c0.57,0,1.06-0.12,1.46-0.36s0.73-0.59,0.99-1.05v-5.65    c-0.26-0.45-0.59-0.79-1-1.05s-0.89-0.38-1.44-0.38c-0.65,0-1.18,0.19-1.6,0.56s-0.73,0.89-0.93,1.55s-0.3,1.43-0.3,2.3v0.25    c0,1.17,0.22,2.11,0.67,2.8S758.15,216.21,759.13,216.21z M764.13,207.84l-1.24-2.23h3.16v1.82L764.13,207.84z"
   id="path253" />
		<path
   d="M767.56,220.32v-2.03h10.73v2.03H767.56z"
   id="path255" />
		<path
   d="M786.2,218.54c-1.19,0-2.22-0.27-3.09-0.81s-1.54-1.29-2.02-2.25s-0.71-2.06-0.71-3.31v-0.41c0-1.23,0.23-2.32,0.7-3.28    s1.14-1.72,2.01-2.27s1.9-0.83,3.09-0.83c1.09,0,2.03,0.17,2.84,0.52s1.46,0.78,1.98,1.29l0.01,3.39h-2.25l-0.43-2.24    c-0.22-0.23-0.5-0.41-0.83-0.54s-0.7-0.21-1.1-0.21c-0.65,0-1.2,0.18-1.66,0.53s-0.8,0.84-1.04,1.46s-0.36,1.35-0.36,2.17v0.41    c0,0.89,0.12,1.64,0.36,2.25s0.58,1.07,1.01,1.38s0.93,0.47,1.49,0.47c0.68,0,1.23-0.18,1.66-0.55s0.71-0.88,0.84-1.52h2.55    l0.04,0.07c-0.09,0.83-0.34,1.56-0.73,2.21s-0.95,1.15-1.66,1.52S787.28,218.54,786.2,218.54z"
   id="path257" />
	</g>
</g>
<g
   id="g275">
	<g
   id="g273">
		<path
   d="M522.52,218.29v-1.8l1.86-0.35v-8.41h-1.63v-2.11h1.63v-0.7c0-1.64,0.49-2.91,1.47-3.8s2.35-1.34,4.11-1.34    c0.67,0,1.34,0.06,1.99,0.18s1.42,0.3,2.29,0.53h1.61v15.66l1.76,0.35v1.8h-6.47v-1.8l1.76-0.35v-13.64    c-0.45-0.09-0.9-0.17-1.34-0.23s-0.88-0.09-1.32-0.09c-1,0-1.73,0.23-2.2,0.69s-0.7,1.14-0.7,2.06v0.7h2.86v2.11h-2.86v8.41    l1.76,0.35v1.8H522.52z"
   id="path263" />
		<path
   d="M543.28,218.54c-1.29,0-2.29-0.33-3.01-1s-1.08-1.58-1.08-2.74c0-0.8,0.22-1.5,0.66-2.1s1.08-1.07,1.92-1.41    s1.87-0.51,3.07-0.51h1.93v-1.07c0-0.67-0.2-1.21-0.6-1.61s-0.99-0.6-1.75-0.6c-0.44,0-0.82,0.05-1.16,0.16s-0.64,0.26-0.9,0.45    l-0.27,1.71h-2.17l-0.02-3.13c0.62-0.41,1.32-0.73,2.09-0.97s1.62-0.36,2.55-0.36c1.61,0,2.88,0.38,3.8,1.13s1.39,1.83,1.39,3.24    v5.59c0,0.17,0,0.34,0.01,0.5s0.01,0.32,0.03,0.48l1.29,0.16v1.8h-3.86c-0.08-0.27-0.15-0.54-0.22-0.8s-0.12-0.52-0.15-0.77    c-0.42,0.53-0.93,0.97-1.53,1.31S544.03,218.54,543.28,218.54z M543.95,216.25c0.59,0,1.15-0.14,1.66-0.42s0.9-0.63,1.16-1.05    v-2.12h-1.97c-0.88,0-1.55,0.21-2,0.62s-0.67,0.89-0.67,1.44c0,0.49,0.16,0.87,0.47,1.14S543.36,216.25,543.95,216.25z"
   id="path265" />
		<path
   d="M558.08,223.41c-0.62,0-1.32-0.08-2.08-0.25s-1.43-0.4-2.01-0.7l0.61-2.16c0.5,0.23,1.05,0.41,1.65,0.55    s1.17,0.21,1.71,0.21c0.97,0,1.68-0.27,2.13-0.8s0.67-1.29,0.67-2.27v-1c-0.39,0.5-0.86,0.88-1.39,1.14s-1.16,0.39-1.85,0.39    c-1.03,0-1.92-0.26-2.67-0.77s-1.32-1.24-1.71-2.17s-0.59-2.01-0.59-3.23v-0.25c0-1.35,0.2-2.53,0.59-3.54s0.96-1.79,1.7-2.36    s1.62-0.84,2.64-0.84c0.77,0,1.45,0.16,2.02,0.47s1.05,0.77,1.45,1.35l0.22-1.59h2.54v12.4c0,1.1-0.22,2.06-0.67,2.87    s-1.09,1.43-1.93,1.88S559.26,223.41,558.08,223.41z M558.32,216.21c0.57,0,1.06-0.12,1.46-0.36s0.73-0.59,0.99-1.05v-5.65    c-0.26-0.45-0.59-0.79-1-1.05s-0.89-0.38-1.44-0.38c-0.65,0-1.18,0.19-1.6,0.56s-0.73,0.89-0.93,1.55s-0.3,1.43-0.3,2.3v0.25    c0,1.17,0.22,2.11,0.67,2.8S557.34,216.21,558.32,216.21z M563.32,207.84l-1.24-2.23h3.16v1.82L563.32,207.84z"
   id="path267" />
		<path
   d="M566.75,220.32v-2.03h10.73v2.03H566.75z"
   id="path269" />
		<path
   d="M584.45,218.54c-1.02,0-1.9-0.26-2.62-0.77s-1.28-1.24-1.67-2.16s-0.58-2.01-0.58-3.24v-0.25c0-1.35,0.19-2.53,0.58-3.54    s0.95-1.79,1.68-2.36s1.6-0.84,2.61-0.84c0.73,0,1.36,0.14,1.9,0.42s1.01,0.67,1.4,1.19v-4.8l-1.86-0.35v-1.82h1.86h2.95v16.12    l1.76,0.35v1.8h-4.31l-0.23-1.54c-0.4,0.59-0.88,1.03-1.46,1.33S585.21,218.54,584.45,218.54z M585.28,216.21    c0.56,0,1.05-0.12,1.45-0.37s0.74-0.6,1.01-1.07v-5.59c-0.26-0.45-0.59-0.81-1-1.07s-0.89-0.39-1.44-0.39    c-0.64,0-1.17,0.19-1.58,0.56s-0.71,0.89-0.91,1.55s-0.29,1.43-0.29,2.3v0.25c0,1.17,0.22,2.11,0.65,2.8    S584.31,216.21,585.28,216.21z"
   id="path271" />
	</g>
</g>
<g
   id="g285">
	<g
   id="g283">
		<path
   d="M997.39,159.54c-1.74,0-3.12-0.58-4.13-1.75s-1.52-2.86-1.52-5.08v-3.88c0-2.22,0.5-3.91,1.51-5.09s2.38-1.76,4.11-1.76    c1.73,0,3.1,0.59,4.11,1.76s1.52,2.87,1.52,5.09v3.88c0,2.23-0.5,3.92-1.51,5.09S999.11,159.54,997.39,159.54z M997.39,157.26    c0.87,0,1.53-0.34,1.98-1.02s0.68-1.73,0.68-3.15v-4.68c0-1.41-0.23-2.45-0.69-3.13s-1.12-1.02-1.99-1.02    c-0.88,0-1.54,0.34-2,1.01s-0.69,1.72-0.69,3.13v4.68c0,1.42,0.23,2.47,0.69,3.15S996.5,157.26,997.39,157.26z"
   id="path277" />
		<path
   d="M1004.59,159.29v-1.8l1.54-0.23l3.69-4.34l-3.54-4.25l-1.42-0.23v-1.82h5.73v1.77l-1.1,0.14l2.16,2.77l2.13-2.77    l-1.21-0.14v-1.77h5.57v1.82l-1.36,0.23l-3.33,4.16l3.76,4.43l1.45,0.23v1.8h-6.04v-1.76l1.28-0.14l-2.3-2.82l-2.24,2.84l1.2,0.13    v1.76H1004.59z"
   id="path279" />
		<path
   d="M1026.24,159.54c-1.16,0-2.18-0.27-3.08-0.82s-1.6-1.34-2.11-2.37s-0.76-2.28-0.76-3.74v-2.7c0-1.7,0.28-3.13,0.85-4.31    s1.35-2.07,2.34-2.69s2.14-0.93,3.44-0.93c0.62,0,1.2,0.06,1.76,0.19s1.07,0.3,1.55,0.53l-0.54,2.17c-0.4-0.16-0.82-0.3-1.27-0.4    s-0.93-0.16-1.44-0.16c-1.16,0-2.05,0.4-2.68,1.21s-0.96,2.01-1,3.62l0.05,0.06c0.41-0.4,0.91-0.71,1.52-0.95s1.27-0.35,2-0.35    c1.02,0,1.89,0.24,2.64,0.73s1.31,1.16,1.71,2.02s0.6,1.84,0.6,2.93c0,1.16-0.23,2.19-0.7,3.09s-1.12,1.6-1.95,2.11    S1027.35,159.54,1026.24,159.54z M1026.2,157.26c0.55,0,1.03-0.16,1.42-0.49s0.69-0.77,0.91-1.34s0.32-1.19,0.32-1.89    c0-1.01-0.25-1.83-0.74-2.47s-1.19-0.96-2.09-0.96c-0.42,0-0.81,0.06-1.17,0.17s-0.68,0.27-0.95,0.48s-0.5,0.46-0.68,0.74v1.23    c0,1.45,0.28,2.57,0.84,3.35S1025.33,157.26,1026.2,157.26z"
   id="path281" />
	</g>
</g>
<g
   id="g297">
	<g
   id="g295">
		<path
   d="M737.01,159.54c-1.74,0-3.12-0.58-4.13-1.75s-1.52-2.86-1.52-5.08v-3.88c0-2.22,0.5-3.91,1.51-5.09s2.38-1.76,4.11-1.76    c1.73,0,3.1,0.59,4.11,1.76s1.52,2.87,1.52,5.09v3.88c0,2.23-0.5,3.92-1.51,5.09S738.74,159.54,737.01,159.54z M737.01,157.26    c0.87,0,1.53-0.34,1.98-1.02s0.68-1.73,0.68-3.15v-4.68c0-1.41-0.23-2.45-0.69-3.13s-1.12-1.02-1.99-1.02    c-0.88,0-1.54,0.34-2,1.01s-0.69,1.72-0.69,3.13v4.68c0,1.42,0.23,2.47,0.69,3.15S736.13,157.26,737.01,157.26z"
   id="path287" />
		<path
   d="M744.22,159.29v-1.8l1.54-0.23l3.69-4.34l-3.54-4.25l-1.42-0.23v-1.82h5.73v1.77l-1.1,0.14l2.16,2.77l2.13-2.77    l-1.21-0.14v-1.77h5.57v1.82l-1.36,0.23l-3.33,4.16l3.76,4.43l1.45,0.23v1.8h-6.04v-1.76l1.28-0.14l-2.3-2.82L749,157.4l1.2,0.13    v1.76H744.22z"
   id="path289" />
		<path
   d="M765.07,159.54c-1.07,0-2.03-0.19-2.89-0.57s-1.53-0.93-2.02-1.65s-0.73-1.58-0.7-2.58l0.02-0.07h2.85    c0,0.52,0.11,0.97,0.33,1.35s0.54,0.69,0.95,0.91s0.9,0.33,1.46,0.33c0.87,0,1.55-0.24,2.04-0.72s0.74-1.17,0.74-2.07    c0-0.91-0.23-1.59-0.7-2.06s-1.19-0.7-2.17-0.7h-1.92v-2.25h1.97c0.6,0,1.09-0.1,1.47-0.31s0.66-0.5,0.83-0.89    s0.26-0.85,0.26-1.38c0-0.84-0.21-1.48-0.64-1.94s-1.06-0.69-1.89-0.69c-0.52,0-0.96,0.1-1.35,0.3s-0.68,0.49-0.9,0.86    s-0.32,0.8-0.32,1.29h-2.86l-0.02-0.07c-0.02-0.88,0.19-1.68,0.65-2.38s1.1-1.26,1.93-1.67s1.78-0.61,2.85-0.61    c1.67,0,3.01,0.42,4.01,1.26s1.5,2.03,1.5,3.58c0,0.76-0.22,1.47-0.65,2.13s-1.08,1.19-1.95,1.58c0.98,0.34,1.7,0.86,2.16,1.56    s0.7,1.51,0.7,2.43c0,1.04-0.25,1.93-0.74,2.68s-1.17,1.33-2.04,1.73S766.18,159.54,765.07,159.54z"
   id="path291" />
		<path
   d="M778.32,159.54c-1.14,0-2.14-0.19-2.99-0.56s-1.52-0.93-2-1.65s-0.72-1.62-0.72-2.67c0-0.95,0.27-1.78,0.82-2.49    s1.29-1.26,2.23-1.62c-0.82-0.35-1.46-0.86-1.92-1.52s-0.69-1.42-0.69-2.29c0-1.02,0.22-1.88,0.66-2.58s1.05-1.24,1.85-1.61    s1.71-0.56,2.76-0.56s1.97,0.19,2.76,0.56s1.41,0.91,1.86,1.61s0.67,1.56,0.67,2.58c0,0.87-0.24,1.63-0.71,2.29    s-1.12,1.17-1.93,1.52c0.94,0.37,1.68,0.91,2.23,1.63s0.83,1.55,0.83,2.48c0,1.05-0.24,1.95-0.71,2.67s-1.14,1.28-2,1.65    S779.45,159.54,778.32,159.54z M778.32,157.26c0.55,0,1.03-0.11,1.44-0.34s0.73-0.55,0.96-0.96s0.34-0.9,0.34-1.46    s-0.12-1.06-0.35-1.48s-0.56-0.76-0.98-0.99s-0.9-0.35-1.44-0.35s-1.01,0.12-1.42,0.35s-0.73,0.56-0.97,0.99s-0.35,0.92-0.35,1.48    c0,0.86,0.25,1.54,0.76,2.03S777.49,157.26,778.32,157.26z M778.32,149.38c0.46,0,0.87-0.1,1.21-0.31s0.62-0.5,0.81-0.88    s0.29-0.83,0.29-1.35c0-0.51-0.1-0.95-0.3-1.34s-0.47-0.68-0.82-0.9s-0.76-0.33-1.22-0.33c-0.7,0-1.26,0.23-1.68,0.7    s-0.63,1.09-0.63,1.87c0,0.77,0.21,1.39,0.63,1.85S777.6,149.38,778.32,149.38z"
   id="path293" />
	</g>
</g>
<g
   id="g309">
	<g
   id="g307">
		<path
   d="M536.39,159.54c-1.74,0-3.12-0.58-4.13-1.75s-1.52-2.86-1.52-5.08v-3.88c0-2.22,0.5-3.91,1.51-5.09s2.38-1.76,4.11-1.76    c1.73,0,3.1,0.59,4.11,1.76s1.52,2.87,1.52,5.09v3.88c0,2.23-0.5,3.92-1.51,5.09S538.11,159.54,536.39,159.54z M536.39,157.26    c0.87,0,1.53-0.34,1.98-1.02s0.68-1.73,0.68-3.15v-4.68c0-1.41-0.23-2.45-0.69-3.13s-1.12-1.02-1.99-1.02    c-0.88,0-1.54,0.34-2,1.01s-0.69,1.72-0.69,3.13v4.68c0,1.42,0.23,2.47,0.69,3.15S535.5,157.26,536.39,157.26z"
   id="path299" />
		<path
   d="M543.59,159.29v-1.8l1.54-0.23l3.69-4.34l-3.54-4.25l-1.42-0.23v-1.82h5.73v1.77l-1.1,0.14l2.16,2.77l2.13-2.77    l-1.21-0.14v-1.77h5.57v1.82l-1.36,0.23l-3.33,4.16l3.76,4.43l1.45,0.23v1.8h-6.04v-1.76l1.28-0.14l-2.3-2.82l-2.24,2.84l1.2,0.13    v1.76H543.59z"
   id="path301" />
		<path
   d="M564.14,159.29v-1.8l1.86-0.35v-1.86h-7.25l-0.11-1.51l7.28-11.53h3.02v10.97h2.11v2.07h-2.11v1.86l1.85,0.35v1.8H564.14z     M561.53,153.2H566v-6.95l-0.07-0.02l-0.26,0.55L561.53,153.2z"
   id="path303" />
		<path
   d="M578.68,159.54c-1.74,0-3.12-0.58-4.13-1.75s-1.52-2.86-1.52-5.08v-3.88c0-2.22,0.5-3.91,1.51-5.09s2.38-1.76,4.11-1.76    c1.73,0,3.1,0.59,4.11,1.76s1.52,2.87,1.52,5.09v3.88c0,2.23-0.5,3.92-1.51,5.09S580.41,159.54,578.68,159.54z M578.68,157.26    c0.87,0,1.53-0.34,1.98-1.02s0.68-1.73,0.68-3.15v-4.68c0-1.41-0.23-2.45-0.69-3.13s-1.12-1.02-1.99-1.02    c-0.88,0-1.54,0.34-2,1.01s-0.69,1.72-0.69,3.13v4.68c0,1.42,0.23,2.47,0.69,3.15S577.8,157.26,578.68,157.26z"
   id="path305" />
	</g>
</g>
<g
   id="g315">
	<g
   id="g313">
		<path
   d="M955.8,40.29v-1.96l5.55-6.06c0.6-0.68,1.07-1.27,1.42-1.76s0.59-0.94,0.73-1.35s0.21-0.82,0.21-1.23    c0-0.74-0.22-1.37-0.66-1.89s-1.07-0.77-1.9-0.77c-0.88,0-1.55,0.28-2.02,0.83s-0.7,1.32-0.7,2.3h-2.86l-0.02-0.07    c-0.02-1.01,0.19-1.92,0.64-2.72s1.11-1.45,1.96-1.92s1.87-0.71,3.05-0.71c1.13,0,2.11,0.21,2.92,0.62s1.44,0.99,1.88,1.72    s0.66,1.58,0.66,2.54c0,0.65-0.12,1.28-0.37,1.89s-0.62,1.24-1.11,1.9s-1.12,1.39-1.87,2.19l-3.81,4.11l0.02,0.06h5.11l0.18-1.77    h2.36v4.04H955.8z"
   id="path311" />
	</g>
</g>
<g
   id="g321">
	<g
   id="g319">
		<path
   d="M860.31,40.54c-1.07,0-2.03-0.19-2.89-0.57s-1.53-0.93-2.02-1.65s-0.73-1.58-0.7-2.58l0.02-0.07h2.85    c0,0.52,0.11,0.97,0.33,1.35s0.54,0.69,0.95,0.91s0.9,0.33,1.46,0.33c0.87,0,1.55-0.24,2.04-0.72s0.74-1.17,0.74-2.07    c0-0.91-0.23-1.59-0.7-2.06s-1.19-0.7-2.17-0.7h-1.92v-2.25h1.97c0.6,0,1.09-0.1,1.47-0.31s0.66-0.5,0.83-0.89    s0.26-0.85,0.26-1.38c0-0.84-0.21-1.48-0.64-1.94s-1.06-0.69-1.89-0.69c-0.52,0-0.96,0.1-1.35,0.3s-0.68,0.49-0.9,0.86    s-0.32,0.8-0.32,1.29h-2.86l-0.02-0.07c-0.02-0.88,0.19-1.68,0.65-2.38s1.1-1.26,1.93-1.67s1.78-0.61,2.85-0.61    c1.67,0,3.01,0.42,4.01,1.26s1.5,2.03,1.5,3.58c0,0.76-0.22,1.47-0.65,2.13s-1.08,1.19-1.95,1.58c0.98,0.34,1.7,0.86,2.16,1.56    s0.7,1.51,0.7,2.43c0,1.04-0.25,1.93-0.74,2.68s-1.17,1.33-2.04,1.73S861.42,40.54,860.31,40.54z"
   id="path317" />
	</g>
</g>
<g
   id="g327">
	<g
   id="g325">
		<path
   d="M758.65,40.29v-1.8l1.86-0.35v-1.86h-7.25l-0.11-1.51l7.28-11.53h3.02V34.2h2.11v2.07h-2.11v1.86l1.85,0.35v1.8H758.65z     M756.05,34.2h4.46v-6.95l-0.07-0.02l-0.26,0.55L756.05,34.2z"
   id="path323" />
	</g>
</g>
<g
   id="g333">
	<g
   id="g331">
		<path
   d="M658.36,40.54c-1.01,0-1.92-0.19-2.74-0.56s-1.47-0.91-1.94-1.62s-0.7-1.56-0.67-2.57l0.02-0.07l2.78-0.09    c0,0.83,0.24,1.47,0.71,1.94s1.09,0.7,1.85,0.7c0.88,0,1.54-0.31,1.99-0.93s0.67-1.45,0.67-2.48s-0.23-1.87-0.7-2.51    s-1.13-0.96-2.01-0.96c-0.75,0-1.31,0.13-1.69,0.39s-0.64,0.62-0.81,1.1l-2.57-0.2l0.98-9.45h9.48v3.67h-1.95l-0.27-1.22h-4.8    l-0.52,4.3c0.22-0.16,0.46-0.31,0.74-0.44s0.57-0.23,0.89-0.31s0.66-0.12,1.03-0.13c1.08-0.01,2,0.22,2.77,0.67    s1.35,1.12,1.75,1.97s0.6,1.89,0.6,3.08c0,1.12-0.21,2.1-0.64,2.96s-1.06,1.53-1.89,2.02S659.57,40.54,658.36,40.54z"
   id="path329" />
	</g>
</g>
<g
   id="g339">
	<g
   id="g337">
		<path
   d="M557.91,40.54c-1.16,0-2.18-0.27-3.08-0.82s-1.6-1.34-2.11-2.37s-0.76-2.28-0.76-3.74v-2.7c0-1.7,0.28-3.13,0.85-4.31    s1.35-2.07,2.34-2.69s2.14-0.93,3.44-0.93c0.62,0,1.2,0.06,1.76,0.19s1.07,0.3,1.55,0.53l-0.54,2.17c-0.4-0.16-0.82-0.3-1.27-0.4    s-0.93-0.16-1.44-0.16c-1.16,0-2.05,0.4-2.68,1.21s-0.96,2.01-1,3.62l0.05,0.06c0.41-0.4,0.91-0.71,1.52-0.95s1.27-0.35,2-0.35    c1.02,0,1.89,0.24,2.64,0.73s1.31,1.16,1.71,2.02s0.6,1.84,0.6,2.93c0,1.16-0.23,2.19-0.7,3.09s-1.12,1.6-1.95,2.11    S559.02,40.54,557.91,40.54z M557.87,38.26c0.55,0,1.03-0.16,1.42-0.49s0.69-0.77,0.91-1.34s0.32-1.19,0.32-1.89    c0-1.01-0.25-1.83-0.74-2.47s-1.19-0.96-2.09-0.96c-0.42,0-0.81,0.06-1.17,0.17s-0.68,0.27-0.95,0.48s-0.5,0.46-0.68,0.74v1.23    c0,1.45,0.28,2.57,0.84,3.35S557,38.26,557.87,38.26z"
   id="path335" />
	</g>
</g>
<g
   id="g345">
	<g
   id="g343">
		<path
   d="M453.9,40.29l0.18-1.78c0.2-1.73,0.53-3.34,1-4.84s1.08-2.92,1.82-4.27s1.65-2.64,2.7-3.88h-6.48l-0.15,1.8h-2.36v-4.09    h11.84v2.29c-0.96,1.14-1.76,2.21-2.39,3.22s-1.14,2-1.53,3s-0.69,2.04-0.92,3.14s-0.42,2.31-0.57,3.64l-0.18,1.78H453.9z"
   id="path341" />
	</g>
</g>
<g
   id="g351">
	<g
   id="g349">
		<path
   d="M355.49,40.54c-1.14,0-2.14-0.19-2.99-0.56s-1.52-0.93-2-1.65s-0.72-1.62-0.72-2.67c0-0.95,0.27-1.78,0.82-2.49    s1.29-1.26,2.23-1.62c-0.82-0.35-1.46-0.86-1.92-1.52s-0.69-1.42-0.69-2.29c0-1.02,0.22-1.88,0.66-2.58s1.05-1.24,1.85-1.61    s1.71-0.56,2.76-0.56s1.97,0.19,2.76,0.56s1.41,0.91,1.86,1.61s0.67,1.56,0.67,2.58c0,0.87-0.24,1.63-0.71,2.29    s-1.12,1.17-1.93,1.52c0.94,0.37,1.68,0.91,2.23,1.63s0.83,1.55,0.83,2.48c0,1.05-0.24,1.95-0.71,2.67s-1.14,1.28-2,1.65    S356.61,40.54,355.49,40.54z M355.49,38.26c0.55,0,1.03-0.11,1.44-0.34s0.73-0.55,0.96-0.96s0.34-0.9,0.34-1.46    s-0.12-1.06-0.35-1.48s-0.56-0.76-0.98-0.99s-0.9-0.35-1.44-0.35s-1.01,0.12-1.42,0.35s-0.73,0.56-0.97,0.99s-0.35,0.92-0.35,1.48    c0,0.86,0.25,1.54,0.76,2.03S354.65,38.26,355.49,38.26z M355.49,30.38c0.46,0,0.87-0.1,1.21-0.31s0.62-0.5,0.81-0.88    s0.29-0.83,0.29-1.35c0-0.51-0.1-0.95-0.3-1.34s-0.47-0.68-0.82-0.9s-0.76-0.33-1.22-0.33c-0.7,0-1.26,0.23-1.68,0.7    s-0.63,1.09-0.63,1.87c0,0.77,0.21,1.39,0.63,1.85S354.77,30.38,355.49,30.38z"
   id="path347" />
	</g>
</g>
<g
   id="g357">
	<g
   id="g355">
		<path
   d="M253.64,40.54c-0.59,0-1.2-0.06-1.83-0.18s-1.2-0.29-1.71-0.53l0.38-2.17c0.48,0.2,0.98,0.35,1.49,0.45    s1.04,0.15,1.59,0.15c1.05,0,1.87-0.38,2.47-1.13s0.91-1.94,0.93-3.57l-0.04-0.18c-0.35,0.51-0.8,0.89-1.35,1.16    s-1.16,0.4-1.83,0.4c-1.05,0-1.96-0.23-2.74-0.7s-1.38-1.14-1.8-2.02s-0.64-1.93-0.64-3.16c0-1.17,0.24-2.22,0.73-3.13    s1.15-1.64,1.99-2.17s1.78-0.79,2.83-0.79c1.17,0,2.19,0.26,3.06,0.78s1.55,1.28,2.03,2.29s0.73,2.23,0.73,3.69v3.45    c0,1.59-0.27,2.94-0.8,4.04s-1.27,1.93-2.21,2.48S254.89,40.54,253.64,40.54z M254.18,32.73c0.66,0,1.23-0.14,1.71-0.42    s0.84-0.64,1.09-1.1V29.4c0-1.36-0.25-2.39-0.74-3.09s-1.19-1.05-2.09-1.05c-0.5,0-0.95,0.17-1.35,0.5s-0.71,0.79-0.94,1.36    s-0.34,1.22-0.34,1.95c0,0.74,0.1,1.39,0.3,1.93s0.5,0.97,0.9,1.27S253.61,32.73,254.18,32.73z"
   id="path353" />
	</g>
</g>
<g
   id="g365">
	<g
   id="g363">
		<path
   d="M142.48,40.29v-1.8l2.78-0.35V26.06l-2.82,0.02v-1.73l5.77-1.12v14.91l2.78,0.35v1.8H142.48z"
   id="path359" />
		<path
   d="M158.64,40.54c-1.74,0-3.12-0.58-4.13-1.75s-1.52-2.86-1.52-5.08v-3.88c0-2.22,0.5-3.91,1.51-5.09s2.38-1.76,4.11-1.76    c1.73,0,3.1,0.59,4.11,1.76s1.52,2.87,1.52,5.09v3.88c0,2.23-0.5,3.92-1.51,5.09S160.37,40.54,158.64,40.54z M158.64,38.26    c0.87,0,1.53-0.34,1.98-1.02s0.68-1.73,0.68-3.15v-4.68c0-1.41-0.23-2.45-0.69-3.13s-1.12-1.02-1.99-1.02    c-0.88,0-1.54,0.34-2,1.01s-0.69,1.72-0.69,3.13v4.68c0,1.42,0.23,2.47,0.69,3.15S157.76,38.26,158.64,38.26z"
   id="path361" />
	</g>
</g>
<g
   id="g375">
	<g
   id="g373">
		<path
   d="M44.63,99.29v-2.73h2.94v2.73H44.63z"
   id="path367" />
		<path
   d="M50.61,99.29v-2.73h2.94v2.73H50.61z"
   id="path369" />
		<path
   d="M56.58,99.29v-2.73h2.94v2.73H56.58z"
   id="path371" />
	</g>
</g>
<g
   id="g395">
	<g
   id="g393">
		<path
   d="M1230.77,99.69v-1.8l1.86-0.35V84.8l-1.86-0.35v-1.82h1.86h5.62c1.91,0,3.41,0.39,4.48,1.17s1.61,1.94,1.61,3.49    c0,0.77-0.22,1.47-0.67,2.08s-1.06,1.07-1.85,1.37c0.69,0.15,1.27,0.42,1.73,0.81s0.83,0.87,1.07,1.42s0.37,1.17,0.37,1.83    c0,1.6-0.53,2.82-1.58,3.65s-2.51,1.25-4.39,1.25H1230.77z M1235.59,89.82h3c0.88,0,1.56-0.21,2.06-0.63s0.75-1.01,0.75-1.77    c0-0.85-0.27-1.48-0.8-1.89s-1.31-0.62-2.34-0.62h-2.67V89.82z M1235.59,97.42h3.46c0.97,0,1.71-0.22,2.23-0.67    s0.78-1.1,0.78-1.95c0-0.6-0.1-1.11-0.29-1.54s-0.49-0.75-0.89-0.97s-0.91-0.34-1.54-0.34h-3.75V97.42z"
   id="path377" />
		<path
   d="M1246.35,99.69v-1.8l1.76-0.35v-8.36l-1.86-0.35v-1.82h4.82v10.52l1.75,0.35v1.8H1246.35z M1247.99,84.14v-2.73h3.07v2.73    H1247.99z"
   id="path379" />
		<path
   d="M1258.91,99.91c-1.08,0-1.92-0.3-2.52-0.91s-0.9-1.57-0.9-2.9v-6.98h-1.85v-2.11h1.85v-3.08h2.94v3.08h2.51v2.11h-2.51    v6.98c0,0.54,0.11,0.93,0.33,1.18s0.53,0.37,0.91,0.37c0.22,0,0.46-0.02,0.73-0.06s0.49-0.08,0.65-0.12l0.3,2.07    c-0.34,0.1-0.74,0.19-1.18,0.26S1259.32,99.91,1258.91,99.91z"
   id="path381" />
		<path
   d="M1275.45,99.69l-5.59-15.06l-1.45-0.19v-1.82h6.2v1.82l-1.55,0.25l3.55,10.39l0.32,1.11h0.07l0.33-1.1l3.6-10.42    l-1.77-0.23v-1.82h6.01v1.82l-1.48,0.19l-5.38,15.06H1275.45z"
   id="path383" />
		<path
   d="M1290.15,99.94c-1.29,0-2.29-0.33-3.01-1s-1.08-1.58-1.08-2.74c0-0.8,0.22-1.5,0.66-2.1s1.08-1.07,1.92-1.41    s1.87-0.51,3.07-0.51h1.93v-1.07c0-0.67-0.2-1.21-0.6-1.61s-0.99-0.6-1.75-0.6c-0.44,0-0.82,0.05-1.16,0.16s-0.64,0.26-0.9,0.45    l-0.27,1.71h-2.17l-0.02-3.13c0.62-0.41,1.32-0.73,2.09-0.97s1.62-0.36,2.55-0.36c1.61,0,2.88,0.38,3.8,1.13s1.39,1.83,1.39,3.24    v5.59c0,0.17,0,0.34,0.01,0.5s0.01,0.32,0.03,0.48l1.29,0.16v1.8h-3.86c-0.08-0.27-0.15-0.54-0.22-0.8s-0.12-0.52-0.15-0.77    c-0.42,0.53-0.93,0.97-1.53,1.31S1290.9,99.94,1290.15,99.94z M1290.82,97.65c0.59,0,1.15-0.14,1.66-0.42s0.9-0.63,1.16-1.05    v-2.12h-1.97c-0.88,0-1.55,0.21-2,0.62s-0.67,0.89-0.67,1.44c0,0.49,0.16,0.87,0.47,1.14S1290.23,97.65,1290.82,97.65z"
   id="path385" />
		<path
   d="M1299.21,99.69v-1.8l1.77-0.35V83.58l-1.88-0.35v-1.82h4.82v16.12l1.77,0.35v1.8H1299.21z"
   id="path387" />
		<path
   d="M1312.49,99.94c-1.36,0-2.42-0.43-3.18-1.29s-1.14-2.21-1.14-4.03v-5.44l-1.43-0.35v-1.82h1.43h2.95v7.63    c0,1.09,0.17,1.86,0.52,2.3s0.88,0.66,1.61,0.66c0.64,0,1.19-0.13,1.63-0.38s0.81-0.62,1.07-1.08v-6.96l-1.59-0.35v-1.82h1.59    h2.95v10.52l1.5,0.35v1.8h-4.11l-0.2-1.72c-0.4,0.63-0.9,1.12-1.52,1.46S1313.27,99.94,1312.49,99.94z"
   id="path389" />
		<path
   d="M1327.76,99.94c-1.2,0-2.24-0.27-3.12-0.8s-1.57-1.28-2.06-2.22s-0.73-2.03-0.73-3.25v-0.49c0-1.23,0.24-2.33,0.72-3.3    s1.14-1.72,1.99-2.27s1.8-0.83,2.88-0.83c1.15,0,2.11,0.23,2.89,0.69s1.37,1.12,1.76,1.96s0.6,1.87,0.6,3.05v1.69h-7.78    l-0.02,0.06c0.03,0.66,0.17,1.25,0.42,1.77s0.6,0.92,1.05,1.22s1.01,0.45,1.67,0.45c0.69,0,1.31-0.09,1.88-0.28    s1.08-0.45,1.56-0.8l0.93,1.85c-0.5,0.42-1.14,0.78-1.91,1.07S1328.79,99.94,1327.76,99.94z M1324.95,92.1h4.91v-0.3    c0-0.55-0.08-1.04-0.25-1.46s-0.43-0.74-0.79-0.98s-0.81-0.35-1.35-0.35c-0.48,0-0.89,0.13-1.25,0.4s-0.65,0.63-0.86,1.08    s-0.36,0.97-0.44,1.55L1324.95,92.1z"
   id="path391" />
	</g>
</g>
<g
   id="g423">
	<g
   id="g421">
		<path
   d="M1230.77,159.09v-1.8l1.86-0.35V144.2l-1.86-0.35v-1.82h13.27v4.43h-2.3l-0.19-2.14h-5.96v5.2h6.08v2.29h-6.08v5.13    l1.86,0.35v1.8H1230.77z"
   id="path397" />
		<path
   d="M1245.48,159.09v-1.8l1.76-0.35v-8.36l-1.86-0.35v-1.82h4.82v10.52l1.75,0.35v1.8H1245.48z M1247.12,143.54v-2.73h3.07    v2.73H1247.12z"
   id="path399" />
		<path
   d="M1259.21,159.34c-1.2,0-2.24-0.27-3.12-0.8s-1.57-1.28-2.06-2.22s-0.73-2.03-0.73-3.25v-0.49c0-1.23,0.24-2.33,0.72-3.3    s1.14-1.72,1.99-2.27s1.8-0.83,2.88-0.83c1.15,0,2.11,0.23,2.89,0.69s1.37,1.12,1.76,1.96s0.6,1.87,0.6,3.05v1.69h-7.78    l-0.02,0.06c0.03,0.66,0.17,1.25,0.42,1.77s0.6,0.92,1.05,1.22s1.01,0.45,1.67,0.45c0.69,0,1.31-0.09,1.88-0.28    s1.08-0.45,1.56-0.8l0.93,1.85c-0.5,0.42-1.14,0.78-1.91,1.07S1260.25,159.34,1259.21,159.34z M1256.4,151.5h4.91v-0.3    c0-0.55-0.08-1.04-0.25-1.46s-0.43-0.74-0.79-0.98s-0.81-0.35-1.35-0.35c-0.48,0-0.89,0.13-1.25,0.4s-0.65,0.63-0.86,1.08    s-0.36,0.97-0.44,1.55L1256.4,151.5z"
   id="path401" />
		<path
   d="M1265.65,159.09v-1.8l1.77-0.35v-13.96l-1.88-0.35v-1.82h4.82v16.12l1.77,0.35v1.8H1265.65z"
   id="path403" />
		<path
   d="M1278.27,159.34c-1.02,0-1.9-0.26-2.62-0.77s-1.28-1.24-1.67-2.16s-0.58-2.01-0.58-3.24v-0.25c0-1.35,0.19-2.53,0.58-3.54    s0.95-1.79,1.68-2.36s1.6-0.84,2.61-0.84c0.73,0,1.36,0.14,1.9,0.42s1.01,0.67,1.4,1.19v-4.8l-1.86-0.35v-1.82h1.86h2.95v16.12    l1.76,0.35v1.8h-4.31l-0.23-1.54c-0.4,0.59-0.88,1.03-1.46,1.33S1279.03,159.34,1278.27,159.34z M1279.1,157    c0.56,0,1.05-0.12,1.45-0.37s0.74-0.6,1.01-1.07v-5.59c-0.26-0.45-0.59-0.81-1-1.07s-0.89-0.39-1.44-0.39    c-0.64,0-1.17,0.19-1.58,0.56s-0.71,0.89-0.91,1.55s-0.29,1.43-0.29,2.3v0.25c0,1.17,0.22,2.11,0.65,2.8S1278.13,157,1279.1,157z"
   id="path405" />
		<path
   d="M1293.47,159.09v-1.8l1.86-0.35V144.2l-1.86-0.35v-1.82h1.86h5.62c1.91,0,3.41,0.39,4.48,1.17s1.61,1.94,1.61,3.49    c0,0.77-0.22,1.47-0.67,2.08s-1.06,1.07-1.85,1.37c0.69,0.15,1.27,0.42,1.73,0.81s0.83,0.87,1.07,1.42s0.37,1.17,0.37,1.83    c0,1.6-0.53,2.82-1.58,3.65s-2.51,1.25-4.39,1.25H1293.47z M1298.29,149.22h3c0.88,0,1.56-0.21,2.06-0.63s0.75-1.01,0.75-1.77    c0-0.85-0.27-1.48-0.8-1.89s-1.31-0.62-2.34-0.62h-2.67V149.22z M1298.29,156.82h3.46c0.97,0,1.71-0.22,2.23-0.67    s0.78-1.1,0.78-1.95c0-0.6-0.1-1.11-0.29-1.54s-0.49-0.75-0.89-0.97s-0.91-0.34-1.54-0.34h-3.75V156.82z"
   id="path407" />
		<path
   d="M1309.04,159.09v-1.8l1.76-0.35v-8.36l-1.86-0.35v-1.82h4.82v10.52l1.75,0.35v1.8H1309.04z M1310.68,143.54v-2.73h3.07    v2.73H1310.68z"
   id="path409" />
		<path
   d="M1321.61,159.31c-1.08,0-1.92-0.3-2.52-0.91s-0.9-1.57-0.9-2.9v-6.98h-1.85v-2.11h1.85v-3.08h2.94v3.08h2.51v2.11h-2.51    v6.98c0,0.54,0.11,0.93,0.33,1.18s0.53,0.37,0.91,0.37c0.22,0,0.46-0.02,0.73-0.06s0.49-0.08,0.65-0.12l0.3,2.07    c-0.34,0.1-0.74,0.19-1.18,0.26S1322.01,159.31,1321.61,159.31z"
   id="path411" />
		<path
   d="M1325.34,159.09v-1.8l1.77-0.35v-8.36l-1.86-0.35v-1.82h4.57l0.14,1.66c0.41-0.6,0.93-1.07,1.55-1.4s1.34-0.5,2.16-0.5    c0.83,0,1.54,0.19,2.13,0.56s1.04,0.93,1.34,1.68c0.39-0.7,0.9-1.24,1.54-1.64s1.38-0.6,2.24-0.6c1.27,0,2.28,0.43,3.01,1.3    s1.1,2.18,1.1,3.94v5.52l1.77,0.35v1.8h-6.39v-1.8l1.66-0.35v-5.53c0-1.07-0.18-1.82-0.54-2.25s-0.89-0.64-1.58-0.64    c-0.65,0-1.18,0.21-1.6,0.62s-0.69,0.94-0.81,1.58v6.22l1.61,0.35v1.8H1333v-1.8l1.61-0.35v-5.53c0-1.03-0.18-1.77-0.55-2.22    s-0.9-0.67-1.59-0.67c-0.58,0-1.06,0.12-1.46,0.35s-0.71,0.57-0.94,1v7.08l1.65,0.35v1.8H1325.34z"
   id="path413" />
		<path
   d="M1352.37,159.34c-1.29,0-2.29-0.33-3.01-1s-1.08-1.58-1.08-2.74c0-0.8,0.22-1.5,0.66-2.1s1.08-1.07,1.92-1.41    s1.87-0.51,3.07-0.51h1.93v-1.07c0-0.67-0.2-1.21-0.6-1.61s-0.99-0.6-1.75-0.6c-0.44,0-0.82,0.05-1.16,0.16s-0.64,0.26-0.9,0.45    l-0.27,1.71H1349l-0.02-3.13c0.62-0.41,1.32-0.73,2.09-0.97s1.62-0.36,2.55-0.36c1.61,0,2.88,0.38,3.8,1.13s1.39,1.83,1.39,3.24    v5.59c0,0.17,0,0.34,0.01,0.5s0.01,0.32,0.03,0.48l1.29,0.16v1.8h-3.86c-0.08-0.27-0.15-0.54-0.22-0.8s-0.12-0.52-0.15-0.77    c-0.42,0.53-0.93,0.97-1.53,1.31S1353.12,159.34,1352.37,159.34z M1353.04,157.05c0.59,0,1.15-0.14,1.66-0.42s0.9-0.63,1.16-1.05    v-2.12h-1.97c-0.88,0-1.55,0.21-2,0.62s-0.67,0.89-0.67,1.44c0,0.49,0.16,0.87,0.47,1.14S1352.45,157.05,1353.04,157.05z"
   id="path415" />
		<path
   d="M1366.9,159.34c-0.91,0-1.75-0.09-2.54-0.26s-1.57-0.44-2.36-0.78l-0.04-3.35h2.12l0.45,1.83    c0.34,0.15,0.68,0.26,1.04,0.35s0.75,0.12,1.19,0.12c0.84,0,1.44-0.15,1.79-0.45s0.52-0.66,0.52-1.1c0-0.42-0.18-0.78-0.54-1.08    s-1.06-0.56-2.08-0.78c-1.52-0.33-2.63-0.81-3.35-1.44s-1.07-1.45-1.07-2.46c0-0.7,0.19-1.32,0.56-1.89s0.92-1.01,1.64-1.35    s1.61-0.51,2.67-0.51c0.96,0,1.81,0.1,2.56,0.3s1.38,0.46,1.9,0.79l0.07,3.22h-2.1l-0.36-1.68c-0.24-0.17-0.52-0.3-0.84-0.4    s-0.69-0.14-1.1-0.14c-0.65,0-1.16,0.14-1.54,0.43s-0.56,0.64-0.56,1.07c0,0.25,0.06,0.48,0.18,0.68s0.36,0.39,0.7,0.56    s0.86,0.33,1.53,0.49c1.65,0.38,2.83,0.88,3.54,1.5s1.07,1.43,1.07,2.45c0,1.13-0.41,2.06-1.24,2.79S1368.6,159.34,1366.9,159.34z    "
   id="path417" />
		<path
   d="M1373.48,159.09v-1.8l1.77-0.35v-13.96l-1.88-0.35v-1.82h4.82v16.12l1.65,0.35v1.8H1373.48z M1377.91,155.54l-1.31-1.88    l5.51-5.23l0.04-0.05l-1.32-0.18v-1.8h6.12v1.82l-1.63,0.38L1377.91,155.54z M1381.58,159.09v-1.75l1.11-0.2l-0.04-0.05l-3-3.96    l1.77-2.07l4.56,5.89l1.69,0.33v1.8H1381.58z"
   id="path419" />
	</g>
</g>
<g
   id="g447">
	<g
   id="g445">
		<path
   d="M1230.77,218.49v-1.8l1.86-0.35V203.6l-1.86-0.35v-1.82h13.27v4.43h-2.3l-0.19-2.14h-5.96v5.2h6.08v2.29h-6.08v5.13    l1.86,0.35v1.8H1230.77z"
   id="path425" />
		<path
   d="M1245.48,218.49v-1.8l1.76-0.35v-8.36l-1.86-0.35v-1.82h4.82v10.52l1.75,0.35v1.8H1245.48z M1247.12,202.94v-2.73h3.07    v2.73H1247.12z"
   id="path427" />
		<path
   d="M1259.21,218.74c-1.2,0-2.24-0.27-3.12-0.8s-1.57-1.28-2.06-2.22s-0.73-2.03-0.73-3.25v-0.49c0-1.23,0.24-2.33,0.72-3.3    s1.14-1.72,1.99-2.27s1.8-0.83,2.88-0.83c1.15,0,2.11,0.23,2.89,0.69s1.37,1.12,1.76,1.96s0.6,1.87,0.6,3.05v1.69h-7.78    l-0.02,0.06c0.03,0.66,0.17,1.25,0.42,1.77s0.6,0.92,1.05,1.22s1.01,0.45,1.67,0.45c0.69,0,1.31-0.09,1.88-0.28    s1.08-0.45,1.56-0.8l0.93,1.85c-0.5,0.42-1.14,0.78-1.91,1.07S1260.25,218.74,1259.21,218.74z M1256.4,210.9h4.91v-0.3    c0-0.55-0.08-1.04-0.25-1.46s-0.43-0.74-0.79-0.98s-0.81-0.35-1.35-0.35c-0.48,0-0.89,0.13-1.25,0.4s-0.65,0.63-0.86,1.08    s-0.36,0.97-0.44,1.55L1256.4,210.9z"
   id="path429" />
		<path
   d="M1265.65,218.49v-1.8l1.77-0.35v-13.96l-1.88-0.35v-1.82h4.82v16.12l1.77,0.35v1.8H1265.65z"
   id="path431" />
		<path
   d="M1278.27,218.74c-1.02,0-1.9-0.26-2.62-0.77s-1.28-1.24-1.67-2.16s-0.58-2.01-0.58-3.24v-0.25c0-1.35,0.19-2.53,0.58-3.54    s0.95-1.79,1.68-2.36s1.6-0.84,2.61-0.84c0.73,0,1.36,0.14,1.9,0.42s1.01,0.67,1.4,1.19v-4.8l-1.86-0.35v-1.82h1.86h2.95v16.12    l1.76,0.35v1.8h-4.31l-0.23-1.54c-0.4,0.59-0.88,1.03-1.46,1.33S1279.03,218.74,1278.27,218.74z M1279.1,216.4    c0.56,0,1.05-0.12,1.45-0.37s0.74-0.6,1.01-1.07v-5.59c-0.26-0.45-0.59-0.81-1-1.07s-0.89-0.39-1.44-0.39    c-0.64,0-1.17,0.19-1.58,0.56s-0.71,0.89-0.91,1.55s-0.29,1.43-0.29,2.3v0.25c0,1.17,0.22,2.11,0.65,2.8    S1278.13,216.4,1279.1,216.4z"
   id="path433" />
		<path
   d="M1293.47,218.49v-1.8l1.86-0.35V203.6l-1.86-0.35v-1.82h1.86h2.95h2v1.82l-2,0.35v12.63h5.33l0.2-2.58h2.26v4.84H1293.47z    "
   id="path435" />
		<path
   d="M1311.89,218.74c-1.29,0-2.29-0.33-3.01-1s-1.08-1.58-1.08-2.74c0-0.8,0.22-1.5,0.66-2.1s1.08-1.07,1.92-1.41    s1.87-0.51,3.07-0.51h1.93v-1.07c0-0.67-0.2-1.21-0.6-1.61s-0.99-0.6-1.75-0.6c-0.44,0-0.82,0.05-1.16,0.16s-0.64,0.26-0.9,0.45    l-0.27,1.71h-2.17l-0.02-3.13c0.62-0.41,1.32-0.73,2.09-0.97s1.62-0.36,2.55-0.36c1.61,0,2.88,0.38,3.8,1.13s1.39,1.83,1.39,3.24    v5.59c0,0.17,0,0.34,0.01,0.5s0.01,0.32,0.03,0.48l1.29,0.16v1.8h-3.86c-0.08-0.27-0.15-0.54-0.22-0.8s-0.12-0.52-0.15-0.77    c-0.42,0.53-0.93,0.97-1.53,1.31S1312.64,218.74,1311.89,218.74z M1312.56,216.45c0.59,0,1.15-0.14,1.66-0.42s0.9-0.63,1.16-1.05    v-2.12h-1.97c-0.88,0-1.55,0.21-2,0.62s-0.67,0.89-0.67,1.44c0,0.49,0.16,0.87,0.47,1.14S1311.97,216.45,1312.56,216.45z"
   id="path437" />
		<path
   d="M1328.24,218.74c-0.8,0-1.48-0.16-2.06-0.47s-1.06-0.77-1.45-1.36l-0.23,1.58h-2.54v-16.11l-1.86-0.35v-1.82h4.8v7.02    c0.38-0.54,0.85-0.95,1.41-1.23s1.21-0.42,1.95-0.42c1.04,0,1.92,0.28,2.64,0.84s1.28,1.34,1.66,2.35s0.57,2.19,0.57,3.55v0.25    c0,1.23-0.19,2.32-0.57,3.25s-0.94,1.65-1.66,2.16S1329.28,218.74,1328.24,218.74z M1327.39,216.4c0.97,0,1.67-0.34,2.12-1.03    s0.66-1.62,0.66-2.82v-0.25c0-0.89-0.1-1.67-0.29-2.33s-0.5-1.17-0.9-1.54s-0.93-0.54-1.57-0.54c-0.59,0-1.1,0.14-1.52,0.43    s-0.75,0.67-1,1.15v5.41c0.26,0.48,0.6,0.85,1.01,1.11S1326.82,216.4,1327.39,216.4z"
   id="path439" />
		<path
   d="M1341.01,218.74c-1.2,0-2.24-0.27-3.12-0.8s-1.57-1.28-2.06-2.22s-0.73-2.03-0.73-3.25v-0.49c0-1.23,0.24-2.33,0.72-3.3    s1.14-1.72,1.99-2.27s1.8-0.83,2.88-0.83c1.15,0,2.11,0.23,2.89,0.69s1.37,1.12,1.76,1.96s0.6,1.87,0.6,3.05v1.69h-7.78    l-0.02,0.06c0.03,0.66,0.17,1.25,0.42,1.77s0.6,0.92,1.05,1.22s1.01,0.45,1.67,0.45c0.69,0,1.31-0.09,1.88-0.28    s1.08-0.45,1.56-0.8l0.93,1.85c-0.5,0.42-1.14,0.78-1.91,1.07S1342.04,218.74,1341.01,218.74z M1338.2,210.9h4.91v-0.3    c0-0.55-0.08-1.04-0.25-1.46s-0.43-0.74-0.79-0.98s-0.81-0.35-1.35-0.35c-0.48,0-0.89,0.13-1.25,0.4s-0.65,0.63-0.86,1.08    s-0.36,0.97-0.44,1.55L1338.2,210.9z"
   id="path441" />
		<path
   d="M1347.45,218.49v-1.8l1.77-0.35v-13.96l-1.88-0.35v-1.82h4.82v16.12l1.77,0.35v1.8H1347.45z"
   id="path443" />
	</g>
</g>
<g
   id="g471">
	<g
   id="g469">
		<path
   d="M1230.77,277.89v-1.8l1.86-0.35V263l-1.86-0.35v-1.82h13.27v4.43h-2.3l-0.19-2.14h-5.96v5.2h6.08v2.29h-6.08v5.13    l1.86,0.35v1.8H1230.77z"
   id="path449" />
		<path
   d="M1245.48,277.89v-1.8l1.76-0.35v-8.36l-1.86-0.35v-1.82h4.82v10.52l1.75,0.35v1.8H1245.48z M1247.12,262.34v-2.73h3.07    v2.73H1247.12z"
   id="path451" />
		<path
   d="M1259.21,278.14c-1.2,0-2.24-0.27-3.12-0.8s-1.57-1.28-2.06-2.22s-0.73-2.03-0.73-3.25v-0.49c0-1.23,0.24-2.33,0.72-3.3    s1.14-1.72,1.99-2.27s1.8-0.83,2.88-0.83c1.15,0,2.11,0.23,2.89,0.69s1.37,1.12,1.76,1.96s0.6,1.87,0.6,3.05v1.69h-7.78    l-0.02,0.06c0.03,0.66,0.17,1.25,0.42,1.77s0.6,0.92,1.05,1.22s1.01,0.45,1.67,0.45c0.69,0,1.31-0.09,1.88-0.28    s1.08-0.45,1.56-0.8l0.93,1.85c-0.5,0.42-1.14,0.78-1.91,1.07S1260.25,278.14,1259.21,278.14z M1256.4,270.3h4.91v-0.3    c0-0.55-0.08-1.04-0.25-1.46s-0.43-0.74-0.79-0.98s-0.81-0.35-1.35-0.35c-0.48,0-0.89,0.13-1.25,0.4s-0.65,0.63-0.86,1.08    s-0.36,0.97-0.44,1.55L1256.4,270.3z"
   id="path453" />
		<path
   d="M1265.65,277.89v-1.8l1.77-0.35v-13.96l-1.88-0.35v-1.82h4.82v16.12l1.77,0.35v1.8H1265.65z"
   id="path455" />
		<path
   d="M1278.27,278.14c-1.02,0-1.9-0.26-2.62-0.77s-1.28-1.24-1.67-2.16s-0.58-2.01-0.58-3.24v-0.25c0-1.35,0.19-2.53,0.58-3.54    s0.95-1.79,1.68-2.36s1.6-0.84,2.61-0.84c0.73,0,1.36,0.14,1.9,0.42s1.01,0.67,1.4,1.19v-4.8l-1.86-0.35v-1.82h1.86h2.95v16.12    l1.76,0.35v1.8h-4.31l-0.23-1.54c-0.4,0.59-0.88,1.03-1.46,1.33S1279.03,278.14,1278.27,278.14z M1279.1,275.8    c0.56,0,1.05-0.12,1.45-0.37s0.74-0.6,1.01-1.07v-5.59c-0.26-0.45-0.59-0.81-1-1.07s-0.89-0.39-1.44-0.39    c-0.64,0-1.17,0.19-1.58,0.56s-0.71,0.89-0.91,1.55s-0.29,1.43-0.29,2.3v0.25c0,1.17,0.22,2.11,0.65,2.8    S1278.13,275.8,1279.1,275.8z"
   id="path457" />
		<path
   d="M1300.29,277.89l-5.59-15.06l-1.45-0.19v-1.82h6.2v1.82l-1.55,0.25l3.55,10.39l0.32,1.11h0.07l0.33-1.1l3.6-10.42    l-1.77-0.23v-1.82h6.01v1.82l-1.48,0.19l-5.38,15.06H1300.29z"
   id="path459" />
		<path
   d="M1315,278.14c-1.29,0-2.29-0.33-3.01-1s-1.08-1.58-1.08-2.74c0-0.8,0.22-1.5,0.66-2.1s1.08-1.07,1.92-1.41    s1.87-0.51,3.07-0.51h1.93v-1.07c0-0.67-0.2-1.21-0.6-1.61s-0.99-0.6-1.75-0.6c-0.44,0-0.82,0.05-1.16,0.16s-0.64,0.26-0.9,0.45    l-0.27,1.71h-2.17l-0.02-3.13c0.62-0.41,1.32-0.73,2.09-0.97s1.62-0.36,2.55-0.36c1.61,0,2.88,0.38,3.8,1.13s1.39,1.83,1.39,3.24    v5.59c0,0.17,0,0.34,0.01,0.5s0.01,0.32,0.03,0.48l1.29,0.16v1.8h-3.86c-0.08-0.27-0.15-0.54-0.22-0.8s-0.12-0.52-0.15-0.77    c-0.42,0.53-0.93,0.97-1.53,1.31S1315.75,278.14,1315,278.14z M1315.66,275.85c0.59,0,1.15-0.14,1.66-0.42s0.9-0.63,1.16-1.05    v-2.12h-1.97c-0.88,0-1.55,0.21-2,0.62s-0.67,0.89-0.67,1.44c0,0.49,0.16,0.87,0.47,1.14S1315.08,275.85,1315.66,275.85z"
   id="path461" />
		<path
   d="M1324.05,277.89v-1.8l1.77-0.35v-13.96l-1.88-0.35v-1.82h4.82v16.12l1.77,0.35v1.8H1324.05z"
   id="path463" />
		<path
   d="M1337.33,278.14c-1.36,0-2.42-0.43-3.18-1.29s-1.14-2.21-1.14-4.03v-5.44l-1.43-0.35v-1.82h1.43h2.95v7.63    c0,1.09,0.17,1.86,0.52,2.3s0.88,0.66,1.61,0.66c0.64,0,1.19-0.13,1.63-0.38s0.81-0.62,1.07-1.08v-6.96l-1.59-0.35v-1.82h1.59    h2.95v10.52l1.5,0.35v1.8h-4.11l-0.2-1.72c-0.4,0.63-0.9,1.12-1.52,1.46S1338.11,278.14,1337.33,278.14z"
   id="path465" />
		<path
   d="M1352.6,278.14c-1.2,0-2.24-0.27-3.12-0.8s-1.57-1.28-2.06-2.22s-0.73-2.03-0.73-3.25v-0.49c0-1.23,0.24-2.33,0.72-3.3    s1.14-1.72,1.99-2.27s1.8-0.83,2.88-0.83c1.15,0,2.11,0.23,2.89,0.69s1.37,1.12,1.76,1.96s0.6,1.87,0.6,3.05v1.69h-7.78    l-0.02,0.06c0.03,0.66,0.17,1.25,0.42,1.77s0.6,0.92,1.05,1.22s1.01,0.45,1.67,0.45c0.69,0,1.31-0.09,1.88-0.28    s1.08-0.45,1.56-0.8l0.93,1.85c-0.5,0.42-1.14,0.78-1.91,1.07S1353.63,278.14,1352.6,278.14z M1349.79,270.3h4.91v-0.3    c0-0.55-0.08-1.04-0.25-1.46s-0.43-0.74-0.79-0.98s-0.81-0.35-1.35-0.35c-0.48,0-0.89,0.13-1.25,0.4s-0.65,0.63-0.86,1.08    s-0.36,0.97-0.44,1.55L1349.79,270.3z"
   id="path467" />
	</g>
</g>
<g
   id="g485">
	<g
   id="g483">
		<path
   d="M1237.59,337.29l-5.59-15.06l-1.45-0.19v-1.82h6.2v1.82l-1.55,0.25l3.55,10.39l0.32,1.11h0.07l0.33-1.1l3.6-10.42    l-1.77-0.23v-1.82h6.01v1.82l-1.48,0.19l-5.38,15.06H1237.59z"
   id="path473" />
		<path
   d="M1252.3,337.54c-1.29,0-2.29-0.33-3.01-1s-1.08-1.58-1.08-2.74c0-0.8,0.22-1.5,0.66-2.1s1.08-1.07,1.92-1.41    s1.87-0.51,3.07-0.51h1.93v-1.07c0-0.67-0.2-1.21-0.6-1.61s-0.99-0.6-1.75-0.6c-0.44,0-0.82,0.05-1.16,0.16s-0.64,0.26-0.9,0.45    l-0.27,1.71h-2.17l-0.02-3.13c0.62-0.41,1.32-0.73,2.09-0.97s1.62-0.36,2.55-0.36c1.61,0,2.88,0.38,3.8,1.13s1.39,1.83,1.39,3.24    v5.59c0,0.17,0,0.34,0.01,0.5s0.01,0.32,0.03,0.48l1.29,0.16v1.8h-3.86c-0.08-0.27-0.15-0.54-0.22-0.8s-0.12-0.52-0.15-0.77    c-0.42,0.53-0.93,0.97-1.53,1.31S1253.05,337.54,1252.3,337.54z M1252.97,335.25c0.59,0,1.15-0.14,1.66-0.42s0.9-0.63,1.16-1.05    v-2.12h-1.97c-0.88,0-1.55,0.21-2,0.62s-0.67,0.89-0.67,1.44c0,0.49,0.16,0.87,0.47,1.14S1252.38,335.25,1252.97,335.25z"
   id="path475" />
		<path
   d="M1261.36,337.29v-1.8l1.77-0.35v-13.96l-1.88-0.35v-1.82h4.82v16.12l1.77,0.35v1.8H1261.36z"
   id="path477" />
		<path
   d="M1274.64,337.54c-1.36,0-2.42-0.43-3.18-1.29s-1.14-2.21-1.14-4.03v-5.44l-1.43-0.35v-1.82h1.43h2.95v7.63    c0,1.09,0.17,1.86,0.52,2.3s0.88,0.66,1.61,0.66c0.64,0,1.19-0.13,1.63-0.38s0.81-0.62,1.07-1.08v-6.96l-1.59-0.35v-1.82h1.59    h2.95v10.52l1.5,0.35v1.8h-4.11l-0.2-1.72c-0.4,0.63-0.9,1.12-1.52,1.46S1275.42,337.54,1274.64,337.54z"
   id="path479" />
		<path
   d="M1289.91,337.54c-1.2,0-2.24-0.27-3.12-0.8s-1.57-1.28-2.06-2.22s-0.73-2.03-0.73-3.25v-0.49c0-1.23,0.24-2.33,0.72-3.3    s1.14-1.72,1.99-2.27s1.8-0.83,2.88-0.83c1.15,0,2.11,0.23,2.89,0.69s1.37,1.12,1.76,1.96s0.6,1.87,0.6,3.05v1.69h-7.78    l-0.02,0.06c0.03,0.66,0.17,1.25,0.42,1.77s0.6,0.92,1.05,1.22s1.01,0.45,1.67,0.45c0.69,0,1.31-0.09,1.88-0.28    s1.08-0.45,1.56-0.8l0.93,1.85c-0.5,0.42-1.14,0.78-1.91,1.07S1290.94,337.54,1289.91,337.54z M1287.09,329.7h4.91v-0.3    c0-0.55-0.08-1.04-0.25-1.46s-0.43-0.74-0.79-0.98s-0.81-0.35-1.35-0.35c-0.48,0-0.89,0.13-1.25,0.4s-0.65,0.63-0.86,1.08    s-0.36,0.97-0.44,1.55L1287.09,329.7z"
   id="path481" />
	</g>
</g>
<rect
   x="1"
   y="1"
   class="st5"
   width="1213"
   height="357.17"
   id="rect487" />
<line
   class="st5"
   x1="1.47"
   y1="298.21"
   x2="1214"
   y2="298.21"
   id="line489" />
<line
   class="st5"
   x1="1.47"
   y1="238.85"
   x2="1214"
   y2="238.85"
   id="line491" />
<line
   class="st5"
   x1="1.47"
   y1="179.5"
   x2="1214"
   y2="179.5"
   id="line493" />
<line
   class="st5"
   x1="1.47"
   y1="120.14"
   x2="1214"
   y2="120.14"
   id="line495" />
<line
   class="st5"
   x1="1.47"
   y1="60.78"
   x2="1214"
   y2="60.78"
   id="line497" />
<line
   class="st5"
   x1="1112.96"
   y1="1.43"
   x2="1112.96"
   y2="297.84"
   id="line499" />
<line
   class="st5"
   x1="1011.92"
   y1="1.43"
   x2="1011.92"
   y2="120.14"
   id="line501" />
<line
   class="st5"
   x1="910.88"
   y1="1.43"
   x2="910.88"
   y2="297.84"
   id="line503" />
<line
   class="st5"
   x1="809.84"
   y1="1"
   x2="809.84"
   y2="120.14"
   id="line505" />
<line
   class="st5"
   x1="708.8"
   y1="1.43"
   x2="708.8"
   y2="120.14"
   id="line507" />
<line
   class="st5"
   x1="607.76"
   y1="1.43"
   x2="607.76"
   y2="297.84"
   id="line509" />
<line
   class="st5"
   x1="506.71"
   y1="1.43"
   x2="506.71"
   y2="298"
   id="line511" />
<line
   class="st5"
   x1="405.67"
   y1="1"
   x2="405.67"
   y2="120"
   id="line513" />
<line
   class="st5"
   x1="304.63"
   y1="1.43"
   x2="304.63"
   y2="120"
   id="line515" />
<line
   class="st5"
   x1="203.59"
   y1="1.43"
   x2="203.59"
   y2="120"
   id="line517" />
<line
   class="st5"
   x1="102.55"
   y1="1.43"
   x2="102.55"
   y2="120"
   id="line519" />
<g
   id="g529">
	<g
   id="g527">
		<path
   d="M44.63,40.29v-2.73h2.94v2.73H44.63z"
   id="path521" />
		<path
   d="M50.61,40.29v-2.73h2.94v2.73H50.61z"
   id="path523" />
		<path
   d="M56.58,40.29v-2.73h2.94v2.73H56.58z"
   id="path525" />
	</g>
</g>
</svg>
