<?xml version="1.0" encoding="UTF-8" standalone="no"?>
<svg
   xmlns:dc="http://purl.org/dc/elements/1.1/"
   xmlns:cc="http://creativecommons.org/ns#"
   xmlns:rdf="http://www.w3.org/1999/02/22-rdf-syntax-ns#"
   xmlns:svg="http://www.w3.org/2000/svg"
   xmlns="http://www.w3.org/2000/svg"
   xmlns:sodipodi="http://sodipodi.sourceforge.net/DTD/sodipodi-0.dtd"
   xmlns:inkscape="http://www.inkscape.org/namespaces/inkscape"
   version="1.1"
   id="Layer_1"
   x="0px"
   y="0px"
   viewBox="0 0 828.51 301.16"
   style="enable-background:new 0 0 828.51 301.16;"
   xml:space="preserve"
   sodipodi:docname="odb-2-column-major.svg"
   inkscape:version="1.0.2 (e86c8708, 2021-01-15)"><metadata
   id="metadata458"><rdf:RDF><cc:Work
       rdf:about=""><dc:format>image/svg+xml</dc:format><dc:type
         rdf:resource="http://purl.org/dc/dcmitype/StillImage" /><dc:title></dc:title></cc:Work></rdf:RDF></metadata><defs
   id="defs456" /><sodipodi:namedview
   pagecolor="#ffffff"
   bordercolor="#666666"
   borderopacity="1"
   objecttolerance="10"
   gridtolerance="10"
   guidetolerance="10"
   inkscape:pageopacity="0"
   inkscape:pageshadow="2"
   inkscape:window-width="709"
   inkscape:window-height="480"
   id="namedview454"
   showgrid="false"
   inkscape:zoom="1.2709563"
   inkscape:cx="414.255"
   inkscape:cy="150.58"
   inkscape:window-x="0"
   inkscape:window-y="25"
   inkscape:window-maximized="0"
   inkscape:current-layer="Layer_1" />
<style
   type="text/css"
   id="style358">
	.st0{fill:none;stroke:#CCCCCC;stroke-width:17;stroke-linejoin:bevel;}
	.st1{fill:#CCCCCC;}
	.st2{fill:none;stroke:#000000;stroke-width:2;stroke-miterlimit:10;}
	.st3{fill:#FF7BAC;}
	.st4{fill:#3FA9F5;}
	.st5{fill:none;stroke:#3FA9F5;stroke-width:2;stroke-miterlimit:10;}
</style>
<g
   id="g374">
	<g
   id="g372">
		<g
   id="g370">
			<polyline
   class="st0"
   points="763.53,250 763.53,51.84 644.53,276.84 644.53,51.84 525.53,276.84 525.53,51.84 406.53,276.84      406.53,51.84 287.53,276.84 287.53,51.84 168.53,276.84 168.53,51.64    "
   id="polyline360" />
			<g
   id="g364">
				<polygon
   class="st1"
   points="782.18,244.55 763.53,276.84 744.88,244.55     "
   id="polygon362" />
			</g>
			<g
   id="g368">
				<rect
   x="150.3"
   y="48.84"
   class="st1"
   width="36.46"
   height="5.61"
   id="rect366" />
			</g>
		</g>
	</g>
</g>
<g
   id="g398">
	<rect
   x="107.53"
   y="30.84"
   class="st2"
   width="715"
   height="264"
   id="rect376" />
	<line
   class="st2"
   x1="107.53"
   y1="250.84"
   x2="822.53"
   y2="250.84"
   id="line378" />
	<line
   class="st2"
   x1="107.53"
   y1="206.84"
   x2="822.53"
   y2="206.84"
   id="line380" />
	<line
   class="st2"
   x1="107.53"
   y1="162.84"
   x2="822.53"
   y2="162.84"
   id="line382" />
	<line
   class="st2"
   x1="107.53"
   y1="118.84"
   x2="822.53"
   y2="118.84"
   id="line384" />
	<line
   class="st2"
   x1="107.53"
   y1="74.84"
   x2="822.53"
   y2="74.84"
   id="line386" />
	<line
   class="st2"
   x1="703.36"
   y1="30.84"
   x2="703.36"
   y2="294.84"
   id="line388" />
	<line
   class="st2"
   x1="584.2"
   y1="30.84"
   x2="584.2"
   y2="294.84"
   id="line390" />
	<line
   class="st2"
   x1="465.03"
   y1="30.84"
   x2="465.03"
   y2="294.84"
   id="line392" />
	<line
   class="st2"
   x1="345.86"
   y1="30.84"
   x2="345.86"
   y2="294.84"
   id="line394" />
	<line
   class="st2"
   x1="226.7"
   y1="30.84"
   x2="226.7"
   y2="294.84"
   id="line396" />
</g>
<g
   id="Arrow_31">
</g>
<g
   id="g403">
	<path
   class="st3"
   d="M226.7,30.84v264H107.53v-264H226.7 M232.7,24.84h-6H107.53h-6v6v264v6h6H226.7h6v-6v-264V24.84L232.7,24.84z"
   id="path401" />
</g>
<g
   id="g419">
	<g
   id="g417">
		<path
   class="st4"
   d="M7.93,61.11c-1.39,0-2.62-0.13-3.7-0.4s-2.15-0.77-3.22-1.5v-4.43h3.18l0.35,2.27    c0.25,0.28,0.69,0.52,1.32,0.71s1.32,0.29,2.07,0.29c0.52,0,0.96-0.06,1.31-0.19s0.62-0.32,0.8-0.57s0.27-0.55,0.27-0.9    c0-0.34-0.08-0.64-0.25-0.9s-0.44-0.52-0.83-0.76s-0.9-0.48-1.55-0.73c-1.46-0.47-2.66-0.95-3.6-1.43S2.45,51.5,2,50.84    s-0.69-1.49-0.69-2.47c0-0.95,0.27-1.77,0.81-2.48s1.28-1.26,2.23-1.67s2.03-0.62,3.25-0.64c1.39-0.03,2.62,0.11,3.69,0.42    s2.02,0.78,2.84,1.4v4.11h-3.05l-0.48-2.29c-0.27-0.13-0.64-0.25-1.14-0.36s-1.02-0.16-1.57-0.16c-0.48,0-0.9,0.06-1.27,0.19    s-0.66,0.31-0.88,0.56S5.41,48,5.41,48.38c0,0.3,0.09,0.58,0.27,0.81s0.5,0.48,0.95,0.71s1.09,0.51,1.9,0.83    c1.94,0.57,3.41,1.28,4.41,2.14s1.51,2.02,1.51,3.49c0,1.01-0.27,1.87-0.82,2.57s-1.31,1.25-2.29,1.62S9.23,61.11,7.93,61.11z"
   id="path405" />
		<path
   class="st4"
   d="M20.86,61.13c-1.33,0-2.34-0.35-3.03-1.06s-1.04-1.83-1.04-3.36v-5.7h-1.58v-2.84h1.58v-3.13h4.09v3.13h2.07    v2.84h-2.07v5.68c0,0.41,0.09,0.7,0.28,0.87s0.45,0.25,0.77,0.25c0.14,0,0.28-0.01,0.42-0.02s0.28-0.04,0.42-0.06l0.28,3.07    c-0.36,0.1-0.72,0.18-1.08,0.24S21.24,61.13,20.86,61.13z"
   id="path407" />
		<path
   class="st4"
   d="M24.64,60.86v-2.4l1.48-0.38v-7.11l-1.76-0.38v-2.41H30l0.09,1.55l0.02,0.32c0.28-0.72,0.63-1.25,1.05-1.59    s0.94-0.51,1.56-0.51c0.17,0,0.38,0.01,0.61,0.04s0.47,0.08,0.71,0.15l-0.41,3.77l-1.76-0.08c-0.41-0.02-0.72,0.03-0.96,0.13    s-0.46,0.28-0.7,0.52v5.6l1.48,0.38v2.4H24.64z"
   id="path409" />
		<path
   class="st4"
   d="M34.71,60.86v-2.4l1.49-0.38v-7.11l-1.77-0.38v-2.41h5.88v9.9l1.48,0.38v2.4H34.71z M36.08,45.78v-3.2h4.23    v3.2H36.08z"
   id="path411" />
		<path
   class="st4"
   d="M47.46,61.11c-0.99,0-1.85-0.26-2.56-0.79s-1.26-1.26-1.64-2.21s-0.57-2.06-0.57-3.32v-0.25    c0-1.32,0.19-2.47,0.57-3.46s0.93-1.76,1.63-2.31s1.54-0.83,2.51-0.83c0.67,0,1.25,0.14,1.74,0.42s0.92,0.67,1.28,1.17v-4.16    l-1.78-0.38v-2.41h1.78h4.11v15.5l1.48,0.38v2.4h-5.04l-0.3-1.57c-0.38,0.59-0.84,1.04-1.36,1.35S48.18,61.11,47.46,61.11z     M48.74,57.95c0.34,0,0.66-0.07,0.96-0.2s0.54-0.33,0.74-0.6v-5.07c-0.2-0.32-0.44-0.56-0.72-0.73s-0.6-0.25-0.96-0.25    c-0.47,0-0.85,0.14-1.14,0.43s-0.5,0.69-0.63,1.21s-0.19,1.12-0.19,1.8v0.25c0,1.01,0.14,1.79,0.42,2.34S48.01,57.95,48.74,57.95z    "
   id="path413" />
		<path
   class="st4"
   d="M63.06,61.11c-1.24,0-2.33-0.27-3.25-0.8s-1.64-1.27-2.16-2.2s-0.77-1.98-0.77-3.15v-0.43    c0-1.29,0.23-2.43,0.68-3.42s1.12-1.77,1.99-2.33s1.95-0.83,3.22-0.83c1.15,0,2.12,0.22,2.91,0.66s1.4,1.09,1.81,1.95    s0.62,1.91,0.62,3.16v2.12h-6.97l-0.01,0.08c0.06,0.4,0.2,0.75,0.4,1.06s0.49,0.55,0.86,0.73s0.82,0.27,1.36,0.27    c0.53,0,1.05-0.06,1.56-0.18s1.05-0.31,1.62-0.58l0.94,2.48c-0.57,0.41-1.27,0.74-2.09,1.01S64.07,61.11,63.06,61.11z     M61.15,53.29h3.22v-0.3c0-0.45-0.04-0.83-0.13-1.14s-0.24-0.54-0.46-0.69s-0.52-0.23-0.9-0.23c-0.41,0-0.74,0.1-0.99,0.3    s-0.43,0.47-0.54,0.82s-0.19,0.74-0.24,1.19L61.15,53.29z"
   id="path415" />
	</g>
</g>
<line
   class="st5"
   x1="107.53"
   y1="30.84"
   x2="76.03"
   y2="30.84"
   id="line421" />
<line
   class="st5"
   x1="107.53"
   y1="74.84"
   x2="76.03"
   y2="74.84"
   id="line423" />
<g
   id="g437">
	<g
   id="g435">
		<line
   class="st5"
   x1="88.09"
   y1="45.19"
   x2="88.09"
   y2="60.49"
   id="line425" />
		<g
   id="g429">
			<polygon
   class="st4"
   points="78.12,48.11 88.09,30.84 98.07,48.11    "
   id="polygon427" />
		</g>
		<g
   id="g433">
			<polygon
   class="st4"
   points="78.12,57.57 88.09,74.84 98.07,57.57    "
   id="polygon431" />
		</g>
	</g>
</g>
<g
   id="g451">
	<g
   id="g449">
		<path
   class="st3"
   d="M134.85,19.13v-2.4l1.77-0.38V4.86l-1.77-0.38V2.07h1.77h5.95c2.15,0,3.82,0.39,5.03,1.18s1.8,1.96,1.8,3.53    c0,0.8-0.19,1.53-0.57,2.16s-0.97,1.12-1.77,1.45c0.68,0.15,1.23,0.4,1.66,0.76s0.75,0.79,0.95,1.29s0.3,1.05,0.3,1.63    c0,1.67-0.56,2.93-1.68,3.79s-2.74,1.28-4.86,1.28H134.85z M140.73,9.15h1.66c0.97,0,1.69-0.15,2.17-0.46s0.72-0.79,0.72-1.44    c0-0.71-0.22-1.23-0.67-1.55s-1.13-0.49-2.04-0.49h-1.84V9.15z M140.73,16h2.71c0.81,0,1.42-0.16,1.83-0.48s0.62-0.81,0.62-1.46    c0-0.49-0.08-0.9-0.23-1.22s-0.4-0.57-0.73-0.73s-0.76-0.24-1.29-0.24h-2.91V16z"
   id="path439" />
		<path
   class="st3"
   d="M150.72,19.13v-2.4l1.5-0.38V3.64l-1.78-0.38V0.85h5.89v15.5l1.49,0.38v2.4H150.72z"
   id="path441" />
		<path
   class="st3"
   d="M164.85,19.38c-1.3,0-2.42-0.27-3.35-0.81s-1.63-1.3-2.12-2.27s-0.73-2.1-0.73-3.38v-0.23    c0-1.27,0.24-2.38,0.73-3.35s1.19-1.73,2.12-2.28s2.03-0.83,3.33-0.83c1.3,0,2.42,0.27,3.33,0.82s1.62,1.3,2.11,2.27    S171,11.4,171,12.68v0.23c0,1.27-0.24,2.4-0.73,3.37s-1.19,1.73-2.11,2.28S166.14,19.38,164.85,19.38z M164.85,16.25    c0.5,0,0.9-0.13,1.2-0.4s0.52-0.65,0.66-1.15s0.21-1.09,0.21-1.78v-0.23c0-0.66-0.07-1.24-0.21-1.74s-0.36-0.88-0.66-1.16    s-0.71-0.42-1.22-0.42c-0.5,0-0.9,0.14-1.21,0.42s-0.52,0.66-0.66,1.16s-0.2,1.08-0.2,1.74v0.23c0,0.7,0.07,1.29,0.2,1.79    s0.35,0.88,0.66,1.15S164.33,16.25,164.85,16.25z"
   id="path443" />
		<path
   class="st3"
   d="M178.47,19.38c-1.26,0-2.34-0.28-3.25-0.83s-1.6-1.32-2.09-2.29s-0.73-2.07-0.73-3.32v-0.27    c0-1.27,0.25-2.39,0.76-3.36s1.21-1.73,2.11-2.27s1.96-0.82,3.16-0.82c1.21,0,2.25,0.18,3.11,0.55s1.54,0.75,2.04,1.15l-0.07,4    h-3.06l-0.49-2.3c-0.13-0.13-0.31-0.24-0.53-0.33s-0.41-0.13-0.56-0.13c-0.59,0-1.05,0.13-1.39,0.38s-0.59,0.64-0.74,1.15    s-0.22,1.18-0.22,1.98v0.27c0,0.84,0.1,1.49,0.3,1.97s0.45,0.82,0.76,1.03s0.62,0.3,0.94,0.3c0.49,0,0.87-0.12,1.14-0.37    s0.48-0.61,0.63-1.08h3.45l0.05,0.07c-0.19,1.01-0.48,1.85-0.88,2.51s-0.95,1.17-1.66,1.5S179.61,19.38,178.47,19.38z"
   id="path445" />
		<path
   class="st3"
   d="M184.92,19.13v-2.4l1.5-0.38V3.64l-1.78-0.38V0.85h5.87v15.5l1.21,0.38v2.4H184.92z M190.03,15.79l-2.13-1.97    l5.51-4.77V9.04l-1.27-0.21V6.45h7.3v2.41l-1.64,0.48L190.03,15.79z M192.95,19.13v-2.24l0.77-0.27l-0.02-0.05l-1.79-2.59    l2.79-2.48l3.56,4.8l1.42,0.42v2.4H192.95z"
   id="path447" />
	</g>
</g>
</svg>
