<?xml version="1.0" encoding="UTF-8" standalone="no"?>
<svg
   xmlns:dc="http://purl.org/dc/elements/1.1/"
   xmlns:cc="http://creativecommons.org/ns#"
   xmlns:rdf="http://www.w3.org/1999/02/22-rdf-syntax-ns#"
   xmlns:svg="http://www.w3.org/2000/svg"
   xmlns="http://www.w3.org/2000/svg"
   xmlns:sodipodi="http://sodipodi.sourceforge.net/DTD/sodipodi-0.dtd"
   xmlns:inkscape="http://www.inkscape.org/namespaces/inkscape"
   version="1.1"
   id="Layer_1"
   x="0px"
   y="0px"
   viewBox="0 0 1506 642"
   style="enable-background:new 0 0 1506 642;"
   xml:space="preserve"
   sodipodi:docname="odb-2-frame-decoder.svg"
   inkscape:version="1.0.2 (e86c8708, 2021-01-15)"><metadata
   id="metadata516"><rdf:RDF><cc:Work
       rdf:about=""><dc:format>image/svg+xml</dc:format><dc:type
         rdf:resource="http://purl.org/dc/dcmitype/StillImage" /><dc:title></dc:title></cc:Work></rdf:RDF></metadata><defs
   id="defs514" /><sodipodi:namedview
   pagecolor="#ffffff"
   bordercolor="#666666"
   borderopacity="1"
   objecttolerance="10"
   gridtolerance="10"
   guidetolerance="10"
   inkscape:pageopacity="0"
   inkscape:pageshadow="2"
   inkscape:window-width="709"
   inkscape:window-height="480"
   id="namedview512"
   showgrid="false"
   inkscape:zoom="0.69920319"
   inkscape:cx="753"
   inkscape:cy="321"
   inkscape:window-x="0"
   inkscape:window-y="25"
   inkscape:window-maximized="0"
   inkscape:current-layer="Layer_1" />
<style
   type="text/css"
   id="style10">
	.st0{fill:#00A99D;}
	.st1{fill:#E6E6E6;}
	.st2{fill:#CCCCCC;}
	.st3{fill:#999999;}
	.st4{fill:none;stroke:#999999;stroke-width:2;stroke-miterlimit:10;}
	.st5{fill:none;stroke:url(#SVGID_1_);stroke-width:16.32;stroke-miterlimit:10;}
	.st6{fill:url(#SVGID_2_);}
	.st7{fill:#FF7BAC;}
	.st8{fill:none;stroke:url(#SVGID_3_);stroke-width:16.32;stroke-miterlimit:10;}
	.st9{fill:url(#SVGID_4_);}
	.st10{fill:#BDCCD4;}
	.st11{fill:none;stroke:#000000;stroke-width:2.68;stroke-miterlimit:10;}
	.st12{fill:#3FA9F5;}
	.st13{fill:#7AC943;}
	.st14{fill:#FF931E;}
	.st15{fill:none;stroke:#000000;stroke-width:2;stroke-miterlimit:10;}
	.st16{fill:#FFFFFF;}
</style>
<g
   id="g14">
	<rect
   class="st0"
   width="1506"
   height="361"
   id="rect12" />
</g>
<g
   id="g120">
	<rect
   x="1011"
   y="52"
   class="st1"
   width="495"
   height="285"
   id="rect16" />
	<rect
   x="1035"
   y="96"
   class="st2"
   width="165"
   height="220"
   id="rect18" />
	<rect
   x="1222"
   y="96"
   transform="matrix(-1 -1.224647e-16 1.224647e-16 -1 2704 412)"
   class="st2"
   width="260"
   height="220"
   id="rect20" />
	<g
   id="g34">
		<path
   class="st3"
   d="M1048.47,126.29v-2.4l1.77-0.38v-11.5l-1.77-0.38v-2.41h7.65v2.41l-1.77,0.38v4.31h6.21v-4.31l-1.77-0.38    v-2.41h1.77h4.1h1.77v2.41l-1.77,0.38v11.5l1.77,0.38v2.4h-7.64v-2.4l1.77-0.38v-4.03h-6.21v4.03l1.77,0.38v2.4H1048.47z"
   id="path22" />
		<path
   class="st3"
   d="M1073.82,126.54c-1.24,0-2.33-0.27-3.25-0.8s-1.64-1.27-2.16-2.2s-0.77-1.98-0.77-3.15v-0.43    c0-1.29,0.23-2.43,0.68-3.42s1.12-1.77,1.99-2.33s1.95-0.83,3.22-0.83c1.15,0,2.12,0.22,2.91,0.66s1.4,1.09,1.81,1.95    s0.62,1.91,0.62,3.16v2.12h-6.97l-0.01,0.08c0.06,0.4,0.2,0.75,0.4,1.06s0.49,0.55,0.86,0.73s0.82,0.27,1.36,0.27    c0.53,0,1.05-0.06,1.56-0.18s1.05-0.31,1.62-0.58l0.94,2.48c-0.57,0.41-1.27,0.74-2.09,1.01S1074.82,126.54,1073.82,126.54z     M1071.91,118.72h3.22v-0.3c0-0.45-0.04-0.83-0.13-1.14s-0.24-0.54-0.46-0.69s-0.52-0.23-0.9-0.23c-0.41,0-0.74,0.1-0.99,0.3    s-0.43,0.47-0.54,0.82s-0.19,0.74-0.24,1.19L1071.91,118.72z"
   id="path24" />
		<path
   class="st3"
   d="M1084.56,126.54c-1.23,0-2.23-0.35-3-1.04s-1.16-1.62-1.16-2.78c0-0.79,0.21-1.49,0.64-2.1    s1.07-1.09,1.92-1.44s1.93-0.52,3.22-0.52h1.32v-0.75c0-0.51-0.14-0.94-0.43-1.29s-0.75-0.53-1.37-0.53    c-0.27,0-0.51,0.03-0.74,0.1s-0.44,0.16-0.63,0.29l-0.28,1.62h-2.89l-0.06-3.53c0.72-0.32,1.47-0.6,2.26-0.83s1.66-0.35,2.63-0.35    c1.73,0,3.1,0.4,4.11,1.19s1.52,1.92,1.52,3.39v4.68c0,0.18,0,0.36,0.01,0.53s0.02,0.34,0.05,0.49l1.37,0.23v2.4h-4.8    c-0.1-0.14-0.21-0.33-0.33-0.56s-0.2-0.47-0.25-0.7c-0.38,0.48-0.81,0.85-1.29,1.11S1085.3,126.54,1084.56,126.54z     M1085.83,123.63c0.3,0,0.6-0.06,0.9-0.18s0.56-0.3,0.78-0.54v-1.83h-1.28c-0.55,0-0.98,0.12-1.28,0.36s-0.45,0.56-0.45,0.96    c0,0.38,0.12,0.68,0.38,0.9S1085.44,123.63,1085.83,123.63z"
   id="path26" />
		<path
   class="st3"
   d="M1098.72,126.54c-0.99,0-1.85-0.26-2.56-0.79s-1.26-1.26-1.64-2.21s-0.57-2.06-0.57-3.32v-0.25    c0-1.32,0.19-2.47,0.57-3.46s0.93-1.76,1.63-2.31s1.54-0.83,2.51-0.83c0.67,0,1.25,0.14,1.74,0.42s0.92,0.67,1.28,1.17v-4.16    l-1.78-0.38v-2.41h1.78h4.11v15.5l1.48,0.38v2.4h-5.04l-0.3-1.57c-0.38,0.59-0.84,1.04-1.36,1.35S1099.44,126.54,1098.72,126.54z     M1100,123.38c0.34,0,0.66-0.07,0.96-0.2s0.54-0.33,0.74-0.6v-5.07c-0.2-0.32-0.44-0.56-0.72-0.73s-0.6-0.25-0.96-0.25    c-0.47,0-0.85,0.14-1.14,0.43s-0.5,0.69-0.63,1.21s-0.19,1.12-0.19,1.8v0.25c0,1.01,0.14,1.79,0.42,2.34    S1099.27,123.38,1100,123.38z"
   id="path28" />
		<path
   class="st3"
   d="M1114.26,126.54c-1.24,0-2.33-0.27-3.25-0.8s-1.64-1.27-2.16-2.2s-0.77-1.98-0.77-3.15v-0.43    c0-1.29,0.23-2.43,0.68-3.42s1.12-1.77,1.99-2.33s1.95-0.83,3.22-0.83c1.15,0,2.12,0.22,2.91,0.66s1.4,1.09,1.81,1.95    s0.62,1.91,0.62,3.16v2.12h-6.97l-0.01,0.08c0.06,0.4,0.2,0.75,0.4,1.06s0.49,0.55,0.86,0.73s0.82,0.27,1.36,0.27    c0.53,0,1.05-0.06,1.56-0.18s1.05-0.31,1.62-0.58l0.94,2.48c-0.57,0.41-1.27,0.74-2.09,1.01S1115.27,126.54,1114.26,126.54z     M1112.35,118.72h3.22v-0.3c0-0.45-0.04-0.83-0.13-1.14s-0.24-0.54-0.46-0.69s-0.52-0.23-0.9-0.23c-0.41,0-0.74,0.1-0.99,0.3    s-0.43,0.47-0.54,0.82s-0.19,0.74-0.24,1.19L1112.35,118.72z"
   id="path30" />
		<path
   class="st3"
   d="M1121.21,126.29v-2.4l1.48-0.38v-7.11l-1.76-0.38v-2.41h5.64l0.09,1.55l0.02,0.32    c0.28-0.72,0.63-1.25,1.05-1.59s0.94-0.51,1.56-0.51c0.17,0,0.38,0.01,0.61,0.04s0.47,0.08,0.71,0.15l-0.41,3.77l-1.76-0.08    c-0.41-0.02-0.72,0.03-0.96,0.13s-0.46,0.28-0.7,0.52v5.6l1.48,0.38v2.4H1121.21z"
   id="path32" />
	</g>
	<g
   id="g84">
		<path
   class="st3"
   d="M1050.41,159.9v-5.1h6.13v5.1H1050.41z"
   id="path36" />
		<path
   class="st3"
   d="M1071.6,165.51c-1.47,0-2.73-0.31-3.77-0.94c-1.04-0.63-1.84-1.5-2.39-2.62s-0.83-2.43-0.83-3.92v-0.38    c0-1.46,0.27-2.75,0.82-3.87c0.55-1.12,1.33-2.01,2.35-2.66c1.02-0.65,2.24-0.97,3.65-0.97c0.99,0,1.91,0.15,2.76,0.44    s1.59,0.71,2.21,1.24v3.45h-1.97l-0.27-2.31c-0.23-0.16-0.47-0.3-0.75-0.42s-0.57-0.21-0.9-0.27c-0.33-0.06-0.68-0.09-1.06-0.09    c-0.9,0-1.66,0.23-2.3,0.68c-0.64,0.45-1.13,1.08-1.46,1.9c-0.33,0.81-0.5,1.77-0.5,2.86v0.4c0,1.13,0.18,2.11,0.53,2.93    c0.36,0.82,0.87,1.44,1.53,1.88c0.67,0.44,1.46,0.66,2.39,0.66c0.45,0,0.9-0.05,1.34-0.16c0.44-0.11,0.83-0.24,1.16-0.42    l0.28-2.09h1.95v3.42c-0.57,0.38-1.28,0.68-2.11,0.91C1073.45,165.39,1072.56,165.51,1071.6,165.51z"
   id="path38" />
		<path
   class="st3"
   d="M1083.24,165.51c-1.07,0-1.98-0.24-2.75-0.72s-1.35-1.14-1.76-1.99c-0.41-0.85-0.62-1.83-0.62-2.94v-0.22    c0-1.1,0.21-2.07,0.62-2.92s1-1.51,1.76-2s1.67-0.73,2.73-0.73c1.07,0,1.98,0.24,2.75,0.72c0.77,0.48,1.35,1.15,1.76,1.99    s0.62,1.83,0.62,2.93v0.22c0,1.11-0.21,2.09-0.62,2.94c-0.41,0.85-1,1.52-1.76,1.99S1084.3,165.51,1083.24,165.51z     M1083.24,163.52c0.57,0,1.05-0.16,1.42-0.47s0.65-0.74,0.84-1.29s0.28-1.18,0.28-1.9v-0.22c0-0.71-0.09-1.34-0.28-1.89    s-0.46-0.98-0.84-1.29s-0.85-0.47-1.44-0.47c-0.57,0-1.04,0.16-1.42,0.47s-0.65,0.75-0.84,1.29s-0.27,1.18-0.27,1.89v0.22    c0,0.72,0.09,1.35,0.27,1.9s0.46,0.98,0.84,1.29C1082.19,163.36,1082.66,163.52,1083.24,163.52z"
   id="path40" />
		<path
   class="st3"
   d="M1089.43,165.29v-1.58l1.55-0.31v-12.21l-1.64-0.31v-1.59h4.21v14.11l1.55,0.31v1.58H1089.43z"
   id="path42" />
		<path
   class="st3"
   d="M1101.05,165.51c-1.19,0-2.12-0.38-2.78-1.13c-0.67-0.75-1-1.93-1-3.52v-4.76l-1.25-0.31v-1.59h1.25h2.58    v6.68c0,0.96,0.15,1.63,0.46,2.02c0.3,0.39,0.77,0.58,1.41,0.58c0.56,0,1.04-0.11,1.43-0.33c0.39-0.22,0.71-0.54,0.94-0.95v-6.09    l-1.39-0.31v-1.59h1.39h2.58v9.21l1.31,0.31v1.58h-3.6l-0.17-1.51c-0.35,0.55-0.79,0.98-1.33,1.28    C1102.34,165.36,1101.73,165.51,1101.05,165.51z"
   id="path44" />
		<path
   class="st3"
   d="M1109.14,165.29v-1.58l1.55-0.31v-7.31l-1.63-0.31v-1.59h4l0.12,1.46c0.36-0.53,0.81-0.93,1.36-1.23    c0.54-0.29,1.17-0.44,1.89-0.44c0.72,0,1.35,0.16,1.86,0.49s0.91,0.81,1.17,1.47c0.34-0.61,0.79-1.09,1.35-1.44    c0.56-0.35,1.21-0.52,1.96-0.52c1.11,0,1.99,0.38,2.63,1.14c0.64,0.76,0.96,1.91,0.96,3.45v4.83l1.55,0.31v1.58h-5.59v-1.58    l1.46-0.31v-4.84c0-0.94-0.16-1.59-0.47-1.97s-0.78-0.56-1.38-0.56c-0.57,0-1.03,0.18-1.4,0.54c-0.37,0.36-0.6,0.82-0.71,1.38    v5.44l1.4,0.31v1.58h-5.38v-1.58l1.4-0.31v-4.84c0-0.9-0.16-1.55-0.48-1.94c-0.32-0.39-0.79-0.59-1.39-0.59    c-0.51,0-0.93,0.1-1.28,0.31c-0.35,0.21-0.62,0.5-0.83,0.87v6.19l1.45,0.31v1.58H1109.14z"
   id="path46" />
		<path
   class="st3"
   d="M1129.05,165.29v-1.58l1.54-0.31v-7.31l-1.62-0.31v-1.59h4l0.13,1.61c0.37-0.57,0.83-1.02,1.38-1.34    c0.55-0.32,1.17-0.48,1.87-0.48c1.14,0,2.03,0.35,2.67,1.05c0.64,0.7,0.95,1.8,0.95,3.29v5.08l1.54,0.31v1.58h-5.57v-1.58    l1.45-0.31v-5.06c0-0.84-0.17-1.44-0.5-1.79c-0.33-0.35-0.83-0.53-1.5-0.53c-0.5,0-0.93,0.11-1.31,0.33s-0.67,0.53-0.91,0.93v6.11    l1.41,0.31v1.58H1129.05z"
   id="path48" />
		<path
   class="st3"
   d="M1147.33,165.51c-0.79,0-1.53-0.08-2.22-0.23c-0.69-0.15-1.38-0.38-2.07-0.68l-0.03-2.93h1.86l0.39,1.6    c0.29,0.13,0.6,0.23,0.91,0.3c0.31,0.07,0.66,0.11,1.04,0.11c0.74,0,1.26-0.13,1.56-0.39s0.46-0.58,0.46-0.96    c0-0.37-0.16-0.69-0.48-0.95c-0.32-0.26-0.93-0.49-1.82-0.68c-1.33-0.29-2.3-0.71-2.93-1.26c-0.62-0.55-0.94-1.27-0.94-2.15    c0-0.61,0.16-1.16,0.49-1.65c0.32-0.49,0.8-0.89,1.44-1.18c0.63-0.3,1.41-0.45,2.33-0.45c0.84,0,1.59,0.09,2.24,0.26    c0.65,0.17,1.21,0.41,1.67,0.69l0.06,2.82h-1.84l-0.32-1.47c-0.21-0.15-0.46-0.27-0.74-0.35s-0.6-0.12-0.96-0.12    c-0.57,0-1.02,0.12-1.34,0.37c-0.33,0.25-0.49,0.56-0.49,0.94c0,0.22,0.05,0.42,0.16,0.59c0.11,0.18,0.31,0.34,0.62,0.49    c0.3,0.15,0.75,0.29,1.34,0.43c1.44,0.33,2.47,0.77,3.1,1.31c0.62,0.54,0.93,1.25,0.93,2.14c0,0.99-0.36,1.8-1.09,2.44    S1148.82,165.51,1147.33,165.51z"
   id="path50" />
		<path
   class="st3"
   d="M1050.41,185.1v-5.1h6.13v5.1H1050.41z"
   id="path52" />
		<path
   class="st3"
   d="M1071.6,190.71c-1.47,0-2.73-0.31-3.77-0.94c-1.04-0.63-1.84-1.5-2.39-2.62s-0.83-2.43-0.83-3.92v-0.38    c0-1.46,0.27-2.75,0.82-3.87c0.55-1.12,1.33-2.01,2.35-2.66c1.02-0.65,2.24-0.97,3.65-0.97c0.99,0,1.91,0.15,2.76,0.44    s1.59,0.71,2.21,1.24v3.45h-1.97l-0.27-2.31c-0.23-0.16-0.47-0.3-0.75-0.42s-0.57-0.21-0.9-0.27c-0.33-0.06-0.68-0.09-1.06-0.09    c-0.9,0-1.66,0.23-2.3,0.68c-0.64,0.45-1.13,1.08-1.46,1.9c-0.33,0.81-0.5,1.77-0.5,2.86v0.4c0,1.13,0.18,2.11,0.53,2.93    c0.36,0.82,0.87,1.44,1.53,1.88c0.67,0.44,1.46,0.66,2.39,0.66c0.45,0,0.9-0.05,1.34-0.16c0.44-0.11,0.83-0.24,1.16-0.42    l0.28-2.09h1.95v3.42c-0.57,0.38-1.28,0.68-2.11,0.91C1073.45,190.59,1072.56,190.71,1071.6,190.71z"
   id="path54" />
		<path
   class="st3"
   d="M1083.24,190.71c-1.07,0-1.98-0.24-2.75-0.72s-1.35-1.14-1.76-1.99c-0.41-0.85-0.62-1.83-0.62-2.94v-0.22    c0-1.1,0.21-2.07,0.62-2.92s1-1.51,1.76-2s1.67-0.73,2.73-0.73c1.07,0,1.98,0.24,2.75,0.72c0.77,0.48,1.35,1.15,1.76,1.99    s0.62,1.83,0.62,2.93v0.22c0,1.11-0.21,2.09-0.62,2.94c-0.41,0.85-1,1.52-1.76,1.99S1084.3,190.71,1083.24,190.71z     M1083.24,188.72c0.57,0,1.05-0.16,1.42-0.47s0.65-0.74,0.84-1.29s0.28-1.18,0.28-1.9v-0.22c0-0.71-0.09-1.34-0.28-1.89    s-0.46-0.98-0.84-1.29s-0.85-0.47-1.44-0.47c-0.57,0-1.04,0.16-1.42,0.47s-0.65,0.75-0.84,1.29s-0.27,1.18-0.27,1.89v0.22    c0,0.72,0.09,1.35,0.27,1.9s0.46,0.98,0.84,1.29C1082.19,188.56,1082.66,188.72,1083.24,188.72z"
   id="path56" />
		<path
   class="st3"
   d="M1094.3,190.71c-0.9,0-1.66-0.23-2.3-0.68c-0.64-0.45-1.12-1.08-1.46-1.89c-0.34-0.81-0.51-1.75-0.51-2.83    v-0.22c0-1.18,0.17-2.21,0.51-3.1c0.34-0.88,0.83-1.57,1.46-2.06c0.64-0.49,1.4-0.74,2.28-0.74c0.64,0,1.19,0.12,1.67,0.36    c0.47,0.24,0.88,0.59,1.22,1.04v-4.2l-1.63-0.31v-1.59h1.63h2.58v14.11l1.54,0.31v1.58h-3.77l-0.21-1.34    c-0.35,0.51-0.77,0.9-1.28,1.16C1095.55,190.57,1094.96,190.71,1094.3,190.71z M1095.03,188.67c0.49,0,0.92-0.11,1.27-0.32    c0.36-0.21,0.65-0.53,0.88-0.94v-4.89c-0.23-0.4-0.52-0.71-0.88-0.94c-0.36-0.23-0.78-0.34-1.26-0.34c-0.56,0-1.02,0.16-1.38,0.49    c-0.36,0.33-0.62,0.78-0.79,1.35c-0.17,0.58-0.26,1.25-0.26,2.02v0.22c0,1.03,0.19,1.84,0.57,2.45S1094.18,188.67,1095.03,188.67z    "
   id="path58" />
		<path
   class="st3"
   d="M1107.59,190.71c-1.05,0-1.96-0.23-2.73-0.7c-0.78-0.47-1.38-1.12-1.8-1.94s-0.64-1.77-0.64-2.84v-0.43    c0-1.08,0.21-2.04,0.63-2.89c0.42-0.84,1-1.51,1.74-1.99c0.74-0.48,1.58-0.72,2.52-0.72c1,0,1.85,0.2,2.53,0.6    c0.68,0.4,1.19,0.98,1.54,1.72c0.35,0.74,0.52,1.63,0.52,2.67v1.48h-6.81l-0.02,0.05c0.03,0.58,0.15,1.1,0.36,1.55    c0.22,0.45,0.52,0.81,0.92,1.07c0.4,0.26,0.89,0.39,1.46,0.39c0.6,0,1.15-0.08,1.64-0.25s0.95-0.4,1.36-0.7l0.81,1.62    c-0.44,0.37-0.99,0.68-1.67,0.93S1108.49,190.71,1107.59,190.71z M1105.13,183.85h4.3v-0.27c0-0.49-0.07-0.91-0.22-1.28    s-0.38-0.65-0.69-0.86c-0.31-0.21-0.71-0.31-1.18-0.31c-0.42,0-0.78,0.12-1.1,0.35s-0.57,0.55-0.75,0.95    c-0.19,0.4-0.32,0.85-0.38,1.36L1105.13,183.85z"
   id="path60" />
		<path
   class="st3"
   d="M1118.67,190.71c-1.04,0-1.94-0.24-2.7-0.71c-0.76-0.48-1.35-1.13-1.76-1.97c-0.41-0.84-0.62-1.8-0.62-2.9    v-0.36c0-1.07,0.21-2.03,0.62-2.87s1-1.5,1.76-1.98c0.76-0.48,1.66-0.72,2.7-0.72c0.95,0,1.78,0.15,2.48,0.46    c0.7,0.3,1.28,0.68,1.73,1.13l0.01,2.96h-1.97l-0.38-1.96c-0.19-0.2-0.43-0.36-0.73-0.48c-0.29-0.12-0.62-0.18-0.96-0.18    c-0.57,0-1.05,0.15-1.45,0.46s-0.7,0.73-0.91,1.28c-0.21,0.54-0.31,1.18-0.31,1.9v0.36c0,0.78,0.11,1.44,0.32,1.97    s0.51,0.94,0.89,1.21c0.38,0.27,0.81,0.41,1.31,0.41c0.59,0,1.08-0.16,1.45-0.48c0.37-0.32,0.62-0.77,0.73-1.33h2.24l0.03,0.06    c-0.08,0.72-0.3,1.37-0.64,1.93c-0.34,0.56-0.83,1.01-1.46,1.33S1119.62,190.71,1118.67,190.71z"
   id="path62" />
		<path
   class="st3"
   d="M1129.22,190.71c-0.79,0-1.53-0.08-2.22-0.23c-0.69-0.15-1.38-0.38-2.07-0.68l-0.03-2.93h1.86l0.39,1.6    c0.29,0.13,0.6,0.23,0.91,0.3c0.31,0.07,0.66,0.11,1.04,0.11c0.74,0,1.26-0.13,1.56-0.39c0.3-0.26,0.46-0.58,0.46-0.96    c0-0.37-0.16-0.69-0.48-0.95s-0.92-0.49-1.82-0.68c-1.33-0.29-2.3-0.71-2.93-1.26c-0.62-0.55-0.94-1.27-0.94-2.15    c0-0.61,0.16-1.16,0.49-1.65c0.33-0.49,0.8-0.89,1.44-1.18c0.63-0.3,1.41-0.45,2.33-0.45c0.84,0,1.59,0.09,2.24,0.26    c0.65,0.17,1.21,0.41,1.67,0.69l0.06,2.82h-1.83l-0.32-1.47c-0.21-0.15-0.46-0.27-0.74-0.35s-0.6-0.12-0.96-0.12    c-0.57,0-1.01,0.12-1.34,0.37c-0.33,0.25-0.49,0.56-0.49,0.94c0,0.22,0.05,0.42,0.16,0.59s0.31,0.34,0.62,0.49    s0.75,0.29,1.34,0.43c1.44,0.33,2.47,0.77,3.1,1.31c0.62,0.54,0.93,1.25,0.93,2.14c0,0.99-0.36,1.8-1.09,2.44    S1130.71,190.71,1129.22,190.71z"
   id="path64" />
		<path
   class="st3"
   d="M1050.41,210.3v-5.1h6.13v5.1H1050.41z"
   id="path66" />
		<path
   class="st3"
   d="M1064.7,215.69v-1.58l1.62-0.31v-11.15l-1.62-0.31v-1.59h1.62h3.7l4.38,10.8h0.06l4.25-10.8h5.38v1.59    l-1.63,0.31v11.15l1.63,0.31v1.58h-5.83v-1.58l1.71-0.31v-3.48l0.02-6.53l-0.05-0.01l-4.62,11.57h-1.88l-4.76-11.5l-0.05,0.01    l0.13,6.3v3.65l1.77,0.31v1.58H1064.7z"
   id="path68" />
		<path
   class="st3"
   d="M1090.68,215.91c-1.05,0-1.96-0.23-2.73-0.7c-0.78-0.47-1.38-1.12-1.8-1.94c-0.43-0.83-0.64-1.77-0.64-2.84    v-0.43c0-1.08,0.21-2.04,0.63-2.89c0.42-0.84,1-1.51,1.74-1.99c0.74-0.48,1.58-0.72,2.52-0.72c1,0,1.85,0.2,2.53,0.6    c0.68,0.4,1.19,0.98,1.54,1.72c0.35,0.74,0.52,1.63,0.52,2.67v1.48h-6.81l-0.02,0.05c0.03,0.58,0.15,1.1,0.36,1.55    c0.22,0.45,0.52,0.81,0.92,1.07s0.89,0.39,1.46,0.39c0.6,0,1.15-0.08,1.64-0.25s0.95-0.4,1.36-0.7l0.81,1.62    c-0.44,0.37-0.99,0.68-1.67,0.93C1092.38,215.78,1091.58,215.91,1090.68,215.91z M1088.22,209.05h4.3v-0.27    c0-0.49-0.07-0.91-0.22-1.28c-0.15-0.37-0.38-0.65-0.69-0.86c-0.31-0.21-0.71-0.31-1.19-0.31c-0.42,0-0.78,0.12-1.1,0.35    s-0.57,0.55-0.75,0.95c-0.19,0.4-0.32,0.85-0.38,1.36L1088.22,209.05z"
   id="path70" />
		<path
   class="st3"
   d="M1100.63,215.89c-0.94,0-1.68-0.26-2.21-0.79c-0.53-0.53-0.79-1.38-0.79-2.54v-6.11h-1.62v-1.85h1.62v-2.7    h2.57v2.7h2.19v1.85h-2.19v6.11c0,0.47,0.1,0.82,0.29,1.03c0.2,0.22,0.46,0.32,0.79,0.32c0.19,0,0.41-0.02,0.64-0.05    c0.24-0.03,0.43-0.07,0.57-0.1l0.27,1.81c-0.3,0.09-0.64,0.16-1.03,0.23C1101.36,215.85,1100.98,215.89,1100.63,215.89z"
   id="path72" />
		<path
   class="st3"
   d="M1107.63,215.91c-1.13,0-2.01-0.29-2.64-0.87s-0.94-1.38-0.94-2.4c0-0.7,0.19-1.31,0.57-1.84    s0.94-0.94,1.68-1.24c0.74-0.3,1.63-0.45,2.69-0.45h1.69v-0.93c0-0.59-0.18-1.06-0.53-1.4c-0.35-0.35-0.86-0.52-1.53-0.52    c-0.38,0-0.72,0.05-1.02,0.14c-0.29,0.09-0.56,0.22-0.79,0.39l-0.24,1.5h-1.9l-0.02-2.74c0.55-0.36,1.16-0.64,1.83-0.85    c0.67-0.21,1.42-0.31,2.24-0.31c1.41,0,2.52,0.33,3.33,0.99c0.81,0.66,1.21,1.6,1.21,2.84v4.89c0,0.15,0,0.3,0.01,0.44    c0,0.14,0.01,0.28,0.03,0.42l1.13,0.14v1.58h-3.37c-0.07-0.24-0.13-0.47-0.19-0.7s-0.1-0.45-0.13-0.68    c-0.37,0.46-0.82,0.85-1.34,1.14C1108.88,215.76,1108.29,215.91,1107.63,215.91z M1108.22,213.91c0.52,0,1-0.12,1.46-0.36    c0.45-0.24,0.79-0.55,1.01-0.92v-1.86h-1.72c-0.77,0-1.36,0.18-1.75,0.54c-0.39,0.36-0.59,0.78-0.59,1.26    c0,0.43,0.14,0.76,0.41,0.99S1107.7,213.91,1108.22,213.91z"
   id="path74" />
		<path
   class="st3"
   d="M1120.01,215.91c-0.9,0-1.66-0.23-2.3-0.68s-1.12-1.08-1.46-1.89c-0.34-0.81-0.51-1.75-0.51-2.83v-0.22    c0-1.18,0.17-2.21,0.51-3.1c0.34-0.88,0.83-1.57,1.47-2.06s1.4-0.74,2.28-0.74c0.64,0,1.19,0.12,1.67,0.36    c0.47,0.24,0.88,0.59,1.23,1.04v-4.2l-1.63-0.31v-1.59h1.63h2.58v14.11l1.54,0.31v1.58h-3.77l-0.21-1.34    c-0.35,0.51-0.77,0.9-1.28,1.16C1121.25,215.77,1120.67,215.91,1120.01,215.91z M1120.74,213.87c0.49,0,0.92-0.11,1.27-0.32    c0.36-0.21,0.65-0.53,0.88-0.94v-4.89c-0.23-0.4-0.52-0.71-0.88-0.94c-0.36-0.23-0.78-0.34-1.26-0.34c-0.56,0-1.02,0.16-1.38,0.49    c-0.36,0.33-0.62,0.78-0.79,1.35c-0.17,0.58-0.26,1.25-0.26,2.02v0.22c0,1.03,0.19,1.84,0.57,2.45    C1119.28,213.56,1119.89,213.87,1120.74,213.87z"
   id="path76" />
		<path
   class="st3"
   d="M1131.81,215.91c-1.13,0-2.01-0.29-2.63-0.87s-0.94-1.38-0.94-2.4c0-0.7,0.19-1.31,0.57-1.84    s0.94-0.94,1.68-1.24c0.74-0.3,1.63-0.45,2.69-0.45h1.69v-0.93c0-0.59-0.18-1.06-0.53-1.4c-0.35-0.35-0.86-0.52-1.53-0.52    c-0.38,0-0.72,0.05-1.01,0.14c-0.29,0.09-0.56,0.22-0.79,0.39l-0.24,1.5h-1.9l-0.02-2.74c0.55-0.36,1.16-0.64,1.83-0.85    c0.67-0.21,1.42-0.31,2.24-0.31c1.41,0,2.52,0.33,3.33,0.99c0.81,0.66,1.22,1.6,1.22,2.84v4.89c0,0.15,0,0.3,0,0.44    c0,0.14,0.01,0.28,0.03,0.42l1.13,0.14v1.58h-3.37c-0.07-0.24-0.13-0.47-0.19-0.7s-0.1-0.45-0.13-0.68    c-0.37,0.46-0.82,0.85-1.34,1.14C1133.06,215.76,1132.47,215.91,1131.81,215.91z M1132.4,213.91c0.52,0,1-0.12,1.46-0.36    c0.45-0.24,0.79-0.55,1.02-0.92v-1.86h-1.72c-0.77,0-1.36,0.18-1.75,0.54c-0.39,0.36-0.59,0.78-0.59,1.26    c0,0.43,0.14,0.76,0.41,0.99S1131.88,213.91,1132.4,213.91z"
   id="path78" />
		<path
   class="st3"
   d="M1144.05,215.89c-0.94,0-1.68-0.26-2.21-0.79s-0.79-1.38-0.79-2.54v-6.11h-1.62v-1.85h1.62v-2.7h2.57v2.7    h2.19v1.85h-2.19v6.11c0,0.47,0.1,0.82,0.29,1.03c0.2,0.22,0.46,0.32,0.79,0.32c0.19,0,0.41-0.02,0.64-0.05    c0.24-0.03,0.43-0.07,0.57-0.1l0.27,1.81c-0.3,0.09-0.64,0.16-1.03,0.23C1144.78,215.85,1144.41,215.89,1144.05,215.89z"
   id="path80" />
		<path
   class="st3"
   d="M1151.06,215.91c-1.13,0-2.01-0.29-2.64-0.87s-0.94-1.38-0.94-2.4c0-0.7,0.19-1.31,0.57-1.84    s0.94-0.94,1.68-1.24c0.74-0.3,1.63-0.45,2.69-0.45h1.69v-0.93c0-0.59-0.18-1.06-0.53-1.4c-0.35-0.35-0.86-0.52-1.53-0.52    c-0.38,0-0.72,0.05-1.02,0.14c-0.29,0.09-0.56,0.22-0.79,0.39l-0.24,1.5h-1.9l-0.02-2.74c0.55-0.36,1.16-0.64,1.83-0.85    c0.67-0.21,1.41-0.31,2.23-0.31c1.41,0,2.52,0.33,3.33,0.99c0.81,0.66,1.21,1.6,1.21,2.84v4.89c0,0.15,0,0.3,0.01,0.44    c0,0.14,0.01,0.28,0.03,0.42l1.13,0.14v1.58h-3.37c-0.07-0.24-0.13-0.47-0.19-0.7c-0.06-0.23-0.1-0.45-0.13-0.68    c-0.37,0.46-0.81,0.85-1.34,1.14C1152.3,215.76,1151.71,215.91,1151.06,215.91z M1151.64,213.91c0.52,0,1-0.12,1.46-0.36    c0.45-0.24,0.79-0.55,1.02-0.92v-1.86h-1.72c-0.77,0-1.36,0.18-1.75,0.54c-0.39,0.36-0.59,0.78-0.59,1.26    c0,0.43,0.14,0.76,0.41,0.99S1151.13,213.91,1151.64,213.91z"
   id="path82" />
	</g>
	<g
   id="g94">
		<path
   class="st3"
   d="M1235.47,126.29v-2.4l1.79-0.43v-11.37l-1.79-0.45v-2.41h1.79h6.2c1.54,0,2.9,0.36,4.09,1.07    s2.12,1.7,2.79,2.96s1.01,2.72,1.01,4.37v0.27c0,1.65-0.34,3.1-1.01,4.37s-1.6,2.25-2.79,2.96s-2.55,1.07-4.09,1.07H1235.47z     M1241.38,123.17h1.88c0.87,0,1.59-0.22,2.18-0.66s1.03-1.05,1.33-1.85s0.45-1.72,0.45-2.77v-0.28c0-1.05-0.15-1.98-0.45-2.77    s-0.74-1.4-1.33-1.84s-1.31-0.66-2.18-0.66h-1.88V123.17z"
   id="path86" />
		<path
   class="st3"
   d="M1257.22,126.54c-1.23,0-2.23-0.35-3-1.04s-1.16-1.62-1.16-2.78c0-0.79,0.21-1.49,0.64-2.1    s1.07-1.09,1.92-1.44s1.93-0.52,3.22-0.52h1.32v-0.75c0-0.51-0.14-0.94-0.43-1.29s-0.75-0.53-1.37-0.53    c-0.27,0-0.51,0.03-0.74,0.1s-0.44,0.16-0.63,0.29l-0.28,1.62h-2.89l-0.06-3.53c0.72-0.32,1.47-0.6,2.26-0.83s1.66-0.35,2.63-0.35    c1.73,0,3.1,0.4,4.11,1.19s1.52,1.92,1.52,3.39v4.68c0,0.18,0,0.36,0.01,0.53s0.02,0.34,0.05,0.49l1.37,0.23v2.4h-4.8    c-0.1-0.14-0.21-0.33-0.33-0.56s-0.2-0.47-0.25-0.7c-0.38,0.48-0.81,0.85-1.29,1.11S1257.95,126.54,1257.22,126.54z     M1258.48,123.63c0.3,0,0.6-0.06,0.9-0.18s0.56-0.3,0.78-0.54v-1.83h-1.28c-0.55,0-0.98,0.12-1.28,0.36s-0.45,0.56-0.45,0.96    c0,0.38,0.12,0.68,0.38,0.9S1258.09,123.63,1258.48,123.63z"
   id="path88" />
		<path
   class="st3"
   d="M1271.86,126.56c-1.33,0-2.34-0.35-3.03-1.06s-1.04-1.83-1.04-3.36v-5.7h-1.58v-2.84h1.58v-3.13h4.09v3.13    h2.07v2.84h-2.07v5.68c0,0.41,0.09,0.7,0.28,0.87s0.45,0.25,0.77,0.25c0.14,0,0.28-0.01,0.42-0.02s0.28-0.04,0.42-0.06l0.28,3.07    c-0.36,0.1-0.72,0.18-1.08,0.24S1272.24,126.56,1271.86,126.56z"
   id="path90" />
		<path
   class="st3"
   d="M1279.54,126.54c-1.23,0-2.23-0.35-3-1.04s-1.16-1.62-1.16-2.78c0-0.79,0.21-1.49,0.64-2.1    s1.07-1.09,1.92-1.44s1.93-0.52,3.22-0.52h1.32v-0.75c0-0.51-0.14-0.94-0.43-1.29s-0.75-0.53-1.37-0.53    c-0.27,0-0.51,0.03-0.74,0.1s-0.44,0.16-0.63,0.29l-0.28,1.62h-2.89l-0.06-3.53c0.72-0.32,1.47-0.6,2.26-0.83s1.66-0.35,2.63-0.35    c1.73,0,3.1,0.4,4.11,1.19s1.52,1.92,1.52,3.39v4.68c0,0.18,0,0.36,0.01,0.53s0.02,0.34,0.05,0.49l1.37,0.23v2.4h-4.8    c-0.1-0.14-0.21-0.33-0.33-0.56s-0.2-0.47-0.25-0.7c-0.38,0.48-0.81,0.85-1.29,1.11S1280.28,126.54,1279.54,126.54z     M1280.81,123.63c0.3,0,0.6-0.06,0.9-0.18s0.56-0.3,0.78-0.54v-1.83h-1.28c-0.55,0-0.98,0.12-1.28,0.36s-0.45,0.56-0.45,0.96    c0,0.38,0.12,0.68,0.38,0.9S1280.42,123.63,1280.81,123.63z"
   id="path92" />
	</g>
	<g
   id="g118">
		<rect
   x="1238"
   y="143"
   class="st4"
   width="230"
   height="158"
   id="rect96" />
		<line
   class="st4"
   x1="1238"
   y1="274.67"
   x2="1468"
   y2="274.67"
   id="line98" />
		<line
   class="st4"
   x1="1238"
   y1="248.33"
   x2="1468"
   y2="248.33"
   id="line100" />
		<line
   class="st4"
   x1="1238"
   y1="222"
   x2="1468"
   y2="222"
   id="line102" />
		<line
   class="st4"
   x1="1238"
   y1="195.67"
   x2="1468"
   y2="195.67"
   id="line104" />
		<line
   class="st4"
   x1="1238"
   y1="169.33"
   x2="1468"
   y2="169.33"
   id="line106" />
		<line
   class="st4"
   x1="1429.67"
   y1="143"
   x2="1429.67"
   y2="301"
   id="line108" />
		<line
   class="st4"
   x1="1391.33"
   y1="143"
   x2="1391.33"
   y2="301"
   id="line110" />
		<line
   class="st4"
   x1="1353"
   y1="143"
   x2="1353"
   y2="301"
   id="line112" />
		<line
   class="st4"
   x1="1314.67"
   y1="143"
   x2="1314.67"
   y2="301"
   id="line114" />
		<line
   class="st4"
   x1="1276.33"
   y1="143"
   x2="1276.33"
   y2="301"
   id="line116" />
	</g>
</g>
<g
   id="g264">
	<rect
   x="21"
   y="52"
   class="st1"
   width="495"
   height="285"
   id="rect122" />
	<rect
   x="45"
   y="96"
   class="st2"
   width="165"
   height="220"
   id="rect124" />
	<rect
   x="232"
   y="96"
   transform="matrix(-1 -1.224647e-16 1.224647e-16 -1 724 412)"
   class="st2"
   width="260"
   height="220"
   id="rect126" />
	<g
   id="g140">
		<path
   class="st3"
   d="M58.47,126.29v-2.4l1.77-0.38v-11.5l-1.77-0.38v-2.41h7.65v2.41l-1.77,0.38v4.31h6.21v-4.31l-1.77-0.38v-2.41    h1.77h4.1h1.77v2.41l-1.77,0.38v11.5l1.77,0.38v2.4h-7.64v-2.4l1.77-0.38v-4.03h-6.21v4.03l1.77,0.38v2.4H58.47z"
   id="path128" />
		<path
   class="st3"
   d="M83.82,126.54c-1.24,0-2.33-0.27-3.25-0.8s-1.64-1.27-2.16-2.2s-0.77-1.98-0.77-3.15v-0.43    c0-1.29,0.23-2.43,0.68-3.42s1.12-1.77,1.99-2.33s1.95-0.83,3.22-0.83c1.15,0,2.12,0.22,2.91,0.66s1.4,1.09,1.81,1.95    s0.62,1.91,0.62,3.16v2.12h-6.97l-0.01,0.08c0.06,0.4,0.2,0.75,0.4,1.06s0.49,0.55,0.86,0.73s0.82,0.27,1.36,0.27    c0.53,0,1.05-0.06,1.56-0.18s1.05-0.31,1.62-0.58l0.94,2.48c-0.57,0.41-1.27,0.74-2.09,1.01S84.82,126.54,83.82,126.54z     M81.91,118.72h3.22v-0.3c0-0.45-0.04-0.83-0.13-1.14s-0.24-0.54-0.46-0.69s-0.52-0.23-0.9-0.23c-0.41,0-0.74,0.1-0.99,0.3    s-0.43,0.47-0.54,0.82s-0.19,0.74-0.24,1.19L81.91,118.72z"
   id="path130" />
		<path
   class="st3"
   d="M94.56,126.54c-1.23,0-2.23-0.35-3-1.04s-1.16-1.62-1.16-2.78c0-0.79,0.21-1.49,0.64-2.1s1.07-1.09,1.92-1.44    s1.93-0.52,3.22-0.52h1.32v-0.75c0-0.51-0.14-0.94-0.43-1.29s-0.75-0.53-1.37-0.53c-0.27,0-0.51,0.03-0.74,0.1    s-0.44,0.16-0.63,0.29l-0.28,1.62h-2.89l-0.06-3.53c0.72-0.32,1.47-0.6,2.26-0.83s1.66-0.35,2.63-0.35c1.73,0,3.1,0.4,4.11,1.19    s1.52,1.92,1.52,3.39v4.68c0,0.18,0,0.36,0.01,0.53s0.02,0.34,0.05,0.49l1.37,0.23v2.4h-4.8c-0.1-0.14-0.21-0.33-0.33-0.56    s-0.2-0.47-0.25-0.7c-0.38,0.48-0.81,0.85-1.29,1.11S95.3,126.54,94.56,126.54z M95.83,123.63c0.3,0,0.6-0.06,0.9-0.18    s0.56-0.3,0.78-0.54v-1.83h-1.28c-0.55,0-0.98,0.12-1.28,0.36s-0.45,0.56-0.45,0.96c0,0.38,0.12,0.68,0.38,0.9    S95.44,123.63,95.83,123.63z"
   id="path132" />
		<path
   class="st3"
   d="M108.72,126.54c-0.99,0-1.85-0.26-2.56-0.79s-1.26-1.26-1.64-2.21s-0.57-2.06-0.57-3.32v-0.25    c0-1.32,0.19-2.47,0.57-3.46s0.93-1.76,1.63-2.31s1.54-0.83,2.51-0.83c0.67,0,1.25,0.14,1.74,0.42s0.92,0.67,1.28,1.17v-4.16    l-1.78-0.38v-2.41h1.78h4.11v15.5l1.48,0.38v2.4h-5.04l-0.3-1.57c-0.38,0.59-0.84,1.04-1.36,1.35S109.44,126.54,108.72,126.54z     M110,123.38c0.34,0,0.66-0.07,0.96-0.2s0.54-0.33,0.74-0.6v-5.07c-0.2-0.32-0.44-0.56-0.72-0.73s-0.6-0.25-0.96-0.25    c-0.47,0-0.85,0.14-1.14,0.43s-0.5,0.69-0.63,1.21s-0.19,1.12-0.19,1.8v0.25c0,1.01,0.14,1.79,0.42,2.34S109.27,123.38,110,123.38    z"
   id="path134" />
		<path
   class="st3"
   d="M124.26,126.54c-1.24,0-2.33-0.27-3.25-0.8s-1.64-1.27-2.16-2.2s-0.77-1.98-0.77-3.15v-0.43    c0-1.29,0.23-2.43,0.68-3.42s1.12-1.77,1.99-2.33s1.95-0.83,3.22-0.83c1.15,0,2.12,0.22,2.91,0.66s1.4,1.09,1.81,1.95    s0.62,1.91,0.62,3.16v2.12h-6.97l-0.01,0.08c0.06,0.4,0.2,0.75,0.4,1.06s0.49,0.55,0.86,0.73s0.82,0.27,1.36,0.27    c0.53,0,1.05-0.06,1.56-0.18s1.05-0.31,1.62-0.58l0.94,2.48c-0.57,0.41-1.27,0.74-2.09,1.01S125.27,126.54,124.26,126.54z     M122.35,118.72h3.22v-0.3c0-0.45-0.04-0.83-0.13-1.14s-0.24-0.54-0.46-0.69s-0.52-0.23-0.9-0.23c-0.41,0-0.74,0.1-0.99,0.3    s-0.43,0.47-0.54,0.82s-0.19,0.74-0.24,1.19L122.35,118.72z"
   id="path136" />
		<path
   class="st3"
   d="M131.21,126.29v-2.4l1.48-0.38v-7.11l-1.76-0.38v-2.41h5.64l0.09,1.55l0.02,0.32    c0.28-0.72,0.63-1.25,1.05-1.59s0.94-0.51,1.56-0.51c0.17,0,0.38,0.01,0.61,0.04s0.47,0.08,0.71,0.15l-0.41,3.77l-1.76-0.08    c-0.41-0.02-0.72,0.03-0.96,0.13s-0.46,0.28-0.7,0.52v5.6l1.48,0.38v2.4H131.21z"
   id="path138" />
	</g>
	<g
   id="g178">
		<path
   class="st3"
   d="M53.82,83.54c-1.18,0-2.26-0.22-3.25-0.65s-1.85-1.04-2.57-1.82s-1.29-1.7-1.68-2.75s-0.59-2.19-0.59-3.43    v-0.27c0-1.23,0.2-2.36,0.59-3.41s0.95-1.96,1.68-2.74s1.58-1.39,2.56-1.83s2.07-0.66,3.25-0.66c1.16,0,2.23,0.22,3.22,0.66    s1.86,1.05,2.61,1.83s1.33,1.7,1.74,2.74s0.62,2.18,0.62,3.41v0.27c0,1.23-0.21,2.38-0.62,3.43s-0.99,1.97-1.73,2.75    s-1.61,1.39-2.6,1.82S54.97,83.54,53.82,83.54z M53.82,80.42c0.86,0,1.59-0.23,2.2-0.69s1.07-1.11,1.39-1.93s0.48-1.8,0.48-2.91    V74.6c0-1.09-0.16-2.04-0.49-2.87s-0.79-1.47-1.4-1.93s-1.35-0.69-2.21-0.69c-0.91,0-1.66,0.23-2.24,0.68s-1.01,1.09-1.29,1.91    s-0.42,1.79-0.42,2.89v0.29c0,1.11,0.14,2.08,0.43,2.91s0.72,1.48,1.31,1.93S52.92,80.42,53.82,80.42z"
   id="path142" />
		<path
   class="st3"
   d="M63.11,83.29v-2.4l1.79-0.43V69.09l-1.79-0.45v-2.41h1.79h6.2c1.54,0,2.9,0.36,4.09,1.07s2.12,1.7,2.79,2.96    s1.01,2.72,1.01,4.37v0.27c0,1.65-0.34,3.1-1.01,4.37s-1.6,2.25-2.79,2.96s-2.55,1.07-4.09,1.07H63.11z M69.01,80.17h1.88    c0.87,0,1.59-0.22,2.18-0.66s1.03-1.05,1.33-1.85s0.45-1.72,0.45-2.77v-0.28c0-1.05-0.15-1.98-0.45-2.77s-0.74-1.4-1.33-1.84    s-1.31-0.66-2.18-0.66h-1.88V80.17z"
   id="path144" />
		<path
   class="st3"
   d="M80.33,83.29v-2.4l1.77-0.38v-11.5l-1.77-0.38v-2.41h1.77h5.95c2.15,0,3.82,0.39,5.03,1.18s1.8,1.96,1.8,3.53    c0,0.8-0.19,1.53-0.57,2.16s-0.97,1.12-1.77,1.45c0.68,0.15,1.23,0.4,1.66,0.76s0.75,0.79,0.95,1.29s0.3,1.05,0.3,1.63    c0,1.67-0.56,2.93-1.68,3.79s-2.74,1.28-4.86,1.28H80.33z M86.21,73.31h1.66c0.97,0,1.69-0.15,2.17-0.46s0.72-0.79,0.72-1.44    c0-0.71-0.22-1.23-0.67-1.55s-1.13-0.49-2.04-0.49h-1.84V73.31z M86.21,80.16h2.71c0.81,0,1.42-0.16,1.83-0.48    s0.62-0.81,0.62-1.46c0-0.49-0.08-0.9-0.23-1.22s-0.4-0.57-0.73-0.73s-0.76-0.24-1.29-0.24h-2.91V80.16z"
   id="path146" />
		<path
   class="st3"
   d="M97.15,77.51v-3.15h7.15v3.15H97.15z"
   id="path148" />
		<path
   class="st3"
   d="M106.22,83.29v-2.64l5.5-5.79c0.49-0.56,0.88-1.06,1.17-1.49s0.5-0.82,0.63-1.18s0.19-0.71,0.19-1.04    c0-0.55-0.15-1.03-0.45-1.41s-0.74-0.58-1.34-0.58c-0.65,0-1.13,0.23-1.44,0.69s-0.47,1.07-0.47,1.85H106l-0.02-0.07    c-0.02-1.05,0.21-2.01,0.69-2.86s1.17-1.53,2.08-2.03s1.97-0.75,3.2-0.75s2.28,0.21,3.16,0.64s1.55,1.02,2.03,1.79    s0.71,1.67,0.71,2.7c0,0.7-0.12,1.35-0.36,1.94s-0.63,1.22-1.17,1.89s-1.27,1.48-2.17,2.44l-2.58,2.73l0.02,0.06h3.39l0.18-1.42    h3.08v4.54H106.22z"
   id="path150" />
		<path
   class="st3"
   d="M125.02,83.29v-2.4l1.76-0.38v-11.5l-1.76-0.38v-2.41h1.76h6.29l4.12,11.24h0.07l4.01-11.24h7.96v2.41    l-1.77,0.38v11.5l1.77,0.38v2.4h-7.64v-2.4l1.84-0.38v-2.23l0.09-8.03l-0.07-0.01l-4.83,13.04h-3.23l-4.9-12.89l-0.08,0.01    l0.28,7.31v2.79l1.98,0.38v2.4H125.02z"
   id="path152" />
		<path
   class="st3"
   d="M156.38,83.54c-1.24,0-2.33-0.27-3.25-0.8s-1.64-1.27-2.16-2.2s-0.77-1.98-0.77-3.15v-0.43    c0-1.29,0.23-2.43,0.68-3.42s1.12-1.77,1.99-2.33s1.95-0.83,3.22-0.83c1.15,0,2.12,0.22,2.91,0.66s1.4,1.09,1.81,1.95    s0.62,1.91,0.62,3.16v2.12h-6.97l-0.01,0.08c0.06,0.4,0.2,0.75,0.4,1.06s0.49,0.55,0.86,0.73s0.82,0.27,1.36,0.27    c0.53,0,1.05-0.06,1.56-0.18s1.05-0.31,1.62-0.58l0.94,2.48c-0.57,0.41-1.27,0.74-2.09,1.01S157.38,83.54,156.38,83.54z     M154.46,75.72h3.22v-0.3c0-0.45-0.04-0.83-0.13-1.14s-0.24-0.54-0.46-0.69s-0.52-0.23-0.9-0.23c-0.41,0-0.74,0.1-0.99,0.3    s-0.43,0.47-0.54,0.82s-0.19,0.74-0.24,1.19L154.46,75.72z"
   id="path154" />
		<path
   class="st3"
   d="M168.48,83.54c-1,0-1.93-0.09-2.79-0.28s-1.64-0.44-2.34-0.76l-0.05-3.95h2.78l0.47,1.84    c0.16,0.1,0.38,0.19,0.63,0.26s0.57,0.11,0.93,0.11c0.66,0,1.12-0.09,1.37-0.27s0.38-0.41,0.38-0.68c0-0.27-0.14-0.51-0.43-0.73    s-0.89-0.42-1.82-0.59c-1.48-0.29-2.58-0.78-3.28-1.48s-1.05-1.57-1.05-2.62c0-0.71,0.16-1.37,0.49-1.97s0.87-1.09,1.61-1.46    s1.74-0.56,2.99-0.56c0.95,0,1.86,0.08,2.72,0.25s1.57,0.37,2.13,0.62l-0.01,3.82h-2.77l-0.35-1.64    c-0.18-0.12-0.38-0.22-0.61-0.28s-0.48-0.09-0.76-0.09c-0.52,0-0.91,0.09-1.15,0.28s-0.36,0.43-0.36,0.73    c0,0.17,0.05,0.34,0.16,0.52s0.31,0.34,0.63,0.49s0.77,0.3,1.37,0.43c1.45,0.32,2.53,0.77,3.26,1.34s1.1,1.44,1.1,2.6    c0,1.25-0.45,2.24-1.34,2.97S170.18,83.54,168.48,83.54z"
   id="path156" />
		<path
   class="st3"
   d="M180.68,83.54c-1,0-1.93-0.09-2.79-0.28s-1.64-0.44-2.34-0.76l-0.05-3.95h2.78l0.47,1.84    c0.16,0.1,0.38,0.19,0.63,0.26s0.57,0.11,0.93,0.11c0.66,0,1.12-0.09,1.37-0.27s0.38-0.41,0.38-0.68c0-0.27-0.14-0.51-0.43-0.73    s-0.89-0.42-1.82-0.59c-1.48-0.29-2.58-0.78-3.28-1.48s-1.05-1.57-1.05-2.62c0-0.71,0.16-1.37,0.49-1.97s0.87-1.09,1.61-1.46    s1.74-0.56,2.99-0.56c0.95,0,1.86,0.08,2.72,0.25s1.57,0.37,2.13,0.62l-0.01,3.82h-2.77l-0.35-1.64    c-0.18-0.12-0.38-0.22-0.61-0.28s-0.48-0.09-0.76-0.09c-0.52,0-0.91,0.09-1.15,0.28s-0.36,0.43-0.36,0.73    c0,0.17,0.05,0.34,0.16,0.52s0.31,0.34,0.63,0.49s0.77,0.3,1.37,0.43c1.45,0.32,2.53,0.77,3.26,1.34s1.1,1.44,1.1,2.6    c0,1.25-0.45,2.24-1.34,2.97S182.38,83.54,180.68,83.54z"
   id="path158" />
		<path
   class="st3"
   d="M191.59,83.54c-1.23,0-2.23-0.35-3-1.04s-1.16-1.62-1.16-2.78c0-0.79,0.21-1.49,0.64-2.1s1.07-1.09,1.92-1.44    s1.93-0.52,3.22-0.52h1.32v-0.75c0-0.51-0.14-0.94-0.43-1.29s-0.75-0.53-1.37-0.53c-0.27,0-0.51,0.03-0.74,0.1    s-0.44,0.16-0.63,0.29l-0.28,1.62h-2.89l-0.06-3.53c0.72-0.32,1.47-0.6,2.26-0.83s1.66-0.35,2.63-0.35c1.73,0,3.1,0.4,4.11,1.19    s1.52,1.92,1.52,3.39v4.68c0,0.18,0,0.36,0.01,0.53s0.02,0.34,0.05,0.49l1.37,0.23v2.4h-4.8c-0.1-0.14-0.21-0.33-0.33-0.56    s-0.2-0.47-0.25-0.7c-0.38,0.48-0.81,0.85-1.29,1.11S192.32,83.54,191.59,83.54z M192.86,80.63c0.3,0,0.6-0.06,0.9-0.18    s0.56-0.3,0.78-0.54v-1.83h-1.28c-0.55,0-0.98,0.12-1.28,0.36s-0.45,0.56-0.45,0.96c0,0.38,0.12,0.68,0.38,0.9    S192.46,80.63,192.86,80.63z"
   id="path160" />
		<path
   class="st3"
   d="M206.54,88.41c-0.66,0-1.42-0.08-2.27-0.25s-1.6-0.4-2.25-0.71l0.66-2.84c0.62,0.24,1.24,0.43,1.87,0.56    s1.2,0.19,1.72,0.19c0.84,0,1.46-0.23,1.86-0.7s0.59-1.1,0.59-1.9v-0.6c-0.35,0.44-0.76,0.78-1.22,1.01s-1,0.36-1.6,0.36    c-1.03,0-1.91-0.26-2.65-0.79s-1.29-1.26-1.68-2.21s-0.58-2.06-0.58-3.32v-0.25c0-1.32,0.19-2.47,0.57-3.46s0.93-1.76,1.65-2.31    s1.57-0.83,2.56-0.83c0.73,0,1.36,0.16,1.88,0.48s0.96,0.77,1.32,1.35l0.26-1.59h3.62v12.18c0,1.12-0.26,2.11-0.77,2.95    s-1.24,1.5-2.18,1.97S207.83,88.41,206.54,88.41z M207.09,80.38c0.34,0,0.66-0.06,0.94-0.17s0.51-0.29,0.68-0.52v-5.31    c-0.17-0.28-0.4-0.49-0.68-0.64s-0.59-0.22-0.94-0.22c-0.49,0-0.88,0.14-1.18,0.43s-0.5,0.69-0.63,1.2s-0.19,1.12-0.19,1.82v0.25    c0,1.01,0.14,1.79,0.43,2.34S206.34,80.38,207.09,80.38z M212.36,73.45l-1.85-2.84h3.77v2.43L212.36,73.45z"
   id="path162" />
		<path
   class="st3"
   d="M221.34,83.54c-1.24,0-2.33-0.27-3.25-0.8s-1.64-1.27-2.16-2.2s-0.77-1.98-0.77-3.15v-0.43    c0-1.29,0.23-2.43,0.68-3.42s1.12-1.77,1.99-2.33s1.95-0.83,3.22-0.83c1.15,0,2.12,0.22,2.91,0.66s1.4,1.09,1.81,1.95    s0.62,1.91,0.62,3.16v2.12h-6.97l-0.01,0.08c0.06,0.4,0.2,0.75,0.4,1.06s0.49,0.55,0.86,0.73s0.82,0.27,1.36,0.27    c0.53,0,1.05-0.06,1.56-0.18s1.05-0.31,1.62-0.58l0.94,2.48c-0.57,0.41-1.27,0.74-2.09,1.01S222.35,83.54,221.34,83.54z     M219.43,75.72h3.22v-0.3c0-0.45-0.04-0.83-0.13-1.14s-0.24-0.54-0.46-0.69s-0.52-0.23-0.9-0.23c-0.41,0-0.74,0.1-0.99,0.3    s-0.43,0.47-0.54,0.82s-0.19,0.74-0.24,1.19L219.43,75.72z"
   id="path164" />
		<path
   class="st3"
   d="M240.97,83.54c-1.39,0-2.62-0.13-3.7-0.4s-2.15-0.77-3.22-1.5v-4.43h3.18l0.35,2.27    c0.25,0.28,0.69,0.52,1.32,0.71s1.32,0.29,2.07,0.29c0.52,0,0.96-0.06,1.31-0.19s0.62-0.32,0.8-0.57s0.27-0.55,0.27-0.9    c0-0.34-0.08-0.64-0.25-0.9s-0.44-0.52-0.83-0.76s-0.9-0.48-1.55-0.73c-1.46-0.47-2.66-0.95-3.6-1.43s-1.63-1.06-2.09-1.72    s-0.69-1.49-0.69-2.47c0-0.95,0.27-1.77,0.81-2.48s1.28-1.26,2.23-1.67s2.03-0.62,3.25-0.64c1.39-0.03,2.62,0.11,3.69,0.42    s2.02,0.78,2.84,1.4v4.11h-3.05l-0.48-2.29c-0.27-0.13-0.64-0.25-1.14-0.36s-1.02-0.16-1.57-0.16c-0.48,0-0.9,0.06-1.27,0.19    s-0.66,0.31-0.88,0.56s-0.32,0.56-0.32,0.94c0,0.3,0.09,0.58,0.27,0.81s0.5,0.48,0.95,0.71s1.09,0.51,1.9,0.83    c1.94,0.57,3.41,1.28,4.41,2.14s1.51,2.02,1.51,3.49c0,1.01-0.27,1.87-0.82,2.57s-1.31,1.25-2.29,1.62S242.27,83.54,240.97,83.54z    "
   id="path166" />
		<path
   class="st3"
   d="M253.9,83.56c-1.33,0-2.34-0.35-3.03-1.06s-1.04-1.83-1.04-3.36v-5.7h-1.58v-2.84h1.58v-3.13h4.09v3.13H256    v2.84h-2.07v5.68c0,0.41,0.09,0.7,0.28,0.87s0.45,0.25,0.77,0.25c0.14,0,0.28-0.01,0.42-0.02s0.28-0.04,0.42-0.06l0.28,3.07    c-0.36,0.1-0.72,0.18-1.08,0.24S254.28,83.56,253.9,83.56z"
   id="path168" />
		<path
   class="st3"
   d="M257.68,83.29v-2.4l1.48-0.38V73.4l-1.76-0.38v-2.41h5.64l0.09,1.55l0.02,0.32c0.28-0.72,0.63-1.25,1.05-1.59    s0.94-0.51,1.56-0.51c0.17,0,0.38,0.01,0.61,0.04s0.47,0.08,0.71,0.15l-0.41,3.77l-1.76-0.08c-0.41-0.02-0.72,0.03-0.96,0.13    s-0.46,0.28-0.7,0.52v5.6l1.48,0.38v2.4H257.68z"
   id="path170" />
		<path
   class="st3"
   d="M273.89,83.54c-1.24,0-2.33-0.27-3.25-0.8s-1.64-1.27-2.16-2.2s-0.77-1.98-0.77-3.15v-0.43    c0-1.29,0.23-2.43,0.68-3.42s1.12-1.77,1.99-2.33s1.95-0.83,3.22-0.83c1.15,0,2.12,0.22,2.91,0.66s1.4,1.09,1.81,1.95    s0.62,1.91,0.62,3.16v2.12h-6.97l-0.01,0.08c0.06,0.4,0.2,0.75,0.4,1.06s0.49,0.55,0.86,0.73s0.82,0.27,1.36,0.27    c0.53,0,1.05-0.06,1.56-0.18s1.05-0.31,1.62-0.58l0.94,2.48c-0.57,0.41-1.27,0.74-2.09,1.01S274.9,83.54,273.89,83.54z     M271.98,75.72h3.22v-0.3c0-0.45-0.04-0.83-0.13-1.14s-0.24-0.54-0.46-0.69s-0.52-0.23-0.9-0.23c-0.41,0-0.74,0.1-0.99,0.3    s-0.43,0.47-0.54,0.82s-0.19,0.74-0.24,1.19L271.98,75.72z"
   id="path172" />
		<path
   class="st3"
   d="M284.64,83.54c-1.23,0-2.23-0.35-3-1.04s-1.16-1.62-1.16-2.78c0-0.79,0.21-1.49,0.64-2.1s1.07-1.09,1.92-1.44    s1.93-0.52,3.22-0.52h1.32v-0.75c0-0.51-0.14-0.94-0.43-1.29s-0.75-0.53-1.37-0.53c-0.27,0-0.51,0.03-0.74,0.1    s-0.44,0.16-0.63,0.29l-0.28,1.62h-2.89l-0.06-3.53c0.72-0.32,1.47-0.6,2.26-0.83s1.66-0.35,2.63-0.35c1.73,0,3.1,0.4,4.11,1.19    s1.52,1.92,1.52,3.39v4.68c0,0.18,0,0.36,0.01,0.53s0.02,0.34,0.05,0.49l1.37,0.23v2.4h-4.8c-0.1-0.14-0.21-0.33-0.33-0.56    s-0.2-0.47-0.25-0.7c-0.38,0.48-0.81,0.85-1.29,1.11S285.37,83.54,284.64,83.54z M285.9,80.63c0.3,0,0.6-0.06,0.9-0.18    s0.56-0.3,0.78-0.54v-1.83h-1.28c-0.55,0-0.98,0.12-1.28,0.36s-0.45,0.56-0.45,0.96c0,0.38,0.12,0.68,0.38,0.9    S285.51,80.63,285.9,80.63z"
   id="path174" />
		<path
   class="st3"
   d="M293.77,83.29v-2.4l1.5-0.38V73.4l-1.78-0.38v-2.41h5.64l0.13,1.69c0.41-0.61,0.92-1.08,1.51-1.42    s1.28-0.5,2.06-0.5c0.79,0,1.47,0.17,2.03,0.51s0.99,0.86,1.28,1.55c0.38-0.66,0.88-1.16,1.48-1.52s1.32-0.54,2.14-0.54    c1.23,0,2.19,0.41,2.89,1.24s1.05,2.1,1.05,3.82v5.07l1.5,0.38v2.4h-6.81v-2.4l1.21-0.38v-5.07c0-0.74-0.12-1.25-0.35-1.51    s-0.56-0.4-1-0.4c-0.36,0-0.68,0.07-0.97,0.21s-0.54,0.33-0.76,0.59v6.19l1.05,0.38v2.4h-6.2v-2.4l1.05-0.38v-5.07    c0-0.74-0.11-1.25-0.34-1.51s-0.57-0.4-1.02-0.4c-0.35,0-0.67,0.07-0.96,0.21s-0.54,0.34-0.76,0.6v6.18l1.21,0.38v2.4H293.77z"
   id="path176" />
	</g>
	<g
   id="g228">
		<path
   class="st3"
   d="M60.41,159.9v-5.1h6.13v5.1H60.41z"
   id="path180" />
		<path
   class="st3"
   d="M81.6,165.51c-1.47,0-2.73-0.31-3.77-0.94c-1.04-0.63-1.84-1.5-2.39-2.62s-0.83-2.43-0.83-3.92v-0.38    c0-1.46,0.27-2.75,0.82-3.87c0.55-1.12,1.33-2.01,2.35-2.66c1.02-0.65,2.24-0.97,3.65-0.97c0.99,0,1.91,0.15,2.76,0.44    s1.59,0.71,2.21,1.24v3.45h-1.97l-0.27-2.31c-0.23-0.16-0.48-0.3-0.75-0.42s-0.57-0.21-0.9-0.27c-0.33-0.06-0.68-0.09-1.06-0.09    c-0.9,0-1.66,0.23-2.3,0.68c-0.64,0.45-1.13,1.08-1.46,1.9s-0.5,1.77-0.5,2.86v0.4c0,1.13,0.18,2.11,0.53,2.93    c0.36,0.82,0.87,1.44,1.53,1.88c0.67,0.44,1.46,0.66,2.39,0.66c0.45,0,0.9-0.05,1.34-0.16c0.44-0.11,0.83-0.24,1.16-0.42    l0.28-2.09h1.95v3.42c-0.57,0.38-1.28,0.68-2.11,0.91C83.45,165.39,82.56,165.51,81.6,165.51z"
   id="path182" />
		<path
   class="st3"
   d="M93.24,165.51c-1.07,0-1.98-0.24-2.75-0.72s-1.35-1.14-1.76-1.99c-0.41-0.85-0.62-1.83-0.62-2.94v-0.22    c0-1.1,0.21-2.07,0.62-2.92s1-1.51,1.76-2s1.67-0.73,2.73-0.73c1.07,0,1.98,0.24,2.75,0.72c0.77,0.48,1.35,1.15,1.76,1.99    s0.62,1.83,0.62,2.93v0.22c0,1.11-0.21,2.09-0.62,2.94c-0.41,0.85-1,1.52-1.76,1.99S94.3,165.51,93.24,165.51z M93.24,163.52    c0.57,0,1.05-0.16,1.42-0.47s0.65-0.74,0.84-1.29s0.28-1.18,0.28-1.9v-0.22c0-0.71-0.09-1.34-0.28-1.89s-0.46-0.98-0.84-1.29    s-0.85-0.47-1.44-0.47c-0.57,0-1.04,0.16-1.42,0.47s-0.65,0.75-0.84,1.29s-0.27,1.18-0.27,1.89v0.22c0,0.72,0.09,1.35,0.27,1.9    s0.46,0.98,0.84,1.29C92.19,163.36,92.66,163.52,93.24,163.52z"
   id="path184" />
		<path
   class="st3"
   d="M99.43,165.29v-1.58l1.55-0.31v-12.21l-1.64-0.31v-1.59h4.21v14.11l1.55,0.31v1.58H99.43z"
   id="path186" />
		<path
   class="st3"
   d="M111.05,165.51c-1.19,0-2.12-0.38-2.78-1.13c-0.67-0.75-1-1.93-1-3.52v-4.76l-1.25-0.31v-1.59h1.25h2.58v6.68    c0,0.96,0.15,1.63,0.46,2.02c0.3,0.39,0.77,0.58,1.41,0.58c0.56,0,1.04-0.11,1.43-0.33s0.71-0.54,0.94-0.95v-6.09l-1.39-0.31    v-1.59h1.39h2.58v9.21l1.31,0.31v1.58h-3.6l-0.17-1.51c-0.35,0.55-0.79,0.98-1.33,1.28C112.34,165.36,111.73,165.51,111.05,165.51    z"
   id="path188" />
		<path
   class="st3"
   d="M119.14,165.29v-1.58l1.55-0.31v-7.31l-1.63-0.31v-1.59h4l0.12,1.46c0.36-0.53,0.81-0.93,1.36-1.23    c0.54-0.29,1.17-0.44,1.89-0.44c0.72,0,1.34,0.16,1.86,0.49c0.52,0.32,0.91,0.81,1.17,1.47c0.34-0.61,0.79-1.09,1.35-1.44    c0.56-0.35,1.21-0.52,1.96-0.52c1.11,0,1.99,0.38,2.63,1.14c0.64,0.76,0.96,1.91,0.96,3.45v4.83l1.55,0.31v1.58h-5.59v-1.58    l1.46-0.31v-4.84c0-0.94-0.16-1.59-0.47-1.97s-0.78-0.56-1.38-0.56c-0.57,0-1.03,0.18-1.4,0.54c-0.37,0.36-0.6,0.82-0.71,1.38    v5.44l1.4,0.31v1.58h-5.38v-1.58l1.4-0.31v-4.84c0-0.9-0.16-1.55-0.48-1.94c-0.32-0.39-0.79-0.59-1.39-0.59    c-0.51,0-0.93,0.1-1.28,0.31c-0.35,0.21-0.62,0.5-0.83,0.87v6.19l1.45,0.31v1.58H119.14z"
   id="path190" />
		<path
   class="st3"
   d="M139.05,165.29v-1.58l1.54-0.31v-7.31l-1.62-0.31v-1.59h4l0.13,1.61c0.37-0.57,0.83-1.02,1.38-1.34    c0.55-0.32,1.17-0.48,1.87-0.48c1.14,0,2.03,0.35,2.67,1.05c0.64,0.7,0.95,1.8,0.95,3.29v5.08l1.54,0.31v1.58h-5.57v-1.58    l1.45-0.31v-5.06c0-0.84-0.17-1.44-0.5-1.79c-0.33-0.35-0.83-0.53-1.5-0.53c-0.5,0-0.94,0.11-1.31,0.33    c-0.37,0.22-0.68,0.53-0.91,0.93v6.11l1.4,0.31v1.58H139.05z"
   id="path192" />
		<path
   class="st3"
   d="M157.33,165.51c-0.79,0-1.53-0.08-2.22-0.23c-0.69-0.15-1.38-0.38-2.07-0.68l-0.03-2.93h1.86l0.39,1.6    c0.29,0.13,0.6,0.23,0.91,0.3c0.31,0.07,0.66,0.11,1.04,0.11c0.74,0,1.26-0.13,1.56-0.39c0.3-0.26,0.46-0.58,0.46-0.96    c0-0.37-0.16-0.69-0.48-0.95c-0.32-0.26-0.92-0.49-1.82-0.68c-1.33-0.29-2.3-0.71-2.93-1.26c-0.62-0.55-0.94-1.27-0.94-2.15    c0-0.61,0.16-1.16,0.49-1.65s0.8-0.89,1.44-1.18c0.63-0.3,1.41-0.45,2.33-0.45c0.84,0,1.59,0.09,2.24,0.26    c0.65,0.17,1.21,0.41,1.67,0.69l0.06,2.82h-1.84l-0.32-1.47c-0.21-0.15-0.46-0.27-0.74-0.35s-0.6-0.12-0.96-0.12    c-0.57,0-1.02,0.12-1.34,0.37c-0.33,0.25-0.49,0.56-0.49,0.94c0,0.22,0.05,0.42,0.16,0.59c0.11,0.18,0.31,0.34,0.62,0.49    c0.3,0.15,0.75,0.29,1.34,0.43c1.44,0.33,2.47,0.77,3.1,1.31s0.93,1.25,0.93,2.14c0,0.99-0.36,1.8-1.09,2.44    S158.82,165.51,157.33,165.51z"
   id="path194" />
		<path
   class="st3"
   d="M60.41,185.1v-5.1h6.13v5.1H60.41z"
   id="path196" />
		<path
   class="st3"
   d="M81.6,190.71c-1.47,0-2.73-0.31-3.77-0.94c-1.04-0.63-1.84-1.5-2.39-2.62s-0.83-2.43-0.83-3.92v-0.38    c0-1.46,0.27-2.75,0.82-3.87c0.55-1.12,1.33-2.01,2.35-2.66c1.02-0.65,2.24-0.97,3.65-0.97c0.99,0,1.91,0.15,2.76,0.44    s1.59,0.71,2.21,1.24v3.45h-1.97l-0.27-2.31c-0.23-0.16-0.48-0.3-0.75-0.42s-0.57-0.21-0.9-0.27c-0.33-0.06-0.68-0.09-1.06-0.09    c-0.9,0-1.66,0.23-2.3,0.68c-0.64,0.45-1.13,1.08-1.46,1.9s-0.5,1.77-0.5,2.86v0.4c0,1.13,0.18,2.11,0.53,2.93    c0.36,0.82,0.87,1.44,1.53,1.88c0.67,0.44,1.46,0.66,2.39,0.66c0.45,0,0.9-0.05,1.34-0.16c0.44-0.11,0.83-0.24,1.16-0.42    l0.28-2.09h1.95v3.42c-0.57,0.38-1.28,0.68-2.11,0.91C83.45,190.59,82.56,190.71,81.6,190.71z"
   id="path198" />
		<path
   class="st3"
   d="M93.24,190.71c-1.07,0-1.98-0.24-2.75-0.72s-1.35-1.14-1.76-1.99c-0.41-0.85-0.62-1.83-0.62-2.94v-0.22    c0-1.1,0.21-2.07,0.62-2.92s1-1.51,1.76-2s1.67-0.73,2.73-0.73c1.07,0,1.98,0.24,2.75,0.72c0.77,0.48,1.35,1.15,1.76,1.99    s0.62,1.83,0.62,2.93v0.22c0,1.11-0.21,2.09-0.62,2.94c-0.41,0.85-1,1.52-1.76,1.99S94.3,190.71,93.24,190.71z M93.24,188.72    c0.57,0,1.05-0.16,1.42-0.47s0.65-0.74,0.84-1.29s0.28-1.18,0.28-1.9v-0.22c0-0.71-0.09-1.34-0.28-1.89s-0.46-0.98-0.84-1.29    s-0.85-0.47-1.44-0.47c-0.57,0-1.04,0.16-1.42,0.47s-0.65,0.75-0.84,1.29s-0.27,1.18-0.27,1.89v0.22c0,0.72,0.09,1.35,0.27,1.9    s0.46,0.98,0.84,1.29C92.19,188.56,92.66,188.72,93.24,188.72z"
   id="path200" />
		<path
   class="st3"
   d="M104.3,190.71c-0.9,0-1.66-0.23-2.3-0.68s-1.12-1.08-1.46-1.89c-0.34-0.81-0.51-1.75-0.51-2.83v-0.22    c0-1.18,0.17-2.21,0.51-3.1c0.34-0.88,0.83-1.57,1.47-2.06s1.4-0.74,2.28-0.74c0.64,0,1.19,0.12,1.67,0.36    c0.47,0.24,0.88,0.59,1.23,1.04v-4.2l-1.63-0.31v-1.59h1.63h2.58v14.11l1.54,0.31v1.58h-3.77l-0.21-1.34    c-0.35,0.51-0.77,0.9-1.28,1.16C105.55,190.57,104.97,190.71,104.3,190.71z M105.03,188.67c0.49,0,0.92-0.11,1.27-0.32    c0.36-0.21,0.65-0.53,0.88-0.94v-4.89c-0.23-0.4-0.52-0.71-0.88-0.94c-0.36-0.23-0.78-0.34-1.26-0.34c-0.56,0-1.02,0.16-1.38,0.49    c-0.36,0.33-0.62,0.78-0.79,1.35c-0.17,0.58-0.26,1.25-0.26,2.02v0.22c0,1.03,0.19,1.84,0.57,2.45    C103.57,188.36,104.18,188.67,105.03,188.67z"
   id="path202" />
		<path
   class="st3"
   d="M117.59,190.71c-1.05,0-1.96-0.23-2.73-0.7c-0.78-0.47-1.38-1.12-1.8-1.94s-0.64-1.77-0.64-2.84v-0.43    c0-1.08,0.21-2.04,0.63-2.89c0.42-0.84,1-1.51,1.74-1.99c0.74-0.48,1.58-0.72,2.52-0.72c1,0,1.85,0.2,2.53,0.6    c0.68,0.4,1.19,0.98,1.54,1.72c0.35,0.74,0.52,1.63,0.52,2.67v1.48h-6.81l-0.02,0.05c0.03,0.58,0.15,1.1,0.36,1.55    c0.22,0.45,0.52,0.81,0.92,1.07c0.4,0.26,0.89,0.39,1.46,0.39c0.6,0,1.15-0.08,1.64-0.25s0.95-0.4,1.36-0.7l0.81,1.62    c-0.44,0.37-0.99,0.68-1.67,0.93S118.49,190.71,117.59,190.71z M115.13,183.85h4.3v-0.27c0-0.49-0.07-0.91-0.22-1.28    s-0.38-0.65-0.69-0.86c-0.31-0.21-0.71-0.31-1.18-0.31c-0.42,0-0.78,0.12-1.1,0.35s-0.57,0.55-0.75,0.95    c-0.19,0.4-0.32,0.85-0.38,1.36L115.13,183.85z"
   id="path204" />
		<path
   class="st3"
   d="M128.67,190.71c-1.04,0-1.94-0.24-2.7-0.71s-1.35-1.13-1.76-1.97s-0.62-1.8-0.62-2.9v-0.36    c0-1.07,0.21-2.03,0.62-2.87s1-1.5,1.76-1.98c0.76-0.48,1.66-0.72,2.7-0.72c0.95,0,1.78,0.15,2.48,0.46    c0.7,0.3,1.28,0.68,1.73,1.13l0.01,2.96h-1.97l-0.38-1.96c-0.19-0.2-0.43-0.36-0.73-0.48c-0.29-0.12-0.62-0.18-0.96-0.18    c-0.57,0-1.05,0.15-1.45,0.46c-0.4,0.31-0.7,0.73-0.91,1.28c-0.21,0.54-0.31,1.18-0.31,1.9v0.36c0,0.78,0.11,1.44,0.32,1.97    s0.51,0.94,0.89,1.21c0.38,0.27,0.81,0.41,1.31,0.41c0.59,0,1.08-0.16,1.45-0.48s0.62-0.77,0.73-1.33h2.24l0.03,0.06    c-0.08,0.72-0.3,1.37-0.64,1.93c-0.35,0.56-0.83,1.01-1.46,1.33C130.4,190.55,129.62,190.71,128.67,190.71z"
   id="path206" />
		<path
   class="st3"
   d="M139.22,190.71c-0.79,0-1.53-0.08-2.22-0.23c-0.69-0.15-1.38-0.38-2.07-0.68l-0.03-2.93h1.86l0.39,1.6    c0.29,0.13,0.6,0.23,0.91,0.3c0.31,0.07,0.66,0.11,1.04,0.11c0.74,0,1.26-0.13,1.56-0.39c0.3-0.26,0.46-0.58,0.46-0.96    c0-0.37-0.16-0.69-0.48-0.95c-0.32-0.26-0.92-0.49-1.82-0.68c-1.33-0.29-2.3-0.71-2.93-1.26c-0.62-0.55-0.94-1.27-0.94-2.15    c0-0.61,0.16-1.16,0.49-1.65s0.8-0.89,1.44-1.18c0.63-0.3,1.41-0.45,2.33-0.45c0.84,0,1.59,0.09,2.24,0.26    c0.65,0.17,1.21,0.41,1.67,0.69l0.06,2.82h-1.84l-0.32-1.47c-0.21-0.15-0.46-0.27-0.74-0.35s-0.6-0.12-0.96-0.12    c-0.57,0-1.02,0.12-1.34,0.37c-0.33,0.25-0.49,0.56-0.49,0.94c0,0.22,0.05,0.42,0.16,0.59c0.11,0.18,0.31,0.34,0.62,0.49    c0.3,0.15,0.75,0.29,1.34,0.43c1.44,0.33,2.47,0.77,3.1,1.31s0.93,1.25,0.93,2.14c0,0.99-0.36,1.8-1.09,2.44    S140.71,190.71,139.22,190.71z"
   id="path208" />
		<path
   class="st3"
   d="M60.41,210.3v-5.1h6.13v5.1H60.41z"
   id="path210" />
		<path
   class="st3"
   d="M74.7,215.69v-1.58l1.62-0.31v-11.15l-1.62-0.31v-1.59h1.62h3.7l4.38,10.8h0.06l4.25-10.8h5.38v1.59    l-1.63,0.31v11.15l1.63,0.31v1.58h-5.83v-1.58l1.71-0.31v-3.48l0.02-6.53l-0.05-0.01l-4.62,11.57h-1.88l-4.76-11.5l-0.05,0.01    l0.13,6.3v3.65l1.77,0.31v1.58H74.7z"
   id="path212" />
		<path
   class="st3"
   d="M100.68,215.91c-1.05,0-1.96-0.23-2.73-0.7c-0.78-0.47-1.38-1.12-1.8-1.94s-0.64-1.77-0.64-2.84v-0.43    c0-1.08,0.21-2.04,0.63-2.89c0.42-0.84,1-1.51,1.74-1.99c0.74-0.48,1.58-0.72,2.52-0.72c1,0,1.85,0.2,2.53,0.6    c0.68,0.4,1.19,0.98,1.54,1.72c0.35,0.74,0.52,1.63,0.52,2.67v1.48h-6.81l-0.02,0.05c0.03,0.58,0.15,1.1,0.36,1.55    c0.22,0.45,0.52,0.81,0.92,1.07c0.4,0.26,0.89,0.39,1.46,0.39c0.6,0,1.15-0.08,1.64-0.25s0.95-0.4,1.36-0.7l0.81,1.62    c-0.44,0.37-0.99,0.68-1.67,0.93S101.58,215.91,100.68,215.91z M98.22,209.05h4.3v-0.27c0-0.49-0.07-0.91-0.22-1.28    s-0.38-0.65-0.69-0.86c-0.31-0.21-0.71-0.31-1.18-0.31c-0.42,0-0.78,0.12-1.1,0.35s-0.57,0.55-0.75,0.95    c-0.19,0.4-0.32,0.85-0.38,1.36L98.22,209.05z"
   id="path214" />
		<path
   class="st3"
   d="M110.63,215.89c-0.94,0-1.68-0.26-2.2-0.79s-0.79-1.38-0.79-2.54v-6.11h-1.62v-1.85h1.62v-2.7h2.57v2.7h2.19    v1.85h-2.19v6.11c0,0.47,0.1,0.82,0.29,1.03c0.2,0.22,0.46,0.32,0.79,0.32c0.19,0,0.41-0.02,0.64-0.05    c0.24-0.03,0.43-0.07,0.57-0.1l0.27,1.81c-0.3,0.09-0.64,0.16-1.03,0.23C111.35,215.85,110.98,215.89,110.63,215.89z"
   id="path216" />
		<path
   class="st3"
   d="M117.63,215.91c-1.13,0-2.01-0.29-2.64-0.87s-0.94-1.38-0.94-2.4c0-0.7,0.19-1.31,0.57-1.84    s0.94-0.94,1.68-1.24c0.74-0.3,1.63-0.45,2.69-0.45h1.69v-0.93c0-0.59-0.18-1.06-0.53-1.4c-0.35-0.35-0.86-0.52-1.53-0.52    c-0.38,0-0.72,0.05-1.02,0.14c-0.29,0.09-0.56,0.22-0.79,0.39l-0.24,1.5h-1.9l-0.02-2.74c0.55-0.36,1.16-0.64,1.83-0.85    c0.67-0.21,1.42-0.31,2.24-0.31c1.41,0,2.52,0.33,3.33,0.99c0.81,0.66,1.22,1.6,1.22,2.84v4.89c0,0.15,0,0.3,0.01,0.44    c0,0.14,0.01,0.28,0.03,0.42l1.13,0.14v1.58h-3.37c-0.07-0.24-0.13-0.47-0.19-0.7s-0.1-0.45-0.13-0.68    c-0.37,0.46-0.82,0.85-1.34,1.14C118.88,215.76,118.29,215.91,117.63,215.91z M118.22,213.91c0.52,0,1-0.12,1.46-0.36    c0.45-0.24,0.79-0.55,1.02-0.92v-1.86h-1.72c-0.77,0-1.36,0.18-1.75,0.54c-0.39,0.36-0.59,0.78-0.59,1.26    c0,0.43,0.14,0.76,0.41,0.99S117.7,213.91,118.22,213.91z"
   id="path218" />
		<path
   class="st3"
   d="M130.01,215.91c-0.9,0-1.66-0.23-2.3-0.68s-1.12-1.08-1.46-1.89c-0.34-0.81-0.51-1.75-0.51-2.83v-0.22    c0-1.18,0.17-2.21,0.51-3.1c0.34-0.88,0.83-1.57,1.47-2.06s1.4-0.74,2.28-0.74c0.64,0,1.19,0.12,1.67,0.36    c0.47,0.24,0.88,0.59,1.23,1.04v-4.2l-1.63-0.31v-1.59h1.63h2.58v14.11l1.54,0.31v1.58h-3.77l-0.21-1.34    c-0.35,0.51-0.77,0.9-1.28,1.16C131.25,215.77,130.67,215.91,130.01,215.91z M130.74,213.87c0.49,0,0.92-0.11,1.27-0.32    c0.36-0.21,0.65-0.53,0.88-0.94v-4.89c-0.23-0.4-0.52-0.71-0.88-0.94c-0.36-0.23-0.78-0.34-1.26-0.34c-0.56,0-1.02,0.16-1.38,0.49    c-0.36,0.33-0.62,0.78-0.79,1.35c-0.17,0.58-0.26,1.25-0.26,2.02v0.22c0,1.03,0.19,1.84,0.57,2.45    C129.28,213.56,129.89,213.87,130.74,213.87z"
   id="path220" />
		<path
   class="st3"
   d="M141.81,215.91c-1.13,0-2.01-0.29-2.64-0.87s-0.94-1.38-0.94-2.4c0-0.7,0.19-1.31,0.57-1.84    s0.94-0.94,1.68-1.24c0.74-0.3,1.63-0.45,2.69-0.45h1.69v-0.93c0-0.59-0.18-1.06-0.53-1.4c-0.35-0.35-0.86-0.52-1.53-0.52    c-0.38,0-0.72,0.05-1.02,0.14c-0.29,0.09-0.56,0.22-0.79,0.39l-0.24,1.5h-1.9l-0.02-2.74c0.55-0.36,1.16-0.64,1.83-0.85    c0.67-0.21,1.42-0.31,2.24-0.31c1.41,0,2.52,0.33,3.33,0.99c0.81,0.66,1.22,1.6,1.22,2.84v4.89c0,0.15,0,0.3,0.01,0.44    c0,0.14,0.01,0.28,0.03,0.42l1.13,0.14v1.58h-3.37c-0.07-0.24-0.13-0.47-0.19-0.7s-0.1-0.45-0.13-0.68    c-0.37,0.46-0.82,0.85-1.34,1.14C143.06,215.76,142.47,215.91,141.81,215.91z M142.4,213.91c0.52,0,1-0.12,1.46-0.36    c0.45-0.24,0.79-0.55,1.02-0.92v-1.86h-1.72c-0.77,0-1.36,0.18-1.75,0.54c-0.39,0.36-0.59,0.78-0.59,1.26    c0,0.43,0.14,0.76,0.41,0.99S141.88,213.91,142.4,213.91z"
   id="path222" />
		<path
   class="st3"
   d="M154.05,215.89c-0.94,0-1.68-0.26-2.2-0.79s-0.79-1.38-0.79-2.54v-6.11h-1.62v-1.85h1.62v-2.7h2.57v2.7h2.19    v1.85h-2.19v6.11c0,0.47,0.1,0.82,0.29,1.03c0.2,0.22,0.46,0.32,0.79,0.32c0.19,0,0.41-0.02,0.64-0.05    c0.24-0.03,0.43-0.07,0.57-0.1l0.27,1.81c-0.3,0.09-0.64,0.16-1.03,0.23C154.78,215.85,154.41,215.89,154.05,215.89z"
   id="path224" />
		<path
   class="st3"
   d="M161.06,215.91c-1.13,0-2.01-0.29-2.64-0.87s-0.94-1.38-0.94-2.4c0-0.7,0.19-1.31,0.57-1.84    s0.94-0.94,1.68-1.24c0.74-0.3,1.63-0.45,2.69-0.45h1.69v-0.93c0-0.59-0.18-1.06-0.53-1.4c-0.35-0.35-0.86-0.52-1.53-0.52    c-0.38,0-0.72,0.05-1.02,0.14c-0.29,0.09-0.56,0.22-0.79,0.39l-0.24,1.5h-1.9l-0.02-2.74c0.55-0.36,1.16-0.64,1.83-0.85    c0.67-0.21,1.42-0.31,2.24-0.31c1.41,0,2.52,0.33,3.33,0.99c0.81,0.66,1.22,1.6,1.22,2.84v4.89c0,0.15,0,0.3,0.01,0.44    c0,0.14,0.01,0.28,0.03,0.42l1.13,0.14v1.58h-3.37c-0.07-0.24-0.13-0.47-0.19-0.7s-0.1-0.45-0.13-0.68    c-0.37,0.46-0.82,0.85-1.34,1.14C162.3,215.76,161.71,215.91,161.06,215.91z M161.64,213.91c0.52,0,1-0.12,1.46-0.36    c0.45-0.24,0.79-0.55,1.02-0.92v-1.86h-1.72c-0.77,0-1.36,0.18-1.75,0.54c-0.39,0.36-0.59,0.78-0.59,1.26    c0,0.43,0.14,0.76,0.41,0.99S161.13,213.91,161.64,213.91z"
   id="path226" />
	</g>
	<g
   id="g238">
		<path
   class="st3"
   d="M245.47,126.29v-2.4l1.79-0.43v-11.37l-1.79-0.45v-2.41h1.79h6.2c1.54,0,2.9,0.36,4.09,1.07    s2.12,1.7,2.79,2.96s1.01,2.72,1.01,4.37v0.27c0,1.65-0.34,3.1-1.01,4.37s-1.6,2.25-2.79,2.96s-2.55,1.07-4.09,1.07H245.47z     M251.38,123.17h1.88c0.87,0,1.59-0.22,2.18-0.66s1.03-1.05,1.33-1.85s0.45-1.72,0.45-2.77v-0.28c0-1.05-0.15-1.98-0.45-2.77    s-0.74-1.4-1.33-1.84s-1.31-0.66-2.18-0.66h-1.88V123.17z"
   id="path230" />
		<path
   class="st3"
   d="M267.22,126.54c-1.23,0-2.23-0.35-3-1.04s-1.16-1.62-1.16-2.78c0-0.79,0.21-1.49,0.64-2.1    s1.07-1.09,1.92-1.44s1.93-0.52,3.22-0.52h1.32v-0.75c0-0.51-0.14-0.94-0.43-1.29s-0.75-0.53-1.37-0.53    c-0.27,0-0.51,0.03-0.74,0.1s-0.44,0.16-0.63,0.29l-0.28,1.62h-2.89l-0.06-3.53c0.72-0.32,1.47-0.6,2.26-0.83s1.66-0.35,2.63-0.35    c1.73,0,3.1,0.4,4.11,1.19s1.52,1.92,1.52,3.39v4.68c0,0.18,0,0.36,0.01,0.53s0.02,0.34,0.05,0.49l1.37,0.23v2.4h-4.8    c-0.1-0.14-0.21-0.33-0.33-0.56s-0.2-0.47-0.25-0.7c-0.38,0.48-0.81,0.85-1.29,1.11S267.95,126.54,267.22,126.54z M268.48,123.63    c0.3,0,0.6-0.06,0.9-0.18s0.56-0.3,0.78-0.54v-1.83h-1.28c-0.55,0-0.98,0.12-1.28,0.36s-0.45,0.56-0.45,0.96    c0,0.38,0.12,0.68,0.38,0.9S268.09,123.63,268.48,123.63z"
   id="path232" />
		<path
   class="st3"
   d="M281.86,126.56c-1.33,0-2.34-0.35-3.03-1.06s-1.04-1.83-1.04-3.36v-5.7h-1.58v-2.84h1.58v-3.13h4.09v3.13    h2.07v2.84h-2.07v5.68c0,0.41,0.09,0.7,0.28,0.87s0.45,0.25,0.77,0.25c0.14,0,0.28-0.01,0.42-0.02s0.28-0.04,0.42-0.06l0.28,3.07    c-0.36,0.1-0.72,0.18-1.08,0.24S282.24,126.56,281.86,126.56z"
   id="path234" />
		<path
   class="st3"
   d="M289.54,126.54c-1.23,0-2.23-0.35-3-1.04s-1.16-1.62-1.16-2.78c0-0.79,0.21-1.49,0.64-2.1    s1.07-1.09,1.92-1.44s1.93-0.52,3.22-0.52h1.32v-0.75c0-0.51-0.14-0.94-0.43-1.29s-0.75-0.53-1.37-0.53    c-0.27,0-0.51,0.03-0.74,0.1s-0.44,0.16-0.63,0.29l-0.28,1.62h-2.89l-0.06-3.53c0.72-0.32,1.47-0.6,2.26-0.83s1.66-0.35,2.63-0.35    c1.73,0,3.1,0.4,4.11,1.19s1.52,1.92,1.52,3.39v4.68c0,0.18,0,0.36,0.01,0.53s0.02,0.34,0.05,0.49l1.37,0.23v2.4h-4.8    c-0.1-0.14-0.21-0.33-0.33-0.56s-0.2-0.47-0.25-0.7c-0.38,0.48-0.81,0.85-1.29,1.11S290.28,126.54,289.54,126.54z M290.81,123.63    c0.3,0,0.6-0.06,0.9-0.18s0.56-0.3,0.78-0.54v-1.83h-1.28c-0.55,0-0.98,0.12-1.28,0.36s-0.45,0.56-0.45,0.96    c0,0.38,0.12,0.68,0.38,0.9S290.42,123.63,290.81,123.63z"
   id="path236" />
	</g>
	<g
   id="g262">
		<rect
   x="248"
   y="143"
   class="st4"
   width="230"
   height="158"
   id="rect240" />
		<line
   class="st4"
   x1="248"
   y1="274.67"
   x2="478"
   y2="274.67"
   id="line242" />
		<line
   class="st4"
   x1="248"
   y1="248.33"
   x2="478"
   y2="248.33"
   id="line244" />
		<line
   class="st4"
   x1="248"
   y1="222"
   x2="478"
   y2="222"
   id="line246" />
		<line
   class="st4"
   x1="248"
   y1="195.67"
   x2="478"
   y2="195.67"
   id="line248" />
		<line
   class="st4"
   x1="248"
   y1="169.33"
   x2="478"
   y2="169.33"
   id="line250" />
		<line
   class="st4"
   x1="439.67"
   y1="143"
   x2="439.67"
   y2="301"
   id="line252" />
		<line
   class="st4"
   x1="401.33"
   y1="143"
   x2="401.33"
   y2="301"
   id="line254" />
		<line
   class="st4"
   x1="363"
   y1="143"
   x2="363"
   y2="301"
   id="line256" />
		<line
   class="st4"
   x1="324.67"
   y1="143"
   x2="324.67"
   y2="301"
   id="line258" />
		<line
   class="st4"
   x1="286.33"
   y1="143"
   x2="286.33"
   y2="301"
   id="line260" />
	</g>
</g>
<g
   id="Arrow_31">
</g>
<g
   id="g269">
	<rect
   x="516"
   y="52"
   class="st1"
   width="495"
   height="285"
   id="rect267" />
</g>
<g
   id="g289">
	<g
   id="g287">
		<linearGradient
   id="SVGID_1_"
   gradientUnits="userSpaceOnUse"
   x1="325"
   y1="76"
   x2="1496"
   y2="76">
			<stop
   offset="0"
   style="stop-color:#E6E6E6"
   id="stop271" />
			<stop
   offset="1"
   style="stop-color:#B3B3B3"
   id="stop273" />
		</linearGradient>
		<line
   class="st5"
   x1="325"
   y1="76"
   x2="1452.62"
   y2="76"
   id="line276" />
		<g
   id="g285">
			<linearGradient
   id="SVGID_2_"
   gradientUnits="userSpaceOnUse"
   x1="325"
   y1="76"
   x2="1496"
   y2="76">
				<stop
   offset="0"
   style="stop-color:#E6E6E6"
   id="stop278" />
				<stop
   offset="1"
   style="stop-color:#B3B3B3"
   id="stop280" />
			</linearGradient>
			<polygon
   class="st6"
   points="1442.92,90.22 1496,76.01 1442.92,61.78    "
   id="polygon283" />
		</g>
	</g>
</g>
<path
   class="st7"
   d="M1035,361H492V0h543V361z M1011,52H516v285h495V52z"
   id="path291" />
<g
   id="g305">
	<g
   id="g303">
		<path
   d="M516.47,35.29v-2.4l1.77-0.38v-11.5l-1.77-0.38v-2.41h14.05v5.03h-3.11l-0.08-1.86h-4.98v3.95h5.8v3.14h-5.8v4.03    l1.77,0.38v2.4H516.47z"
   id="path293" />
		<path
   d="M531.68,35.29v-2.4l1.48-0.38V25.4l-1.76-0.38v-2.41h5.64l0.09,1.55l0.02,0.32c0.28-0.72,0.63-1.25,1.05-1.59    s0.94-0.51,1.56-0.51c0.17,0,0.38,0.01,0.61,0.04s0.47,0.08,0.71,0.15l-0.41,3.77l-1.76-0.08c-0.41-0.02-0.72,0.03-0.96,0.13    s-0.46,0.28-0.7,0.52v5.6l1.48,0.38v2.4H531.68z"
   id="path295" />
		<path
   d="M545.82,35.54c-1.23,0-2.23-0.35-3-1.04s-1.16-1.62-1.16-2.78c0-0.79,0.21-1.49,0.64-2.1s1.07-1.09,1.92-1.44    s1.93-0.52,3.22-0.52h1.32v-0.75c0-0.51-0.14-0.94-0.43-1.29s-0.75-0.53-1.37-0.53c-0.27,0-0.51,0.03-0.74,0.1    s-0.44,0.16-0.63,0.29l-0.28,1.62h-2.89l-0.06-3.53c0.72-0.32,1.47-0.6,2.26-0.83s1.66-0.35,2.63-0.35c1.73,0,3.1,0.4,4.11,1.19    s1.52,1.92,1.52,3.39v4.68c0,0.18,0,0.36,0.01,0.53s0.02,0.34,0.05,0.49l1.37,0.23v2.4h-4.8c-0.1-0.14-0.21-0.33-0.33-0.56    s-0.2-0.47-0.25-0.7c-0.38,0.48-0.81,0.85-1.29,1.11S546.56,35.54,545.82,35.54z M547.09,32.63c0.3,0,0.6-0.06,0.9-0.18    s0.56-0.3,0.78-0.54v-1.83h-1.28c-0.55,0-0.98,0.12-1.28,0.36s-0.45,0.56-0.45,0.96c0,0.38,0.12,0.68,0.38,0.9    S546.7,32.63,547.09,32.63z"
   id="path297" />
		<path
   d="M554.95,35.29v-2.4l1.5-0.38V25.4l-1.78-0.38v-2.41h5.64l0.13,1.69c0.41-0.61,0.92-1.08,1.51-1.42s1.28-0.5,2.06-0.5    c0.79,0,1.47,0.17,2.03,0.51s0.99,0.86,1.28,1.55c0.38-0.66,0.88-1.16,1.48-1.52s1.32-0.54,2.14-0.54c1.23,0,2.19,0.41,2.89,1.24    s1.05,2.1,1.05,3.82v5.07l1.5,0.38v2.4h-6.81v-2.4l1.21-0.38v-5.07c0-0.74-0.12-1.25-0.35-1.51s-0.56-0.4-1-0.4    c-0.36,0-0.68,0.07-0.97,0.21s-0.54,0.33-0.76,0.59v6.19l1.05,0.38v2.4h-6.2v-2.4l1.05-0.38v-5.07c0-0.74-0.11-1.25-0.34-1.51    s-0.57-0.4-1.02-0.4c-0.35,0-0.67,0.07-0.96,0.21s-0.54,0.34-0.76,0.6v6.18l1.21,0.38v2.4H554.95z"
   id="path299" />
		<path
   d="M583.37,35.54c-1.24,0-2.33-0.27-3.25-0.8s-1.64-1.27-2.16-2.2s-0.77-1.98-0.77-3.15v-0.43c0-1.29,0.23-2.43,0.68-3.42    s1.12-1.77,1.99-2.33s1.95-0.83,3.22-0.83c1.15,0,2.12,0.22,2.91,0.66s1.4,1.09,1.81,1.95s0.62,1.91,0.62,3.16v2.12h-6.97    l-0.01,0.08c0.06,0.4,0.2,0.75,0.4,1.06s0.49,0.55,0.86,0.73s0.82,0.27,1.36,0.27c0.53,0,1.05-0.06,1.56-0.18s1.05-0.31,1.62-0.58    l0.94,2.48c-0.57,0.41-1.27,0.74-2.09,1.01S584.38,35.54,583.37,35.54z M581.46,27.72h3.22v-0.3c0-0.45-0.04-0.83-0.13-1.14    s-0.24-0.54-0.46-0.69s-0.52-0.23-0.9-0.23c-0.41,0-0.74,0.1-0.99,0.3s-0.43,0.47-0.54,0.82s-0.19,0.74-0.24,1.19L581.46,27.72z"
   id="path301" />
	</g>
</g>
<g
   id="g325">
	<g
   id="g323">
		<linearGradient
   id="SVGID_3_"
   gradientUnits="userSpaceOnUse"
   x1="601"
   y1="27"
   x2="1011"
   y2="27">
			<stop
   offset="0"
   style="stop-color:#FF7BAC"
   id="stop307" />
			<stop
   offset="1"
   style="stop-color:#FFBFDC"
   id="stop309" />
		</linearGradient>
		<line
   class="st8"
   x1="601"
   y1="27"
   x2="967.62"
   y2="27"
   id="line312" />
		<g
   id="g321">
			<linearGradient
   id="SVGID_4_"
   gradientUnits="userSpaceOnUse"
   x1="601"
   y1="27"
   x2="1011"
   y2="27">
				<stop
   offset="0"
   style="stop-color:#FF7BAC"
   id="stop314" />
				<stop
   offset="1"
   style="stop-color:#FFBFDC"
   id="stop316" />
			</linearGradient>
			<polygon
   class="st9"
   points="957.92,41.22 1011,27.01 957.92,12.78    "
   id="polygon319" />
		</g>
	</g>
</g>
<rect
   x="727"
   y="465"
   transform="matrix(-1 -1.224647e-16 1.224647e-16 -1 1714 1107)"
   class="st10"
   width="260"
   height="177"
   id="rect327" />
<g
   id="g341">
	<path
   d="M740.38,629.29v-2.4l1.76-0.38v-11.5l-1.76-0.38v-2.41h1.76h6.29l4.12,11.24h0.07l4.01-11.24h7.96v2.41l-1.77,0.38v11.5   l1.77,0.38v2.4h-7.64v-2.4l1.84-0.38v-2.23l0.09-8.03l-0.07-0.01l-4.83,13.04h-3.23l-4.9-12.89l-0.08,0.01l0.28,7.31v2.79   l1.98,0.38v2.4H740.38z"
   id="path329" />
	<path
   d="M771.73,629.54c-1.24,0-2.33-0.27-3.25-0.8s-1.64-1.27-2.16-2.2s-0.77-1.98-0.77-3.15v-0.43c0-1.29,0.23-2.43,0.68-3.42   s1.12-1.77,1.99-2.33s1.95-0.83,3.22-0.83c1.15,0,2.12,0.22,2.91,0.66s1.4,1.09,1.81,1.95s0.62,1.91,0.62,3.16v2.12h-6.97   l-0.01,0.08c0.06,0.4,0.2,0.75,0.4,1.06s0.49,0.55,0.86,0.73s0.82,0.27,1.36,0.27c0.53,0,1.05-0.06,1.56-0.18s1.05-0.31,1.62-0.58   l0.94,2.48c-0.57,0.41-1.27,0.74-2.09,1.01S772.74,629.54,771.73,629.54z M769.82,621.72h3.22v-0.3c0-0.45-0.04-0.83-0.13-1.14   s-0.24-0.54-0.46-0.69s-0.52-0.23-0.9-0.23c-0.41,0-0.74,0.1-0.99,0.3s-0.43,0.47-0.54,0.82s-0.19,0.74-0.24,1.19L769.82,621.72z"
   id="path331" />
	<path
   d="M778.04,629.29v-2.4l1.5-0.38v-7.11l-1.78-0.38v-2.41h5.64l0.13,1.69c0.41-0.61,0.92-1.08,1.51-1.42s1.28-0.5,2.06-0.5   c0.79,0,1.47,0.17,2.03,0.51s0.99,0.86,1.28,1.55c0.38-0.66,0.88-1.16,1.48-1.52s1.32-0.54,2.14-0.54c1.23,0,2.19,0.41,2.89,1.24   s1.05,2.1,1.05,3.82v5.07l1.5,0.38v2.4h-6.81v-2.4l1.21-0.38v-5.07c0-0.74-0.12-1.25-0.35-1.51s-0.56-0.4-1-0.4   c-0.36,0-0.68,0.07-0.97,0.21s-0.54,0.33-0.76,0.59v6.19l1.05,0.38v2.4h-6.2v-2.4l1.05-0.38v-5.07c0-0.74-0.11-1.25-0.34-1.51   s-0.57-0.4-1.02-0.4c-0.35,0-0.67,0.07-0.96,0.21s-0.54,0.34-0.76,0.6v6.18l1.21,0.38v2.4H778.04z"
   id="path333" />
	<path
   d="M806.45,629.54c-1.3,0-2.42-0.27-3.35-0.81s-1.63-1.3-2.12-2.27s-0.73-2.1-0.73-3.38v-0.23c0-1.27,0.24-2.38,0.73-3.35   s1.19-1.73,2.12-2.28s2.03-0.83,3.33-0.83c1.3,0,2.42,0.27,3.33,0.82s1.62,1.3,2.11,2.27s0.73,2.09,0.73,3.36v0.23   c0,1.27-0.24,2.4-0.73,3.37s-1.19,1.73-2.11,2.28S807.73,629.54,806.45,629.54z M806.45,626.41c0.5,0,0.9-0.13,1.2-0.4   s0.52-0.65,0.66-1.15s0.21-1.09,0.21-1.78v-0.23c0-0.66-0.07-1.24-0.21-1.74s-0.36-0.88-0.66-1.16s-0.71-0.42-1.22-0.42   c-0.5,0-0.9,0.14-1.21,0.42s-0.52,0.66-0.66,1.16s-0.2,1.08-0.2,1.74v0.23c0,0.7,0.07,1.29,0.2,1.79s0.35,0.88,0.66,1.15   S805.93,626.41,806.45,626.41z"
   id="path335" />
	<path
   d="M814.39,629.29v-2.4l1.48-0.38v-7.11l-1.76-0.38v-2.41h5.64l0.09,1.55l0.02,0.32c0.28-0.72,0.63-1.25,1.05-1.59   s0.94-0.51,1.56-0.51c0.17,0,0.38,0.01,0.61,0.04s0.47,0.08,0.71,0.15l-0.41,3.77l-1.76-0.08c-0.41-0.02-0.72,0.03-0.96,0.13   s-0.46,0.28-0.7,0.52v5.6l1.48,0.38v2.4H814.39z"
   id="path337" />
	<path
   d="M828.77,634.41c-0.36,0-0.72-0.03-1.08-0.09s-0.74-0.14-1.12-0.25l0.49-2.94c0.16,0.04,0.31,0.07,0.45,0.09   s0.29,0.03,0.45,0.03c0.5,0,0.94-0.09,1.33-0.28s0.63-0.47,0.73-0.85l0.12-0.45l-4.08-10.41l-1.7-0.25v-2.41h7.62v2.41l-1.57,0.23   l1.7,5.13l0.02,0.09h0.07l2-5.26l-1.45-0.2v-2.41h6.93v2.41l-1.5,0.21l-4.75,11.91c-0.23,0.57-0.53,1.1-0.91,1.6   s-0.88,0.9-1.49,1.21S829.67,634.41,828.77,634.41z"
   id="path339" />
</g>
<g
   id="g369">
	<rect
   x="743"
   y="484"
   class="st11"
   width="225.12"
   height="112.56"
   id="rect343" />
	<line
   class="st11"
   x1="743"
   y1="574.05"
   x2="968.12"
   y2="574.05"
   id="line345" />
	<line
   class="st11"
   x1="743"
   y1="551.54"
   x2="968.12"
   y2="551.54"
   id="line347" />
	<line
   class="st11"
   x1="743"
   y1="529.02"
   x2="968.12"
   y2="529.02"
   id="line349" />
	<line
   class="st11"
   x1="743"
   y1="506.51"
   x2="968.12"
   y2="506.51"
   id="line351" />
	<line
   class="st11"
   x1="943.11"
   y1="484"
   x2="943.11"
   y2="596.56"
   id="line353" />
	<line
   class="st11"
   x1="918.09"
   y1="484"
   x2="918.09"
   y2="596.56"
   id="line355" />
	<line
   class="st11"
   x1="893.08"
   y1="484"
   x2="893.08"
   y2="596.56"
   id="line357" />
	<line
   class="st11"
   x1="868.07"
   y1="484"
   x2="868.07"
   y2="596.56"
   id="line359" />
	<line
   class="st11"
   x1="843.05"
   y1="484"
   x2="843.05"
   y2="596.56"
   id="line361" />
	<line
   class="st11"
   x1="818.04"
   y1="484"
   x2="818.04"
   y2="596.56"
   id="line363" />
	<line
   class="st11"
   x1="793.03"
   y1="484"
   x2="793.03"
   y2="596.56"
   id="line365" />
	<line
   class="st11"
   x1="768.01"
   y1="484"
   x2="768.01"
   y2="596.56"
   id="line367" />
</g>
<g
   id="g493">
	<rect
   x="540.13"
   y="96.09"
   class="st12"
   width="165"
   height="220"
   id="rect371" />
	
		<rect
   x="727.13"
   y="96.09"
   transform="matrix(-1 -1.224647e-16 1.224647e-16 -1 1714.2676 412.1787)"
   class="st13"
   width="260"
   height="220"
   id="rect373" />
	<g
   id="g387">
		<path
   d="M553.6,126.38v-2.4l1.77-0.38v-11.5l-1.77-0.38v-2.41h7.65v2.41l-1.77,0.38v4.31h6.21v-4.31l-1.77-0.38v-2.41h1.77h4.1    h1.77v2.41l-1.77,0.38v11.5l1.77,0.38v2.4h-7.64v-2.4l1.77-0.38v-4.03h-6.21v4.03l1.77,0.38v2.4H553.6z"
   id="path375" />
		<path
   d="M578.95,126.63c-1.24,0-2.33-0.27-3.25-0.8s-1.64-1.27-2.16-2.2s-0.77-1.98-0.77-3.15v-0.43c0-1.29,0.23-2.43,0.68-3.42    s1.12-1.77,1.99-2.33s1.95-0.83,3.22-0.83c1.15,0,2.12,0.22,2.91,0.66s1.4,1.09,1.81,1.95s0.62,1.91,0.62,3.16v2.12h-6.97    l-0.01,0.08c0.06,0.4,0.2,0.75,0.4,1.06s0.49,0.55,0.86,0.73s0.82,0.27,1.36,0.27c0.53,0,1.05-0.06,1.56-0.18s1.05-0.31,1.62-0.58    l0.94,2.48c-0.57,0.41-1.27,0.74-2.09,1.01S579.96,126.63,578.95,126.63z M577.04,118.81h3.22v-0.3c0-0.45-0.04-0.83-0.13-1.14    s-0.24-0.54-0.46-0.69s-0.52-0.23-0.9-0.23c-0.41,0-0.74,0.1-0.99,0.3s-0.43,0.47-0.54,0.82s-0.19,0.74-0.24,1.19L577.04,118.81z"
   id="path377" />
		<path
   d="M589.7,126.63c-1.23,0-2.23-0.35-3-1.04s-1.16-1.62-1.16-2.78c0-0.79,0.21-1.49,0.64-2.1s1.07-1.09,1.92-1.44    s1.93-0.52,3.22-0.52h1.32V118c0-0.51-0.14-0.94-0.43-1.29s-0.75-0.53-1.37-0.53c-0.27,0-0.51,0.03-0.74,0.1s-0.44,0.16-0.63,0.29    l-0.28,1.62h-2.89l-0.06-3.53c0.72-0.32,1.47-0.6,2.26-0.83s1.66-0.35,2.63-0.35c1.73,0,3.1,0.4,4.11,1.19s1.52,1.92,1.52,3.39    v4.68c0,0.18,0,0.36,0.01,0.53s0.02,0.34,0.05,0.49l1.37,0.23v2.4h-4.8c-0.1-0.14-0.21-0.33-0.33-0.56s-0.2-0.47-0.25-0.7    c-0.38,0.48-0.81,0.85-1.29,1.11S590.43,126.63,589.7,126.63z M590.96,123.72c0.3,0,0.6-0.06,0.9-0.18s0.56-0.3,0.78-0.54v-1.83    h-1.28c-0.55,0-0.98,0.12-1.28,0.36s-0.45,0.56-0.45,0.96c0,0.38,0.12,0.68,0.38,0.9S590.57,123.72,590.96,123.72z"
   id="path379" />
		<path
   d="M603.85,126.63c-0.99,0-1.85-0.26-2.56-0.79s-1.26-1.26-1.64-2.21s-0.57-2.06-0.57-3.32v-0.25c0-1.32,0.19-2.47,0.57-3.46    s0.93-1.76,1.63-2.31s1.54-0.83,2.51-0.83c0.67,0,1.25,0.14,1.74,0.42s0.92,0.67,1.28,1.17v-4.16l-1.78-0.38v-2.41h1.78h4.11v15.5    l1.48,0.38v2.4h-5.04l-0.3-1.57c-0.38,0.59-0.84,1.04-1.36,1.35S604.57,126.63,603.85,126.63z M605.13,123.47    c0.34,0,0.66-0.07,0.96-0.2s0.54-0.33,0.74-0.6v-5.07c-0.2-0.32-0.44-0.56-0.72-0.73s-0.6-0.25-0.96-0.25    c-0.47,0-0.85,0.14-1.14,0.43s-0.5,0.69-0.63,1.21s-0.19,1.12-0.19,1.8v0.25c0,1.01,0.14,1.79,0.42,2.34    S604.4,123.47,605.13,123.47z"
   id="path381" />
		<path
   d="M619.39,126.63c-1.24,0-2.33-0.27-3.25-0.8s-1.64-1.27-2.16-2.2s-0.77-1.98-0.77-3.15v-0.43c0-1.29,0.23-2.43,0.68-3.42    s1.12-1.77,1.99-2.33s1.95-0.83,3.22-0.83c1.15,0,2.12,0.22,2.91,0.66s1.4,1.09,1.81,1.95s0.62,1.91,0.62,3.16v2.12h-6.97    l-0.01,0.08c0.06,0.4,0.2,0.75,0.4,1.06s0.49,0.55,0.86,0.73s0.82,0.27,1.36,0.27c0.53,0,1.05-0.06,1.56-0.18s1.05-0.31,1.62-0.58    l0.94,2.48c-0.57,0.41-1.27,0.74-2.09,1.01S620.4,126.63,619.39,126.63z M617.48,118.81h3.22v-0.3c0-0.45-0.04-0.83-0.13-1.14    s-0.24-0.54-0.46-0.69s-0.52-0.23-0.9-0.23c-0.41,0-0.74,0.1-0.99,0.3s-0.43,0.47-0.54,0.82s-0.19,0.74-0.24,1.19L617.48,118.81z"
   id="path383" />
		<path
   d="M626.34,126.38v-2.4l1.48-0.38v-7.11l-1.76-0.38v-2.41h5.64l0.09,1.55l0.02,0.32c0.28-0.72,0.63-1.25,1.05-1.59    s0.94-0.51,1.56-0.51c0.17,0,0.38,0.01,0.61,0.04s0.47,0.08,0.71,0.15l-0.41,3.77l-1.76-0.08c-0.41-0.02-0.72,0.03-0.96,0.13    s-0.46,0.28-0.7,0.52v5.6l1.48,0.38v2.4H626.34z"
   id="path385" />
	</g>
	<g
   id="g437">
		<path
   d="M555.54,159.99v-5.1h6.13v5.1H555.54z"
   id="path389" />
		<path
   d="M576.73,165.6c-1.47,0-2.73-0.31-3.77-0.94c-1.04-0.63-1.84-1.5-2.39-2.62s-0.83-2.43-0.83-3.92v-0.38    c0-1.46,0.27-2.75,0.82-3.87c0.55-1.12,1.33-2.01,2.35-2.66c1.02-0.65,2.24-0.97,3.65-0.97c0.99,0,1.91,0.15,2.76,0.44    s1.59,0.71,2.21,1.24v3.45h-1.97l-0.27-2.31c-0.23-0.16-0.48-0.3-0.75-0.42s-0.57-0.21-0.9-0.27c-0.33-0.06-0.68-0.09-1.06-0.09    c-0.9,0-1.66,0.23-2.3,0.68c-0.64,0.45-1.13,1.08-1.46,1.9s-0.5,1.77-0.5,2.86v0.4c0,1.13,0.18,2.11,0.53,2.93    c0.36,0.82,0.87,1.44,1.53,1.88c0.67,0.44,1.46,0.66,2.39,0.66c0.45,0,0.9-0.05,1.34-0.16c0.44-0.11,0.83-0.24,1.16-0.42    l0.28-2.09h1.95v3.42c-0.57,0.38-1.28,0.68-2.11,0.91C578.58,165.48,577.69,165.6,576.73,165.6z"
   id="path391" />
		<path
   d="M588.37,165.6c-1.07,0-1.98-0.24-2.75-0.72s-1.35-1.14-1.76-1.99c-0.41-0.85-0.62-1.83-0.62-2.94v-0.22    c0-1.1,0.21-2.07,0.62-2.92s1-1.51,1.76-2s1.67-0.73,2.73-0.73c1.07,0,1.98,0.24,2.75,0.72c0.77,0.48,1.35,1.15,1.76,1.99    s0.62,1.83,0.62,2.93v0.22c0,1.11-0.21,2.09-0.62,2.94c-0.41,0.85-1,1.52-1.76,1.99S589.43,165.6,588.37,165.6z M588.37,163.61    c0.57,0,1.05-0.16,1.42-0.47s0.65-0.74,0.84-1.29s0.28-1.18,0.28-1.9v-0.22c0-0.71-0.09-1.34-0.28-1.89s-0.46-0.98-0.84-1.29    s-0.85-0.47-1.44-0.47c-0.57,0-1.04,0.16-1.42,0.47s-0.65,0.75-0.84,1.29s-0.27,1.18-0.27,1.89v0.22c0,0.72,0.09,1.35,0.27,1.9    s0.46,0.98,0.84,1.29C587.32,163.45,587.8,163.61,588.37,163.61z"
   id="path393" />
		<path
   d="M594.57,165.38v-1.58l1.55-0.31v-12.21l-1.64-0.31v-1.59h4.21v14.11l1.55,0.31v1.58H594.57z"
   id="path395" />
		<path
   d="M606.18,165.6c-1.19,0-2.12-0.38-2.78-1.13c-0.67-0.75-1-1.93-1-3.52v-4.76l-1.25-0.31v-1.59h1.25h2.58v6.68    c0,0.96,0.15,1.63,0.46,2.02c0.3,0.39,0.77,0.58,1.41,0.58c0.56,0,1.04-0.11,1.43-0.33s0.71-0.54,0.94-0.95v-6.09l-1.39-0.31    v-1.59h1.39h2.58v9.21l1.31,0.31v1.58h-3.6l-0.17-1.51c-0.35,0.55-0.79,0.98-1.33,1.28C607.48,165.45,606.87,165.6,606.18,165.6z"
   id="path397" />
		<path
   d="M614.27,165.38v-1.58l1.55-0.31v-7.31l-1.63-0.31v-1.59h4l0.12,1.46c0.36-0.53,0.81-0.93,1.36-1.23    c0.54-0.29,1.17-0.44,1.89-0.44c0.72,0,1.34,0.16,1.86,0.49c0.52,0.32,0.91,0.81,1.17,1.47c0.34-0.61,0.79-1.09,1.35-1.44    c0.56-0.35,1.21-0.52,1.96-0.52c1.11,0,1.99,0.38,2.63,1.14c0.64,0.76,0.96,1.91,0.96,3.45v4.83l1.55,0.31v1.58h-5.59v-1.58    l1.46-0.31v-4.84c0-0.94-0.16-1.59-0.47-1.97s-0.78-0.56-1.38-0.56c-0.57,0-1.03,0.18-1.4,0.54c-0.37,0.36-0.6,0.82-0.71,1.38    v5.44l1.4,0.31v1.58h-5.38v-1.58l1.4-0.31v-4.84c0-0.9-0.16-1.55-0.48-1.94c-0.32-0.39-0.79-0.59-1.39-0.59    c-0.51,0-0.93,0.1-1.28,0.31c-0.35,0.21-0.62,0.5-0.83,0.87v6.19l1.45,0.31v1.58H614.27z"
   id="path399" />
		<path
   d="M634.19,165.38v-1.58l1.54-0.31v-7.31l-1.62-0.31v-1.59h4l0.13,1.61c0.37-0.57,0.83-1.02,1.38-1.34    c0.55-0.32,1.17-0.48,1.87-0.48c1.14,0,2.03,0.35,2.67,1.05c0.64,0.7,0.95,1.8,0.95,3.29v5.08l1.54,0.31v1.58h-5.57v-1.58    l1.45-0.31v-5.06c0-0.84-0.17-1.44-0.5-1.79c-0.33-0.35-0.83-0.53-1.5-0.53c-0.5,0-0.94,0.11-1.31,0.33    c-0.37,0.22-0.68,0.53-0.91,0.93v6.11l1.4,0.31v1.58H634.19z"
   id="path401" />
		<path
   d="M652.46,165.6c-0.79,0-1.53-0.08-2.22-0.23c-0.69-0.15-1.38-0.38-2.07-0.68l-0.03-2.93H650l0.39,1.6    c0.29,0.13,0.6,0.23,0.91,0.3c0.31,0.07,0.66,0.11,1.04,0.11c0.74,0,1.26-0.13,1.56-0.39c0.3-0.26,0.46-0.58,0.46-0.96    c0-0.37-0.16-0.69-0.48-0.95c-0.32-0.26-0.92-0.49-1.82-0.68c-1.33-0.29-2.3-0.71-2.93-1.26c-0.62-0.55-0.94-1.27-0.94-2.15    c0-0.61,0.16-1.16,0.49-1.65s0.8-0.89,1.44-1.18c0.63-0.3,1.41-0.45,2.33-0.45c0.84,0,1.59,0.09,2.24,0.26    c0.65,0.17,1.21,0.41,1.67,0.69l0.06,2.82h-1.84l-0.32-1.47c-0.21-0.15-0.46-0.27-0.74-0.35s-0.6-0.12-0.96-0.12    c-0.57,0-1.02,0.12-1.34,0.37c-0.33,0.25-0.49,0.56-0.49,0.94c0,0.22,0.05,0.42,0.16,0.59c0.11,0.18,0.31,0.34,0.62,0.49    c0.3,0.15,0.75,0.29,1.34,0.43c1.44,0.33,2.47,0.77,3.1,1.31s0.93,1.25,0.93,2.14c0,0.99-0.36,1.8-1.09,2.44    S653.95,165.6,652.46,165.6z"
   id="path403" />
		<path
   d="M555.54,185.19v-5.1h6.13v5.1H555.54z"
   id="path405" />
		<path
   d="M576.73,190.8c-1.47,0-2.73-0.31-3.77-0.94c-1.04-0.63-1.84-1.5-2.39-2.62s-0.83-2.43-0.83-3.92v-0.38    c0-1.46,0.27-2.75,0.82-3.87c0.55-1.12,1.33-2.01,2.35-2.66c1.02-0.65,2.24-0.97,3.65-0.97c0.99,0,1.91,0.15,2.76,0.44    s1.59,0.71,2.21,1.24v3.45h-1.97l-0.27-2.31c-0.23-0.16-0.48-0.3-0.75-0.42s-0.57-0.21-0.9-0.27c-0.33-0.06-0.68-0.09-1.06-0.09    c-0.9,0-1.66,0.23-2.3,0.68c-0.64,0.45-1.13,1.08-1.46,1.9s-0.5,1.77-0.5,2.86v0.4c0,1.13,0.18,2.11,0.53,2.93    c0.36,0.82,0.87,1.44,1.53,1.88c0.67,0.44,1.46,0.66,2.39,0.66c0.45,0,0.9-0.05,1.34-0.16c0.44-0.11,0.83-0.24,1.16-0.42    l0.28-2.09h1.95v3.42c-0.57,0.38-1.28,0.68-2.11,0.91C578.58,190.68,577.69,190.8,576.73,190.8z"
   id="path407" />
		<path
   d="M588.37,190.8c-1.07,0-1.98-0.24-2.75-0.72s-1.35-1.14-1.76-1.99c-0.41-0.85-0.62-1.83-0.62-2.94v-0.22    c0-1.1,0.21-2.07,0.62-2.92s1-1.51,1.76-2s1.67-0.73,2.73-0.73c1.07,0,1.98,0.24,2.75,0.72c0.77,0.48,1.35,1.15,1.76,1.99    s0.62,1.83,0.62,2.93v0.22c0,1.11-0.21,2.09-0.62,2.94c-0.41,0.85-1,1.52-1.76,1.99S589.43,190.8,588.37,190.8z M588.37,188.81    c0.57,0,1.05-0.16,1.42-0.47s0.65-0.74,0.84-1.29s0.28-1.18,0.28-1.9v-0.22c0-0.71-0.09-1.34-0.28-1.89s-0.46-0.98-0.84-1.29    s-0.85-0.47-1.44-0.47c-0.57,0-1.04,0.16-1.42,0.47s-0.65,0.75-0.84,1.29s-0.27,1.18-0.27,1.89v0.22c0,0.72,0.09,1.35,0.27,1.9    s0.46,0.98,0.84,1.29C587.32,188.65,587.8,188.81,588.37,188.81z"
   id="path409" />
		<path
   d="M599.44,190.8c-0.9,0-1.66-0.23-2.3-0.68s-1.12-1.08-1.46-1.89c-0.34-0.81-0.51-1.75-0.51-2.83v-0.22    c0-1.18,0.17-2.21,0.51-3.1c0.34-0.88,0.83-1.57,1.47-2.06s1.4-0.74,2.28-0.74c0.64,0,1.19,0.12,1.67,0.36    c0.47,0.24,0.88,0.59,1.23,1.04v-4.2l-1.63-0.31v-1.59h1.63h2.58v14.11l1.54,0.31v1.58h-3.77l-0.21-1.34    c-0.35,0.51-0.77,0.9-1.28,1.16C600.68,190.66,600.1,190.8,599.44,190.8z M600.16,188.75c0.49,0,0.92-0.11,1.27-0.32    c0.36-0.21,0.65-0.53,0.88-0.94v-4.89c-0.23-0.4-0.52-0.71-0.88-0.94c-0.36-0.23-0.78-0.34-1.26-0.34c-0.56,0-1.02,0.16-1.38,0.49    c-0.36,0.33-0.62,0.78-0.79,1.35c-0.17,0.58-0.26,1.25-0.26,2.02v0.22c0,1.03,0.19,1.84,0.57,2.45    C598.7,188.45,599.32,188.75,600.16,188.75z"
   id="path411" />
		<path
   d="M612.73,190.8c-1.05,0-1.96-0.23-2.73-0.7c-0.78-0.47-1.38-1.12-1.8-1.94s-0.64-1.77-0.64-2.84v-0.43    c0-1.08,0.21-2.04,0.63-2.89c0.42-0.84,1-1.51,1.74-1.99c0.74-0.48,1.58-0.72,2.52-0.72c1,0,1.85,0.2,2.53,0.6    c0.68,0.4,1.19,0.98,1.54,1.72c0.35,0.74,0.52,1.63,0.52,2.67v1.48h-6.81l-0.02,0.05c0.03,0.58,0.15,1.1,0.36,1.55    c0.22,0.45,0.52,0.81,0.92,1.07c0.4,0.26,0.89,0.39,1.46,0.39c0.6,0,1.15-0.08,1.64-0.25s0.95-0.4,1.36-0.7l0.81,1.62    c-0.44,0.37-0.99,0.68-1.67,0.93S613.63,190.8,612.73,190.8z M610.26,183.94h4.3v-0.27c0-0.49-0.07-0.91-0.22-1.28    s-0.38-0.65-0.69-0.86c-0.31-0.21-0.71-0.31-1.18-0.31c-0.42,0-0.78,0.12-1.1,0.35s-0.57,0.55-0.75,0.95    c-0.19,0.4-0.32,0.85-0.38,1.36L610.26,183.94z"
   id="path413" />
		<path
   d="M623.8,190.8c-1.04,0-1.94-0.24-2.7-0.71s-1.35-1.13-1.76-1.97s-0.62-1.8-0.62-2.9v-0.36c0-1.07,0.21-2.03,0.62-2.87    s1-1.5,1.76-1.98c0.76-0.48,1.66-0.72,2.7-0.72c0.95,0,1.78,0.15,2.48,0.46c0.7,0.3,1.28,0.68,1.73,1.13l0.01,2.96h-1.97    l-0.38-1.96c-0.19-0.2-0.43-0.36-0.73-0.48c-0.29-0.12-0.62-0.18-0.96-0.18c-0.57,0-1.05,0.15-1.45,0.46    c-0.4,0.31-0.7,0.73-0.91,1.28c-0.21,0.54-0.31,1.18-0.31,1.9v0.36c0,0.78,0.11,1.44,0.32,1.97s0.51,0.94,0.89,1.21    c0.38,0.27,0.81,0.41,1.31,0.41c0.59,0,1.08-0.16,1.45-0.48s0.62-0.77,0.73-1.33h2.24l0.03,0.06c-0.08,0.72-0.3,1.37-0.64,1.93    c-0.35,0.56-0.83,1.01-1.46,1.33C625.54,190.63,624.75,190.8,623.8,190.8z"
   id="path415" />
		<path
   d="M634.35,190.8c-0.79,0-1.53-0.08-2.22-0.23c-0.69-0.15-1.38-0.38-2.07-0.68l-0.03-2.93h1.86l0.39,1.6    c0.29,0.13,0.6,0.23,0.91,0.3c0.31,0.07,0.66,0.11,1.04,0.11c0.74,0,1.26-0.13,1.56-0.39c0.3-0.26,0.46-0.58,0.46-0.96    c0-0.37-0.16-0.69-0.48-0.95c-0.32-0.26-0.92-0.49-1.82-0.68c-1.33-0.29-2.3-0.71-2.93-1.26c-0.62-0.55-0.94-1.27-0.94-2.15    c0-0.61,0.16-1.16,0.49-1.65s0.8-0.89,1.44-1.18c0.63-0.3,1.41-0.45,2.33-0.45c0.84,0,1.59,0.09,2.24,0.26    c0.65,0.17,1.21,0.41,1.67,0.69l0.06,2.82h-1.84l-0.32-1.47c-0.21-0.15-0.46-0.27-0.74-0.35s-0.6-0.12-0.96-0.12    c-0.57,0-1.02,0.12-1.34,0.37c-0.33,0.25-0.49,0.56-0.49,0.94c0,0.22,0.05,0.42,0.16,0.59c0.11,0.18,0.31,0.34,0.62,0.49    c0.3,0.15,0.75,0.29,1.34,0.43c1.44,0.33,2.47,0.77,3.1,1.31s0.93,1.25,0.93,2.14c0,0.99-0.36,1.8-1.09,2.44    S635.84,190.8,634.35,190.8z"
   id="path417" />
		<path
   d="M555.54,210.39v-5.1h6.13v5.1H555.54z"
   id="path419" />
		<path
   d="M569.83,215.78v-1.58l1.62-0.31v-11.15l-1.62-0.31v-1.59h1.62h3.7l4.38,10.8h0.06l4.25-10.8h5.38v1.59l-1.63,0.31v11.15    l1.63,0.31v1.58h-5.83v-1.58l1.71-0.31v-3.48l0.02-6.53l-0.05-0.01l-4.62,11.57h-1.88l-4.76-11.5l-0.05,0.01l0.13,6.3v3.65    l1.77,0.31v1.58H569.83z"
   id="path421" />
		<path
   d="M595.82,216c-1.05,0-1.96-0.23-2.73-0.7c-0.78-0.47-1.38-1.12-1.8-1.94s-0.64-1.77-0.64-2.84v-0.43    c0-1.08,0.21-2.04,0.63-2.89c0.42-0.84,1-1.51,1.74-1.99c0.74-0.48,1.58-0.72,2.52-0.72c1,0,1.85,0.2,2.53,0.6    c0.68,0.4,1.19,0.98,1.54,1.72c0.35,0.74,0.52,1.63,0.52,2.67v1.48h-6.81l-0.02,0.05c0.03,0.58,0.15,1.1,0.36,1.55    c0.22,0.45,0.52,0.81,0.92,1.07c0.4,0.26,0.89,0.39,1.46,0.39c0.6,0,1.15-0.08,1.64-0.25s0.95-0.4,1.36-0.7l0.81,1.62    c-0.44,0.37-0.99,0.68-1.67,0.93S596.72,216,595.82,216z M593.36,209.14h4.3v-0.27c0-0.49-0.07-0.91-0.22-1.28    s-0.38-0.65-0.69-0.86c-0.31-0.21-0.71-0.31-1.18-0.31c-0.42,0-0.78,0.12-1.1,0.35s-0.57,0.55-0.75,0.95    c-0.19,0.4-0.32,0.85-0.38,1.36L593.36,209.14z"
   id="path423" />
		<path
   d="M605.76,215.97c-0.94,0-1.68-0.26-2.2-0.79s-0.79-1.38-0.79-2.54v-6.11h-1.62v-1.85h1.62v-2.7h2.57v2.7h2.19v1.85h-2.19    v6.11c0,0.47,0.1,0.82,0.29,1.03c0.2,0.22,0.46,0.32,0.79,0.32c0.19,0,0.41-0.02,0.64-0.05c0.24-0.03,0.43-0.07,0.57-0.1    l0.27,1.81c-0.3,0.09-0.64,0.16-1.03,0.23C606.49,215.94,606.12,215.97,605.76,215.97z"
   id="path425" />
		<path
   d="M612.77,216c-1.13,0-2.01-0.29-2.64-0.87s-0.94-1.38-0.94-2.4c0-0.7,0.19-1.31,0.57-1.84s0.94-0.94,1.68-1.24    c0.74-0.3,1.63-0.45,2.69-0.45h1.69v-0.93c0-0.59-0.18-1.06-0.53-1.4c-0.35-0.35-0.86-0.52-1.53-0.52c-0.38,0-0.72,0.05-1.02,0.14    c-0.29,0.09-0.56,0.22-0.79,0.39l-0.24,1.5h-1.9l-0.02-2.74c0.55-0.36,1.16-0.64,1.83-0.85c0.67-0.21,1.42-0.31,2.24-0.31    c1.41,0,2.52,0.33,3.33,0.99c0.81,0.66,1.22,1.6,1.22,2.84v4.89c0,0.15,0,0.3,0.01,0.44c0,0.14,0.01,0.28,0.03,0.42l1.13,0.14    v1.58h-3.37c-0.07-0.24-0.13-0.47-0.19-0.7s-0.1-0.45-0.13-0.68c-0.37,0.46-0.82,0.85-1.34,1.14    C614.01,215.85,613.42,216,612.77,216z M613.35,214c0.52,0,1-0.12,1.46-0.36c0.45-0.24,0.79-0.55,1.02-0.92v-1.86h-1.72    c-0.77,0-1.36,0.18-1.75,0.54c-0.39,0.36-0.59,0.78-0.59,1.26c0,0.43,0.14,0.76,0.41,0.99S612.84,214,613.35,214z"
   id="path427" />
		<path
   d="M625.14,216c-0.9,0-1.66-0.23-2.3-0.68s-1.12-1.08-1.46-1.89c-0.34-0.81-0.51-1.75-0.51-2.83v-0.22    c0-1.18,0.17-2.21,0.51-3.1c0.34-0.88,0.83-1.57,1.47-2.06s1.4-0.74,2.28-0.74c0.64,0,1.19,0.12,1.67,0.36    c0.47,0.24,0.88,0.59,1.23,1.04v-4.2l-1.63-0.31v-1.59h1.63h2.58v14.11l1.54,0.31v1.58h-3.77l-0.21-1.34    c-0.35,0.51-0.77,0.9-1.28,1.16C626.39,215.86,625.81,216,625.14,216z M625.87,213.95c0.49,0,0.92-0.11,1.27-0.32    c0.36-0.21,0.65-0.53,0.88-0.94v-4.89c-0.23-0.4-0.52-0.71-0.88-0.94c-0.36-0.23-0.78-0.34-1.26-0.34c-0.56,0-1.02,0.16-1.38,0.49    c-0.36,0.33-0.62,0.78-0.79,1.35c-0.17,0.58-0.26,1.25-0.26,2.02v0.22c0,1.03,0.19,1.84,0.57,2.45    C624.41,213.65,625.02,213.95,625.87,213.95z"
   id="path429" />
		<path
   d="M636.94,216c-1.13,0-2.01-0.29-2.64-0.87s-0.94-1.38-0.94-2.4c0-0.7,0.19-1.31,0.57-1.84s0.94-0.94,1.68-1.24    c0.74-0.3,1.63-0.45,2.69-0.45H640v-0.93c0-0.59-0.18-1.06-0.53-1.4c-0.35-0.35-0.86-0.52-1.53-0.52c-0.38,0-0.72,0.05-1.02,0.14    c-0.29,0.09-0.56,0.22-0.79,0.39l-0.24,1.5H634l-0.02-2.74c0.55-0.36,1.16-0.64,1.83-0.85c0.67-0.21,1.42-0.31,2.24-0.31    c1.41,0,2.52,0.33,3.33,0.99c0.81,0.66,1.22,1.6,1.22,2.84v4.89c0,0.15,0,0.3,0.01,0.44c0,0.14,0.01,0.28,0.03,0.42l1.13,0.14    v1.58h-3.37c-0.07-0.24-0.13-0.47-0.19-0.7s-0.1-0.45-0.13-0.68c-0.37,0.46-0.82,0.85-1.34,1.14    C638.19,215.85,637.6,216,636.94,216z M637.53,214c0.52,0,1-0.12,1.46-0.36c0.45-0.24,0.79-0.55,1.02-0.92v-1.86h-1.72    c-0.77,0-1.36,0.18-1.75,0.54c-0.39,0.36-0.59,0.78-0.59,1.26c0,0.43,0.14,0.76,0.41,0.99S637.02,214,637.53,214z"
   id="path431" />
		<path
   d="M649.19,215.97c-0.94,0-1.68-0.26-2.2-0.79s-0.79-1.38-0.79-2.54v-6.11h-1.62v-1.85h1.62v-2.7h2.57v2.7h2.19v1.85h-2.19    v6.11c0,0.47,0.1,0.82,0.29,1.03c0.2,0.22,0.46,0.32,0.79,0.32c0.19,0,0.41-0.02,0.64-0.05c0.24-0.03,0.43-0.07,0.57-0.1    l0.27,1.81c-0.3,0.09-0.64,0.16-1.03,0.23C649.91,215.94,649.54,215.97,649.19,215.97z"
   id="path433" />
		<path
   d="M656.19,216c-1.13,0-2.01-0.29-2.64-0.87s-0.94-1.38-0.94-2.4c0-0.7,0.19-1.31,0.57-1.84s0.94-0.94,1.68-1.24    c0.74-0.3,1.63-0.45,2.69-0.45h1.69v-0.93c0-0.59-0.18-1.06-0.53-1.4c-0.35-0.35-0.86-0.52-1.53-0.52c-0.38,0-0.72,0.05-1.02,0.14    c-0.29,0.09-0.56,0.22-0.79,0.39l-0.24,1.5h-1.9l-0.02-2.74c0.55-0.36,1.16-0.64,1.83-0.85c0.67-0.21,1.42-0.31,2.24-0.31    c1.41,0,2.52,0.33,3.33,0.99c0.81,0.66,1.22,1.6,1.22,2.84v4.89c0,0.15,0,0.3,0.01,0.44c0,0.14,0.01,0.28,0.03,0.42l1.13,0.14    v1.58h-3.37c-0.07-0.24-0.13-0.47-0.19-0.7s-0.1-0.45-0.13-0.68c-0.37,0.46-0.82,0.85-1.34,1.14    C657.44,215.85,656.85,216,656.19,216z M656.78,214c0.52,0,1-0.12,1.46-0.36c0.45-0.24,0.79-0.55,1.02-0.92v-1.86h-1.72    c-0.77,0-1.36,0.18-1.75,0.54c-0.39,0.36-0.59,0.78-0.59,1.26c0,0.43,0.14,0.76,0.41,0.99S656.26,214,656.78,214z"
   id="path435" />
	</g>
	<g
   id="g447">
		<path
   d="M740.6,126.38v-2.4l1.79-0.43v-11.37l-1.79-0.45v-2.41h1.79h6.2c1.54,0,2.9,0.36,4.09,1.07s2.12,1.7,2.79,2.96    s1.01,2.72,1.01,4.37v0.27c0,1.65-0.34,3.1-1.01,4.37s-1.6,2.25-2.79,2.96s-2.55,1.07-4.09,1.07H740.6z M746.51,123.26h1.88    c0.87,0,1.59-0.22,2.18-0.66s1.03-1.05,1.33-1.85s0.45-1.72,0.45-2.77v-0.28c0-1.05-0.15-1.98-0.45-2.77s-0.74-1.4-1.33-1.84    s-1.31-0.66-2.18-0.66h-1.88V123.26z"
   id="path439" />
		<path
   d="M762.35,126.63c-1.23,0-2.23-0.35-3-1.04s-1.16-1.62-1.16-2.78c0-0.79,0.21-1.49,0.64-2.1s1.07-1.09,1.92-1.44    s1.93-0.52,3.22-0.52h1.32V118c0-0.51-0.14-0.94-0.43-1.29s-0.75-0.53-1.37-0.53c-0.27,0-0.51,0.03-0.74,0.1s-0.44,0.16-0.63,0.29    l-0.28,1.62h-2.89l-0.06-3.53c0.72-0.32,1.47-0.6,2.26-0.83s1.66-0.35,2.63-0.35c1.73,0,3.1,0.4,4.11,1.19s1.52,1.92,1.52,3.39    v4.68c0,0.18,0,0.36,0.01,0.53s0.02,0.34,0.05,0.49l1.37,0.23v2.4h-4.8c-0.1-0.14-0.21-0.33-0.33-0.56s-0.2-0.47-0.25-0.7    c-0.38,0.48-0.81,0.85-1.29,1.11S763.09,126.63,762.35,126.63z M763.62,123.72c0.3,0,0.6-0.06,0.9-0.18s0.56-0.3,0.78-0.54v-1.83    h-1.28c-0.55,0-0.98,0.12-1.28,0.36s-0.45,0.56-0.45,0.96c0,0.38,0.12,0.68,0.38,0.9S763.23,123.72,763.62,123.72z"
   id="path441" />
		<path
   d="M776.99,126.65c-1.33,0-2.34-0.35-3.03-1.06s-1.04-1.83-1.04-3.36v-5.7h-1.58v-2.84h1.58v-3.13h4.09v3.13h2.07v2.84h-2.07    v5.68c0,0.41,0.09,0.7,0.28,0.87s0.45,0.25,0.77,0.25c0.14,0,0.28-0.01,0.42-0.02s0.28-0.04,0.42-0.06l0.28,3.07    c-0.36,0.1-0.72,0.18-1.08,0.24S777.37,126.65,776.99,126.65z"
   id="path443" />
		<path
   d="M784.68,126.63c-1.23,0-2.23-0.35-3-1.04s-1.16-1.62-1.16-2.78c0-0.79,0.21-1.49,0.64-2.1s1.07-1.09,1.92-1.44    s1.93-0.52,3.22-0.52h1.32V118c0-0.51-0.14-0.94-0.43-1.29s-0.75-0.53-1.37-0.53c-0.27,0-0.51,0.03-0.74,0.1s-0.44,0.16-0.63,0.29    l-0.28,1.62h-2.89l-0.06-3.53c0.72-0.32,1.47-0.6,2.26-0.83s1.66-0.35,2.63-0.35c1.73,0,3.1,0.4,4.11,1.19s1.52,1.92,1.52,3.39    v4.68c0,0.18,0,0.36,0.01,0.53s0.02,0.34,0.05,0.49l1.37,0.23v2.4h-4.8c-0.1-0.14-0.21-0.33-0.33-0.56s-0.2-0.47-0.25-0.7    c-0.38,0.48-0.81,0.85-1.29,1.11S785.41,126.63,784.68,126.63z M785.94,123.72c0.3,0,0.6-0.06,0.9-0.18s0.56-0.3,0.78-0.54v-1.83    h-1.28c-0.55,0-0.98,0.12-1.28,0.36s-0.45,0.56-0.45,0.96c0,0.38,0.12,0.68,0.38,0.9S785.55,123.72,785.94,123.72z"
   id="path445" />
	</g>
	<g
   id="g467">
		<polygon
   class="st14"
   points="698.52,378.43 858.26,463.75 858.26,464.03 858.38,463.89 858.41,463.98 858.41,463.8     1018.16,378.48 974,394.78 974,301 742.69,301 742.69,394.73   "
   id="polygon449" />
		<g
   id="g465">
			<path
   d="M810.47,403.29v-2.4l1.79-0.43v-11.37l-1.79-0.45v-2.41h1.79h6.2c1.54,0,2.9,0.36,4.09,1.07s2.12,1.7,2.79,2.96     s1.01,2.72,1.01,4.37v0.27c0,1.65-0.34,3.1-1.01,4.37s-1.6,2.25-2.79,2.96s-2.55,1.07-4.09,1.07H810.47z M816.38,400.17h1.88     c0.87,0,1.59-0.22,2.18-0.66s1.03-1.05,1.33-1.85s0.45-1.72,0.45-2.77v-0.28c0-1.05-0.15-1.98-0.45-2.77s-0.74-1.4-1.33-1.84     s-1.31-0.66-2.18-0.66h-1.88V400.17z"
   id="path451" />
			<path
   d="M834.14,403.54c-1.24,0-2.33-0.27-3.25-0.8s-1.64-1.27-2.16-2.2s-0.77-1.98-0.77-3.15v-0.43c0-1.29,0.23-2.43,0.68-3.42     s1.12-1.77,1.99-2.33s1.95-0.83,3.22-0.83c1.15,0,2.12,0.22,2.91,0.66s1.4,1.09,1.81,1.95s0.62,1.91,0.62,3.16v2.12h-6.97     l-0.01,0.08c0.06,0.4,0.2,0.75,0.4,1.06s0.49,0.55,0.86,0.73s0.82,0.27,1.36,0.27c0.53,0,1.05-0.06,1.56-0.18     s1.05-0.31,1.62-0.58l0.94,2.48c-0.57,0.41-1.27,0.74-2.09,1.01S835.15,403.54,834.14,403.54z M832.23,395.72h3.22v-0.3     c0-0.45-0.04-0.83-0.13-1.14s-0.24-0.54-0.46-0.69s-0.52-0.23-0.9-0.23c-0.41,0-0.74,0.1-0.99,0.3s-0.43,0.47-0.54,0.82     s-0.19,0.74-0.24,1.19L832.23,395.72z"
   id="path453" />
			<path
   d="M846.47,403.54c-1.26,0-2.34-0.28-3.25-0.83s-1.6-1.32-2.09-2.29s-0.73-2.07-0.73-3.32v-0.27c0-1.27,0.25-2.39,0.76-3.36     s1.21-1.73,2.11-2.27s1.96-0.82,3.16-0.82c1.21,0,2.25,0.18,3.11,0.55s1.54,0.75,2.04,1.15l-0.07,4h-3.06l-0.49-2.3     c-0.13-0.13-0.31-0.24-0.53-0.33s-0.41-0.13-0.56-0.13c-0.59,0-1.05,0.13-1.39,0.38s-0.59,0.64-0.74,1.15s-0.22,1.18-0.22,1.98     v0.27c0,0.84,0.1,1.49,0.3,1.97s0.45,0.82,0.76,1.03s0.62,0.3,0.94,0.3c0.49,0,0.87-0.12,1.14-0.37s0.48-0.61,0.63-1.08h3.45     l0.05,0.07c-0.19,1.01-0.48,1.85-0.88,2.51s-0.95,1.17-1.66,1.5S847.61,403.54,846.47,403.54z"
   id="path455" />
			<path
   d="M859.22,403.54c-1.3,0-2.42-0.27-3.35-0.81s-1.63-1.3-2.12-2.27s-0.73-2.1-0.73-3.38v-0.23c0-1.27,0.24-2.38,0.73-3.35     s1.19-1.73,2.12-2.28s2.03-0.83,3.33-0.83c1.3,0,2.42,0.27,3.33,0.82s1.62,1.3,2.11,2.27s0.73,2.09,0.73,3.36v0.23     c0,1.27-0.24,2.4-0.73,3.37s-1.19,1.73-2.11,2.28S860.51,403.54,859.22,403.54z M859.22,400.41c0.5,0,0.9-0.13,1.2-0.4     s0.52-0.65,0.66-1.15s0.21-1.09,0.21-1.78v-0.23c0-0.66-0.07-1.24-0.21-1.74s-0.36-0.88-0.66-1.16s-0.71-0.42-1.22-0.42     c-0.5,0-0.9,0.14-1.21,0.42s-0.52,0.66-0.66,1.16s-0.2,1.08-0.2,1.74v0.23c0,0.7,0.07,1.29,0.2,1.79s0.35,0.88,0.66,1.15     S858.7,400.41,859.22,400.41z"
   id="path457" />
			<path
   d="M871.49,403.54c-0.99,0-1.85-0.26-2.56-0.79s-1.26-1.26-1.64-2.21s-0.57-2.06-0.57-3.32v-0.25     c0-1.32,0.19-2.47,0.57-3.46s0.93-1.76,1.63-2.31s1.54-0.83,2.51-0.83c0.67,0,1.25,0.14,1.74,0.42s0.92,0.67,1.28,1.17v-4.16     l-1.78-0.38v-2.41h1.78h4.11v15.5l1.48,0.38v2.4h-5.04l-0.3-1.57c-0.38,0.59-0.84,1.04-1.36,1.35S872.21,403.54,871.49,403.54z      M872.77,400.38c0.34,0,0.66-0.07,0.96-0.2s0.54-0.33,0.74-0.6v-5.07c-0.2-0.32-0.44-0.56-0.72-0.73s-0.6-0.25-0.96-0.25     c-0.47,0-0.85,0.14-1.14,0.43s-0.5,0.69-0.63,1.21s-0.19,1.12-0.19,1.8v0.25c0,1.01,0.14,1.79,0.42,2.34     S872.04,400.38,872.77,400.38z"
   id="path459" />
			<path
   d="M887.03,403.54c-1.24,0-2.33-0.27-3.25-0.8s-1.64-1.27-2.16-2.2s-0.77-1.98-0.77-3.15v-0.43c0-1.29,0.23-2.43,0.68-3.42     s1.12-1.77,1.99-2.33s1.95-0.83,3.22-0.83c1.15,0,2.12,0.22,2.91,0.66s1.4,1.09,1.81,1.95s0.62,1.91,0.62,3.16v2.12h-6.97     l-0.01,0.08c0.06,0.4,0.2,0.75,0.4,1.06s0.49,0.55,0.86,0.73s0.82,0.27,1.36,0.27c0.53,0,1.05-0.06,1.56-0.18     s1.05-0.31,1.62-0.58l0.94,2.48c-0.57,0.41-1.27,0.74-2.09,1.01S888.04,403.54,887.03,403.54z M885.12,395.72h3.22v-0.3     c0-0.45-0.04-0.83-0.13-1.14s-0.24-0.54-0.46-0.69s-0.52-0.23-0.9-0.23c-0.41,0-0.74,0.1-0.99,0.3s-0.43,0.47-0.54,0.82     s-0.19,0.74-0.24,1.19L885.12,395.72z"
   id="path461" />
			<path
   d="M893.98,403.29v-2.4l1.48-0.38v-7.11l-1.76-0.38v-2.41h5.64l0.09,1.55l0.02,0.32c0.28-0.72,0.63-1.25,1.05-1.59     s0.94-0.51,1.56-0.51c0.17,0,0.38,0.01,0.61,0.04s0.47,0.08,0.71,0.15l-0.41,3.77l-1.76-0.08c-0.41-0.02-0.72,0.03-0.96,0.13     s-0.46,0.28-0.7,0.52v5.6l1.48,0.38v2.4H893.98z"
   id="path463" />
		</g>
	</g>
	<g
   id="g491">
		<rect
   x="743.13"
   y="143.09"
   class="st15"
   width="230"
   height="158"
   id="rect469" />
		<line
   class="st15"
   x1="743.13"
   y1="274.76"
   x2="973.13"
   y2="274.76"
   id="line471" />
		<line
   class="st15"
   x1="743.13"
   y1="248.42"
   x2="973.13"
   y2="248.42"
   id="line473" />
		<line
   class="st15"
   x1="743.13"
   y1="222.09"
   x2="973.13"
   y2="222.09"
   id="line475" />
		<line
   class="st15"
   x1="743.13"
   y1="195.76"
   x2="973.13"
   y2="195.76"
   id="line477" />
		<line
   class="st15"
   x1="743.13"
   y1="169.42"
   x2="973.13"
   y2="169.42"
   id="line479" />
		<line
   class="st15"
   x1="934.8"
   y1="143.09"
   x2="934.8"
   y2="301.09"
   id="line481" />
		<line
   class="st15"
   x1="896.47"
   y1="143.09"
   x2="896.47"
   y2="301.09"
   id="line483" />
		<line
   class="st15"
   x1="858.13"
   y1="143.09"
   x2="858.13"
   y2="301.09"
   id="line485" />
		<line
   class="st15"
   x1="819.8"
   y1="143.09"
   x2="819.8"
   y2="301.09"
   id="line487" />
		<line
   class="st15"
   x1="781.47"
   y1="143.09"
   x2="781.47"
   y2="301.09"
   id="line489" />
	</g>
</g>
<g
   id="g509">
	<g
   id="g507">
		<path
   class="st16"
   d="M21.47,35.29v-2.4l1.77-0.38v-11.5l-1.77-0.38v-2.43h8.39c1.35,0,2.52,0.21,3.52,0.64s1.76,1.04,2.3,1.83    s0.81,1.73,0.81,2.82c0,1-0.27,1.93-0.81,2.79s-1.29,1.55-2.23,2.07s-2.02,0.78-3.23,0.77l-2.85-0.04v3.41l1.77,0.38v2.4H21.47z     M27.35,25.95h2.55c0.8,0,1.41-0.19,1.84-0.56s0.64-0.91,0.64-1.61c0-0.73-0.22-1.31-0.66-1.75s-1.06-0.66-1.88-0.66h-2.51V25.95z     M32.27,35.29l-2.3-6.66l3.57-1.22l2.07,5.07l1.62,0.41v2.39H32.27z"
   id="path495" />
		<path
   class="st16"
   d="M44.58,35.54c-1.24,0-2.33-0.27-3.25-0.8s-1.64-1.27-2.16-2.2s-0.77-1.98-0.77-3.15v-0.43    c0-1.29,0.23-2.43,0.68-3.42s1.12-1.77,1.99-2.33s1.95-0.83,3.22-0.83c1.15,0,2.12,0.22,2.91,0.66s1.4,1.09,1.81,1.95    s0.62,1.91,0.62,3.16v2.12h-6.97l-0.01,0.08c0.06,0.4,0.2,0.75,0.4,1.06s0.49,0.55,0.86,0.73s0.82,0.27,1.36,0.27    c0.53,0,1.05-0.06,1.56-0.18s1.05-0.31,1.62-0.58l0.94,2.48c-0.57,0.41-1.27,0.74-2.09,1.01S45.59,35.54,44.58,35.54z     M42.67,27.72h3.22v-0.3c0-0.45-0.04-0.83-0.13-1.14s-0.24-0.54-0.46-0.69s-0.52-0.23-0.9-0.23c-0.41,0-0.74,0.1-0.99,0.3    s-0.43,0.47-0.54,0.82s-0.19,0.74-0.24,1.19L42.67,27.72z"
   id="path497" />
		<path
   class="st16"
   d="M55.32,35.54c-1.23,0-2.23-0.35-3-1.04s-1.16-1.62-1.16-2.78c0-0.79,0.21-1.49,0.64-2.1s1.07-1.09,1.92-1.44    s1.93-0.52,3.22-0.52h1.32v-0.75c0-0.51-0.14-0.94-0.43-1.29s-0.75-0.53-1.37-0.53c-0.27,0-0.51,0.03-0.74,0.1    s-0.44,0.16-0.63,0.29l-0.28,1.62h-2.89l-0.06-3.53c0.72-0.32,1.47-0.6,2.26-0.83s1.66-0.35,2.63-0.35c1.73,0,3.1,0.4,4.11,1.19    s1.52,1.92,1.52,3.39v4.68c0,0.18,0,0.36,0.01,0.53s0.02,0.34,0.05,0.49l1.37,0.23v2.4H59c-0.1-0.14-0.21-0.33-0.33-0.56    s-0.2-0.47-0.25-0.7c-0.38,0.48-0.81,0.85-1.29,1.11S56.06,35.54,55.32,35.54z M56.59,32.63c0.3,0,0.6-0.06,0.9-0.18    s0.56-0.3,0.78-0.54v-1.83h-1.28c-0.55,0-0.98,0.12-1.28,0.36S55.25,31,55.25,31.4c0,0.38,0.12,0.68,0.38,0.9    S56.2,32.63,56.59,32.63z"
   id="path499" />
		<path
   class="st16"
   d="M69.48,35.54c-0.99,0-1.85-0.26-2.56-0.79s-1.26-1.26-1.64-2.21s-0.57-2.06-0.57-3.32v-0.25    c0-1.32,0.19-2.47,0.57-3.46s0.93-1.76,1.63-2.31s1.54-0.83,2.51-0.83c0.67,0,1.25,0.14,1.74,0.42s0.92,0.67,1.28,1.17V19.8    l-1.78-0.38v-2.41h1.78h4.11v15.5l1.48,0.38v2.4h-5.04l-0.3-1.57c-0.38,0.59-0.84,1.04-1.36,1.35S70.2,35.54,69.48,35.54z     M70.76,32.38c0.34,0,0.66-0.07,0.96-0.2s0.54-0.33,0.74-0.6v-5.07c-0.2-0.32-0.44-0.56-0.72-0.73s-0.6-0.25-0.96-0.25    c-0.47,0-0.85,0.14-1.14,0.43s-0.5,0.69-0.63,1.21s-0.19,1.12-0.19,1.8v0.25c0,1.01,0.14,1.79,0.42,2.34S70.03,32.38,70.76,32.38z    "
   id="path501" />
		<path
   class="st16"
   d="M85.02,35.54c-1.24,0-2.33-0.27-3.25-0.8s-1.64-1.27-2.16-2.2s-0.77-1.98-0.77-3.15v-0.43    c0-1.29,0.23-2.43,0.68-3.42s1.12-1.77,1.99-2.33s1.95-0.83,3.22-0.83c1.15,0,2.12,0.22,2.91,0.66s1.4,1.09,1.81,1.95    s0.62,1.91,0.62,3.16v2.12h-6.97l-0.01,0.08c0.06,0.4,0.2,0.75,0.4,1.06s0.49,0.55,0.86,0.73s0.82,0.27,1.36,0.27    c0.53,0,1.05-0.06,1.56-0.18s1.05-0.31,1.62-0.58l0.94,2.48c-0.57,0.41-1.27,0.74-2.09,1.01S86.03,35.54,85.02,35.54z     M83.11,27.72h3.22v-0.3c0-0.45-0.04-0.83-0.13-1.14s-0.24-0.54-0.46-0.69s-0.52-0.23-0.9-0.23c-0.41,0-0.74,0.1-0.99,0.3    s-0.43,0.47-0.54,0.82s-0.19,0.74-0.24,1.19L83.11,27.72z"
   id="path503" />
		<path
   class="st16"
   d="M91.97,35.29v-2.4l1.48-0.38V25.4l-1.76-0.38v-2.41h5.64l0.09,1.55l0.02,0.32c0.28-0.72,0.63-1.25,1.05-1.59    s0.94-0.51,1.56-0.51c0.17,0,0.38,0.01,0.61,0.04s0.47,0.08,0.71,0.15l-0.41,3.77l-1.76-0.08c-0.41-0.02-0.72,0.03-0.96,0.13    s-0.46,0.28-0.7,0.52v5.6l1.48,0.38v2.4H91.97z"
   id="path505" />
	</g>
</g>
</svg>
